G04 #@! TF.GenerationSoftware,KiCad,Pcbnew,5.1.8-db9833491~87~ubuntu20.04.1*
G04 #@! TF.CreationDate,2020-11-18T16:34:53+01:00*
G04 #@! TF.ProjectId,krieger,6b726965-6765-4722-9e6b-696361645f70,v1.0*
G04 #@! TF.SameCoordinates,Original*
G04 #@! TF.FileFunction,Soldermask,Bot*
G04 #@! TF.FilePolarity,Negative*
%FSLAX46Y46*%
G04 Gerber Fmt 4.6, Leading zero omitted, Abs format (unit mm)*
G04 Created by KiCad (PCBNEW 5.1.8-db9833491~87~ubuntu20.04.1) date 2020-11-18 16:34:53*
%MOMM*%
%LPD*%
G01*
G04 APERTURE LIST*
%ADD10C,1.700000*%
%ADD11O,1.600000X1.000000*%
%ADD12C,0.650000*%
%ADD13O,2.100000X1.000000*%
%ADD14O,1.800000X1.070000*%
%ADD15R,1.800000X1.070000*%
G04 APERTURE END LIST*
D10*
X155320000Y-93180000D03*
X155320000Y-95720000D03*
X155320000Y-98260000D03*
X155320000Y-100800000D03*
X155320000Y-103340000D03*
X155320000Y-105880000D03*
X155320000Y-108420000D03*
X155320000Y-110960000D03*
X155320000Y-113500000D03*
X155320000Y-116040000D03*
X155320000Y-118580000D03*
X155320000Y-121120000D03*
X155320000Y-123660000D03*
X155320000Y-126200000D03*
X155320000Y-128740000D03*
X155320000Y-131280000D03*
X162940000Y-110960000D03*
X165480000Y-110960000D03*
X168020000Y-110960000D03*
X170560000Y-110960000D03*
X173100000Y-110960000D03*
X175640000Y-110960000D03*
X178180000Y-110960000D03*
X180720000Y-110960000D03*
X183260000Y-110960000D03*
X185800000Y-110960000D03*
X188340000Y-110960000D03*
X190880000Y-113500000D03*
X185800000Y-128740000D03*
X155320000Y-133820000D03*
X162940000Y-131280000D03*
X162940000Y-133820000D03*
X162940000Y-98260000D03*
X162940000Y-100800000D03*
X162940000Y-103340000D03*
X162940000Y-105880000D03*
X162940000Y-108420000D03*
X165480000Y-108420000D03*
X165480000Y-105880000D03*
X165480000Y-103340000D03*
X165480000Y-100800000D03*
X165480000Y-98260000D03*
X165480000Y-133820000D03*
X165480000Y-131280000D03*
X168020000Y-131280000D03*
X168020000Y-133820000D03*
X168020000Y-98260000D03*
X168020000Y-103340000D03*
X168020000Y-100800000D03*
X168020000Y-105880000D03*
X168020000Y-108420000D03*
X170560000Y-108420000D03*
X170560000Y-105880000D03*
X170560000Y-103340000D03*
X170560000Y-100800000D03*
X170560000Y-98260000D03*
X170560000Y-133820000D03*
X170560000Y-131280000D03*
X173100000Y-131280000D03*
X173100000Y-133820000D03*
X173100000Y-98260000D03*
X173100000Y-100800000D03*
X173100000Y-103340000D03*
X173100000Y-105880000D03*
X173100000Y-108420000D03*
X175640000Y-105880000D03*
X175640000Y-103340000D03*
X175640000Y-100800000D03*
X175640000Y-98260000D03*
X175640000Y-133820000D03*
X175640000Y-131280000D03*
X178180000Y-131280000D03*
X178180000Y-133820000D03*
X178180000Y-98260000D03*
X178180000Y-100800000D03*
X178180000Y-103340000D03*
X178180000Y-105880000D03*
X178180000Y-108420000D03*
X175640000Y-108420000D03*
X180720000Y-108420000D03*
X180720000Y-105880000D03*
X180720000Y-103340000D03*
X180720000Y-100800000D03*
X180720000Y-98260000D03*
X180720000Y-133820000D03*
X180720000Y-131280000D03*
X183260000Y-131280000D03*
X183260000Y-133820000D03*
X183260000Y-98260000D03*
X183260000Y-100800000D03*
X183260000Y-103340000D03*
X183260000Y-105880000D03*
X183260000Y-108420000D03*
X185800000Y-108420000D03*
X185800000Y-105880000D03*
X185800000Y-103340000D03*
X185800000Y-100800000D03*
X188340000Y-100800000D03*
X188340000Y-103340000D03*
X188340000Y-105880000D03*
X188340000Y-108420000D03*
X190880000Y-110960000D03*
X190880000Y-108420000D03*
X190880000Y-105880000D03*
X190880000Y-103340000D03*
X190880000Y-100800000D03*
X190880000Y-126200000D03*
X188340000Y-123660000D03*
X185800000Y-123660000D03*
X185800000Y-126200000D03*
X162940000Y-113500000D03*
X165480000Y-113500000D03*
X168020000Y-113500000D03*
X170560000Y-113500000D03*
X173100000Y-113500000D03*
X175640000Y-113500000D03*
X178180000Y-113500000D03*
X180720000Y-113500000D03*
X183260000Y-113500000D03*
X185800000Y-113500000D03*
X188340000Y-113500000D03*
X190880000Y-116040000D03*
X190880000Y-118580000D03*
X190880000Y-121120000D03*
X190880000Y-123660000D03*
X188340000Y-121120000D03*
X185800000Y-121120000D03*
X183260000Y-121120000D03*
X183260000Y-123660000D03*
X183260000Y-126200000D03*
X183260000Y-128740000D03*
X162940000Y-116040000D03*
X165480000Y-116040000D03*
X168020000Y-116040000D03*
X170560000Y-116040000D03*
X173100000Y-116040000D03*
X175640000Y-116040000D03*
X178180000Y-116040000D03*
X180720000Y-116040000D03*
X183260000Y-116040000D03*
X185800000Y-116040000D03*
X188340000Y-116040000D03*
X188340000Y-118580000D03*
X185800000Y-118580000D03*
X183260000Y-118580000D03*
X180720000Y-118580000D03*
X180720000Y-121120000D03*
X180720000Y-123660000D03*
X180720000Y-126200000D03*
X180720000Y-128740000D03*
X178180000Y-128740000D03*
X175640000Y-128740000D03*
X173100000Y-128740000D03*
X170560000Y-128740000D03*
X168020000Y-128740000D03*
X162940000Y-128740000D03*
X165480000Y-128740000D03*
X162940000Y-121120000D03*
X162940000Y-118580000D03*
X165480000Y-118580000D03*
X168020000Y-118580000D03*
X170560000Y-118580000D03*
X173100000Y-118580000D03*
X175640000Y-118580000D03*
X178180000Y-118580000D03*
X178180000Y-121120000D03*
X178180000Y-123660000D03*
X178180000Y-126200000D03*
X175640000Y-126200000D03*
X173100000Y-126200000D03*
X170560000Y-126200000D03*
X168020000Y-126200000D03*
X165480000Y-126200000D03*
X162940000Y-126200000D03*
X162940000Y-123660000D03*
X165480000Y-123660000D03*
X165480000Y-121120000D03*
X168020000Y-121120000D03*
X170560000Y-121120000D03*
X175640000Y-121120000D03*
X175640000Y-123660000D03*
X173100000Y-123660000D03*
X170560000Y-123660000D03*
X168020000Y-123660000D03*
X173100000Y-121120000D03*
X190880000Y-98260000D03*
X188340000Y-98260000D03*
X185800000Y-98260000D03*
X190880000Y-128740000D03*
X188340000Y-128740000D03*
X188340000Y-126200000D03*
X185800000Y-131280000D03*
X185800000Y-133820000D03*
X160400000Y-116040000D03*
X160400000Y-113500000D03*
X160400000Y-118580000D03*
X160400000Y-126200000D03*
X160400000Y-123660000D03*
X160400000Y-121120000D03*
X160400000Y-128740000D03*
X160400000Y-98260000D03*
X160400000Y-100800000D03*
X160400000Y-103340000D03*
X160400000Y-131280000D03*
X160400000Y-110960000D03*
X160400000Y-105880000D03*
X160400000Y-108420000D03*
X160400000Y-133820000D03*
X157860000Y-110960000D03*
X157860000Y-108420000D03*
X157860000Y-116040000D03*
X157860000Y-113500000D03*
X157860000Y-103340000D03*
X157860000Y-105880000D03*
X157860000Y-100800000D03*
X157860000Y-98260000D03*
X157860000Y-123660000D03*
X157860000Y-121120000D03*
X157860000Y-118580000D03*
X157860000Y-128740000D03*
X157860000Y-126200000D03*
X157860000Y-133820000D03*
X168020000Y-93180000D03*
X168020000Y-95720000D03*
X170560000Y-95720000D03*
X173100000Y-95720000D03*
X173100000Y-93180000D03*
X170560000Y-93180000D03*
X175640000Y-95720000D03*
X175640000Y-93180000D03*
X178180000Y-95720000D03*
X178180000Y-93180000D03*
X183260000Y-95720000D03*
X180720000Y-95720000D03*
X180720000Y-93180000D03*
X183260000Y-93180000D03*
X185800000Y-95720000D03*
X185800000Y-93180000D03*
X160400000Y-95720000D03*
X157860000Y-93180000D03*
X157860000Y-131280000D03*
X160400000Y-93180000D03*
X162940000Y-93180000D03*
X165480000Y-93180000D03*
X165480000Y-93180000D03*
X157860000Y-95720000D03*
X162940000Y-95720000D03*
X165480000Y-95720000D03*
X188340000Y-131280000D03*
X188340000Y-133820000D03*
X190880000Y-131280000D03*
X190880000Y-133820000D03*
X188340000Y-93180000D03*
X190880000Y-93180000D03*
X190880000Y-95720000D03*
X188340000Y-95720000D03*
X193420000Y-98260000D03*
X195960000Y-110960000D03*
X198500000Y-113500000D03*
X193420000Y-110960000D03*
X193420000Y-128740000D03*
X198500000Y-123660000D03*
X193420000Y-123660000D03*
X198500000Y-100800000D03*
X193420000Y-133820000D03*
X193420000Y-131280000D03*
X195960000Y-100800000D03*
X198500000Y-131280000D03*
X195960000Y-133820000D03*
X193420000Y-116040000D03*
X193420000Y-93180000D03*
X195960000Y-108420000D03*
X195960000Y-126200000D03*
X195960000Y-128740000D03*
X198500000Y-108420000D03*
X193420000Y-121120000D03*
X193420000Y-118580000D03*
X198500000Y-103340000D03*
X198500000Y-118580000D03*
X193420000Y-126200000D03*
X195960000Y-121120000D03*
X198500000Y-128740000D03*
X198500000Y-126200000D03*
X195960000Y-123660000D03*
X195960000Y-95720000D03*
X195960000Y-93180000D03*
X198500000Y-133820000D03*
X198500000Y-95720000D03*
X198500000Y-93180000D03*
X198500000Y-98260000D03*
X193420000Y-113500000D03*
X195960000Y-98260000D03*
X193420000Y-100800000D03*
X193420000Y-95720000D03*
X193420000Y-108420000D03*
X198500000Y-116040000D03*
X198500000Y-110960000D03*
X193420000Y-103340000D03*
X195960000Y-103340000D03*
X195960000Y-113500000D03*
X195960000Y-118580000D03*
X195960000Y-131280000D03*
X193420000Y-105880000D03*
X198500000Y-121120000D03*
X198500000Y-105880000D03*
X195960000Y-105880000D03*
X195960000Y-116040000D03*
X140135506Y-95746875D03*
X140135506Y-93206875D03*
X150295506Y-98286875D03*
X152835506Y-98286875D03*
X142675506Y-95746875D03*
X142675506Y-98286875D03*
X147755506Y-95746875D03*
X150295506Y-95746875D03*
X145215506Y-93206875D03*
X145215506Y-95746875D03*
X147755506Y-93206875D03*
X140135506Y-98286875D03*
X145215506Y-98286875D03*
X147755506Y-98286875D03*
X150295506Y-93206875D03*
X142675506Y-93206875D03*
X152835506Y-95746875D03*
X152835506Y-93206875D03*
X137595506Y-95746875D03*
X137595506Y-93206875D03*
X137595506Y-98286875D03*
X145215506Y-128766875D03*
X150295506Y-128766875D03*
X147755506Y-133846875D03*
X152835506Y-128766875D03*
X147755506Y-131306875D03*
X142675506Y-131306875D03*
X150295506Y-133846875D03*
X147755506Y-128766875D03*
X150295506Y-131306875D03*
X145215506Y-133846875D03*
X145215506Y-131306875D03*
X152835506Y-131306875D03*
X142675506Y-133846875D03*
X152835506Y-133846875D03*
X142675506Y-128766875D03*
X135055506Y-128766875D03*
X135055506Y-133846875D03*
X137595506Y-131306875D03*
X137595506Y-133846875D03*
X140135506Y-128766875D03*
X135055506Y-131306875D03*
X140135506Y-131306875D03*
X140135506Y-133846875D03*
X137595506Y-128766875D03*
X135000000Y-95800625D03*
X135000000Y-98340625D03*
X135000000Y-93260625D03*
D11*
X121640000Y-117820000D03*
D12*
X125290000Y-116390000D03*
D11*
X121640000Y-109180000D03*
D12*
X125290000Y-110610000D03*
D13*
X125820000Y-109180000D03*
X125820000Y-117820000D03*
D14*
X127000000Y-100810000D03*
X127000000Y-99540000D03*
X127000000Y-98270000D03*
D15*
X127000000Y-97000000D03*
X127000000Y-126200000D03*
D14*
X127000000Y-127470000D03*
X127000000Y-128740000D03*
X127000000Y-130010000D03*
M02*
