G04 #@! TF.GenerationSoftware,KiCad,Pcbnew,5.1.9-73d0e3b20d~88~ubuntu20.04.1*
G04 #@! TF.CreationDate,2021-05-24T14:30:18+02:00*
G04 #@! TF.ProjectId,krieger,6b726965-6765-4722-9e6b-696361645f70,v2.0*
G04 #@! TF.SameCoordinates,Original*
G04 #@! TF.FileFunction,Soldermask,Bot*
G04 #@! TF.FilePolarity,Negative*
%FSLAX46Y46*%
G04 Gerber Fmt 4.6, Leading zero omitted, Abs format (unit mm)*
G04 Created by KiCad (PCBNEW 5.1.9-73d0e3b20d~88~ubuntu20.04.1) date 2021-05-24 14:30:18*
%MOMM*%
%LPD*%
G01*
G04 APERTURE LIST*
%ADD10C,1.700000*%
%ADD11O,1.600000X1.000000*%
%ADD12C,0.650000*%
%ADD13O,2.100000X1.000000*%
%ADD14O,1.800000X1.070000*%
%ADD15R,1.800000X1.070000*%
G04 APERTURE END LIST*
D10*
X155360000Y-79680000D03*
X152820000Y-79680000D03*
X150280000Y-79680000D03*
X147740000Y-79680000D03*
X145200000Y-79680000D03*
X142660000Y-79680000D03*
X140120000Y-79680000D03*
X137580000Y-79680000D03*
X135040000Y-79680000D03*
X155360000Y-82220000D03*
X152820000Y-82220000D03*
X150280000Y-82220000D03*
X147740000Y-82220000D03*
X145200000Y-82220000D03*
X142660000Y-82220000D03*
X140120000Y-82220000D03*
X137580000Y-82220000D03*
X135040000Y-82220000D03*
X155360000Y-84760000D03*
X152820000Y-84760000D03*
X150280000Y-84760000D03*
X147740000Y-84760000D03*
X145200000Y-84760000D03*
X142660000Y-84760000D03*
X140120000Y-84760000D03*
X137580000Y-84760000D03*
X135040000Y-84760000D03*
X155360000Y-115240000D03*
X152820000Y-115240000D03*
X150280000Y-115240000D03*
X147740000Y-115240000D03*
X145200000Y-115240000D03*
X142660000Y-115240000D03*
X140120000Y-115240000D03*
X137580000Y-115240000D03*
X135040000Y-115240000D03*
X155360000Y-117780000D03*
X152820000Y-117780000D03*
X150280000Y-117780000D03*
X147740000Y-117780000D03*
X145200000Y-117780000D03*
X142660000Y-117780000D03*
X140120000Y-117780000D03*
X137580000Y-117780000D03*
X135040000Y-117780000D03*
X155360000Y-120320000D03*
X152820000Y-120320000D03*
X150280000Y-120320000D03*
X147740000Y-120320000D03*
X145200000Y-120320000D03*
X142660000Y-120320000D03*
X140120000Y-120320000D03*
X137580000Y-120320000D03*
X135040000Y-120320000D03*
X160440000Y-79680000D03*
X160440000Y-82220000D03*
X160440000Y-84760000D03*
X160440000Y-79680000D03*
X160440000Y-84760000D03*
X160440000Y-82220000D03*
X157900000Y-79680000D03*
X157900000Y-84760000D03*
X157900000Y-82220000D03*
X160440000Y-115240000D03*
X160440000Y-117780000D03*
X160440000Y-120320000D03*
X160440000Y-115240000D03*
X160440000Y-120320000D03*
X160440000Y-117780000D03*
X157900000Y-115240000D03*
X157900000Y-120320000D03*
X157900000Y-117780000D03*
X162980000Y-82220000D03*
X162980000Y-84760000D03*
X162980000Y-79680000D03*
X162980000Y-117780000D03*
X162980000Y-120320000D03*
X162980000Y-115240000D03*
X183300000Y-115240000D03*
X183300000Y-117780000D03*
X183300000Y-112700000D03*
X165520000Y-117780000D03*
X165520000Y-120320000D03*
X165520000Y-115240000D03*
X162980000Y-97460000D03*
X165520000Y-97460000D03*
X168060000Y-97460000D03*
X170600000Y-97460000D03*
X173140000Y-97460000D03*
X175680000Y-97460000D03*
X178220000Y-97460000D03*
X180760000Y-97460000D03*
X183300000Y-97460000D03*
X185840000Y-97460000D03*
X188380000Y-97460000D03*
X190920000Y-100000000D03*
X185840000Y-115240000D03*
X162980000Y-87300000D03*
X162980000Y-89840000D03*
X162980000Y-92380000D03*
X162980000Y-94920000D03*
X165520000Y-94920000D03*
X165520000Y-92380000D03*
X165520000Y-89840000D03*
X165520000Y-87300000D03*
X165520000Y-84760000D03*
X165520000Y-120320000D03*
X165520000Y-117780000D03*
X168060000Y-117780000D03*
X168060000Y-120320000D03*
X168060000Y-84760000D03*
X168060000Y-89840000D03*
X168060000Y-87300000D03*
X168060000Y-92380000D03*
X168060000Y-94920000D03*
X170600000Y-94920000D03*
X170600000Y-92380000D03*
X170600000Y-89840000D03*
X170600000Y-87300000D03*
X170600000Y-84760000D03*
X170600000Y-120320000D03*
X170600000Y-117780000D03*
X173140000Y-117780000D03*
X173140000Y-120320000D03*
X173140000Y-84760000D03*
X173140000Y-87300000D03*
X173140000Y-89840000D03*
X173140000Y-92380000D03*
X173140000Y-94920000D03*
X175680000Y-92380000D03*
X175680000Y-89840000D03*
X175680000Y-87300000D03*
X175680000Y-84760000D03*
X175680000Y-120320000D03*
X175680000Y-117780000D03*
X178220000Y-117780000D03*
X178220000Y-120320000D03*
X178220000Y-84760000D03*
X178220000Y-87300000D03*
X178220000Y-89840000D03*
X178220000Y-92380000D03*
X178220000Y-94920000D03*
X175680000Y-94920000D03*
X180760000Y-94920000D03*
X180760000Y-92380000D03*
X180760000Y-89840000D03*
X180760000Y-87300000D03*
X180760000Y-84760000D03*
X180760000Y-120320000D03*
X180760000Y-117780000D03*
X183300000Y-117780000D03*
X183300000Y-120320000D03*
X183300000Y-84760000D03*
X183300000Y-87300000D03*
X183300000Y-89840000D03*
X183300000Y-92380000D03*
X183300000Y-94920000D03*
X185840000Y-94920000D03*
X185840000Y-92380000D03*
X185840000Y-89840000D03*
X185840000Y-87300000D03*
X188380000Y-87300000D03*
X188380000Y-89840000D03*
X188380000Y-92380000D03*
X188380000Y-94920000D03*
X190920000Y-97460000D03*
X190920000Y-94920000D03*
X190920000Y-92380000D03*
X190920000Y-89840000D03*
X190920000Y-87300000D03*
X190920000Y-112700000D03*
X188380000Y-110160000D03*
X185840000Y-110160000D03*
X185840000Y-112700000D03*
X162980000Y-100000000D03*
X165520000Y-100000000D03*
X168060000Y-100000000D03*
X170600000Y-100000000D03*
X173140000Y-100000000D03*
X175680000Y-100000000D03*
X178220000Y-100000000D03*
X180760000Y-100000000D03*
X183300000Y-100000000D03*
X185840000Y-100000000D03*
X188380000Y-100000000D03*
X190920000Y-102540000D03*
X190920000Y-105080000D03*
X190920000Y-107620000D03*
X190920000Y-110160000D03*
X188380000Y-107620000D03*
X185840000Y-107620000D03*
X183300000Y-107620000D03*
X183300000Y-110160000D03*
X183300000Y-112700000D03*
X183300000Y-115240000D03*
X162980000Y-102540000D03*
X165520000Y-102540000D03*
X168060000Y-102540000D03*
X170600000Y-102540000D03*
X173140000Y-102540000D03*
X175680000Y-102540000D03*
X178220000Y-102540000D03*
X180760000Y-102540000D03*
X183300000Y-102540000D03*
X185840000Y-102540000D03*
X188380000Y-102540000D03*
X188380000Y-105080000D03*
X185840000Y-105080000D03*
X183300000Y-105080000D03*
X180760000Y-105080000D03*
X180760000Y-107620000D03*
X180760000Y-110160000D03*
X180760000Y-112700000D03*
X180760000Y-115240000D03*
X178220000Y-115240000D03*
X175680000Y-115240000D03*
X173140000Y-115240000D03*
X170600000Y-115240000D03*
X168060000Y-115240000D03*
X165520000Y-115240000D03*
X162980000Y-107620000D03*
X162980000Y-105080000D03*
X165520000Y-105080000D03*
X168060000Y-105080000D03*
X170600000Y-105080000D03*
X173140000Y-105080000D03*
X175680000Y-105080000D03*
X178220000Y-105080000D03*
X178220000Y-107620000D03*
X178220000Y-110160000D03*
X178220000Y-112700000D03*
X175680000Y-112700000D03*
X173140000Y-112700000D03*
X170600000Y-112700000D03*
X168060000Y-112700000D03*
X165520000Y-112700000D03*
X162980000Y-112700000D03*
X162980000Y-110160000D03*
X165520000Y-110160000D03*
X165520000Y-107620000D03*
X168060000Y-107620000D03*
X170600000Y-107620000D03*
X175680000Y-107620000D03*
X175680000Y-110160000D03*
X173140000Y-110160000D03*
X170600000Y-110160000D03*
X168060000Y-110160000D03*
X173140000Y-107620000D03*
X190920000Y-84760000D03*
X188380000Y-84760000D03*
X185840000Y-84760000D03*
X190920000Y-115240000D03*
X188380000Y-115240000D03*
X188380000Y-112700000D03*
X185840000Y-117780000D03*
X185840000Y-120320000D03*
X160440000Y-102540000D03*
X160440000Y-100000000D03*
X160440000Y-105080000D03*
X160440000Y-112700000D03*
X160440000Y-110160000D03*
X160440000Y-107620000D03*
X160440000Y-87300000D03*
X160440000Y-89840000D03*
X160440000Y-97460000D03*
X160440000Y-92380000D03*
X160440000Y-94920000D03*
X157900000Y-97460000D03*
X157900000Y-94920000D03*
X157900000Y-102540000D03*
X157900000Y-100000000D03*
X157900000Y-89840000D03*
X157900000Y-92380000D03*
X157900000Y-87300000D03*
X157900000Y-110160000D03*
X157900000Y-107620000D03*
X157900000Y-105080000D03*
X157900000Y-112700000D03*
X168060000Y-79680000D03*
X168060000Y-82220000D03*
X170600000Y-82220000D03*
X173140000Y-82220000D03*
X173140000Y-79680000D03*
X170600000Y-79680000D03*
X175680000Y-82220000D03*
X175680000Y-79680000D03*
X178220000Y-82220000D03*
X178220000Y-79680000D03*
X183300000Y-82220000D03*
X180760000Y-82220000D03*
X180760000Y-79680000D03*
X183300000Y-79680000D03*
X185840000Y-82220000D03*
X185840000Y-79680000D03*
X165520000Y-79680000D03*
X165520000Y-79680000D03*
X165520000Y-82220000D03*
X188380000Y-117780000D03*
X188380000Y-120320000D03*
X190920000Y-117780000D03*
X190920000Y-120320000D03*
X188380000Y-79680000D03*
X190920000Y-79680000D03*
X190920000Y-82220000D03*
X188380000Y-82220000D03*
X193460000Y-84760000D03*
X196000000Y-97460000D03*
X198540000Y-100000000D03*
X193460000Y-97460000D03*
X193460000Y-115240000D03*
X198540000Y-110160000D03*
X193460000Y-110160000D03*
X198540000Y-87300000D03*
X193460000Y-120320000D03*
X193460000Y-117780000D03*
X196000000Y-87300000D03*
X198540000Y-117780000D03*
X196000000Y-120320000D03*
X193460000Y-102540000D03*
X193460000Y-79680000D03*
X196000000Y-94920000D03*
X196000000Y-112700000D03*
X196000000Y-115240000D03*
X198540000Y-94920000D03*
X193460000Y-107620000D03*
X193460000Y-105080000D03*
X198540000Y-89840000D03*
X198540000Y-105080000D03*
X193460000Y-112700000D03*
X196000000Y-107620000D03*
X198540000Y-115240000D03*
X198540000Y-112700000D03*
X196000000Y-110160000D03*
X196000000Y-82220000D03*
X196000000Y-79680000D03*
X198540000Y-120320000D03*
X198540000Y-82220000D03*
X198540000Y-79680000D03*
X198540000Y-84760000D03*
X193460000Y-100000000D03*
X196000000Y-84760000D03*
X193460000Y-87300000D03*
X193460000Y-82220000D03*
X193460000Y-94920000D03*
X198540000Y-102540000D03*
X198540000Y-97460000D03*
X193460000Y-89840000D03*
X196000000Y-89840000D03*
X196000000Y-100000000D03*
X196000000Y-105080000D03*
X196000000Y-117780000D03*
X193460000Y-92380000D03*
X198540000Y-107620000D03*
X198540000Y-92380000D03*
X196000000Y-92380000D03*
X196000000Y-102540000D03*
D11*
X121640000Y-104320000D03*
D12*
X125290000Y-102890000D03*
D11*
X121640000Y-95680000D03*
D12*
X125290000Y-97110000D03*
D13*
X125820000Y-95680000D03*
X125820000Y-104320000D03*
D14*
X127000000Y-87310000D03*
X127000000Y-86040000D03*
X127000000Y-84770000D03*
D15*
X127000000Y-83500000D03*
X127000000Y-112700000D03*
D14*
X127000000Y-113970000D03*
X127000000Y-115240000D03*
X127000000Y-116510000D03*
M02*
