M48
; DRILL file {KiCad 5.1.8-db9833491~87~ubuntu20.04.1} date Wed Nov 18 16:34:51 2020
; FORMAT={-:-/ absolute / inch / decimal}
; #@! TF.CreationDate,2020-11-18T16:34:51+01:00
; #@! TF.GenerationSoftware,Kicad,Pcbnew,5.1.8-db9833491~87~ubuntu20.04.1
; #@! TF.FileFunction,Plated,1,2,PTH
FMAT,2
INCH
T1C0.0157
T2C0.0236
T3C0.0354
T4C0.0394
%
G90
G05
T1
X5.0315Y-4.374
X5.0315Y-4.563
X5.0315Y-4.8051
X5.0555Y-4.4695
X5.139Y-4.4685
X5.1744Y-4.7717
X5.1917Y-4.3661
X5.1921Y-4.5705
X5.3122Y-4.5799
X5.315Y-4.8051
X5.3394Y-4.6732
X5.4094Y-4.6732
X5.4394Y-4.2299
X5.6626Y-4.7071
X5.6669Y-4.8791
X5.6768Y-4.439
X5.865Y-4.2453
X5.8909Y-4.4193
X5.9772Y-3.9756
T3
X5.0Y-3.8189
X5.0Y-3.8689
X5.0Y-3.9189
X5.0Y-3.9689
X5.0Y-4.9685
X5.0Y-5.0185
X5.0Y-5.0685
X5.0Y-5.1185
T4
X5.315Y-3.6717
X5.315Y-3.7717
X5.315Y-3.8717
X5.3171Y-5.0696
X5.3171Y-5.1696
X5.3171Y-5.2696
X5.4171Y-3.6696
X5.4171Y-3.7696
X5.4171Y-3.8696
X5.4171Y-5.0696
X5.4171Y-5.1696
X5.4171Y-5.2696
X5.5171Y-3.6696
X5.5171Y-3.7696
X5.5171Y-3.8696
X5.5171Y-5.0696
X5.5171Y-5.1696
X5.5171Y-5.2696
X5.6171Y-3.6696
X5.6171Y-3.7696
X5.6171Y-3.8696
X5.6171Y-5.0696
X5.6171Y-5.1696
X5.6171Y-5.2696
X5.7171Y-3.6696
X5.7171Y-3.7696
X5.7171Y-3.8696
X5.7171Y-5.0696
X5.7171Y-5.1696
X5.7171Y-5.2696
X5.8171Y-3.6696
X5.8171Y-3.7696
X5.8171Y-3.8696
X5.8171Y-5.0696
X5.8171Y-5.1696
X5.8171Y-5.2696
X5.9171Y-3.6696
X5.9171Y-3.7696
X5.9171Y-3.8696
X5.9171Y-5.0696
X5.9171Y-5.1696
X5.9171Y-5.2696
X6.0171Y-3.6696
X6.0171Y-3.7696
X6.0171Y-3.8696
X6.0171Y-5.0696
X6.0171Y-5.1696
X6.0171Y-5.2696
X6.115Y-3.6685
X6.115Y-3.7685
X6.115Y-3.8685
X6.115Y-3.9685
X6.115Y-4.0685
X6.115Y-4.1685
X6.115Y-4.2685
X6.115Y-4.3685
X6.115Y-4.4685
X6.115Y-4.5685
X6.115Y-4.6685
X6.115Y-4.7685
X6.115Y-4.8685
X6.115Y-4.9685
X6.115Y-5.0685
X6.115Y-5.1685
X6.115Y-5.2685
X6.215Y-3.6685
X6.215Y-3.7685
X6.215Y-3.8685
X6.215Y-3.9685
X6.215Y-4.0685
X6.215Y-4.1685
X6.215Y-4.2685
X6.215Y-4.3685
X6.215Y-4.4685
X6.215Y-4.5685
X6.215Y-4.6685
X6.215Y-4.7685
X6.215Y-4.8685
X6.215Y-4.9685
X6.215Y-5.0685
X6.215Y-5.1685
X6.215Y-5.2685
X6.315Y-3.6685
X6.315Y-3.7685
X6.315Y-3.8685
X6.315Y-3.9685
X6.315Y-4.0685
X6.315Y-4.1685
X6.315Y-4.2685
X6.315Y-4.3685
X6.315Y-4.4685
X6.315Y-4.5685
X6.315Y-4.6685
X6.315Y-4.7685
X6.315Y-4.8685
X6.315Y-4.9685
X6.315Y-5.0685
X6.315Y-5.1685
X6.315Y-5.2685
X6.415Y-3.6685
X6.415Y-3.7685
X6.415Y-3.8685
X6.415Y-3.9685
X6.415Y-4.0685
X6.415Y-4.1685
X6.415Y-4.2685
X6.415Y-4.3685
X6.415Y-4.4685
X6.415Y-4.5685
X6.415Y-4.6685
X6.415Y-4.7685
X6.415Y-4.8685
X6.415Y-4.9685
X6.415Y-5.0685
X6.415Y-5.1685
X6.415Y-5.2685
X6.515Y-3.6685
X6.515Y-3.6685
X6.515Y-3.7685
X6.515Y-3.8685
X6.515Y-3.9685
X6.515Y-4.0685
X6.515Y-4.1685
X6.515Y-4.2685
X6.515Y-4.3685
X6.515Y-4.4685
X6.515Y-4.5685
X6.515Y-4.6685
X6.515Y-4.7685
X6.515Y-4.8685
X6.515Y-4.9685
X6.515Y-5.0685
X6.515Y-5.1685
X6.515Y-5.2685
X6.615Y-3.6685
X6.615Y-3.7685
X6.615Y-3.8685
X6.615Y-3.9685
X6.615Y-4.0685
X6.615Y-4.1685
X6.615Y-4.2685
X6.615Y-4.3685
X6.615Y-4.4685
X6.615Y-4.5685
X6.615Y-4.6685
X6.615Y-4.7685
X6.615Y-4.8685
X6.615Y-4.9685
X6.615Y-5.0685
X6.615Y-5.1685
X6.615Y-5.2685
X6.715Y-3.6685
X6.715Y-3.7685
X6.715Y-3.8685
X6.715Y-3.9685
X6.715Y-4.0685
X6.715Y-4.1685
X6.715Y-4.2685
X6.715Y-4.3685
X6.715Y-4.4685
X6.715Y-4.5685
X6.715Y-4.6685
X6.715Y-4.7685
X6.715Y-4.8685
X6.715Y-4.9685
X6.715Y-5.0685
X6.715Y-5.1685
X6.715Y-5.2685
X6.815Y-3.6685
X6.815Y-3.7685
X6.815Y-3.8685
X6.815Y-3.9685
X6.815Y-4.0685
X6.815Y-4.1685
X6.815Y-4.2685
X6.815Y-4.3685
X6.815Y-4.4685
X6.815Y-4.5685
X6.815Y-4.6685
X6.815Y-4.7685
X6.815Y-4.8685
X6.815Y-4.9685
X6.815Y-5.0685
X6.815Y-5.1685
X6.815Y-5.2685
X6.915Y-3.6685
X6.915Y-3.7685
X6.915Y-3.8685
X6.915Y-3.9685
X6.915Y-4.0685
X6.915Y-4.1685
X6.915Y-4.2685
X6.915Y-4.3685
X6.915Y-4.4685
X6.915Y-4.5685
X6.915Y-4.6685
X6.915Y-4.7685
X6.915Y-4.8685
X6.915Y-4.9685
X6.915Y-5.0685
X6.915Y-5.1685
X6.915Y-5.2685
X7.015Y-3.6685
X7.015Y-3.7685
X7.015Y-3.8685
X7.015Y-3.9685
X7.015Y-4.0685
X7.015Y-4.1685
X7.015Y-4.2685
X7.015Y-4.3685
X7.015Y-4.4685
X7.015Y-4.5685
X7.015Y-4.6685
X7.015Y-4.7685
X7.015Y-4.8685
X7.015Y-4.9685
X7.015Y-5.0685
X7.015Y-5.1685
X7.015Y-5.2685
X7.115Y-3.6685
X7.115Y-3.7685
X7.115Y-3.8685
X7.115Y-3.9685
X7.115Y-4.0685
X7.115Y-4.1685
X7.115Y-4.2685
X7.115Y-4.3685
X7.115Y-4.4685
X7.115Y-4.5685
X7.115Y-4.6685
X7.115Y-4.7685
X7.115Y-4.8685
X7.115Y-4.9685
X7.115Y-5.0685
X7.115Y-5.1685
X7.115Y-5.2685
X7.215Y-3.6685
X7.215Y-3.7685
X7.215Y-3.8685
X7.215Y-3.9685
X7.215Y-4.0685
X7.215Y-4.1685
X7.215Y-4.2685
X7.215Y-4.3685
X7.215Y-4.4685
X7.215Y-4.5685
X7.215Y-4.6685
X7.215Y-4.7685
X7.215Y-4.8685
X7.215Y-4.9685
X7.215Y-5.0685
X7.215Y-5.1685
X7.215Y-5.2685
X7.315Y-3.6685
X7.315Y-3.7685
X7.315Y-3.8685
X7.315Y-3.9685
X7.315Y-4.0685
X7.315Y-4.1685
X7.315Y-4.2685
X7.315Y-4.3685
X7.315Y-4.4685
X7.315Y-4.5685
X7.315Y-4.6685
X7.315Y-4.7685
X7.315Y-4.8685
X7.315Y-4.9685
X7.315Y-5.0685
X7.315Y-5.1685
X7.315Y-5.2685
X7.415Y-3.6685
X7.415Y-3.7685
X7.415Y-3.8685
X7.415Y-3.9685
X7.415Y-4.0685
X7.415Y-4.1685
X7.415Y-4.2685
X7.415Y-4.3685
X7.415Y-4.4685
X7.415Y-4.5685
X7.415Y-4.6685
X7.415Y-4.7685
X7.415Y-4.8685
X7.415Y-4.9685
X7.415Y-5.0685
X7.415Y-5.1685
X7.415Y-5.2685
X7.515Y-3.6685
X7.515Y-3.7685
X7.515Y-3.8685
X7.515Y-3.9685
X7.515Y-4.0685
X7.515Y-4.1685
X7.515Y-4.2685
X7.515Y-4.3685
X7.515Y-4.4685
X7.515Y-4.5685
X7.515Y-4.6685
X7.515Y-4.7685
X7.515Y-4.8685
X7.515Y-4.9685
X7.515Y-5.0685
X7.515Y-5.1685
X7.515Y-5.2685
X7.615Y-3.6685
X7.615Y-3.7685
X7.615Y-3.8685
X7.615Y-3.9685
X7.615Y-4.0685
X7.615Y-4.1685
X7.615Y-4.2685
X7.615Y-4.3685
X7.615Y-4.4685
X7.615Y-4.5685
X7.615Y-4.6685
X7.615Y-4.7685
X7.615Y-4.8685
X7.615Y-4.9685
X7.615Y-5.0685
X7.615Y-5.1685
X7.615Y-5.2685
X7.715Y-3.6685
X7.715Y-3.7685
X7.715Y-3.8685
X7.715Y-3.9685
X7.715Y-4.0685
X7.715Y-4.1685
X7.715Y-4.2685
X7.715Y-4.3685
X7.715Y-4.4685
X7.715Y-4.5685
X7.715Y-4.6685
X7.715Y-4.7685
X7.715Y-4.8685
X7.715Y-4.9685
X7.715Y-5.0685
X7.715Y-5.1685
X7.715Y-5.2685
X7.815Y-3.6685
X7.815Y-3.7685
X7.815Y-3.8685
X7.815Y-3.9685
X7.815Y-4.0685
X7.815Y-4.1685
X7.815Y-4.2685
X7.815Y-4.3685
X7.815Y-4.4685
X7.815Y-4.5685
X7.815Y-4.6685
X7.815Y-4.7685
X7.815Y-4.8685
X7.815Y-4.9685
X7.815Y-5.0685
X7.815Y-5.1685
X7.815Y-5.2685
T2
G00X4.8008Y-4.2984
M15
G01X4.7772Y-4.2984
M16
G05
G00X4.8008Y-4.6386
M15
G01X4.7772Y-4.6386
M16
G05
G00X4.9752Y-4.2984
M15
G01X4.9319Y-4.2984
M16
G05
G00X4.9752Y-4.6386
M15
G01X4.9319Y-4.6386
M16
G05
T0
M30
