G04 #@! TF.GenerationSoftware,KiCad,Pcbnew,5.1.9-73d0e3b20d~88~ubuntu20.04.1*
G04 #@! TF.CreationDate,2021-05-24T14:30:18+02:00*
G04 #@! TF.ProjectId,krieger,6b726965-6765-4722-9e6b-696361645f70,v2.0*
G04 #@! TF.SameCoordinates,Original*
G04 #@! TF.FileFunction,Legend,Top*
G04 #@! TF.FilePolarity,Positive*
%FSLAX46Y46*%
G04 Gerber Fmt 4.6, Leading zero omitted, Abs format (unit mm)*
G04 Created by KiCad (PCBNEW 5.1.9-73d0e3b20d~88~ubuntu20.04.1) date 2021-05-24 14:30:18*
%MOMM*%
%LPD*%
G01*
G04 APERTURE LIST*
%ADD10C,0.187500*%
%ADD11C,0.150000*%
%ADD12C,0.250000*%
%ADD13C,0.120000*%
G04 APERTURE END LIST*
D10*
X123540714Y-96565714D02*
X123005000Y-96565714D01*
X122897857Y-96530000D01*
X122826428Y-96458571D01*
X122790714Y-96351428D01*
X122790714Y-96280000D01*
X122790714Y-97280000D02*
X122790714Y-96922857D01*
X123540714Y-96922857D01*
X122862142Y-97958571D02*
X122826428Y-97922857D01*
X122790714Y-97815714D01*
X122790714Y-97744285D01*
X122826428Y-97637142D01*
X122897857Y-97565714D01*
X122969285Y-97530000D01*
X123112142Y-97494285D01*
X123219285Y-97494285D01*
X123362142Y-97530000D01*
X123433571Y-97565714D01*
X123505000Y-97637142D01*
X123540714Y-97744285D01*
X123540714Y-97815714D01*
X123505000Y-97922857D01*
X123469285Y-97958571D01*
X123540714Y-98494285D02*
X123005000Y-98494285D01*
X122897857Y-98458571D01*
X122826428Y-98387142D01*
X122790714Y-98280000D01*
X122790714Y-98208571D01*
X122790714Y-99208571D02*
X122790714Y-98851428D01*
X123540714Y-98851428D01*
X122862142Y-99887142D02*
X122826428Y-99851428D01*
X122790714Y-99744285D01*
X122790714Y-99672857D01*
X122826428Y-99565714D01*
X122897857Y-99494285D01*
X122969285Y-99458571D01*
X123112142Y-99422857D01*
X123219285Y-99422857D01*
X123362142Y-99458571D01*
X123433571Y-99494285D01*
X123505000Y-99565714D01*
X123540714Y-99672857D01*
X123540714Y-99744285D01*
X123505000Y-99851428D01*
X123469285Y-99887142D01*
X123540714Y-100422857D02*
X123005000Y-100422857D01*
X122897857Y-100387142D01*
X122826428Y-100315714D01*
X122790714Y-100208571D01*
X122790714Y-100137142D01*
X122790714Y-101137142D02*
X122790714Y-100780000D01*
X123540714Y-100780000D01*
X122862142Y-101815714D02*
X122826428Y-101780000D01*
X122790714Y-101672857D01*
X122790714Y-101601428D01*
X122826428Y-101494285D01*
X122897857Y-101422857D01*
X122969285Y-101387142D01*
X123112142Y-101351428D01*
X123219285Y-101351428D01*
X123362142Y-101387142D01*
X123433571Y-101422857D01*
X123505000Y-101494285D01*
X123540714Y-101601428D01*
X123540714Y-101672857D01*
X123505000Y-101780000D01*
X123469285Y-101815714D01*
X123540714Y-102351428D02*
X123005000Y-102351428D01*
X122897857Y-102315714D01*
X122826428Y-102244285D01*
X122790714Y-102137142D01*
X122790714Y-102065714D01*
X122790714Y-103065714D02*
X122790714Y-102708571D01*
X123540714Y-102708571D01*
X122862142Y-103744285D02*
X122826428Y-103708571D01*
X122790714Y-103601428D01*
X122790714Y-103530000D01*
X122826428Y-103422857D01*
X122897857Y-103351428D01*
X122969285Y-103315714D01*
X123112142Y-103280000D01*
X123219285Y-103280000D01*
X123362142Y-103315714D01*
X123433571Y-103351428D01*
X123505000Y-103422857D01*
X123540714Y-103530000D01*
X123540714Y-103601428D01*
X123505000Y-103708571D01*
X123469285Y-103744285D01*
D11*
X142132380Y-90375476D02*
X141715714Y-89780238D01*
X141418095Y-90375476D02*
X141418095Y-89125476D01*
X141894285Y-89125476D01*
X142013333Y-89185000D01*
X142072857Y-89244523D01*
X142132380Y-89363571D01*
X142132380Y-89542142D01*
X142072857Y-89661190D01*
X142013333Y-89720714D01*
X141894285Y-89780238D01*
X141418095Y-89780238D01*
X143144285Y-90315952D02*
X143025238Y-90375476D01*
X142787142Y-90375476D01*
X142668095Y-90315952D01*
X142608571Y-90196904D01*
X142608571Y-89720714D01*
X142668095Y-89601666D01*
X142787142Y-89542142D01*
X143025238Y-89542142D01*
X143144285Y-89601666D01*
X143203809Y-89720714D01*
X143203809Y-89839761D01*
X142608571Y-89958809D01*
X143680000Y-90315952D02*
X143799047Y-90375476D01*
X144037142Y-90375476D01*
X144156190Y-90315952D01*
X144215714Y-90196904D01*
X144215714Y-90137380D01*
X144156190Y-90018333D01*
X144037142Y-89958809D01*
X143858571Y-89958809D01*
X143739523Y-89899285D01*
X143680000Y-89780238D01*
X143680000Y-89720714D01*
X143739523Y-89601666D01*
X143858571Y-89542142D01*
X144037142Y-89542142D01*
X144156190Y-89601666D01*
X145227619Y-90315952D02*
X145108571Y-90375476D01*
X144870476Y-90375476D01*
X144751428Y-90315952D01*
X144691904Y-90196904D01*
X144691904Y-89720714D01*
X144751428Y-89601666D01*
X144870476Y-89542142D01*
X145108571Y-89542142D01*
X145227619Y-89601666D01*
X145287142Y-89720714D01*
X145287142Y-89839761D01*
X144691904Y-89958809D01*
X145644285Y-89542142D02*
X146120476Y-89542142D01*
X145822857Y-89125476D02*
X145822857Y-90196904D01*
X145882380Y-90315952D01*
X146001428Y-90375476D01*
X146120476Y-90375476D01*
X142601190Y-110060714D02*
X142779761Y-110120238D01*
X142839285Y-110179761D01*
X142898809Y-110298809D01*
X142898809Y-110477380D01*
X142839285Y-110596428D01*
X142779761Y-110655952D01*
X142660714Y-110715476D01*
X142184523Y-110715476D01*
X142184523Y-109465476D01*
X142601190Y-109465476D01*
X142720238Y-109525000D01*
X142779761Y-109584523D01*
X142839285Y-109703571D01*
X142839285Y-109822619D01*
X142779761Y-109941666D01*
X142720238Y-110001190D01*
X142601190Y-110060714D01*
X142184523Y-110060714D01*
X143613095Y-110715476D02*
X143494047Y-110655952D01*
X143434523Y-110596428D01*
X143375000Y-110477380D01*
X143375000Y-110120238D01*
X143434523Y-110001190D01*
X143494047Y-109941666D01*
X143613095Y-109882142D01*
X143791666Y-109882142D01*
X143910714Y-109941666D01*
X143970238Y-110001190D01*
X144029761Y-110120238D01*
X144029761Y-110477380D01*
X143970238Y-110596428D01*
X143910714Y-110655952D01*
X143791666Y-110715476D01*
X143613095Y-110715476D01*
X144744047Y-110715476D02*
X144625000Y-110655952D01*
X144565476Y-110596428D01*
X144505952Y-110477380D01*
X144505952Y-110120238D01*
X144565476Y-110001190D01*
X144625000Y-109941666D01*
X144744047Y-109882142D01*
X144922619Y-109882142D01*
X145041666Y-109941666D01*
X145101190Y-110001190D01*
X145160714Y-110120238D01*
X145160714Y-110477380D01*
X145101190Y-110596428D01*
X145041666Y-110655952D01*
X144922619Y-110715476D01*
X144744047Y-110715476D01*
X145517857Y-109882142D02*
X145994047Y-109882142D01*
X145696428Y-109465476D02*
X145696428Y-110536904D01*
X145755952Y-110655952D01*
X145875000Y-110715476D01*
X145994047Y-110715476D01*
D12*
X121533809Y-120792976D02*
X121533809Y-119542976D01*
X122248095Y-120792976D02*
X121712380Y-120078690D01*
X122248095Y-119542976D02*
X121533809Y-120257261D01*
X122783809Y-120792976D02*
X122783809Y-119959642D01*
X122783809Y-120197738D02*
X122843333Y-120078690D01*
X122902857Y-120019166D01*
X123021904Y-119959642D01*
X123140952Y-119959642D01*
X123557619Y-120792976D02*
X123557619Y-119959642D01*
X123557619Y-119542976D02*
X123498095Y-119602500D01*
X123557619Y-119662023D01*
X123617142Y-119602500D01*
X123557619Y-119542976D01*
X123557619Y-119662023D01*
X124629047Y-120733452D02*
X124510000Y-120792976D01*
X124271904Y-120792976D01*
X124152857Y-120733452D01*
X124093333Y-120614404D01*
X124093333Y-120138214D01*
X124152857Y-120019166D01*
X124271904Y-119959642D01*
X124510000Y-119959642D01*
X124629047Y-120019166D01*
X124688571Y-120138214D01*
X124688571Y-120257261D01*
X124093333Y-120376309D01*
X125760000Y-119959642D02*
X125760000Y-120971547D01*
X125700476Y-121090595D01*
X125640952Y-121150119D01*
X125521904Y-121209642D01*
X125343333Y-121209642D01*
X125224285Y-121150119D01*
X125760000Y-120733452D02*
X125640952Y-120792976D01*
X125402857Y-120792976D01*
X125283809Y-120733452D01*
X125224285Y-120673928D01*
X125164761Y-120554880D01*
X125164761Y-120197738D01*
X125224285Y-120078690D01*
X125283809Y-120019166D01*
X125402857Y-119959642D01*
X125640952Y-119959642D01*
X125760000Y-120019166D01*
X126831428Y-120733452D02*
X126712380Y-120792976D01*
X126474285Y-120792976D01*
X126355238Y-120733452D01*
X126295714Y-120614404D01*
X126295714Y-120138214D01*
X126355238Y-120019166D01*
X126474285Y-119959642D01*
X126712380Y-119959642D01*
X126831428Y-120019166D01*
X126890952Y-120138214D01*
X126890952Y-120257261D01*
X126295714Y-120376309D01*
X127426666Y-120792976D02*
X127426666Y-119959642D01*
X127426666Y-120197738D02*
X127486190Y-120078690D01*
X127545714Y-120019166D01*
X127664761Y-119959642D01*
X127783809Y-119959642D01*
X129033809Y-119959642D02*
X129331428Y-120792976D01*
X129629047Y-119959642D01*
X130045714Y-119662023D02*
X130105238Y-119602500D01*
X130224285Y-119542976D01*
X130521904Y-119542976D01*
X130640952Y-119602500D01*
X130700476Y-119662023D01*
X130760000Y-119781071D01*
X130760000Y-119900119D01*
X130700476Y-120078690D01*
X129986190Y-120792976D01*
X130760000Y-120792976D01*
X131295714Y-120673928D02*
X131355238Y-120733452D01*
X131295714Y-120792976D01*
X131236190Y-120733452D01*
X131295714Y-120673928D01*
X131295714Y-120792976D01*
X132129047Y-119542976D02*
X132248095Y-119542976D01*
X132367142Y-119602500D01*
X132426666Y-119662023D01*
X132486190Y-119781071D01*
X132545714Y-120019166D01*
X132545714Y-120316785D01*
X132486190Y-120554880D01*
X132426666Y-120673928D01*
X132367142Y-120733452D01*
X132248095Y-120792976D01*
X132129047Y-120792976D01*
X132010000Y-120733452D01*
X131950476Y-120673928D01*
X131890952Y-120554880D01*
X131831428Y-120316785D01*
X131831428Y-120019166D01*
X131890952Y-119781071D01*
X131950476Y-119662023D01*
X132010000Y-119602500D01*
X132129047Y-119542976D01*
X121593333Y-122084642D02*
X121831428Y-122917976D01*
X122069523Y-122322738D01*
X122307619Y-122917976D01*
X122545714Y-122084642D01*
X122902857Y-122084642D02*
X123140952Y-122917976D01*
X123379047Y-122322738D01*
X123617142Y-122917976D01*
X123855238Y-122084642D01*
X124212380Y-122084642D02*
X124450476Y-122917976D01*
X124688571Y-122322738D01*
X124926666Y-122917976D01*
X125164761Y-122084642D01*
X125640952Y-122798928D02*
X125700476Y-122858452D01*
X125640952Y-122917976D01*
X125581428Y-122858452D01*
X125640952Y-122798928D01*
X125640952Y-122917976D01*
X126176666Y-121787023D02*
X126236190Y-121727500D01*
X126355238Y-121667976D01*
X126652857Y-121667976D01*
X126771904Y-121727500D01*
X126831428Y-121787023D01*
X126890952Y-121906071D01*
X126890952Y-122025119D01*
X126831428Y-122203690D01*
X126117142Y-122917976D01*
X126890952Y-122917976D01*
X127426666Y-122441785D02*
X128379047Y-122441785D01*
X129212380Y-121667976D02*
X129331428Y-121667976D01*
X129450476Y-121727500D01*
X129510000Y-121787023D01*
X129569523Y-121906071D01*
X129629047Y-122144166D01*
X129629047Y-122441785D01*
X129569523Y-122679880D01*
X129510000Y-122798928D01*
X129450476Y-122858452D01*
X129331428Y-122917976D01*
X129212380Y-122917976D01*
X129093333Y-122858452D01*
X129033809Y-122798928D01*
X128974285Y-122679880D01*
X128914761Y-122441785D01*
X128914761Y-122144166D01*
X128974285Y-121906071D01*
X129033809Y-121787023D01*
X129093333Y-121727500D01*
X129212380Y-121667976D01*
X130164761Y-122798928D02*
X130224285Y-122858452D01*
X130164761Y-122917976D01*
X130105238Y-122858452D01*
X130164761Y-122798928D01*
X130164761Y-122917976D01*
X131295714Y-122917976D02*
X131295714Y-121667976D01*
X131295714Y-122858452D02*
X131176666Y-122917976D01*
X130938571Y-122917976D01*
X130819523Y-122858452D01*
X130760000Y-122798928D01*
X130700476Y-122679880D01*
X130700476Y-122322738D01*
X130760000Y-122203690D01*
X130819523Y-122144166D01*
X130938571Y-122084642D01*
X131176666Y-122084642D01*
X131295714Y-122144166D01*
X131890952Y-122917976D02*
X131890952Y-121667976D01*
X132010000Y-122441785D02*
X132367142Y-122917976D01*
X132367142Y-122084642D02*
X131890952Y-122560833D01*
D11*
X156630000Y-113970000D02*
X156630000Y-86030000D01*
X133770000Y-78410000D02*
X199810000Y-78410000D01*
X199810000Y-78410000D02*
X199810000Y-121590000D01*
X199810000Y-121590000D02*
X133770000Y-121590000D01*
X133770000Y-78410000D02*
X133770000Y-86030000D01*
X133770000Y-86030000D02*
X156630000Y-86030000D01*
X156630000Y-113970000D02*
X133770000Y-113970000D01*
X133770000Y-113970000D02*
X133770000Y-121590000D01*
D13*
X130490000Y-82247221D02*
X130490000Y-82572779D01*
X131510000Y-82247221D02*
X131510000Y-82572779D01*
X118790000Y-95300000D02*
X118790000Y-104700000D01*
X124590000Y-104700000D02*
X122590000Y-104700000D01*
X120690000Y-104700000D02*
X118790000Y-104700000D01*
X124590000Y-95300000D02*
X122590000Y-95300000D01*
X120690000Y-95300000D02*
X118790000Y-95300000D01*
X128210000Y-95997221D02*
X128210000Y-96322779D01*
X129230000Y-95997221D02*
X129230000Y-96322779D01*
X129310000Y-110040000D02*
X129310000Y-105830000D01*
X129310000Y-105830000D02*
X126290000Y-105830000D01*
X126290000Y-105830000D02*
X126290000Y-110040000D01*
X133500000Y-105390000D02*
X133500000Y-109600000D01*
X136520000Y-105390000D02*
X133500000Y-105390000D01*
X136520000Y-109600000D02*
X136520000Y-105390000D01*
X149960000Y-97837221D02*
X149960000Y-98162779D01*
X148940000Y-97837221D02*
X148940000Y-98162779D01*
X135060000Y-103982779D02*
X135060000Y-103657221D01*
X134040000Y-103982779D02*
X134040000Y-103657221D01*
X145647221Y-92020000D02*
X145972779Y-92020000D01*
X145647221Y-93040000D02*
X145972779Y-93040000D01*
X137580000Y-93392779D02*
X137580000Y-93067221D01*
X136560000Y-93392779D02*
X136560000Y-93067221D01*
X153197221Y-96720000D02*
X153522779Y-96720000D01*
X153197221Y-95700000D02*
X153522779Y-95700000D01*
X128210000Y-104002779D02*
X128210000Y-103677221D01*
X129230000Y-104002779D02*
X129230000Y-103677221D01*
X148890000Y-106912779D02*
X148890000Y-106587221D01*
X147870000Y-106912779D02*
X147870000Y-106587221D01*
X131510000Y-85237221D02*
X131510000Y-85562779D01*
X130490000Y-85237221D02*
X130490000Y-85562779D01*
X130490000Y-88237221D02*
X130490000Y-88562779D01*
X131510000Y-88237221D02*
X131510000Y-88562779D01*
X130500000Y-111762779D02*
X130500000Y-111437221D01*
X131520000Y-111762779D02*
X131520000Y-111437221D01*
X132300000Y-106090000D02*
X129850000Y-106090000D01*
X130500000Y-109310000D02*
X132300000Y-109310000D01*
X129200000Y-101610000D02*
X131650000Y-101610000D01*
X131000000Y-98390000D02*
X129200000Y-98390000D01*
X128545000Y-82845000D02*
X128080000Y-82845000D01*
X125920000Y-82845000D02*
X125455000Y-82845000D01*
X125919571Y-87659479D02*
G75*
G02*
X125920000Y-83150316I1080429J2254479D01*
G01*
X128080429Y-87659479D02*
G75*
G03*
X128080000Y-83150316I-1080429J2254479D01*
G01*
X125919173Y-88192815D02*
G75*
G02*
X125455170Y-82845000I1080827J2787815D01*
G01*
X128080827Y-88192815D02*
G75*
G03*
X128544830Y-82845000I-1080827J2787815D01*
G01*
X125920000Y-112045000D02*
X125455000Y-112045000D01*
X128545000Y-112045000D02*
X128080000Y-112045000D01*
X128080827Y-117392815D02*
G75*
G03*
X128544830Y-112045000I-1080827J2787815D01*
G01*
X125919173Y-117392815D02*
G75*
G02*
X125455170Y-112045000I1080827J2787815D01*
G01*
X128080429Y-116859479D02*
G75*
G03*
X128080000Y-112350316I-1080429J2254479D01*
G01*
X125919571Y-116859479D02*
G75*
G02*
X125920000Y-112350316I1080429J2254479D01*
G01*
X131520000Y-114762779D02*
X131520000Y-114437221D01*
X130500000Y-114762779D02*
X130500000Y-114437221D01*
X130500000Y-117762779D02*
X130500000Y-117437221D01*
X131520000Y-117762779D02*
X131520000Y-117437221D01*
X127872779Y-90660000D02*
X127547221Y-90660000D01*
X127872779Y-91680000D02*
X127547221Y-91680000D01*
X127882779Y-93140000D02*
X127557221Y-93140000D01*
X127882779Y-92120000D02*
X127557221Y-92120000D01*
X147410000Y-106609420D02*
X147410000Y-106890580D01*
X146390000Y-106609420D02*
X146390000Y-106890580D01*
X153279420Y-106090000D02*
X153560580Y-106090000D01*
X153279420Y-105070000D02*
X153560580Y-105070000D01*
X153219420Y-97240000D02*
X153500580Y-97240000D01*
X153219420Y-98260000D02*
X153500580Y-98260000D01*
X139260000Y-91940580D02*
X139260000Y-91659420D01*
X138240000Y-91940580D02*
X138240000Y-91659420D01*
X137840000Y-94890000D02*
X136890000Y-94890000D01*
X136890000Y-94890000D02*
X136890000Y-95840000D01*
X146160000Y-94890000D02*
X147110000Y-94890000D01*
X147110000Y-94890000D02*
X147110000Y-95840000D01*
X137840000Y-105110000D02*
X136890000Y-105110000D01*
X136890000Y-105110000D02*
X136890000Y-104160000D01*
X146160000Y-105110000D02*
X147110000Y-105110000D01*
X147110000Y-105110000D02*
X147110000Y-104160000D01*
X147110000Y-104160000D02*
X148450000Y-104160000D01*
X151640000Y-98980000D02*
X151640000Y-104730000D01*
X151640000Y-104730000D02*
X155240000Y-104730000D01*
X155240000Y-104730000D02*
X155240000Y-98980000D01*
X126020000Y-106390000D02*
X126020000Y-109540000D01*
X124320000Y-106390000D02*
X124320000Y-109540000D01*
X126020000Y-106390000D02*
X124320000Y-106390000D01*
D11*
X156350000Y-111960000D02*
X146550000Y-111960000D01*
X146550000Y-108360000D02*
X156350000Y-108360000D01*
X146550000Y-111960000D02*
X146550000Y-108360000D01*
X156350000Y-108360000D02*
X156350000Y-111960000D01*
X146550000Y-91640000D02*
X146550000Y-88040000D01*
X156350000Y-88040000D02*
X156350000Y-91640000D01*
X156350000Y-91640000D02*
X146550000Y-91640000D01*
X146550000Y-88040000D02*
X156350000Y-88040000D01*
X155529285Y-100561428D02*
X156136428Y-100561428D01*
X156207857Y-100525714D01*
X156243571Y-100490000D01*
X156279285Y-100418571D01*
X156279285Y-100275714D01*
X156243571Y-100204285D01*
X156207857Y-100168571D01*
X156136428Y-100132857D01*
X155529285Y-100132857D01*
X155779285Y-99454285D02*
X156279285Y-99454285D01*
X155493571Y-99632857D02*
X156029285Y-99811428D01*
X156029285Y-99347142D01*
X132373333Y-82872380D02*
X132040000Y-82396190D01*
X131801904Y-82872380D02*
X131801904Y-81872380D01*
X132182857Y-81872380D01*
X132278095Y-81920000D01*
X132325714Y-81967619D01*
X132373333Y-82062857D01*
X132373333Y-82205714D01*
X132325714Y-82300952D01*
X132278095Y-82348571D01*
X132182857Y-82396190D01*
X131801904Y-82396190D01*
X133230476Y-82205714D02*
X133230476Y-82872380D01*
X132992380Y-81824761D02*
X132754285Y-82539047D01*
X133373333Y-82539047D01*
X123636666Y-93482380D02*
X123636666Y-94196666D01*
X123589047Y-94339523D01*
X123493809Y-94434761D01*
X123350952Y-94482380D01*
X123255714Y-94482380D01*
X124636666Y-94482380D02*
X124065238Y-94482380D01*
X124350952Y-94482380D02*
X124350952Y-93482380D01*
X124255714Y-93625238D01*
X124160476Y-93720476D01*
X124065238Y-93768095D01*
X130133333Y-96622380D02*
X129800000Y-96146190D01*
X129561904Y-96622380D02*
X129561904Y-95622380D01*
X129942857Y-95622380D01*
X130038095Y-95670000D01*
X130085714Y-95717619D01*
X130133333Y-95812857D01*
X130133333Y-95955714D01*
X130085714Y-96050952D01*
X130038095Y-96098571D01*
X129942857Y-96146190D01*
X129561904Y-96146190D01*
X131085714Y-96622380D02*
X130514285Y-96622380D01*
X130800000Y-96622380D02*
X130800000Y-95622380D01*
X130704761Y-95765238D01*
X130609523Y-95860476D01*
X130514285Y-95908095D01*
X123977142Y-108436666D02*
X124024761Y-108484285D01*
X124072380Y-108627142D01*
X124072380Y-108722380D01*
X124024761Y-108865238D01*
X123929523Y-108960476D01*
X123834285Y-109008095D01*
X123643809Y-109055714D01*
X123500952Y-109055714D01*
X123310476Y-109008095D01*
X123215238Y-108960476D01*
X123120000Y-108865238D01*
X123072380Y-108722380D01*
X123072380Y-108627142D01*
X123120000Y-108484285D01*
X123167619Y-108436666D01*
X124072380Y-107484285D02*
X124072380Y-108055714D01*
X124072380Y-107770000D02*
X123072380Y-107770000D01*
X123215238Y-107865238D01*
X123310476Y-107960476D01*
X123358095Y-108055714D01*
X137393333Y-108227142D02*
X137345714Y-108274761D01*
X137202857Y-108322380D01*
X137107619Y-108322380D01*
X136964761Y-108274761D01*
X136869523Y-108179523D01*
X136821904Y-108084285D01*
X136774285Y-107893809D01*
X136774285Y-107750952D01*
X136821904Y-107560476D01*
X136869523Y-107465238D01*
X136964761Y-107370000D01*
X137107619Y-107322380D01*
X137202857Y-107322380D01*
X137345714Y-107370000D01*
X137393333Y-107417619D01*
X137774285Y-107417619D02*
X137821904Y-107370000D01*
X137917142Y-107322380D01*
X138155238Y-107322380D01*
X138250476Y-107370000D01*
X138298095Y-107417619D01*
X138345714Y-107512857D01*
X138345714Y-107608095D01*
X138298095Y-107750952D01*
X137726666Y-108322380D01*
X138345714Y-108322380D01*
X150783333Y-98377142D02*
X150735714Y-98424761D01*
X150592857Y-98472380D01*
X150497619Y-98472380D01*
X150354761Y-98424761D01*
X150259523Y-98329523D01*
X150211904Y-98234285D01*
X150164285Y-98043809D01*
X150164285Y-97900952D01*
X150211904Y-97710476D01*
X150259523Y-97615238D01*
X150354761Y-97520000D01*
X150497619Y-97472380D01*
X150592857Y-97472380D01*
X150735714Y-97520000D01*
X150783333Y-97567619D01*
X151116666Y-97472380D02*
X151735714Y-97472380D01*
X151402380Y-97853333D01*
X151545238Y-97853333D01*
X151640476Y-97900952D01*
X151688095Y-97948571D01*
X151735714Y-98043809D01*
X151735714Y-98281904D01*
X151688095Y-98377142D01*
X151640476Y-98424761D01*
X151545238Y-98472380D01*
X151259523Y-98472380D01*
X151164285Y-98424761D01*
X151116666Y-98377142D01*
X132713333Y-104167142D02*
X132665714Y-104214761D01*
X132522857Y-104262380D01*
X132427619Y-104262380D01*
X132284761Y-104214761D01*
X132189523Y-104119523D01*
X132141904Y-104024285D01*
X132094285Y-103833809D01*
X132094285Y-103690952D01*
X132141904Y-103500476D01*
X132189523Y-103405238D01*
X132284761Y-103310000D01*
X132427619Y-103262380D01*
X132522857Y-103262380D01*
X132665714Y-103310000D01*
X132713333Y-103357619D01*
X133570476Y-103595714D02*
X133570476Y-104262380D01*
X133332380Y-103214761D02*
X133094285Y-103929047D01*
X133713333Y-103929047D01*
X148053333Y-92877142D02*
X148005714Y-92924761D01*
X147862857Y-92972380D01*
X147767619Y-92972380D01*
X147624761Y-92924761D01*
X147529523Y-92829523D01*
X147481904Y-92734285D01*
X147434285Y-92543809D01*
X147434285Y-92400952D01*
X147481904Y-92210476D01*
X147529523Y-92115238D01*
X147624761Y-92020000D01*
X147767619Y-91972380D01*
X147862857Y-91972380D01*
X148005714Y-92020000D01*
X148053333Y-92067619D01*
X148958095Y-91972380D02*
X148481904Y-91972380D01*
X148434285Y-92448571D01*
X148481904Y-92400952D01*
X148577142Y-92353333D01*
X148815238Y-92353333D01*
X148910476Y-92400952D01*
X148958095Y-92448571D01*
X149005714Y-92543809D01*
X149005714Y-92781904D01*
X148958095Y-92877142D01*
X148910476Y-92924761D01*
X148815238Y-92972380D01*
X148577142Y-92972380D01*
X148481904Y-92924761D01*
X148434285Y-92877142D01*
X135183333Y-93587142D02*
X135135714Y-93634761D01*
X134992857Y-93682380D01*
X134897619Y-93682380D01*
X134754761Y-93634761D01*
X134659523Y-93539523D01*
X134611904Y-93444285D01*
X134564285Y-93253809D01*
X134564285Y-93110952D01*
X134611904Y-92920476D01*
X134659523Y-92825238D01*
X134754761Y-92730000D01*
X134897619Y-92682380D01*
X134992857Y-92682380D01*
X135135714Y-92730000D01*
X135183333Y-92777619D01*
X136040476Y-92682380D02*
X135850000Y-92682380D01*
X135754761Y-92730000D01*
X135707142Y-92777619D01*
X135611904Y-92920476D01*
X135564285Y-93110952D01*
X135564285Y-93491904D01*
X135611904Y-93587142D01*
X135659523Y-93634761D01*
X135754761Y-93682380D01*
X135945238Y-93682380D01*
X136040476Y-93634761D01*
X136088095Y-93587142D01*
X136135714Y-93491904D01*
X136135714Y-93253809D01*
X136088095Y-93158571D01*
X136040476Y-93110952D01*
X135945238Y-93063333D01*
X135754761Y-93063333D01*
X135659523Y-93110952D01*
X135611904Y-93158571D01*
X135564285Y-93253809D01*
X153193333Y-93957142D02*
X153145714Y-94004761D01*
X153002857Y-94052380D01*
X152907619Y-94052380D01*
X152764761Y-94004761D01*
X152669523Y-93909523D01*
X152621904Y-93814285D01*
X152574285Y-93623809D01*
X152574285Y-93480952D01*
X152621904Y-93290476D01*
X152669523Y-93195238D01*
X152764761Y-93100000D01*
X152907619Y-93052380D01*
X153002857Y-93052380D01*
X153145714Y-93100000D01*
X153193333Y-93147619D01*
X153526666Y-93052380D02*
X154193333Y-93052380D01*
X153764761Y-94052380D01*
X130133333Y-104292380D02*
X129800000Y-103816190D01*
X129561904Y-104292380D02*
X129561904Y-103292380D01*
X129942857Y-103292380D01*
X130038095Y-103340000D01*
X130085714Y-103387619D01*
X130133333Y-103482857D01*
X130133333Y-103625714D01*
X130085714Y-103720952D01*
X130038095Y-103768571D01*
X129942857Y-103816190D01*
X129561904Y-103816190D01*
X130514285Y-103387619D02*
X130561904Y-103340000D01*
X130657142Y-103292380D01*
X130895238Y-103292380D01*
X130990476Y-103340000D01*
X131038095Y-103387619D01*
X131085714Y-103482857D01*
X131085714Y-103578095D01*
X131038095Y-103720952D01*
X130466666Y-104292380D01*
X131085714Y-104292380D01*
X149813333Y-107202380D02*
X149480000Y-106726190D01*
X149241904Y-107202380D02*
X149241904Y-106202380D01*
X149622857Y-106202380D01*
X149718095Y-106250000D01*
X149765714Y-106297619D01*
X149813333Y-106392857D01*
X149813333Y-106535714D01*
X149765714Y-106630952D01*
X149718095Y-106678571D01*
X149622857Y-106726190D01*
X149241904Y-106726190D01*
X150146666Y-106202380D02*
X150765714Y-106202380D01*
X150432380Y-106583333D01*
X150575238Y-106583333D01*
X150670476Y-106630952D01*
X150718095Y-106678571D01*
X150765714Y-106773809D01*
X150765714Y-107011904D01*
X150718095Y-107107142D01*
X150670476Y-107154761D01*
X150575238Y-107202380D01*
X150289523Y-107202380D01*
X150194285Y-107154761D01*
X150146666Y-107107142D01*
X132353333Y-85852380D02*
X132020000Y-85376190D01*
X131781904Y-85852380D02*
X131781904Y-84852380D01*
X132162857Y-84852380D01*
X132258095Y-84900000D01*
X132305714Y-84947619D01*
X132353333Y-85042857D01*
X132353333Y-85185714D01*
X132305714Y-85280952D01*
X132258095Y-85328571D01*
X132162857Y-85376190D01*
X131781904Y-85376190D01*
X133258095Y-84852380D02*
X132781904Y-84852380D01*
X132734285Y-85328571D01*
X132781904Y-85280952D01*
X132877142Y-85233333D01*
X133115238Y-85233333D01*
X133210476Y-85280952D01*
X133258095Y-85328571D01*
X133305714Y-85423809D01*
X133305714Y-85661904D01*
X133258095Y-85757142D01*
X133210476Y-85804761D01*
X133115238Y-85852380D01*
X132877142Y-85852380D01*
X132781904Y-85804761D01*
X132734285Y-85757142D01*
X132373333Y-88852380D02*
X132040000Y-88376190D01*
X131801904Y-88852380D02*
X131801904Y-87852380D01*
X132182857Y-87852380D01*
X132278095Y-87900000D01*
X132325714Y-87947619D01*
X132373333Y-88042857D01*
X132373333Y-88185714D01*
X132325714Y-88280952D01*
X132278095Y-88328571D01*
X132182857Y-88376190D01*
X131801904Y-88376190D01*
X133230476Y-87852380D02*
X133040000Y-87852380D01*
X132944761Y-87900000D01*
X132897142Y-87947619D01*
X132801904Y-88090476D01*
X132754285Y-88280952D01*
X132754285Y-88661904D01*
X132801904Y-88757142D01*
X132849523Y-88804761D01*
X132944761Y-88852380D01*
X133135238Y-88852380D01*
X133230476Y-88804761D01*
X133278095Y-88757142D01*
X133325714Y-88661904D01*
X133325714Y-88423809D01*
X133278095Y-88328571D01*
X133230476Y-88280952D01*
X133135238Y-88233333D01*
X132944761Y-88233333D01*
X132849523Y-88280952D01*
X132801904Y-88328571D01*
X132754285Y-88423809D01*
X132393333Y-112042380D02*
X132060000Y-111566190D01*
X131821904Y-112042380D02*
X131821904Y-111042380D01*
X132202857Y-111042380D01*
X132298095Y-111090000D01*
X132345714Y-111137619D01*
X132393333Y-111232857D01*
X132393333Y-111375714D01*
X132345714Y-111470952D01*
X132298095Y-111518571D01*
X132202857Y-111566190D01*
X131821904Y-111566190D01*
X132726666Y-111042380D02*
X133393333Y-111042380D01*
X132964761Y-112042380D01*
X130648095Y-104742380D02*
X130648095Y-105551904D01*
X130695714Y-105647142D01*
X130743333Y-105694761D01*
X130838571Y-105742380D01*
X131029047Y-105742380D01*
X131124285Y-105694761D01*
X131171904Y-105647142D01*
X131219523Y-105551904D01*
X131219523Y-104742380D01*
X132219523Y-105742380D02*
X131648095Y-105742380D01*
X131933809Y-105742380D02*
X131933809Y-104742380D01*
X131838571Y-104885238D01*
X131743333Y-104980476D01*
X131648095Y-105028095D01*
X132028095Y-99452380D02*
X132028095Y-100261904D01*
X132075714Y-100357142D01*
X132123333Y-100404761D01*
X132218571Y-100452380D01*
X132409047Y-100452380D01*
X132504285Y-100404761D01*
X132551904Y-100357142D01*
X132599523Y-100261904D01*
X132599523Y-99452380D01*
X133028095Y-99547619D02*
X133075714Y-99500000D01*
X133170952Y-99452380D01*
X133409047Y-99452380D01*
X133504285Y-99500000D01*
X133551904Y-99547619D01*
X133599523Y-99642857D01*
X133599523Y-99738095D01*
X133551904Y-99880952D01*
X132980476Y-100452380D01*
X133599523Y-100452380D01*
X122171904Y-85842380D02*
X122171904Y-84842380D01*
X122410000Y-84842380D01*
X122552857Y-84890000D01*
X122648095Y-84985238D01*
X122695714Y-85080476D01*
X122743333Y-85270952D01*
X122743333Y-85413809D01*
X122695714Y-85604285D01*
X122648095Y-85699523D01*
X122552857Y-85794761D01*
X122410000Y-85842380D01*
X122171904Y-85842380D01*
X123695714Y-85842380D02*
X123124285Y-85842380D01*
X123410000Y-85842380D02*
X123410000Y-84842380D01*
X123314761Y-84985238D01*
X123219523Y-85080476D01*
X123124285Y-85128095D01*
X122101904Y-115052380D02*
X122101904Y-114052380D01*
X122340000Y-114052380D01*
X122482857Y-114100000D01*
X122578095Y-114195238D01*
X122625714Y-114290476D01*
X122673333Y-114480952D01*
X122673333Y-114623809D01*
X122625714Y-114814285D01*
X122578095Y-114909523D01*
X122482857Y-115004761D01*
X122340000Y-115052380D01*
X122101904Y-115052380D01*
X123054285Y-114147619D02*
X123101904Y-114100000D01*
X123197142Y-114052380D01*
X123435238Y-114052380D01*
X123530476Y-114100000D01*
X123578095Y-114147619D01*
X123625714Y-114242857D01*
X123625714Y-114338095D01*
X123578095Y-114480952D01*
X123006666Y-115052380D01*
X123625714Y-115052380D01*
X132383333Y-115052380D02*
X132050000Y-114576190D01*
X131811904Y-115052380D02*
X131811904Y-114052380D01*
X132192857Y-114052380D01*
X132288095Y-114100000D01*
X132335714Y-114147619D01*
X132383333Y-114242857D01*
X132383333Y-114385714D01*
X132335714Y-114480952D01*
X132288095Y-114528571D01*
X132192857Y-114576190D01*
X131811904Y-114576190D01*
X132954761Y-114480952D02*
X132859523Y-114433333D01*
X132811904Y-114385714D01*
X132764285Y-114290476D01*
X132764285Y-114242857D01*
X132811904Y-114147619D01*
X132859523Y-114100000D01*
X132954761Y-114052380D01*
X133145238Y-114052380D01*
X133240476Y-114100000D01*
X133288095Y-114147619D01*
X133335714Y-114242857D01*
X133335714Y-114290476D01*
X133288095Y-114385714D01*
X133240476Y-114433333D01*
X133145238Y-114480952D01*
X132954761Y-114480952D01*
X132859523Y-114528571D01*
X132811904Y-114576190D01*
X132764285Y-114671428D01*
X132764285Y-114861904D01*
X132811904Y-114957142D01*
X132859523Y-115004761D01*
X132954761Y-115052380D01*
X133145238Y-115052380D01*
X133240476Y-115004761D01*
X133288095Y-114957142D01*
X133335714Y-114861904D01*
X133335714Y-114671428D01*
X133288095Y-114576190D01*
X133240476Y-114528571D01*
X133145238Y-114480952D01*
X132403333Y-118052380D02*
X132070000Y-117576190D01*
X131831904Y-118052380D02*
X131831904Y-117052380D01*
X132212857Y-117052380D01*
X132308095Y-117100000D01*
X132355714Y-117147619D01*
X132403333Y-117242857D01*
X132403333Y-117385714D01*
X132355714Y-117480952D01*
X132308095Y-117528571D01*
X132212857Y-117576190D01*
X131831904Y-117576190D01*
X132879523Y-118052380D02*
X133070000Y-118052380D01*
X133165238Y-118004761D01*
X133212857Y-117957142D01*
X133308095Y-117814285D01*
X133355714Y-117623809D01*
X133355714Y-117242857D01*
X133308095Y-117147619D01*
X133260476Y-117100000D01*
X133165238Y-117052380D01*
X132974761Y-117052380D01*
X132879523Y-117100000D01*
X132831904Y-117147619D01*
X132784285Y-117242857D01*
X132784285Y-117480952D01*
X132831904Y-117576190D01*
X132879523Y-117623809D01*
X132974761Y-117671428D01*
X133165238Y-117671428D01*
X133260476Y-117623809D01*
X133308095Y-117576190D01*
X133355714Y-117480952D01*
X127057142Y-90262380D02*
X126723809Y-89786190D01*
X126485714Y-90262380D02*
X126485714Y-89262380D01*
X126866666Y-89262380D01*
X126961904Y-89310000D01*
X127009523Y-89357619D01*
X127057142Y-89452857D01*
X127057142Y-89595714D01*
X127009523Y-89690952D01*
X126961904Y-89738571D01*
X126866666Y-89786190D01*
X126485714Y-89786190D01*
X128009523Y-90262380D02*
X127438095Y-90262380D01*
X127723809Y-90262380D02*
X127723809Y-89262380D01*
X127628571Y-89405238D01*
X127533333Y-89500476D01*
X127438095Y-89548095D01*
X128628571Y-89262380D02*
X128723809Y-89262380D01*
X128819047Y-89310000D01*
X128866666Y-89357619D01*
X128914285Y-89452857D01*
X128961904Y-89643333D01*
X128961904Y-89881428D01*
X128914285Y-90071904D01*
X128866666Y-90167142D01*
X128819047Y-90214761D01*
X128723809Y-90262380D01*
X128628571Y-90262380D01*
X128533333Y-90214761D01*
X128485714Y-90167142D01*
X128438095Y-90071904D01*
X128390476Y-89881428D01*
X128390476Y-89643333D01*
X128438095Y-89452857D01*
X128485714Y-89357619D01*
X128533333Y-89310000D01*
X128628571Y-89262380D01*
X127107142Y-94512380D02*
X126773809Y-94036190D01*
X126535714Y-94512380D02*
X126535714Y-93512380D01*
X126916666Y-93512380D01*
X127011904Y-93560000D01*
X127059523Y-93607619D01*
X127107142Y-93702857D01*
X127107142Y-93845714D01*
X127059523Y-93940952D01*
X127011904Y-93988571D01*
X126916666Y-94036190D01*
X126535714Y-94036190D01*
X128059523Y-94512380D02*
X127488095Y-94512380D01*
X127773809Y-94512380D02*
X127773809Y-93512380D01*
X127678571Y-93655238D01*
X127583333Y-93750476D01*
X127488095Y-93798095D01*
X129011904Y-94512380D02*
X128440476Y-94512380D01*
X128726190Y-94512380D02*
X128726190Y-93512380D01*
X128630952Y-93655238D01*
X128535714Y-93750476D01*
X128440476Y-93798095D01*
X145083333Y-107887142D02*
X145035714Y-107934761D01*
X144892857Y-107982380D01*
X144797619Y-107982380D01*
X144654761Y-107934761D01*
X144559523Y-107839523D01*
X144511904Y-107744285D01*
X144464285Y-107553809D01*
X144464285Y-107410952D01*
X144511904Y-107220476D01*
X144559523Y-107125238D01*
X144654761Y-107030000D01*
X144797619Y-106982380D01*
X144892857Y-106982380D01*
X145035714Y-107030000D01*
X145083333Y-107077619D01*
X145654761Y-107410952D02*
X145559523Y-107363333D01*
X145511904Y-107315714D01*
X145464285Y-107220476D01*
X145464285Y-107172857D01*
X145511904Y-107077619D01*
X145559523Y-107030000D01*
X145654761Y-106982380D01*
X145845238Y-106982380D01*
X145940476Y-107030000D01*
X145988095Y-107077619D01*
X146035714Y-107172857D01*
X146035714Y-107220476D01*
X145988095Y-107315714D01*
X145940476Y-107363333D01*
X145845238Y-107410952D01*
X145654761Y-107410952D01*
X145559523Y-107458571D01*
X145511904Y-107506190D01*
X145464285Y-107601428D01*
X145464285Y-107791904D01*
X145511904Y-107887142D01*
X145559523Y-107934761D01*
X145654761Y-107982380D01*
X145845238Y-107982380D01*
X145940476Y-107934761D01*
X145988095Y-107887142D01*
X146035714Y-107791904D01*
X146035714Y-107601428D01*
X145988095Y-107506190D01*
X145940476Y-107458571D01*
X145845238Y-107410952D01*
X153253333Y-107377142D02*
X153205714Y-107424761D01*
X153062857Y-107472380D01*
X152967619Y-107472380D01*
X152824761Y-107424761D01*
X152729523Y-107329523D01*
X152681904Y-107234285D01*
X152634285Y-107043809D01*
X152634285Y-106900952D01*
X152681904Y-106710476D01*
X152729523Y-106615238D01*
X152824761Y-106520000D01*
X152967619Y-106472380D01*
X153062857Y-106472380D01*
X153205714Y-106520000D01*
X153253333Y-106567619D01*
X153729523Y-107472380D02*
X153920000Y-107472380D01*
X154015238Y-107424761D01*
X154062857Y-107377142D01*
X154158095Y-107234285D01*
X154205714Y-107043809D01*
X154205714Y-106662857D01*
X154158095Y-106567619D01*
X154110476Y-106520000D01*
X154015238Y-106472380D01*
X153824761Y-106472380D01*
X153729523Y-106520000D01*
X153681904Y-106567619D01*
X153634285Y-106662857D01*
X153634285Y-106900952D01*
X153681904Y-106996190D01*
X153729523Y-107043809D01*
X153824761Y-107091428D01*
X154015238Y-107091428D01*
X154110476Y-107043809D01*
X154158095Y-106996190D01*
X154205714Y-106900952D01*
X152707142Y-95227142D02*
X152659523Y-95274761D01*
X152516666Y-95322380D01*
X152421428Y-95322380D01*
X152278571Y-95274761D01*
X152183333Y-95179523D01*
X152135714Y-95084285D01*
X152088095Y-94893809D01*
X152088095Y-94750952D01*
X152135714Y-94560476D01*
X152183333Y-94465238D01*
X152278571Y-94370000D01*
X152421428Y-94322380D01*
X152516666Y-94322380D01*
X152659523Y-94370000D01*
X152707142Y-94417619D01*
X153659523Y-95322380D02*
X153088095Y-95322380D01*
X153373809Y-95322380D02*
X153373809Y-94322380D01*
X153278571Y-94465238D01*
X153183333Y-94560476D01*
X153088095Y-94608095D01*
X154278571Y-94322380D02*
X154373809Y-94322380D01*
X154469047Y-94370000D01*
X154516666Y-94417619D01*
X154564285Y-94512857D01*
X154611904Y-94703333D01*
X154611904Y-94941428D01*
X154564285Y-95131904D01*
X154516666Y-95227142D01*
X154469047Y-95274761D01*
X154373809Y-95322380D01*
X154278571Y-95322380D01*
X154183333Y-95274761D01*
X154135714Y-95227142D01*
X154088095Y-95131904D01*
X154040476Y-94941428D01*
X154040476Y-94703333D01*
X154088095Y-94512857D01*
X154135714Y-94417619D01*
X154183333Y-94370000D01*
X154278571Y-94322380D01*
X140207142Y-92157142D02*
X140159523Y-92204761D01*
X140016666Y-92252380D01*
X139921428Y-92252380D01*
X139778571Y-92204761D01*
X139683333Y-92109523D01*
X139635714Y-92014285D01*
X139588095Y-91823809D01*
X139588095Y-91680952D01*
X139635714Y-91490476D01*
X139683333Y-91395238D01*
X139778571Y-91300000D01*
X139921428Y-91252380D01*
X140016666Y-91252380D01*
X140159523Y-91300000D01*
X140207142Y-91347619D01*
X141159523Y-92252380D02*
X140588095Y-92252380D01*
X140873809Y-92252380D02*
X140873809Y-91252380D01*
X140778571Y-91395238D01*
X140683333Y-91490476D01*
X140588095Y-91538095D01*
X142111904Y-92252380D02*
X141540476Y-92252380D01*
X141826190Y-92252380D02*
X141826190Y-91252380D01*
X141730952Y-91395238D01*
X141635714Y-91490476D01*
X141540476Y-91538095D01*
X141238095Y-106852380D02*
X141238095Y-107661904D01*
X141285714Y-107757142D01*
X141333333Y-107804761D01*
X141428571Y-107852380D01*
X141619047Y-107852380D01*
X141714285Y-107804761D01*
X141761904Y-107757142D01*
X141809523Y-107661904D01*
X141809523Y-106852380D01*
X142190476Y-106852380D02*
X142809523Y-106852380D01*
X142476190Y-107233333D01*
X142619047Y-107233333D01*
X142714285Y-107280952D01*
X142761904Y-107328571D01*
X142809523Y-107423809D01*
X142809523Y-107661904D01*
X142761904Y-107757142D01*
X142714285Y-107804761D01*
X142619047Y-107852380D01*
X142333333Y-107852380D01*
X142238095Y-107804761D01*
X142190476Y-107757142D01*
X150133809Y-101666190D02*
X150133809Y-102142380D01*
X149800476Y-101142380D02*
X150133809Y-101666190D01*
X150467142Y-101142380D01*
X151324285Y-102142380D02*
X150752857Y-102142380D01*
X151038571Y-102142380D02*
X151038571Y-101142380D01*
X150943333Y-101285238D01*
X150848095Y-101380476D01*
X150752857Y-101428095D01*
X122782380Y-109028095D02*
X121782380Y-109028095D01*
X121782380Y-108790000D01*
X121830000Y-108647142D01*
X121925238Y-108551904D01*
X122020476Y-108504285D01*
X122210952Y-108456666D01*
X122353809Y-108456666D01*
X122544285Y-108504285D01*
X122639523Y-108551904D01*
X122734761Y-108647142D01*
X122782380Y-108790000D01*
X122782380Y-109028095D01*
X121782380Y-108123333D02*
X121782380Y-107504285D01*
X122163333Y-107837619D01*
X122163333Y-107694761D01*
X122210952Y-107599523D01*
X122258571Y-107551904D01*
X122353809Y-107504285D01*
X122591904Y-107504285D01*
X122687142Y-107551904D01*
X122734761Y-107599523D01*
X122782380Y-107694761D01*
X122782380Y-107980476D01*
X122734761Y-108075714D01*
X122687142Y-108123333D01*
X150146666Y-113324761D02*
X150289523Y-113372380D01*
X150527619Y-113372380D01*
X150622857Y-113324761D01*
X150670476Y-113277142D01*
X150718095Y-113181904D01*
X150718095Y-113086666D01*
X150670476Y-112991428D01*
X150622857Y-112943809D01*
X150527619Y-112896190D01*
X150337142Y-112848571D01*
X150241904Y-112800952D01*
X150194285Y-112753333D01*
X150146666Y-112658095D01*
X150146666Y-112562857D01*
X150194285Y-112467619D01*
X150241904Y-112420000D01*
X150337142Y-112372380D01*
X150575238Y-112372380D01*
X150718095Y-112420000D01*
X151051428Y-112372380D02*
X151289523Y-113372380D01*
X151480000Y-112658095D01*
X151670476Y-113372380D01*
X151908571Y-112372380D01*
X152813333Y-113372380D02*
X152241904Y-113372380D01*
X152527619Y-113372380D02*
X152527619Y-112372380D01*
X152432380Y-112515238D01*
X152337142Y-112610476D01*
X152241904Y-112658095D01*
X150086666Y-87584761D02*
X150229523Y-87632380D01*
X150467619Y-87632380D01*
X150562857Y-87584761D01*
X150610476Y-87537142D01*
X150658095Y-87441904D01*
X150658095Y-87346666D01*
X150610476Y-87251428D01*
X150562857Y-87203809D01*
X150467619Y-87156190D01*
X150277142Y-87108571D01*
X150181904Y-87060952D01*
X150134285Y-87013333D01*
X150086666Y-86918095D01*
X150086666Y-86822857D01*
X150134285Y-86727619D01*
X150181904Y-86680000D01*
X150277142Y-86632380D01*
X150515238Y-86632380D01*
X150658095Y-86680000D01*
X150991428Y-86632380D02*
X151229523Y-87632380D01*
X151420000Y-86918095D01*
X151610476Y-87632380D01*
X151848571Y-86632380D01*
X152181904Y-86727619D02*
X152229523Y-86680000D01*
X152324761Y-86632380D01*
X152562857Y-86632380D01*
X152658095Y-86680000D01*
X152705714Y-86727619D01*
X152753333Y-86822857D01*
X152753333Y-86918095D01*
X152705714Y-87060952D01*
X152134285Y-87632380D01*
X152753333Y-87632380D01*
M02*
