G04 #@! TF.GenerationSoftware,KiCad,Pcbnew,5.1.8-db9833491~87~ubuntu20.04.1*
G04 #@! TF.CreationDate,2020-11-18T16:34:53+01:00*
G04 #@! TF.ProjectId,krieger,6b726965-6765-4722-9e6b-696361645f70,v1.0*
G04 #@! TF.SameCoordinates,Original*
G04 #@! TF.FileFunction,Paste,Top*
G04 #@! TF.FilePolarity,Positive*
%FSLAX46Y46*%
G04 Gerber Fmt 4.6, Leading zero omitted, Abs format (unit mm)*
G04 Created by KiCad (PCBNEW 5.1.8-db9833491~87~ubuntu20.04.1) date 2020-11-18 16:34:53*
%MOMM*%
%LPD*%
G01*
G04 APERTURE LIST*
%ADD10R,2.000000X1.500000*%
%ADD11R,1.450000X0.300000*%
%ADD12R,1.450000X0.600000*%
%ADD13R,1.300000X0.250000*%
%ADD14R,0.250000X1.300000*%
%ADD15R,1.060000X0.650000*%
G04 APERTURE END LIST*
D10*
X151830000Y-110370000D03*
X151830000Y-102370000D03*
D11*
X126735000Y-113250000D03*
X126735000Y-115250000D03*
X126735000Y-114750000D03*
X126735000Y-114250000D03*
X126735000Y-113750000D03*
X126735000Y-112750000D03*
X126735000Y-112250000D03*
X126735000Y-111750000D03*
D12*
X126735000Y-116750000D03*
X126735000Y-115950000D03*
X126735000Y-111050000D03*
X126735000Y-110250000D03*
X126735000Y-110250000D03*
X126735000Y-111050000D03*
X126735000Y-115950000D03*
X126735000Y-116750000D03*
D13*
X145350000Y-116250000D03*
X145350000Y-115750000D03*
X145350000Y-115250000D03*
X145350000Y-114750000D03*
X145350000Y-114250000D03*
X145350000Y-113750000D03*
X145350000Y-113250000D03*
X145350000Y-112750000D03*
X145350000Y-112250000D03*
X145350000Y-111750000D03*
X145350000Y-111250000D03*
X145350000Y-110750000D03*
D14*
X143750000Y-109150000D03*
X143250000Y-109150000D03*
X142750000Y-109150000D03*
X142250000Y-109150000D03*
X141750000Y-109150000D03*
X141250000Y-109150000D03*
X140750000Y-109150000D03*
X140250000Y-109150000D03*
X139750000Y-109150000D03*
X139250000Y-109150000D03*
X138750000Y-109150000D03*
X138250000Y-109150000D03*
D13*
X136650000Y-110750000D03*
X136650000Y-111250000D03*
X136650000Y-111750000D03*
X136650000Y-112250000D03*
X136650000Y-112750000D03*
X136650000Y-113250000D03*
X136650000Y-113750000D03*
X136650000Y-114250000D03*
X136650000Y-114750000D03*
X136650000Y-115250000D03*
X136650000Y-115750000D03*
X136650000Y-116250000D03*
D14*
X138250000Y-117850000D03*
X138750000Y-117850000D03*
X139250000Y-117850000D03*
X139750000Y-117850000D03*
X140250000Y-117850000D03*
X140750000Y-117850000D03*
X141250000Y-117850000D03*
X141750000Y-117850000D03*
X142250000Y-117850000D03*
X142750000Y-117850000D03*
X143250000Y-117850000D03*
X143750000Y-117850000D03*
G36*
G01*
X131275000Y-110643750D02*
X131275000Y-111156250D01*
G75*
G02*
X131056250Y-111375000I-218750J0D01*
G01*
X130618750Y-111375000D01*
G75*
G02*
X130400000Y-111156250I0J218750D01*
G01*
X130400000Y-110643750D01*
G75*
G02*
X130618750Y-110425000I218750J0D01*
G01*
X131056250Y-110425000D01*
G75*
G02*
X131275000Y-110643750I0J-218750D01*
G01*
G37*
G36*
G01*
X129700000Y-110643750D02*
X129700000Y-111156250D01*
G75*
G02*
X129481250Y-111375000I-218750J0D01*
G01*
X129043750Y-111375000D01*
G75*
G02*
X128825000Y-111156250I0J218750D01*
G01*
X128825000Y-110643750D01*
G75*
G02*
X129043750Y-110425000I218750J0D01*
G01*
X129481250Y-110425000D01*
G75*
G02*
X129700000Y-110643750I0J-218750D01*
G01*
G37*
G36*
G01*
X126874998Y-122665000D02*
X128725002Y-122665000D01*
G75*
G02*
X128975000Y-122914998I0J-249998D01*
G01*
X128975000Y-123740002D01*
G75*
G02*
X128725002Y-123990000I-249998J0D01*
G01*
X126874998Y-123990000D01*
G75*
G02*
X126625000Y-123740002I0J249998D01*
G01*
X126625000Y-122914998D01*
G75*
G02*
X126874998Y-122665000I249998J0D01*
G01*
G37*
G36*
G01*
X126874998Y-119590000D02*
X128725002Y-119590000D01*
G75*
G02*
X128975000Y-119839998I0J-249998D01*
G01*
X128975000Y-120665002D01*
G75*
G02*
X128725002Y-120915000I-249998J0D01*
G01*
X126874998Y-120915000D01*
G75*
G02*
X126625000Y-120665002I0J249998D01*
G01*
X126625000Y-119839998D01*
G75*
G02*
X126874998Y-119590000I249998J0D01*
G01*
G37*
G36*
G01*
X134074998Y-119587500D02*
X135925002Y-119587500D01*
G75*
G02*
X136175000Y-119837498I0J-249998D01*
G01*
X136175000Y-120662502D01*
G75*
G02*
X135925002Y-120912500I-249998J0D01*
G01*
X134074998Y-120912500D01*
G75*
G02*
X133825000Y-120662502I0J249998D01*
G01*
X133825000Y-119837498D01*
G75*
G02*
X134074998Y-119587500I249998J0D01*
G01*
G37*
G36*
G01*
X134074998Y-122662500D02*
X135925002Y-122662500D01*
G75*
G02*
X136175000Y-122912498I0J-249998D01*
G01*
X136175000Y-123737502D01*
G75*
G02*
X135925002Y-123987500I-249998J0D01*
G01*
X134074998Y-123987500D01*
G75*
G02*
X133825000Y-123737502I0J249998D01*
G01*
X133825000Y-122912498D01*
G75*
G02*
X134074998Y-122662500I249998J0D01*
G01*
G37*
G36*
G01*
X135370000Y-117153750D02*
X135370000Y-117666250D01*
G75*
G02*
X135151250Y-117885000I-218750J0D01*
G01*
X134713750Y-117885000D01*
G75*
G02*
X134495000Y-117666250I0J218750D01*
G01*
X134495000Y-117153750D01*
G75*
G02*
X134713750Y-116935000I218750J0D01*
G01*
X135151250Y-116935000D01*
G75*
G02*
X135370000Y-117153750I0J-218750D01*
G01*
G37*
G36*
G01*
X136945000Y-117153750D02*
X136945000Y-117666250D01*
G75*
G02*
X136726250Y-117885000I-218750J0D01*
G01*
X136288750Y-117885000D01*
G75*
G02*
X136070000Y-117666250I0J218750D01*
G01*
X136070000Y-117153750D01*
G75*
G02*
X136288750Y-116935000I218750J0D01*
G01*
X136726250Y-116935000D01*
G75*
G02*
X136945000Y-117153750I0J-218750D01*
G01*
G37*
G36*
G01*
X144653750Y-117545000D02*
X145166250Y-117545000D01*
G75*
G02*
X145385000Y-117763750I0J-218750D01*
G01*
X145385000Y-118201250D01*
G75*
G02*
X145166250Y-118420000I-218750J0D01*
G01*
X144653750Y-118420000D01*
G75*
G02*
X144435000Y-118201250I0J218750D01*
G01*
X144435000Y-117763750D01*
G75*
G02*
X144653750Y-117545000I218750J0D01*
G01*
G37*
G36*
G01*
X144653750Y-119120000D02*
X145166250Y-119120000D01*
G75*
G02*
X145385000Y-119338750I0J-218750D01*
G01*
X145385000Y-119776250D01*
G75*
G02*
X145166250Y-119995000I-218750J0D01*
G01*
X144653750Y-119995000D01*
G75*
G02*
X144435000Y-119776250I0J218750D01*
G01*
X144435000Y-119338750D01*
G75*
G02*
X144653750Y-119120000I218750J0D01*
G01*
G37*
G36*
G01*
X137336250Y-107870000D02*
X136823750Y-107870000D01*
G75*
G02*
X136605000Y-107651250I0J218750D01*
G01*
X136605000Y-107213750D01*
G75*
G02*
X136823750Y-106995000I218750J0D01*
G01*
X137336250Y-106995000D01*
G75*
G02*
X137555000Y-107213750I0J-218750D01*
G01*
X137555000Y-107651250D01*
G75*
G02*
X137336250Y-107870000I-218750J0D01*
G01*
G37*
G36*
G01*
X137336250Y-109445000D02*
X136823750Y-109445000D01*
G75*
G02*
X136605000Y-109226250I0J218750D01*
G01*
X136605000Y-108788750D01*
G75*
G02*
X136823750Y-108570000I218750J0D01*
G01*
X137336250Y-108570000D01*
G75*
G02*
X137555000Y-108788750I0J-218750D01*
G01*
X137555000Y-109226250D01*
G75*
G02*
X137336250Y-109445000I-218750J0D01*
G01*
G37*
G36*
G01*
X146565000Y-112506250D02*
X146565000Y-111993750D01*
G75*
G02*
X146783750Y-111775000I218750J0D01*
G01*
X147221250Y-111775000D01*
G75*
G02*
X147440000Y-111993750I0J-218750D01*
G01*
X147440000Y-112506250D01*
G75*
G02*
X147221250Y-112725000I-218750J0D01*
G01*
X146783750Y-112725000D01*
G75*
G02*
X146565000Y-112506250I0J218750D01*
G01*
G37*
G36*
G01*
X148140000Y-112506250D02*
X148140000Y-111993750D01*
G75*
G02*
X148358750Y-111775000I218750J0D01*
G01*
X148796250Y-111775000D01*
G75*
G02*
X149015000Y-111993750I0J-218750D01*
G01*
X149015000Y-112506250D01*
G75*
G02*
X148796250Y-112725000I-218750J0D01*
G01*
X148358750Y-112725000D01*
G75*
G02*
X148140000Y-112506250I0J218750D01*
G01*
G37*
G36*
G01*
X149236250Y-110865000D02*
X148723750Y-110865000D01*
G75*
G02*
X148505000Y-110646250I0J218750D01*
G01*
X148505000Y-110208750D01*
G75*
G02*
X148723750Y-109990000I218750J0D01*
G01*
X149236250Y-109990000D01*
G75*
G02*
X149455000Y-110208750I0J-218750D01*
G01*
X149455000Y-110646250D01*
G75*
G02*
X149236250Y-110865000I-218750J0D01*
G01*
G37*
G36*
G01*
X149236250Y-109290000D02*
X148723750Y-109290000D01*
G75*
G02*
X148505000Y-109071250I0J218750D01*
G01*
X148505000Y-108633750D01*
G75*
G02*
X148723750Y-108415000I218750J0D01*
G01*
X149236250Y-108415000D01*
G75*
G02*
X149455000Y-108633750I0J-218750D01*
G01*
X149455000Y-109071250D01*
G75*
G02*
X149236250Y-109290000I-218750J0D01*
G01*
G37*
G36*
G01*
X129700000Y-115843750D02*
X129700000Y-116356250D01*
G75*
G02*
X129481250Y-116575000I-218750J0D01*
G01*
X129043750Y-116575000D01*
G75*
G02*
X128825000Y-116356250I0J218750D01*
G01*
X128825000Y-115843750D01*
G75*
G02*
X129043750Y-115625000I218750J0D01*
G01*
X129481250Y-115625000D01*
G75*
G02*
X129700000Y-115843750I0J-218750D01*
G01*
G37*
G36*
G01*
X131275000Y-115843750D02*
X131275000Y-116356250D01*
G75*
G02*
X131056250Y-116575000I-218750J0D01*
G01*
X130618750Y-116575000D01*
G75*
G02*
X130400000Y-116356250I0J218750D01*
G01*
X130400000Y-115843750D01*
G75*
G02*
X130618750Y-115625000I218750J0D01*
G01*
X131056250Y-115625000D01*
G75*
G02*
X131275000Y-115843750I0J-218750D01*
G01*
G37*
G36*
G01*
X144196250Y-127005000D02*
X143683750Y-127005000D01*
G75*
G02*
X143465000Y-126786250I0J218750D01*
G01*
X143465000Y-126348750D01*
G75*
G02*
X143683750Y-126130000I218750J0D01*
G01*
X144196250Y-126130000D01*
G75*
G02*
X144415000Y-126348750I0J-218750D01*
G01*
X144415000Y-126786250D01*
G75*
G02*
X144196250Y-127005000I-218750J0D01*
G01*
G37*
G36*
G01*
X144196250Y-125430000D02*
X143683750Y-125430000D01*
G75*
G02*
X143465000Y-125211250I0J218750D01*
G01*
X143465000Y-124773750D01*
G75*
G02*
X143683750Y-124555000I218750J0D01*
G01*
X144196250Y-124555000D01*
G75*
G02*
X144415000Y-124773750I0J-218750D01*
G01*
X144415000Y-125211250D01*
G75*
G02*
X144196250Y-125430000I-218750J0D01*
G01*
G37*
G36*
G01*
X122366250Y-104945000D02*
X121853750Y-104945000D01*
G75*
G02*
X121635000Y-104726250I0J218750D01*
G01*
X121635000Y-104288750D01*
G75*
G02*
X121853750Y-104070000I218750J0D01*
G01*
X122366250Y-104070000D01*
G75*
G02*
X122585000Y-104288750I0J-218750D01*
G01*
X122585000Y-104726250D01*
G75*
G02*
X122366250Y-104945000I-218750J0D01*
G01*
G37*
G36*
G01*
X122366250Y-103370000D02*
X121853750Y-103370000D01*
G75*
G02*
X121635000Y-103151250I0J218750D01*
G01*
X121635000Y-102713750D01*
G75*
G02*
X121853750Y-102495000I218750J0D01*
G01*
X122366250Y-102495000D01*
G75*
G02*
X122585000Y-102713750I0J-218750D01*
G01*
X122585000Y-103151250D01*
G75*
G02*
X122366250Y-103370000I-218750J0D01*
G01*
G37*
G36*
G01*
X123866250Y-103370000D02*
X123353750Y-103370000D01*
G75*
G02*
X123135000Y-103151250I0J218750D01*
G01*
X123135000Y-102713750D01*
G75*
G02*
X123353750Y-102495000I218750J0D01*
G01*
X123866250Y-102495000D01*
G75*
G02*
X124085000Y-102713750I0J-218750D01*
G01*
X124085000Y-103151250D01*
G75*
G02*
X123866250Y-103370000I-218750J0D01*
G01*
G37*
G36*
G01*
X123866250Y-104945000D02*
X123353750Y-104945000D01*
G75*
G02*
X123135000Y-104726250I0J218750D01*
G01*
X123135000Y-104288750D01*
G75*
G02*
X123353750Y-104070000I218750J0D01*
G01*
X123866250Y-104070000D01*
G75*
G02*
X124085000Y-104288750I0J-218750D01*
G01*
X124085000Y-104726250D01*
G75*
G02*
X123866250Y-104945000I-218750J0D01*
G01*
G37*
G36*
G01*
X125366250Y-104945000D02*
X124853750Y-104945000D01*
G75*
G02*
X124635000Y-104726250I0J218750D01*
G01*
X124635000Y-104288750D01*
G75*
G02*
X124853750Y-104070000I218750J0D01*
G01*
X125366250Y-104070000D01*
G75*
G02*
X125585000Y-104288750I0J-218750D01*
G01*
X125585000Y-104726250D01*
G75*
G02*
X125366250Y-104945000I-218750J0D01*
G01*
G37*
G36*
G01*
X125366250Y-103370000D02*
X124853750Y-103370000D01*
G75*
G02*
X124635000Y-103151250I0J218750D01*
G01*
X124635000Y-102713750D01*
G75*
G02*
X124853750Y-102495000I218750J0D01*
G01*
X125366250Y-102495000D01*
G75*
G02*
X125585000Y-102713750I0J-218750D01*
G01*
X125585000Y-103151250D01*
G75*
G02*
X125366250Y-103370000I-218750J0D01*
G01*
G37*
G36*
G01*
X124783750Y-123560000D02*
X125296250Y-123560000D01*
G75*
G02*
X125515000Y-123778750I0J-218750D01*
G01*
X125515000Y-124216250D01*
G75*
G02*
X125296250Y-124435000I-218750J0D01*
G01*
X124783750Y-124435000D01*
G75*
G02*
X124565000Y-124216250I0J218750D01*
G01*
X124565000Y-123778750D01*
G75*
G02*
X124783750Y-123560000I218750J0D01*
G01*
G37*
G36*
G01*
X124783750Y-121985000D02*
X125296250Y-121985000D01*
G75*
G02*
X125515000Y-122203750I0J-218750D01*
G01*
X125515000Y-122641250D01*
G75*
G02*
X125296250Y-122860000I-218750J0D01*
G01*
X124783750Y-122860000D01*
G75*
G02*
X124565000Y-122641250I0J218750D01*
G01*
X124565000Y-122203750D01*
G75*
G02*
X124783750Y-121985000I218750J0D01*
G01*
G37*
D15*
X130300000Y-120250000D03*
X130300000Y-121200000D03*
X130300000Y-122150000D03*
X132500000Y-122150000D03*
X132500000Y-120250000D03*
X131600000Y-114450000D03*
X131600000Y-113500000D03*
X131600000Y-112550000D03*
X129400000Y-112550000D03*
X129400000Y-114450000D03*
X129400000Y-113500000D03*
G36*
G01*
X123273750Y-121985000D02*
X123786250Y-121985000D01*
G75*
G02*
X124005000Y-122203750I0J-218750D01*
G01*
X124005000Y-122641250D01*
G75*
G02*
X123786250Y-122860000I-218750J0D01*
G01*
X123273750Y-122860000D01*
G75*
G02*
X123055000Y-122641250I0J218750D01*
G01*
X123055000Y-122203750D01*
G75*
G02*
X123273750Y-121985000I218750J0D01*
G01*
G37*
G36*
G01*
X123273750Y-123560000D02*
X123786250Y-123560000D01*
G75*
G02*
X124005000Y-123778750I0J-218750D01*
G01*
X124005000Y-124216250D01*
G75*
G02*
X123786250Y-124435000I-218750J0D01*
G01*
X123273750Y-124435000D01*
G75*
G02*
X123055000Y-124216250I0J218750D01*
G01*
X123055000Y-123778750D01*
G75*
G02*
X123273750Y-123560000I218750J0D01*
G01*
G37*
G36*
G01*
X121783750Y-123560000D02*
X122296250Y-123560000D01*
G75*
G02*
X122515000Y-123778750I0J-218750D01*
G01*
X122515000Y-124216250D01*
G75*
G02*
X122296250Y-124435000I-218750J0D01*
G01*
X121783750Y-124435000D01*
G75*
G02*
X121565000Y-124216250I0J218750D01*
G01*
X121565000Y-123778750D01*
G75*
G02*
X121783750Y-123560000I218750J0D01*
G01*
G37*
G36*
G01*
X121783750Y-121985000D02*
X122296250Y-121985000D01*
G75*
G02*
X122515000Y-122203750I0J-218750D01*
G01*
X122515000Y-122641250D01*
G75*
G02*
X122296250Y-122860000I-218750J0D01*
G01*
X121783750Y-122860000D01*
G75*
G02*
X121565000Y-122641250I0J218750D01*
G01*
X121565000Y-122203750D01*
G75*
G02*
X121783750Y-121985000I218750J0D01*
G01*
G37*
G36*
G01*
X138985000Y-103923750D02*
X138985000Y-104436250D01*
G75*
G02*
X138766250Y-104655000I-218750J0D01*
G01*
X138328750Y-104655000D01*
G75*
G02*
X138110000Y-104436250I0J218750D01*
G01*
X138110000Y-103923750D01*
G75*
G02*
X138328750Y-103705000I218750J0D01*
G01*
X138766250Y-103705000D01*
G75*
G02*
X138985000Y-103923750I0J-218750D01*
G01*
G37*
G36*
G01*
X137410000Y-103923750D02*
X137410000Y-104436250D01*
G75*
G02*
X137191250Y-104655000I-218750J0D01*
G01*
X136753750Y-104655000D01*
G75*
G02*
X136535000Y-104436250I0J218750D01*
G01*
X136535000Y-103923750D01*
G75*
G02*
X136753750Y-103705000I218750J0D01*
G01*
X137191250Y-103705000D01*
G75*
G02*
X137410000Y-103923750I0J-218750D01*
G01*
G37*
G36*
G01*
X137420000Y-105383750D02*
X137420000Y-105896250D01*
G75*
G02*
X137201250Y-106115000I-218750J0D01*
G01*
X136763750Y-106115000D01*
G75*
G02*
X136545000Y-105896250I0J218750D01*
G01*
X136545000Y-105383750D01*
G75*
G02*
X136763750Y-105165000I218750J0D01*
G01*
X137201250Y-105165000D01*
G75*
G02*
X137420000Y-105383750I0J-218750D01*
G01*
G37*
G36*
G01*
X138995000Y-105383750D02*
X138995000Y-105896250D01*
G75*
G02*
X138776250Y-106115000I-218750J0D01*
G01*
X138338750Y-106115000D01*
G75*
G02*
X138120000Y-105896250I0J218750D01*
G01*
X138120000Y-105383750D01*
G75*
G02*
X138338750Y-105165000I218750J0D01*
G01*
X138776250Y-105165000D01*
G75*
G02*
X138995000Y-105383750I0J-218750D01*
G01*
G37*
M02*
