G04 #@! TF.GenerationSoftware,KiCad,Pcbnew,5.1.9-73d0e3b20d~88~ubuntu20.04.1*
G04 #@! TF.CreationDate,2021-05-24T14:30:18+02:00*
G04 #@! TF.ProjectId,krieger,6b726965-6765-4722-9e6b-696361645f70,v2.0*
G04 #@! TF.SameCoordinates,Original*
G04 #@! TF.FileFunction,Soldermask,Top*
G04 #@! TF.FilePolarity,Negative*
%FSLAX46Y46*%
G04 Gerber Fmt 4.6, Leading zero omitted, Abs format (unit mm)*
G04 Created by KiCad (PCBNEW 5.1.9-73d0e3b20d~88~ubuntu20.04.1) date 2021-05-24 14:30:18*
%MOMM*%
%LPD*%
G01*
G04 APERTURE LIST*
%ADD10C,1.700000*%
%ADD11O,1.600000X1.000000*%
%ADD12C,0.650000*%
%ADD13O,2.100000X1.000000*%
%ADD14R,1.450000X0.300000*%
%ADD15R,1.450000X0.600000*%
%ADD16R,1.060000X0.650000*%
%ADD17O,1.800000X1.070000*%
%ADD18R,1.800000X1.070000*%
%ADD19R,2.400000X2.000000*%
%ADD20R,1.000000X1.000000*%
%ADD21R,1.500000X2.000000*%
G04 APERTURE END LIST*
D10*
X155360000Y-79680000D03*
X152820000Y-79680000D03*
X150280000Y-79680000D03*
X147740000Y-79680000D03*
X145200000Y-79680000D03*
X142660000Y-79680000D03*
X140120000Y-79680000D03*
X137580000Y-79680000D03*
X135040000Y-79680000D03*
X155360000Y-82220000D03*
X152820000Y-82220000D03*
X150280000Y-82220000D03*
X147740000Y-82220000D03*
X145200000Y-82220000D03*
X142660000Y-82220000D03*
X140120000Y-82220000D03*
X137580000Y-82220000D03*
X135040000Y-82220000D03*
X155360000Y-84760000D03*
X152820000Y-84760000D03*
X150280000Y-84760000D03*
X147740000Y-84760000D03*
X145200000Y-84760000D03*
X142660000Y-84760000D03*
X140120000Y-84760000D03*
X137580000Y-84760000D03*
X135040000Y-84760000D03*
X155360000Y-115240000D03*
X152820000Y-115240000D03*
X150280000Y-115240000D03*
X147740000Y-115240000D03*
X145200000Y-115240000D03*
X142660000Y-115240000D03*
X140120000Y-115240000D03*
X137580000Y-115240000D03*
X135040000Y-115240000D03*
X155360000Y-117780000D03*
X152820000Y-117780000D03*
X150280000Y-117780000D03*
X147740000Y-117780000D03*
X145200000Y-117780000D03*
X142660000Y-117780000D03*
X140120000Y-117780000D03*
X137580000Y-117780000D03*
X135040000Y-117780000D03*
X155360000Y-120320000D03*
X152820000Y-120320000D03*
X150280000Y-120320000D03*
X147740000Y-120320000D03*
X145200000Y-120320000D03*
X142660000Y-120320000D03*
X140120000Y-120320000D03*
X137580000Y-120320000D03*
X135040000Y-120320000D03*
X160440000Y-79680000D03*
X160440000Y-82220000D03*
X160440000Y-84760000D03*
X160440000Y-79680000D03*
X160440000Y-84760000D03*
X160440000Y-82220000D03*
X157900000Y-79680000D03*
X157900000Y-84760000D03*
X157900000Y-82220000D03*
X160440000Y-115240000D03*
X160440000Y-117780000D03*
X160440000Y-120320000D03*
X160440000Y-115240000D03*
X160440000Y-120320000D03*
X160440000Y-117780000D03*
X157900000Y-115240000D03*
X157900000Y-120320000D03*
X157900000Y-117780000D03*
X162980000Y-82220000D03*
X162980000Y-84760000D03*
X162980000Y-79680000D03*
X162980000Y-117780000D03*
X162980000Y-120320000D03*
X162980000Y-115240000D03*
X183300000Y-115240000D03*
X183300000Y-117780000D03*
X183300000Y-112700000D03*
X165520000Y-117780000D03*
X165520000Y-120320000D03*
X165520000Y-115240000D03*
X162980000Y-97460000D03*
X165520000Y-97460000D03*
X168060000Y-97460000D03*
X170600000Y-97460000D03*
X173140000Y-97460000D03*
X175680000Y-97460000D03*
X178220000Y-97460000D03*
X180760000Y-97460000D03*
X183300000Y-97460000D03*
X185840000Y-97460000D03*
X188380000Y-97460000D03*
X190920000Y-100000000D03*
X185840000Y-115240000D03*
X162980000Y-87300000D03*
X162980000Y-89840000D03*
X162980000Y-92380000D03*
X162980000Y-94920000D03*
X165520000Y-94920000D03*
X165520000Y-92380000D03*
X165520000Y-89840000D03*
X165520000Y-87300000D03*
X165520000Y-84760000D03*
X165520000Y-120320000D03*
X165520000Y-117780000D03*
X168060000Y-117780000D03*
X168060000Y-120320000D03*
X168060000Y-84760000D03*
X168060000Y-89840000D03*
X168060000Y-87300000D03*
X168060000Y-92380000D03*
X168060000Y-94920000D03*
X170600000Y-94920000D03*
X170600000Y-92380000D03*
X170600000Y-89840000D03*
X170600000Y-87300000D03*
X170600000Y-84760000D03*
X170600000Y-120320000D03*
X170600000Y-117780000D03*
X173140000Y-117780000D03*
X173140000Y-120320000D03*
X173140000Y-84760000D03*
X173140000Y-87300000D03*
X173140000Y-89840000D03*
X173140000Y-92380000D03*
X173140000Y-94920000D03*
X175680000Y-92380000D03*
X175680000Y-89840000D03*
X175680000Y-87300000D03*
X175680000Y-84760000D03*
X175680000Y-120320000D03*
X175680000Y-117780000D03*
X178220000Y-117780000D03*
X178220000Y-120320000D03*
X178220000Y-84760000D03*
X178220000Y-87300000D03*
X178220000Y-89840000D03*
X178220000Y-92380000D03*
X178220000Y-94920000D03*
X175680000Y-94920000D03*
X180760000Y-94920000D03*
X180760000Y-92380000D03*
X180760000Y-89840000D03*
X180760000Y-87300000D03*
X180760000Y-84760000D03*
X180760000Y-120320000D03*
X180760000Y-117780000D03*
X183300000Y-117780000D03*
X183300000Y-120320000D03*
X183300000Y-84760000D03*
X183300000Y-87300000D03*
X183300000Y-89840000D03*
X183300000Y-92380000D03*
X183300000Y-94920000D03*
X185840000Y-94920000D03*
X185840000Y-92380000D03*
X185840000Y-89840000D03*
X185840000Y-87300000D03*
X188380000Y-87300000D03*
X188380000Y-89840000D03*
X188380000Y-92380000D03*
X188380000Y-94920000D03*
X190920000Y-97460000D03*
X190920000Y-94920000D03*
X190920000Y-92380000D03*
X190920000Y-89840000D03*
X190920000Y-87300000D03*
X190920000Y-112700000D03*
X188380000Y-110160000D03*
X185840000Y-110160000D03*
X185840000Y-112700000D03*
X162980000Y-100000000D03*
X165520000Y-100000000D03*
X168060000Y-100000000D03*
X170600000Y-100000000D03*
X173140000Y-100000000D03*
X175680000Y-100000000D03*
X178220000Y-100000000D03*
X180760000Y-100000000D03*
X183300000Y-100000000D03*
X185840000Y-100000000D03*
X188380000Y-100000000D03*
X190920000Y-102540000D03*
X190920000Y-105080000D03*
X190920000Y-107620000D03*
X190920000Y-110160000D03*
X188380000Y-107620000D03*
X185840000Y-107620000D03*
X183300000Y-107620000D03*
X183300000Y-110160000D03*
X183300000Y-112700000D03*
X183300000Y-115240000D03*
X162980000Y-102540000D03*
X165520000Y-102540000D03*
X168060000Y-102540000D03*
X170600000Y-102540000D03*
X173140000Y-102540000D03*
X175680000Y-102540000D03*
X178220000Y-102540000D03*
X180760000Y-102540000D03*
X183300000Y-102540000D03*
X185840000Y-102540000D03*
X188380000Y-102540000D03*
X188380000Y-105080000D03*
X185840000Y-105080000D03*
X183300000Y-105080000D03*
X180760000Y-105080000D03*
X180760000Y-107620000D03*
X180760000Y-110160000D03*
X180760000Y-112700000D03*
X180760000Y-115240000D03*
X178220000Y-115240000D03*
X175680000Y-115240000D03*
X173140000Y-115240000D03*
X170600000Y-115240000D03*
X168060000Y-115240000D03*
X165520000Y-115240000D03*
X162980000Y-107620000D03*
X162980000Y-105080000D03*
X165520000Y-105080000D03*
X168060000Y-105080000D03*
X170600000Y-105080000D03*
X173140000Y-105080000D03*
X175680000Y-105080000D03*
X178220000Y-105080000D03*
X178220000Y-107620000D03*
X178220000Y-110160000D03*
X178220000Y-112700000D03*
X175680000Y-112700000D03*
X173140000Y-112700000D03*
X170600000Y-112700000D03*
X168060000Y-112700000D03*
X165520000Y-112700000D03*
X162980000Y-112700000D03*
X162980000Y-110160000D03*
X165520000Y-110160000D03*
X165520000Y-107620000D03*
X168060000Y-107620000D03*
X170600000Y-107620000D03*
X175680000Y-107620000D03*
X175680000Y-110160000D03*
X173140000Y-110160000D03*
X170600000Y-110160000D03*
X168060000Y-110160000D03*
X173140000Y-107620000D03*
X190920000Y-84760000D03*
X188380000Y-84760000D03*
X185840000Y-84760000D03*
X190920000Y-115240000D03*
X188380000Y-115240000D03*
X188380000Y-112700000D03*
X185840000Y-117780000D03*
X185840000Y-120320000D03*
X160440000Y-102540000D03*
X160440000Y-100000000D03*
X160440000Y-105080000D03*
X160440000Y-112700000D03*
X160440000Y-110160000D03*
X160440000Y-107620000D03*
X160440000Y-87300000D03*
X160440000Y-89840000D03*
X160440000Y-97460000D03*
X160440000Y-92380000D03*
X160440000Y-94920000D03*
X157900000Y-97460000D03*
X157900000Y-94920000D03*
X157900000Y-102540000D03*
X157900000Y-100000000D03*
X157900000Y-89840000D03*
X157900000Y-92380000D03*
X157900000Y-87300000D03*
X157900000Y-110160000D03*
X157900000Y-107620000D03*
X157900000Y-105080000D03*
X157900000Y-112700000D03*
X168060000Y-79680000D03*
X168060000Y-82220000D03*
X170600000Y-82220000D03*
X173140000Y-82220000D03*
X173140000Y-79680000D03*
X170600000Y-79680000D03*
X175680000Y-82220000D03*
X175680000Y-79680000D03*
X178220000Y-82220000D03*
X178220000Y-79680000D03*
X183300000Y-82220000D03*
X180760000Y-82220000D03*
X180760000Y-79680000D03*
X183300000Y-79680000D03*
X185840000Y-82220000D03*
X185840000Y-79680000D03*
X165520000Y-79680000D03*
X165520000Y-79680000D03*
X165520000Y-82220000D03*
X188380000Y-117780000D03*
X188380000Y-120320000D03*
X190920000Y-117780000D03*
X190920000Y-120320000D03*
X188380000Y-79680000D03*
X190920000Y-79680000D03*
X190920000Y-82220000D03*
X188380000Y-82220000D03*
X193460000Y-84760000D03*
X196000000Y-97460000D03*
X198540000Y-100000000D03*
X193460000Y-97460000D03*
X193460000Y-115240000D03*
X198540000Y-110160000D03*
X193460000Y-110160000D03*
X198540000Y-87300000D03*
X193460000Y-120320000D03*
X193460000Y-117780000D03*
X196000000Y-87300000D03*
X198540000Y-117780000D03*
X196000000Y-120320000D03*
X193460000Y-102540000D03*
X193460000Y-79680000D03*
X196000000Y-94920000D03*
X196000000Y-112700000D03*
X196000000Y-115240000D03*
X198540000Y-94920000D03*
X193460000Y-107620000D03*
X193460000Y-105080000D03*
X198540000Y-89840000D03*
X198540000Y-105080000D03*
X193460000Y-112700000D03*
X196000000Y-107620000D03*
X198540000Y-115240000D03*
X198540000Y-112700000D03*
X196000000Y-110160000D03*
X196000000Y-82220000D03*
X196000000Y-79680000D03*
X198540000Y-120320000D03*
X198540000Y-82220000D03*
X198540000Y-79680000D03*
X198540000Y-84760000D03*
X193460000Y-100000000D03*
X196000000Y-84760000D03*
X193460000Y-87300000D03*
X193460000Y-82220000D03*
X193460000Y-94920000D03*
X198540000Y-102540000D03*
X198540000Y-97460000D03*
X193460000Y-89840000D03*
X196000000Y-89840000D03*
X196000000Y-100000000D03*
X196000000Y-105080000D03*
X196000000Y-117780000D03*
X193460000Y-92380000D03*
X198540000Y-107620000D03*
X198540000Y-92380000D03*
X196000000Y-92380000D03*
X196000000Y-102540000D03*
G36*
G01*
X130743750Y-81185000D02*
X131256250Y-81185000D01*
G75*
G02*
X131475000Y-81403750I0J-218750D01*
G01*
X131475000Y-81841250D01*
G75*
G02*
X131256250Y-82060000I-218750J0D01*
G01*
X130743750Y-82060000D01*
G75*
G02*
X130525000Y-81841250I0J218750D01*
G01*
X130525000Y-81403750D01*
G75*
G02*
X130743750Y-81185000I218750J0D01*
G01*
G37*
G36*
G01*
X130743750Y-82760000D02*
X131256250Y-82760000D01*
G75*
G02*
X131475000Y-82978750I0J-218750D01*
G01*
X131475000Y-83416250D01*
G75*
G02*
X131256250Y-83635000I-218750J0D01*
G01*
X130743750Y-83635000D01*
G75*
G02*
X130525000Y-83416250I0J218750D01*
G01*
X130525000Y-82978750D01*
G75*
G02*
X130743750Y-82760000I218750J0D01*
G01*
G37*
D11*
X121640000Y-104320000D03*
D12*
X125290000Y-102890000D03*
D11*
X121640000Y-95680000D03*
D12*
X125290000Y-97110000D03*
D13*
X125820000Y-95680000D03*
X125820000Y-104320000D03*
D14*
X126735000Y-99750000D03*
X126735000Y-101750000D03*
X126735000Y-101250000D03*
X126735000Y-100750000D03*
X126735000Y-100250000D03*
X126735000Y-99250000D03*
X126735000Y-98750000D03*
X126735000Y-98250000D03*
D15*
X126735000Y-103250000D03*
X126735000Y-102450000D03*
X126735000Y-97550000D03*
X126735000Y-96750000D03*
X126735000Y-96750000D03*
X126735000Y-97550000D03*
X126735000Y-102450000D03*
X126735000Y-103250000D03*
G36*
G01*
X128463750Y-94935000D02*
X128976250Y-94935000D01*
G75*
G02*
X129195000Y-95153750I0J-218750D01*
G01*
X129195000Y-95591250D01*
G75*
G02*
X128976250Y-95810000I-218750J0D01*
G01*
X128463750Y-95810000D01*
G75*
G02*
X128245000Y-95591250I0J218750D01*
G01*
X128245000Y-95153750D01*
G75*
G02*
X128463750Y-94935000I218750J0D01*
G01*
G37*
G36*
G01*
X128463750Y-96510000D02*
X128976250Y-96510000D01*
G75*
G02*
X129195000Y-96728750I0J-218750D01*
G01*
X129195000Y-97166250D01*
G75*
G02*
X128976250Y-97385000I-218750J0D01*
G01*
X128463750Y-97385000D01*
G75*
G02*
X128245000Y-97166250I0J218750D01*
G01*
X128245000Y-96728750D01*
G75*
G02*
X128463750Y-96510000I218750J0D01*
G01*
G37*
G36*
G01*
X126874997Y-109165000D02*
X128725003Y-109165000D01*
G75*
G02*
X128975000Y-109414997I0J-249997D01*
G01*
X128975000Y-110240003D01*
G75*
G02*
X128725003Y-110490000I-249997J0D01*
G01*
X126874997Y-110490000D01*
G75*
G02*
X126625000Y-110240003I0J249997D01*
G01*
X126625000Y-109414997D01*
G75*
G02*
X126874997Y-109165000I249997J0D01*
G01*
G37*
G36*
G01*
X126874997Y-106090000D02*
X128725003Y-106090000D01*
G75*
G02*
X128975000Y-106339997I0J-249997D01*
G01*
X128975000Y-107165003D01*
G75*
G02*
X128725003Y-107415000I-249997J0D01*
G01*
X126874997Y-107415000D01*
G75*
G02*
X126625000Y-107165003I0J249997D01*
G01*
X126625000Y-106339997D01*
G75*
G02*
X126874997Y-106090000I249997J0D01*
G01*
G37*
G36*
G01*
X134084997Y-105650000D02*
X135935003Y-105650000D01*
G75*
G02*
X136185000Y-105899997I0J-249997D01*
G01*
X136185000Y-106725003D01*
G75*
G02*
X135935003Y-106975000I-249997J0D01*
G01*
X134084997Y-106975000D01*
G75*
G02*
X133835000Y-106725003I0J249997D01*
G01*
X133835000Y-105899997D01*
G75*
G02*
X134084997Y-105650000I249997J0D01*
G01*
G37*
G36*
G01*
X134084997Y-108725000D02*
X135935003Y-108725000D01*
G75*
G02*
X136185000Y-108974997I0J-249997D01*
G01*
X136185000Y-109800003D01*
G75*
G02*
X135935003Y-110050000I-249997J0D01*
G01*
X134084997Y-110050000D01*
G75*
G02*
X133835000Y-109800003I0J249997D01*
G01*
X133835000Y-108974997D01*
G75*
G02*
X134084997Y-108725000I249997J0D01*
G01*
G37*
G36*
G01*
X149193750Y-98350000D02*
X149706250Y-98350000D01*
G75*
G02*
X149925000Y-98568750I0J-218750D01*
G01*
X149925000Y-99006250D01*
G75*
G02*
X149706250Y-99225000I-218750J0D01*
G01*
X149193750Y-99225000D01*
G75*
G02*
X148975000Y-99006250I0J218750D01*
G01*
X148975000Y-98568750D01*
G75*
G02*
X149193750Y-98350000I218750J0D01*
G01*
G37*
G36*
G01*
X149193750Y-96775000D02*
X149706250Y-96775000D01*
G75*
G02*
X149925000Y-96993750I0J-218750D01*
G01*
X149925000Y-97431250D01*
G75*
G02*
X149706250Y-97650000I-218750J0D01*
G01*
X149193750Y-97650000D01*
G75*
G02*
X148975000Y-97431250I0J218750D01*
G01*
X148975000Y-96993750D01*
G75*
G02*
X149193750Y-96775000I218750J0D01*
G01*
G37*
G36*
G01*
X134806250Y-105045000D02*
X134293750Y-105045000D01*
G75*
G02*
X134075000Y-104826250I0J218750D01*
G01*
X134075000Y-104388750D01*
G75*
G02*
X134293750Y-104170000I218750J0D01*
G01*
X134806250Y-104170000D01*
G75*
G02*
X135025000Y-104388750I0J-218750D01*
G01*
X135025000Y-104826250D01*
G75*
G02*
X134806250Y-105045000I-218750J0D01*
G01*
G37*
G36*
G01*
X134806250Y-103470000D02*
X134293750Y-103470000D01*
G75*
G02*
X134075000Y-103251250I0J218750D01*
G01*
X134075000Y-102813750D01*
G75*
G02*
X134293750Y-102595000I218750J0D01*
G01*
X134806250Y-102595000D01*
G75*
G02*
X135025000Y-102813750I0J-218750D01*
G01*
X135025000Y-103251250D01*
G75*
G02*
X134806250Y-103470000I-218750J0D01*
G01*
G37*
G36*
G01*
X146160000Y-92786250D02*
X146160000Y-92273750D01*
G75*
G02*
X146378750Y-92055000I218750J0D01*
G01*
X146816250Y-92055000D01*
G75*
G02*
X147035000Y-92273750I0J-218750D01*
G01*
X147035000Y-92786250D01*
G75*
G02*
X146816250Y-93005000I-218750J0D01*
G01*
X146378750Y-93005000D01*
G75*
G02*
X146160000Y-92786250I0J218750D01*
G01*
G37*
G36*
G01*
X144585000Y-92786250D02*
X144585000Y-92273750D01*
G75*
G02*
X144803750Y-92055000I218750J0D01*
G01*
X145241250Y-92055000D01*
G75*
G02*
X145460000Y-92273750I0J-218750D01*
G01*
X145460000Y-92786250D01*
G75*
G02*
X145241250Y-93005000I-218750J0D01*
G01*
X144803750Y-93005000D01*
G75*
G02*
X144585000Y-92786250I0J218750D01*
G01*
G37*
G36*
G01*
X137326250Y-94455000D02*
X136813750Y-94455000D01*
G75*
G02*
X136595000Y-94236250I0J218750D01*
G01*
X136595000Y-93798750D01*
G75*
G02*
X136813750Y-93580000I218750J0D01*
G01*
X137326250Y-93580000D01*
G75*
G02*
X137545000Y-93798750I0J-218750D01*
G01*
X137545000Y-94236250D01*
G75*
G02*
X137326250Y-94455000I-218750J0D01*
G01*
G37*
G36*
G01*
X137326250Y-92880000D02*
X136813750Y-92880000D01*
G75*
G02*
X136595000Y-92661250I0J218750D01*
G01*
X136595000Y-92223750D01*
G75*
G02*
X136813750Y-92005000I218750J0D01*
G01*
X137326250Y-92005000D01*
G75*
G02*
X137545000Y-92223750I0J-218750D01*
G01*
X137545000Y-92661250D01*
G75*
G02*
X137326250Y-92880000I-218750J0D01*
G01*
G37*
G36*
G01*
X152135000Y-96466250D02*
X152135000Y-95953750D01*
G75*
G02*
X152353750Y-95735000I218750J0D01*
G01*
X152791250Y-95735000D01*
G75*
G02*
X153010000Y-95953750I0J-218750D01*
G01*
X153010000Y-96466250D01*
G75*
G02*
X152791250Y-96685000I-218750J0D01*
G01*
X152353750Y-96685000D01*
G75*
G02*
X152135000Y-96466250I0J218750D01*
G01*
G37*
G36*
G01*
X153710000Y-96466250D02*
X153710000Y-95953750D01*
G75*
G02*
X153928750Y-95735000I218750J0D01*
G01*
X154366250Y-95735000D01*
G75*
G02*
X154585000Y-95953750I0J-218750D01*
G01*
X154585000Y-96466250D01*
G75*
G02*
X154366250Y-96685000I-218750J0D01*
G01*
X153928750Y-96685000D01*
G75*
G02*
X153710000Y-96466250I0J218750D01*
G01*
G37*
G36*
G01*
X128976250Y-103490000D02*
X128463750Y-103490000D01*
G75*
G02*
X128245000Y-103271250I0J218750D01*
G01*
X128245000Y-102833750D01*
G75*
G02*
X128463750Y-102615000I218750J0D01*
G01*
X128976250Y-102615000D01*
G75*
G02*
X129195000Y-102833750I0J-218750D01*
G01*
X129195000Y-103271250D01*
G75*
G02*
X128976250Y-103490000I-218750J0D01*
G01*
G37*
G36*
G01*
X128976250Y-105065000D02*
X128463750Y-105065000D01*
G75*
G02*
X128245000Y-104846250I0J218750D01*
G01*
X128245000Y-104408750D01*
G75*
G02*
X128463750Y-104190000I218750J0D01*
G01*
X128976250Y-104190000D01*
G75*
G02*
X129195000Y-104408750I0J-218750D01*
G01*
X129195000Y-104846250D01*
G75*
G02*
X128976250Y-105065000I-218750J0D01*
G01*
G37*
G36*
G01*
X148636250Y-107975000D02*
X148123750Y-107975000D01*
G75*
G02*
X147905000Y-107756250I0J218750D01*
G01*
X147905000Y-107318750D01*
G75*
G02*
X148123750Y-107100000I218750J0D01*
G01*
X148636250Y-107100000D01*
G75*
G02*
X148855000Y-107318750I0J-218750D01*
G01*
X148855000Y-107756250D01*
G75*
G02*
X148636250Y-107975000I-218750J0D01*
G01*
G37*
G36*
G01*
X148636250Y-106400000D02*
X148123750Y-106400000D01*
G75*
G02*
X147905000Y-106181250I0J218750D01*
G01*
X147905000Y-105743750D01*
G75*
G02*
X148123750Y-105525000I218750J0D01*
G01*
X148636250Y-105525000D01*
G75*
G02*
X148855000Y-105743750I0J-218750D01*
G01*
X148855000Y-106181250D01*
G75*
G02*
X148636250Y-106400000I-218750J0D01*
G01*
G37*
G36*
G01*
X130743750Y-85750000D02*
X131256250Y-85750000D01*
G75*
G02*
X131475000Y-85968750I0J-218750D01*
G01*
X131475000Y-86406250D01*
G75*
G02*
X131256250Y-86625000I-218750J0D01*
G01*
X130743750Y-86625000D01*
G75*
G02*
X130525000Y-86406250I0J218750D01*
G01*
X130525000Y-85968750D01*
G75*
G02*
X130743750Y-85750000I218750J0D01*
G01*
G37*
G36*
G01*
X130743750Y-84175000D02*
X131256250Y-84175000D01*
G75*
G02*
X131475000Y-84393750I0J-218750D01*
G01*
X131475000Y-84831250D01*
G75*
G02*
X131256250Y-85050000I-218750J0D01*
G01*
X130743750Y-85050000D01*
G75*
G02*
X130525000Y-84831250I0J218750D01*
G01*
X130525000Y-84393750D01*
G75*
G02*
X130743750Y-84175000I218750J0D01*
G01*
G37*
G36*
G01*
X130743750Y-87175000D02*
X131256250Y-87175000D01*
G75*
G02*
X131475000Y-87393750I0J-218750D01*
G01*
X131475000Y-87831250D01*
G75*
G02*
X131256250Y-88050000I-218750J0D01*
G01*
X130743750Y-88050000D01*
G75*
G02*
X130525000Y-87831250I0J218750D01*
G01*
X130525000Y-87393750D01*
G75*
G02*
X130743750Y-87175000I218750J0D01*
G01*
G37*
G36*
G01*
X130743750Y-88750000D02*
X131256250Y-88750000D01*
G75*
G02*
X131475000Y-88968750I0J-218750D01*
G01*
X131475000Y-89406250D01*
G75*
G02*
X131256250Y-89625000I-218750J0D01*
G01*
X130743750Y-89625000D01*
G75*
G02*
X130525000Y-89406250I0J218750D01*
G01*
X130525000Y-88968750D01*
G75*
G02*
X130743750Y-88750000I218750J0D01*
G01*
G37*
G36*
G01*
X131266250Y-111250000D02*
X130753750Y-111250000D01*
G75*
G02*
X130535000Y-111031250I0J218750D01*
G01*
X130535000Y-110593750D01*
G75*
G02*
X130753750Y-110375000I218750J0D01*
G01*
X131266250Y-110375000D01*
G75*
G02*
X131485000Y-110593750I0J-218750D01*
G01*
X131485000Y-111031250D01*
G75*
G02*
X131266250Y-111250000I-218750J0D01*
G01*
G37*
G36*
G01*
X131266250Y-112825000D02*
X130753750Y-112825000D01*
G75*
G02*
X130535000Y-112606250I0J218750D01*
G01*
X130535000Y-112168750D01*
G75*
G02*
X130753750Y-111950000I218750J0D01*
G01*
X131266250Y-111950000D01*
G75*
G02*
X131485000Y-112168750I0J-218750D01*
G01*
X131485000Y-112606250D01*
G75*
G02*
X131266250Y-112825000I-218750J0D01*
G01*
G37*
D16*
X130300000Y-106750000D03*
X130300000Y-107700000D03*
X130300000Y-108650000D03*
X132500000Y-108650000D03*
X132500000Y-106750000D03*
X131200000Y-100950000D03*
X131200000Y-100000000D03*
X131200000Y-99050000D03*
X129000000Y-99050000D03*
X129000000Y-100950000D03*
X129000000Y-100000000D03*
D17*
X127000000Y-87310000D03*
X127000000Y-86040000D03*
X127000000Y-84770000D03*
D18*
X127000000Y-83500000D03*
X127000000Y-112700000D03*
D17*
X127000000Y-113970000D03*
X127000000Y-115240000D03*
X127000000Y-116510000D03*
G36*
G01*
X131266250Y-115825000D02*
X130753750Y-115825000D01*
G75*
G02*
X130535000Y-115606250I0J218750D01*
G01*
X130535000Y-115168750D01*
G75*
G02*
X130753750Y-114950000I218750J0D01*
G01*
X131266250Y-114950000D01*
G75*
G02*
X131485000Y-115168750I0J-218750D01*
G01*
X131485000Y-115606250D01*
G75*
G02*
X131266250Y-115825000I-218750J0D01*
G01*
G37*
G36*
G01*
X131266250Y-114250000D02*
X130753750Y-114250000D01*
G75*
G02*
X130535000Y-114031250I0J218750D01*
G01*
X130535000Y-113593750D01*
G75*
G02*
X130753750Y-113375000I218750J0D01*
G01*
X131266250Y-113375000D01*
G75*
G02*
X131485000Y-113593750I0J-218750D01*
G01*
X131485000Y-114031250D01*
G75*
G02*
X131266250Y-114250000I-218750J0D01*
G01*
G37*
G36*
G01*
X131266250Y-117250000D02*
X130753750Y-117250000D01*
G75*
G02*
X130535000Y-117031250I0J218750D01*
G01*
X130535000Y-116593750D01*
G75*
G02*
X130753750Y-116375000I218750J0D01*
G01*
X131266250Y-116375000D01*
G75*
G02*
X131485000Y-116593750I0J-218750D01*
G01*
X131485000Y-117031250D01*
G75*
G02*
X131266250Y-117250000I-218750J0D01*
G01*
G37*
G36*
G01*
X131266250Y-118825000D02*
X130753750Y-118825000D01*
G75*
G02*
X130535000Y-118606250I0J218750D01*
G01*
X130535000Y-118168750D01*
G75*
G02*
X130753750Y-117950000I218750J0D01*
G01*
X131266250Y-117950000D01*
G75*
G02*
X131485000Y-118168750I0J-218750D01*
G01*
X131485000Y-118606250D01*
G75*
G02*
X131266250Y-118825000I-218750J0D01*
G01*
G37*
G36*
G01*
X128935000Y-90913750D02*
X128935000Y-91426250D01*
G75*
G02*
X128716250Y-91645000I-218750J0D01*
G01*
X128278750Y-91645000D01*
G75*
G02*
X128060000Y-91426250I0J218750D01*
G01*
X128060000Y-90913750D01*
G75*
G02*
X128278750Y-90695000I218750J0D01*
G01*
X128716250Y-90695000D01*
G75*
G02*
X128935000Y-90913750I0J-218750D01*
G01*
G37*
G36*
G01*
X127360000Y-90913750D02*
X127360000Y-91426250D01*
G75*
G02*
X127141250Y-91645000I-218750J0D01*
G01*
X126703750Y-91645000D01*
G75*
G02*
X126485000Y-91426250I0J218750D01*
G01*
X126485000Y-90913750D01*
G75*
G02*
X126703750Y-90695000I218750J0D01*
G01*
X127141250Y-90695000D01*
G75*
G02*
X127360000Y-90913750I0J-218750D01*
G01*
G37*
G36*
G01*
X127370000Y-92373750D02*
X127370000Y-92886250D01*
G75*
G02*
X127151250Y-93105000I-218750J0D01*
G01*
X126713750Y-93105000D01*
G75*
G02*
X126495000Y-92886250I0J218750D01*
G01*
X126495000Y-92373750D01*
G75*
G02*
X126713750Y-92155000I218750J0D01*
G01*
X127151250Y-92155000D01*
G75*
G02*
X127370000Y-92373750I0J-218750D01*
G01*
G37*
G36*
G01*
X128945000Y-92373750D02*
X128945000Y-92886250D01*
G75*
G02*
X128726250Y-93105000I-218750J0D01*
G01*
X128288750Y-93105000D01*
G75*
G02*
X128070000Y-92886250I0J218750D01*
G01*
X128070000Y-92373750D01*
G75*
G02*
X128288750Y-92155000I218750J0D01*
G01*
X128726250Y-92155000D01*
G75*
G02*
X128945000Y-92373750I0J-218750D01*
G01*
G37*
G36*
G01*
X146650000Y-105525000D02*
X147150000Y-105525000D01*
G75*
G02*
X147375000Y-105750000I0J-225000D01*
G01*
X147375000Y-106200000D01*
G75*
G02*
X147150000Y-106425000I-225000J0D01*
G01*
X146650000Y-106425000D01*
G75*
G02*
X146425000Y-106200000I0J225000D01*
G01*
X146425000Y-105750000D01*
G75*
G02*
X146650000Y-105525000I225000J0D01*
G01*
G37*
G36*
G01*
X146650000Y-107075000D02*
X147150000Y-107075000D01*
G75*
G02*
X147375000Y-107300000I0J-225000D01*
G01*
X147375000Y-107750000D01*
G75*
G02*
X147150000Y-107975000I-225000J0D01*
G01*
X146650000Y-107975000D01*
G75*
G02*
X146425000Y-107750000I0J225000D01*
G01*
X146425000Y-107300000D01*
G75*
G02*
X146650000Y-107075000I225000J0D01*
G01*
G37*
G36*
G01*
X153745000Y-105830000D02*
X153745000Y-105330000D01*
G75*
G02*
X153970000Y-105105000I225000J0D01*
G01*
X154420000Y-105105000D01*
G75*
G02*
X154645000Y-105330000I0J-225000D01*
G01*
X154645000Y-105830000D01*
G75*
G02*
X154420000Y-106055000I-225000J0D01*
G01*
X153970000Y-106055000D01*
G75*
G02*
X153745000Y-105830000I0J225000D01*
G01*
G37*
G36*
G01*
X152195000Y-105830000D02*
X152195000Y-105330000D01*
G75*
G02*
X152420000Y-105105000I225000J0D01*
G01*
X152870000Y-105105000D01*
G75*
G02*
X153095000Y-105330000I0J-225000D01*
G01*
X153095000Y-105830000D01*
G75*
G02*
X152870000Y-106055000I-225000J0D01*
G01*
X152420000Y-106055000D01*
G75*
G02*
X152195000Y-105830000I0J225000D01*
G01*
G37*
G36*
G01*
X152135000Y-98000000D02*
X152135000Y-97500000D01*
G75*
G02*
X152360000Y-97275000I225000J0D01*
G01*
X152810000Y-97275000D01*
G75*
G02*
X153035000Y-97500000I0J-225000D01*
G01*
X153035000Y-98000000D01*
G75*
G02*
X152810000Y-98225000I-225000J0D01*
G01*
X152360000Y-98225000D01*
G75*
G02*
X152135000Y-98000000I0J225000D01*
G01*
G37*
G36*
G01*
X153685000Y-98000000D02*
X153685000Y-97500000D01*
G75*
G02*
X153910000Y-97275000I225000J0D01*
G01*
X154360000Y-97275000D01*
G75*
G02*
X154585000Y-97500000I0J-225000D01*
G01*
X154585000Y-98000000D01*
G75*
G02*
X154360000Y-98225000I-225000J0D01*
G01*
X153910000Y-98225000D01*
G75*
G02*
X153685000Y-98000000I0J225000D01*
G01*
G37*
G36*
G01*
X139000000Y-91475000D02*
X138500000Y-91475000D01*
G75*
G02*
X138275000Y-91250000I0J225000D01*
G01*
X138275000Y-90800000D01*
G75*
G02*
X138500000Y-90575000I225000J0D01*
G01*
X139000000Y-90575000D01*
G75*
G02*
X139225000Y-90800000I0J-225000D01*
G01*
X139225000Y-91250000D01*
G75*
G02*
X139000000Y-91475000I-225000J0D01*
G01*
G37*
G36*
G01*
X139000000Y-93025000D02*
X138500000Y-93025000D01*
G75*
G02*
X138275000Y-92800000I0J225000D01*
G01*
X138275000Y-92350000D01*
G75*
G02*
X138500000Y-92125000I225000J0D01*
G01*
X139000000Y-92125000D01*
G75*
G02*
X139225000Y-92350000I0J-225000D01*
G01*
X139225000Y-92800000D01*
G75*
G02*
X139000000Y-93025000I-225000J0D01*
G01*
G37*
G36*
G01*
X148450000Y-103675000D02*
X148450000Y-103825000D01*
G75*
G02*
X148375000Y-103900000I-75000J0D01*
G01*
X146975000Y-103900000D01*
G75*
G02*
X146900000Y-103825000I0J75000D01*
G01*
X146900000Y-103675000D01*
G75*
G02*
X146975000Y-103600000I75000J0D01*
G01*
X148375000Y-103600000D01*
G75*
G02*
X148450000Y-103675000I0J-75000D01*
G01*
G37*
G36*
G01*
X148450000Y-103175000D02*
X148450000Y-103325000D01*
G75*
G02*
X148375000Y-103400000I-75000J0D01*
G01*
X146975000Y-103400000D01*
G75*
G02*
X146900000Y-103325000I0J75000D01*
G01*
X146900000Y-103175000D01*
G75*
G02*
X146975000Y-103100000I75000J0D01*
G01*
X148375000Y-103100000D01*
G75*
G02*
X148450000Y-103175000I0J-75000D01*
G01*
G37*
G36*
G01*
X148450000Y-102675000D02*
X148450000Y-102825000D01*
G75*
G02*
X148375000Y-102900000I-75000J0D01*
G01*
X146975000Y-102900000D01*
G75*
G02*
X146900000Y-102825000I0J75000D01*
G01*
X146900000Y-102675000D01*
G75*
G02*
X146975000Y-102600000I75000J0D01*
G01*
X148375000Y-102600000D01*
G75*
G02*
X148450000Y-102675000I0J-75000D01*
G01*
G37*
G36*
G01*
X148450000Y-102175000D02*
X148450000Y-102325000D01*
G75*
G02*
X148375000Y-102400000I-75000J0D01*
G01*
X146975000Y-102400000D01*
G75*
G02*
X146900000Y-102325000I0J75000D01*
G01*
X146900000Y-102175000D01*
G75*
G02*
X146975000Y-102100000I75000J0D01*
G01*
X148375000Y-102100000D01*
G75*
G02*
X148450000Y-102175000I0J-75000D01*
G01*
G37*
G36*
G01*
X148450000Y-101675000D02*
X148450000Y-101825000D01*
G75*
G02*
X148375000Y-101900000I-75000J0D01*
G01*
X146975000Y-101900000D01*
G75*
G02*
X146900000Y-101825000I0J75000D01*
G01*
X146900000Y-101675000D01*
G75*
G02*
X146975000Y-101600000I75000J0D01*
G01*
X148375000Y-101600000D01*
G75*
G02*
X148450000Y-101675000I0J-75000D01*
G01*
G37*
G36*
G01*
X148450000Y-101175000D02*
X148450000Y-101325000D01*
G75*
G02*
X148375000Y-101400000I-75000J0D01*
G01*
X146975000Y-101400000D01*
G75*
G02*
X146900000Y-101325000I0J75000D01*
G01*
X146900000Y-101175000D01*
G75*
G02*
X146975000Y-101100000I75000J0D01*
G01*
X148375000Y-101100000D01*
G75*
G02*
X148450000Y-101175000I0J-75000D01*
G01*
G37*
G36*
G01*
X148450000Y-100675000D02*
X148450000Y-100825000D01*
G75*
G02*
X148375000Y-100900000I-75000J0D01*
G01*
X146975000Y-100900000D01*
G75*
G02*
X146900000Y-100825000I0J75000D01*
G01*
X146900000Y-100675000D01*
G75*
G02*
X146975000Y-100600000I75000J0D01*
G01*
X148375000Y-100600000D01*
G75*
G02*
X148450000Y-100675000I0J-75000D01*
G01*
G37*
G36*
G01*
X148450000Y-100175000D02*
X148450000Y-100325000D01*
G75*
G02*
X148375000Y-100400000I-75000J0D01*
G01*
X146975000Y-100400000D01*
G75*
G02*
X146900000Y-100325000I0J75000D01*
G01*
X146900000Y-100175000D01*
G75*
G02*
X146975000Y-100100000I75000J0D01*
G01*
X148375000Y-100100000D01*
G75*
G02*
X148450000Y-100175000I0J-75000D01*
G01*
G37*
G36*
G01*
X148450000Y-99675000D02*
X148450000Y-99825000D01*
G75*
G02*
X148375000Y-99900000I-75000J0D01*
G01*
X146975000Y-99900000D01*
G75*
G02*
X146900000Y-99825000I0J75000D01*
G01*
X146900000Y-99675000D01*
G75*
G02*
X146975000Y-99600000I75000J0D01*
G01*
X148375000Y-99600000D01*
G75*
G02*
X148450000Y-99675000I0J-75000D01*
G01*
G37*
G36*
G01*
X148450000Y-99175000D02*
X148450000Y-99325000D01*
G75*
G02*
X148375000Y-99400000I-75000J0D01*
G01*
X146975000Y-99400000D01*
G75*
G02*
X146900000Y-99325000I0J75000D01*
G01*
X146900000Y-99175000D01*
G75*
G02*
X146975000Y-99100000I75000J0D01*
G01*
X148375000Y-99100000D01*
G75*
G02*
X148450000Y-99175000I0J-75000D01*
G01*
G37*
G36*
G01*
X148450000Y-98675000D02*
X148450000Y-98825000D01*
G75*
G02*
X148375000Y-98900000I-75000J0D01*
G01*
X146975000Y-98900000D01*
G75*
G02*
X146900000Y-98825000I0J75000D01*
G01*
X146900000Y-98675000D01*
G75*
G02*
X146975000Y-98600000I75000J0D01*
G01*
X148375000Y-98600000D01*
G75*
G02*
X148450000Y-98675000I0J-75000D01*
G01*
G37*
G36*
G01*
X148450000Y-98175000D02*
X148450000Y-98325000D01*
G75*
G02*
X148375000Y-98400000I-75000J0D01*
G01*
X146975000Y-98400000D01*
G75*
G02*
X146900000Y-98325000I0J75000D01*
G01*
X146900000Y-98175000D01*
G75*
G02*
X146975000Y-98100000I75000J0D01*
G01*
X148375000Y-98100000D01*
G75*
G02*
X148450000Y-98175000I0J-75000D01*
G01*
G37*
G36*
G01*
X148450000Y-97675000D02*
X148450000Y-97825000D01*
G75*
G02*
X148375000Y-97900000I-75000J0D01*
G01*
X146975000Y-97900000D01*
G75*
G02*
X146900000Y-97825000I0J75000D01*
G01*
X146900000Y-97675000D01*
G75*
G02*
X146975000Y-97600000I75000J0D01*
G01*
X148375000Y-97600000D01*
G75*
G02*
X148450000Y-97675000I0J-75000D01*
G01*
G37*
G36*
G01*
X148450000Y-97175000D02*
X148450000Y-97325000D01*
G75*
G02*
X148375000Y-97400000I-75000J0D01*
G01*
X146975000Y-97400000D01*
G75*
G02*
X146900000Y-97325000I0J75000D01*
G01*
X146900000Y-97175000D01*
G75*
G02*
X146975000Y-97100000I75000J0D01*
G01*
X148375000Y-97100000D01*
G75*
G02*
X148450000Y-97175000I0J-75000D01*
G01*
G37*
G36*
G01*
X148450000Y-96675000D02*
X148450000Y-96825000D01*
G75*
G02*
X148375000Y-96900000I-75000J0D01*
G01*
X146975000Y-96900000D01*
G75*
G02*
X146900000Y-96825000I0J75000D01*
G01*
X146900000Y-96675000D01*
G75*
G02*
X146975000Y-96600000I75000J0D01*
G01*
X148375000Y-96600000D01*
G75*
G02*
X148450000Y-96675000I0J-75000D01*
G01*
G37*
G36*
G01*
X148450000Y-96175000D02*
X148450000Y-96325000D01*
G75*
G02*
X148375000Y-96400000I-75000J0D01*
G01*
X146975000Y-96400000D01*
G75*
G02*
X146900000Y-96325000I0J75000D01*
G01*
X146900000Y-96175000D01*
G75*
G02*
X146975000Y-96100000I75000J0D01*
G01*
X148375000Y-96100000D01*
G75*
G02*
X148450000Y-96175000I0J-75000D01*
G01*
G37*
G36*
G01*
X145900000Y-93625000D02*
X145900000Y-95025000D01*
G75*
G02*
X145825000Y-95100000I-75000J0D01*
G01*
X145675000Y-95100000D01*
G75*
G02*
X145600000Y-95025000I0J75000D01*
G01*
X145600000Y-93625000D01*
G75*
G02*
X145675000Y-93550000I75000J0D01*
G01*
X145825000Y-93550000D01*
G75*
G02*
X145900000Y-93625000I0J-75000D01*
G01*
G37*
G36*
G01*
X145400000Y-93625000D02*
X145400000Y-95025000D01*
G75*
G02*
X145325000Y-95100000I-75000J0D01*
G01*
X145175000Y-95100000D01*
G75*
G02*
X145100000Y-95025000I0J75000D01*
G01*
X145100000Y-93625000D01*
G75*
G02*
X145175000Y-93550000I75000J0D01*
G01*
X145325000Y-93550000D01*
G75*
G02*
X145400000Y-93625000I0J-75000D01*
G01*
G37*
G36*
G01*
X144900000Y-93625000D02*
X144900000Y-95025000D01*
G75*
G02*
X144825000Y-95100000I-75000J0D01*
G01*
X144675000Y-95100000D01*
G75*
G02*
X144600000Y-95025000I0J75000D01*
G01*
X144600000Y-93625000D01*
G75*
G02*
X144675000Y-93550000I75000J0D01*
G01*
X144825000Y-93550000D01*
G75*
G02*
X144900000Y-93625000I0J-75000D01*
G01*
G37*
G36*
G01*
X144400000Y-93625000D02*
X144400000Y-95025000D01*
G75*
G02*
X144325000Y-95100000I-75000J0D01*
G01*
X144175000Y-95100000D01*
G75*
G02*
X144100000Y-95025000I0J75000D01*
G01*
X144100000Y-93625000D01*
G75*
G02*
X144175000Y-93550000I75000J0D01*
G01*
X144325000Y-93550000D01*
G75*
G02*
X144400000Y-93625000I0J-75000D01*
G01*
G37*
G36*
G01*
X143900000Y-93625000D02*
X143900000Y-95025000D01*
G75*
G02*
X143825000Y-95100000I-75000J0D01*
G01*
X143675000Y-95100000D01*
G75*
G02*
X143600000Y-95025000I0J75000D01*
G01*
X143600000Y-93625000D01*
G75*
G02*
X143675000Y-93550000I75000J0D01*
G01*
X143825000Y-93550000D01*
G75*
G02*
X143900000Y-93625000I0J-75000D01*
G01*
G37*
G36*
G01*
X143400000Y-93625000D02*
X143400000Y-95025000D01*
G75*
G02*
X143325000Y-95100000I-75000J0D01*
G01*
X143175000Y-95100000D01*
G75*
G02*
X143100000Y-95025000I0J75000D01*
G01*
X143100000Y-93625000D01*
G75*
G02*
X143175000Y-93550000I75000J0D01*
G01*
X143325000Y-93550000D01*
G75*
G02*
X143400000Y-93625000I0J-75000D01*
G01*
G37*
G36*
G01*
X142900000Y-93625000D02*
X142900000Y-95025000D01*
G75*
G02*
X142825000Y-95100000I-75000J0D01*
G01*
X142675000Y-95100000D01*
G75*
G02*
X142600000Y-95025000I0J75000D01*
G01*
X142600000Y-93625000D01*
G75*
G02*
X142675000Y-93550000I75000J0D01*
G01*
X142825000Y-93550000D01*
G75*
G02*
X142900000Y-93625000I0J-75000D01*
G01*
G37*
G36*
G01*
X142400000Y-93625000D02*
X142400000Y-95025000D01*
G75*
G02*
X142325000Y-95100000I-75000J0D01*
G01*
X142175000Y-95100000D01*
G75*
G02*
X142100000Y-95025000I0J75000D01*
G01*
X142100000Y-93625000D01*
G75*
G02*
X142175000Y-93550000I75000J0D01*
G01*
X142325000Y-93550000D01*
G75*
G02*
X142400000Y-93625000I0J-75000D01*
G01*
G37*
G36*
G01*
X141900000Y-93625000D02*
X141900000Y-95025000D01*
G75*
G02*
X141825000Y-95100000I-75000J0D01*
G01*
X141675000Y-95100000D01*
G75*
G02*
X141600000Y-95025000I0J75000D01*
G01*
X141600000Y-93625000D01*
G75*
G02*
X141675000Y-93550000I75000J0D01*
G01*
X141825000Y-93550000D01*
G75*
G02*
X141900000Y-93625000I0J-75000D01*
G01*
G37*
G36*
G01*
X141400000Y-93625000D02*
X141400000Y-95025000D01*
G75*
G02*
X141325000Y-95100000I-75000J0D01*
G01*
X141175000Y-95100000D01*
G75*
G02*
X141100000Y-95025000I0J75000D01*
G01*
X141100000Y-93625000D01*
G75*
G02*
X141175000Y-93550000I75000J0D01*
G01*
X141325000Y-93550000D01*
G75*
G02*
X141400000Y-93625000I0J-75000D01*
G01*
G37*
G36*
G01*
X140900000Y-93625000D02*
X140900000Y-95025000D01*
G75*
G02*
X140825000Y-95100000I-75000J0D01*
G01*
X140675000Y-95100000D01*
G75*
G02*
X140600000Y-95025000I0J75000D01*
G01*
X140600000Y-93625000D01*
G75*
G02*
X140675000Y-93550000I75000J0D01*
G01*
X140825000Y-93550000D01*
G75*
G02*
X140900000Y-93625000I0J-75000D01*
G01*
G37*
G36*
G01*
X140400000Y-93625000D02*
X140400000Y-95025000D01*
G75*
G02*
X140325000Y-95100000I-75000J0D01*
G01*
X140175000Y-95100000D01*
G75*
G02*
X140100000Y-95025000I0J75000D01*
G01*
X140100000Y-93625000D01*
G75*
G02*
X140175000Y-93550000I75000J0D01*
G01*
X140325000Y-93550000D01*
G75*
G02*
X140400000Y-93625000I0J-75000D01*
G01*
G37*
G36*
G01*
X139900000Y-93625000D02*
X139900000Y-95025000D01*
G75*
G02*
X139825000Y-95100000I-75000J0D01*
G01*
X139675000Y-95100000D01*
G75*
G02*
X139600000Y-95025000I0J75000D01*
G01*
X139600000Y-93625000D01*
G75*
G02*
X139675000Y-93550000I75000J0D01*
G01*
X139825000Y-93550000D01*
G75*
G02*
X139900000Y-93625000I0J-75000D01*
G01*
G37*
G36*
G01*
X139400000Y-93625000D02*
X139400000Y-95025000D01*
G75*
G02*
X139325000Y-95100000I-75000J0D01*
G01*
X139175000Y-95100000D01*
G75*
G02*
X139100000Y-95025000I0J75000D01*
G01*
X139100000Y-93625000D01*
G75*
G02*
X139175000Y-93550000I75000J0D01*
G01*
X139325000Y-93550000D01*
G75*
G02*
X139400000Y-93625000I0J-75000D01*
G01*
G37*
G36*
G01*
X138900000Y-93625000D02*
X138900000Y-95025000D01*
G75*
G02*
X138825000Y-95100000I-75000J0D01*
G01*
X138675000Y-95100000D01*
G75*
G02*
X138600000Y-95025000I0J75000D01*
G01*
X138600000Y-93625000D01*
G75*
G02*
X138675000Y-93550000I75000J0D01*
G01*
X138825000Y-93550000D01*
G75*
G02*
X138900000Y-93625000I0J-75000D01*
G01*
G37*
G36*
G01*
X138400000Y-93625000D02*
X138400000Y-95025000D01*
G75*
G02*
X138325000Y-95100000I-75000J0D01*
G01*
X138175000Y-95100000D01*
G75*
G02*
X138100000Y-95025000I0J75000D01*
G01*
X138100000Y-93625000D01*
G75*
G02*
X138175000Y-93550000I75000J0D01*
G01*
X138325000Y-93550000D01*
G75*
G02*
X138400000Y-93625000I0J-75000D01*
G01*
G37*
G36*
G01*
X137100000Y-96175000D02*
X137100000Y-96325000D01*
G75*
G02*
X137025000Y-96400000I-75000J0D01*
G01*
X135625000Y-96400000D01*
G75*
G02*
X135550000Y-96325000I0J75000D01*
G01*
X135550000Y-96175000D01*
G75*
G02*
X135625000Y-96100000I75000J0D01*
G01*
X137025000Y-96100000D01*
G75*
G02*
X137100000Y-96175000I0J-75000D01*
G01*
G37*
G36*
G01*
X137100000Y-96675000D02*
X137100000Y-96825000D01*
G75*
G02*
X137025000Y-96900000I-75000J0D01*
G01*
X135625000Y-96900000D01*
G75*
G02*
X135550000Y-96825000I0J75000D01*
G01*
X135550000Y-96675000D01*
G75*
G02*
X135625000Y-96600000I75000J0D01*
G01*
X137025000Y-96600000D01*
G75*
G02*
X137100000Y-96675000I0J-75000D01*
G01*
G37*
G36*
G01*
X137100000Y-97175000D02*
X137100000Y-97325000D01*
G75*
G02*
X137025000Y-97400000I-75000J0D01*
G01*
X135625000Y-97400000D01*
G75*
G02*
X135550000Y-97325000I0J75000D01*
G01*
X135550000Y-97175000D01*
G75*
G02*
X135625000Y-97100000I75000J0D01*
G01*
X137025000Y-97100000D01*
G75*
G02*
X137100000Y-97175000I0J-75000D01*
G01*
G37*
G36*
G01*
X137100000Y-97675000D02*
X137100000Y-97825000D01*
G75*
G02*
X137025000Y-97900000I-75000J0D01*
G01*
X135625000Y-97900000D01*
G75*
G02*
X135550000Y-97825000I0J75000D01*
G01*
X135550000Y-97675000D01*
G75*
G02*
X135625000Y-97600000I75000J0D01*
G01*
X137025000Y-97600000D01*
G75*
G02*
X137100000Y-97675000I0J-75000D01*
G01*
G37*
G36*
G01*
X137100000Y-98175000D02*
X137100000Y-98325000D01*
G75*
G02*
X137025000Y-98400000I-75000J0D01*
G01*
X135625000Y-98400000D01*
G75*
G02*
X135550000Y-98325000I0J75000D01*
G01*
X135550000Y-98175000D01*
G75*
G02*
X135625000Y-98100000I75000J0D01*
G01*
X137025000Y-98100000D01*
G75*
G02*
X137100000Y-98175000I0J-75000D01*
G01*
G37*
G36*
G01*
X137100000Y-98675000D02*
X137100000Y-98825000D01*
G75*
G02*
X137025000Y-98900000I-75000J0D01*
G01*
X135625000Y-98900000D01*
G75*
G02*
X135550000Y-98825000I0J75000D01*
G01*
X135550000Y-98675000D01*
G75*
G02*
X135625000Y-98600000I75000J0D01*
G01*
X137025000Y-98600000D01*
G75*
G02*
X137100000Y-98675000I0J-75000D01*
G01*
G37*
G36*
G01*
X137100000Y-99175000D02*
X137100000Y-99325000D01*
G75*
G02*
X137025000Y-99400000I-75000J0D01*
G01*
X135625000Y-99400000D01*
G75*
G02*
X135550000Y-99325000I0J75000D01*
G01*
X135550000Y-99175000D01*
G75*
G02*
X135625000Y-99100000I75000J0D01*
G01*
X137025000Y-99100000D01*
G75*
G02*
X137100000Y-99175000I0J-75000D01*
G01*
G37*
G36*
G01*
X137100000Y-99675000D02*
X137100000Y-99825000D01*
G75*
G02*
X137025000Y-99900000I-75000J0D01*
G01*
X135625000Y-99900000D01*
G75*
G02*
X135550000Y-99825000I0J75000D01*
G01*
X135550000Y-99675000D01*
G75*
G02*
X135625000Y-99600000I75000J0D01*
G01*
X137025000Y-99600000D01*
G75*
G02*
X137100000Y-99675000I0J-75000D01*
G01*
G37*
G36*
G01*
X137100000Y-100175000D02*
X137100000Y-100325000D01*
G75*
G02*
X137025000Y-100400000I-75000J0D01*
G01*
X135625000Y-100400000D01*
G75*
G02*
X135550000Y-100325000I0J75000D01*
G01*
X135550000Y-100175000D01*
G75*
G02*
X135625000Y-100100000I75000J0D01*
G01*
X137025000Y-100100000D01*
G75*
G02*
X137100000Y-100175000I0J-75000D01*
G01*
G37*
G36*
G01*
X137100000Y-100675000D02*
X137100000Y-100825000D01*
G75*
G02*
X137025000Y-100900000I-75000J0D01*
G01*
X135625000Y-100900000D01*
G75*
G02*
X135550000Y-100825000I0J75000D01*
G01*
X135550000Y-100675000D01*
G75*
G02*
X135625000Y-100600000I75000J0D01*
G01*
X137025000Y-100600000D01*
G75*
G02*
X137100000Y-100675000I0J-75000D01*
G01*
G37*
G36*
G01*
X137100000Y-101175000D02*
X137100000Y-101325000D01*
G75*
G02*
X137025000Y-101400000I-75000J0D01*
G01*
X135625000Y-101400000D01*
G75*
G02*
X135550000Y-101325000I0J75000D01*
G01*
X135550000Y-101175000D01*
G75*
G02*
X135625000Y-101100000I75000J0D01*
G01*
X137025000Y-101100000D01*
G75*
G02*
X137100000Y-101175000I0J-75000D01*
G01*
G37*
G36*
G01*
X137100000Y-101675000D02*
X137100000Y-101825000D01*
G75*
G02*
X137025000Y-101900000I-75000J0D01*
G01*
X135625000Y-101900000D01*
G75*
G02*
X135550000Y-101825000I0J75000D01*
G01*
X135550000Y-101675000D01*
G75*
G02*
X135625000Y-101600000I75000J0D01*
G01*
X137025000Y-101600000D01*
G75*
G02*
X137100000Y-101675000I0J-75000D01*
G01*
G37*
G36*
G01*
X137100000Y-102175000D02*
X137100000Y-102325000D01*
G75*
G02*
X137025000Y-102400000I-75000J0D01*
G01*
X135625000Y-102400000D01*
G75*
G02*
X135550000Y-102325000I0J75000D01*
G01*
X135550000Y-102175000D01*
G75*
G02*
X135625000Y-102100000I75000J0D01*
G01*
X137025000Y-102100000D01*
G75*
G02*
X137100000Y-102175000I0J-75000D01*
G01*
G37*
G36*
G01*
X137100000Y-102675000D02*
X137100000Y-102825000D01*
G75*
G02*
X137025000Y-102900000I-75000J0D01*
G01*
X135625000Y-102900000D01*
G75*
G02*
X135550000Y-102825000I0J75000D01*
G01*
X135550000Y-102675000D01*
G75*
G02*
X135625000Y-102600000I75000J0D01*
G01*
X137025000Y-102600000D01*
G75*
G02*
X137100000Y-102675000I0J-75000D01*
G01*
G37*
G36*
G01*
X137100000Y-103175000D02*
X137100000Y-103325000D01*
G75*
G02*
X137025000Y-103400000I-75000J0D01*
G01*
X135625000Y-103400000D01*
G75*
G02*
X135550000Y-103325000I0J75000D01*
G01*
X135550000Y-103175000D01*
G75*
G02*
X135625000Y-103100000I75000J0D01*
G01*
X137025000Y-103100000D01*
G75*
G02*
X137100000Y-103175000I0J-75000D01*
G01*
G37*
G36*
G01*
X137100000Y-103675000D02*
X137100000Y-103825000D01*
G75*
G02*
X137025000Y-103900000I-75000J0D01*
G01*
X135625000Y-103900000D01*
G75*
G02*
X135550000Y-103825000I0J75000D01*
G01*
X135550000Y-103675000D01*
G75*
G02*
X135625000Y-103600000I75000J0D01*
G01*
X137025000Y-103600000D01*
G75*
G02*
X137100000Y-103675000I0J-75000D01*
G01*
G37*
G36*
G01*
X138400000Y-104975000D02*
X138400000Y-106375000D01*
G75*
G02*
X138325000Y-106450000I-75000J0D01*
G01*
X138175000Y-106450000D01*
G75*
G02*
X138100000Y-106375000I0J75000D01*
G01*
X138100000Y-104975000D01*
G75*
G02*
X138175000Y-104900000I75000J0D01*
G01*
X138325000Y-104900000D01*
G75*
G02*
X138400000Y-104975000I0J-75000D01*
G01*
G37*
G36*
G01*
X138900000Y-104975000D02*
X138900000Y-106375000D01*
G75*
G02*
X138825000Y-106450000I-75000J0D01*
G01*
X138675000Y-106450000D01*
G75*
G02*
X138600000Y-106375000I0J75000D01*
G01*
X138600000Y-104975000D01*
G75*
G02*
X138675000Y-104900000I75000J0D01*
G01*
X138825000Y-104900000D01*
G75*
G02*
X138900000Y-104975000I0J-75000D01*
G01*
G37*
G36*
G01*
X139400000Y-104975000D02*
X139400000Y-106375000D01*
G75*
G02*
X139325000Y-106450000I-75000J0D01*
G01*
X139175000Y-106450000D01*
G75*
G02*
X139100000Y-106375000I0J75000D01*
G01*
X139100000Y-104975000D01*
G75*
G02*
X139175000Y-104900000I75000J0D01*
G01*
X139325000Y-104900000D01*
G75*
G02*
X139400000Y-104975000I0J-75000D01*
G01*
G37*
G36*
G01*
X139900000Y-104975000D02*
X139900000Y-106375000D01*
G75*
G02*
X139825000Y-106450000I-75000J0D01*
G01*
X139675000Y-106450000D01*
G75*
G02*
X139600000Y-106375000I0J75000D01*
G01*
X139600000Y-104975000D01*
G75*
G02*
X139675000Y-104900000I75000J0D01*
G01*
X139825000Y-104900000D01*
G75*
G02*
X139900000Y-104975000I0J-75000D01*
G01*
G37*
G36*
G01*
X140400000Y-104975000D02*
X140400000Y-106375000D01*
G75*
G02*
X140325000Y-106450000I-75000J0D01*
G01*
X140175000Y-106450000D01*
G75*
G02*
X140100000Y-106375000I0J75000D01*
G01*
X140100000Y-104975000D01*
G75*
G02*
X140175000Y-104900000I75000J0D01*
G01*
X140325000Y-104900000D01*
G75*
G02*
X140400000Y-104975000I0J-75000D01*
G01*
G37*
G36*
G01*
X140900000Y-104975000D02*
X140900000Y-106375000D01*
G75*
G02*
X140825000Y-106450000I-75000J0D01*
G01*
X140675000Y-106450000D01*
G75*
G02*
X140600000Y-106375000I0J75000D01*
G01*
X140600000Y-104975000D01*
G75*
G02*
X140675000Y-104900000I75000J0D01*
G01*
X140825000Y-104900000D01*
G75*
G02*
X140900000Y-104975000I0J-75000D01*
G01*
G37*
G36*
G01*
X141400000Y-104975000D02*
X141400000Y-106375000D01*
G75*
G02*
X141325000Y-106450000I-75000J0D01*
G01*
X141175000Y-106450000D01*
G75*
G02*
X141100000Y-106375000I0J75000D01*
G01*
X141100000Y-104975000D01*
G75*
G02*
X141175000Y-104900000I75000J0D01*
G01*
X141325000Y-104900000D01*
G75*
G02*
X141400000Y-104975000I0J-75000D01*
G01*
G37*
G36*
G01*
X141900000Y-104975000D02*
X141900000Y-106375000D01*
G75*
G02*
X141825000Y-106450000I-75000J0D01*
G01*
X141675000Y-106450000D01*
G75*
G02*
X141600000Y-106375000I0J75000D01*
G01*
X141600000Y-104975000D01*
G75*
G02*
X141675000Y-104900000I75000J0D01*
G01*
X141825000Y-104900000D01*
G75*
G02*
X141900000Y-104975000I0J-75000D01*
G01*
G37*
G36*
G01*
X142400000Y-104975000D02*
X142400000Y-106375000D01*
G75*
G02*
X142325000Y-106450000I-75000J0D01*
G01*
X142175000Y-106450000D01*
G75*
G02*
X142100000Y-106375000I0J75000D01*
G01*
X142100000Y-104975000D01*
G75*
G02*
X142175000Y-104900000I75000J0D01*
G01*
X142325000Y-104900000D01*
G75*
G02*
X142400000Y-104975000I0J-75000D01*
G01*
G37*
G36*
G01*
X142900000Y-104975000D02*
X142900000Y-106375000D01*
G75*
G02*
X142825000Y-106450000I-75000J0D01*
G01*
X142675000Y-106450000D01*
G75*
G02*
X142600000Y-106375000I0J75000D01*
G01*
X142600000Y-104975000D01*
G75*
G02*
X142675000Y-104900000I75000J0D01*
G01*
X142825000Y-104900000D01*
G75*
G02*
X142900000Y-104975000I0J-75000D01*
G01*
G37*
G36*
G01*
X143400000Y-104975000D02*
X143400000Y-106375000D01*
G75*
G02*
X143325000Y-106450000I-75000J0D01*
G01*
X143175000Y-106450000D01*
G75*
G02*
X143100000Y-106375000I0J75000D01*
G01*
X143100000Y-104975000D01*
G75*
G02*
X143175000Y-104900000I75000J0D01*
G01*
X143325000Y-104900000D01*
G75*
G02*
X143400000Y-104975000I0J-75000D01*
G01*
G37*
G36*
G01*
X143900000Y-104975000D02*
X143900000Y-106375000D01*
G75*
G02*
X143825000Y-106450000I-75000J0D01*
G01*
X143675000Y-106450000D01*
G75*
G02*
X143600000Y-106375000I0J75000D01*
G01*
X143600000Y-104975000D01*
G75*
G02*
X143675000Y-104900000I75000J0D01*
G01*
X143825000Y-104900000D01*
G75*
G02*
X143900000Y-104975000I0J-75000D01*
G01*
G37*
G36*
G01*
X144400000Y-104975000D02*
X144400000Y-106375000D01*
G75*
G02*
X144325000Y-106450000I-75000J0D01*
G01*
X144175000Y-106450000D01*
G75*
G02*
X144100000Y-106375000I0J75000D01*
G01*
X144100000Y-104975000D01*
G75*
G02*
X144175000Y-104900000I75000J0D01*
G01*
X144325000Y-104900000D01*
G75*
G02*
X144400000Y-104975000I0J-75000D01*
G01*
G37*
G36*
G01*
X144900000Y-104975000D02*
X144900000Y-106375000D01*
G75*
G02*
X144825000Y-106450000I-75000J0D01*
G01*
X144675000Y-106450000D01*
G75*
G02*
X144600000Y-106375000I0J75000D01*
G01*
X144600000Y-104975000D01*
G75*
G02*
X144675000Y-104900000I75000J0D01*
G01*
X144825000Y-104900000D01*
G75*
G02*
X144900000Y-104975000I0J-75000D01*
G01*
G37*
G36*
G01*
X145400000Y-104975000D02*
X145400000Y-106375000D01*
G75*
G02*
X145325000Y-106450000I-75000J0D01*
G01*
X145175000Y-106450000D01*
G75*
G02*
X145100000Y-106375000I0J75000D01*
G01*
X145100000Y-104975000D01*
G75*
G02*
X145175000Y-104900000I75000J0D01*
G01*
X145325000Y-104900000D01*
G75*
G02*
X145400000Y-104975000I0J-75000D01*
G01*
G37*
G36*
G01*
X145900000Y-104975000D02*
X145900000Y-106375000D01*
G75*
G02*
X145825000Y-106450000I-75000J0D01*
G01*
X145675000Y-106450000D01*
G75*
G02*
X145600000Y-106375000I0J75000D01*
G01*
X145600000Y-104975000D01*
G75*
G02*
X145675000Y-104900000I75000J0D01*
G01*
X145825000Y-104900000D01*
G75*
G02*
X145900000Y-104975000I0J-75000D01*
G01*
G37*
D19*
X153440000Y-103530000D03*
X153440000Y-99830000D03*
D20*
X125170000Y-107040000D03*
X125170000Y-109540000D03*
D21*
X147450000Y-110160000D03*
X155450000Y-110160000D03*
X147450000Y-89840000D03*
X155450000Y-89840000D03*
M02*
