G04 #@! TF.GenerationSoftware,KiCad,Pcbnew,5.1.8-db9833491~87~ubuntu20.04.1*
G04 #@! TF.CreationDate,2020-11-18T16:34:53+01:00*
G04 #@! TF.ProjectId,krieger,6b726965-6765-4722-9e6b-696361645f70,v1.0*
G04 #@! TF.SameCoordinates,Original*
G04 #@! TF.FileFunction,Legend,Top*
G04 #@! TF.FilePolarity,Positive*
%FSLAX46Y46*%
G04 Gerber Fmt 4.6, Leading zero omitted, Abs format (unit mm)*
G04 Created by KiCad (PCBNEW 5.1.8-db9833491~87~ubuntu20.04.1) date 2020-11-18 16:34:53*
%MOMM*%
%LPD*%
G01*
G04 APERTURE LIST*
%ADD10C,0.250000*%
%ADD11C,0.150000*%
%ADD12C,0.120000*%
G04 APERTURE END LIST*
D10*
X151861428Y-112938571D02*
X153361428Y-112938571D01*
X151861428Y-113795714D02*
X152718571Y-113152857D01*
X153361428Y-113795714D02*
X152504285Y-112938571D01*
X151861428Y-114438571D02*
X152861428Y-114438571D01*
X152575714Y-114438571D02*
X152718571Y-114510000D01*
X152790000Y-114581428D01*
X152861428Y-114724285D01*
X152861428Y-114867142D01*
X151861428Y-115367142D02*
X152861428Y-115367142D01*
X153361428Y-115367142D02*
X153290000Y-115295714D01*
X153218571Y-115367142D01*
X153290000Y-115438571D01*
X153361428Y-115367142D01*
X153218571Y-115367142D01*
X151932857Y-116652857D02*
X151861428Y-116510000D01*
X151861428Y-116224285D01*
X151932857Y-116081428D01*
X152075714Y-116010000D01*
X152647142Y-116010000D01*
X152790000Y-116081428D01*
X152861428Y-116224285D01*
X152861428Y-116510000D01*
X152790000Y-116652857D01*
X152647142Y-116724285D01*
X152504285Y-116724285D01*
X152361428Y-116010000D01*
X152861428Y-118010000D02*
X151647142Y-118010000D01*
X151504285Y-117938571D01*
X151432857Y-117867142D01*
X151361428Y-117724285D01*
X151361428Y-117510000D01*
X151432857Y-117367142D01*
X151932857Y-118010000D02*
X151861428Y-117867142D01*
X151861428Y-117581428D01*
X151932857Y-117438571D01*
X152004285Y-117367142D01*
X152147142Y-117295714D01*
X152575714Y-117295714D01*
X152718571Y-117367142D01*
X152790000Y-117438571D01*
X152861428Y-117581428D01*
X152861428Y-117867142D01*
X152790000Y-118010000D01*
X151932857Y-119295714D02*
X151861428Y-119152857D01*
X151861428Y-118867142D01*
X151932857Y-118724285D01*
X152075714Y-118652857D01*
X152647142Y-118652857D01*
X152790000Y-118724285D01*
X152861428Y-118867142D01*
X152861428Y-119152857D01*
X152790000Y-119295714D01*
X152647142Y-119367142D01*
X152504285Y-119367142D01*
X152361428Y-118652857D01*
X151861428Y-120010000D02*
X152861428Y-120010000D01*
X152575714Y-120010000D02*
X152718571Y-120081428D01*
X152790000Y-120152857D01*
X152861428Y-120295714D01*
X152861428Y-120438571D01*
X152861428Y-121938571D02*
X151861428Y-122295714D01*
X152861428Y-122652857D01*
X151861428Y-124010000D02*
X151861428Y-123152857D01*
X151861428Y-123581428D02*
X153361428Y-123581428D01*
X153147142Y-123438571D01*
X153004285Y-123295714D01*
X152932857Y-123152857D01*
X152004285Y-124652857D02*
X151932857Y-124724285D01*
X151861428Y-124652857D01*
X151932857Y-124581428D01*
X152004285Y-124652857D01*
X151861428Y-124652857D01*
X153361428Y-125652857D02*
X153361428Y-125795714D01*
X153290000Y-125938571D01*
X153218571Y-126010000D01*
X153075714Y-126081428D01*
X152790000Y-126152857D01*
X152432857Y-126152857D01*
X152147142Y-126081428D01*
X152004285Y-126010000D01*
X151932857Y-125938571D01*
X151861428Y-125795714D01*
X151861428Y-125652857D01*
X151932857Y-125510000D01*
X152004285Y-125438571D01*
X152147142Y-125367142D01*
X152432857Y-125295714D01*
X152790000Y-125295714D01*
X153075714Y-125367142D01*
X153218571Y-125438571D01*
X153290000Y-125510000D01*
X153361428Y-125652857D01*
X150361428Y-113010000D02*
X149361428Y-113295714D01*
X150075714Y-113581428D01*
X149361428Y-113867142D01*
X150361428Y-114152857D01*
X150361428Y-114581428D02*
X149361428Y-114867142D01*
X150075714Y-115152857D01*
X149361428Y-115438571D01*
X150361428Y-115724285D01*
X150361428Y-116152857D02*
X149361428Y-116438571D01*
X150075714Y-116724285D01*
X149361428Y-117010000D01*
X150361428Y-117295714D01*
X149504285Y-117867142D02*
X149432857Y-117938571D01*
X149361428Y-117867142D01*
X149432857Y-117795714D01*
X149504285Y-117867142D01*
X149361428Y-117867142D01*
X150718571Y-118510000D02*
X150790000Y-118581428D01*
X150861428Y-118724285D01*
X150861428Y-119081428D01*
X150790000Y-119224285D01*
X150718571Y-119295714D01*
X150575714Y-119367142D01*
X150432857Y-119367142D01*
X150218571Y-119295714D01*
X149361428Y-118438571D01*
X149361428Y-119367142D01*
X149932857Y-120010000D02*
X149932857Y-121152857D01*
X150861428Y-122152857D02*
X150861428Y-122295714D01*
X150790000Y-122438571D01*
X150718571Y-122510000D01*
X150575714Y-122581428D01*
X150290000Y-122652857D01*
X149932857Y-122652857D01*
X149647142Y-122581428D01*
X149504285Y-122510000D01*
X149432857Y-122438571D01*
X149361428Y-122295714D01*
X149361428Y-122152857D01*
X149432857Y-122010000D01*
X149504285Y-121938571D01*
X149647142Y-121867142D01*
X149932857Y-121795714D01*
X150290000Y-121795714D01*
X150575714Y-121867142D01*
X150718571Y-121938571D01*
X150790000Y-122010000D01*
X150861428Y-122152857D01*
X149504285Y-123295714D02*
X149432857Y-123367142D01*
X149361428Y-123295714D01*
X149432857Y-123224285D01*
X149504285Y-123295714D01*
X149361428Y-123295714D01*
X149361428Y-124652857D02*
X150861428Y-124652857D01*
X149432857Y-124652857D02*
X149361428Y-124510000D01*
X149361428Y-124224285D01*
X149432857Y-124081428D01*
X149504285Y-124010000D01*
X149647142Y-123938571D01*
X150075714Y-123938571D01*
X150218571Y-124010000D01*
X150290000Y-124081428D01*
X150361428Y-124224285D01*
X150361428Y-124510000D01*
X150290000Y-124652857D01*
X149361428Y-125367142D02*
X150861428Y-125367142D01*
X149932857Y-125510000D02*
X149361428Y-125938571D01*
X150361428Y-125938571D02*
X149790000Y-125367142D01*
D11*
X154050000Y-127470000D02*
X154050000Y-99530000D01*
X133730000Y-91910000D02*
X199770000Y-91910000D01*
X199770000Y-91910000D02*
X199770000Y-135090000D01*
X199770000Y-135090000D02*
X133730000Y-135090000D01*
X133720000Y-91910000D02*
X133720000Y-99500000D01*
X133730000Y-99530000D02*
X154050000Y-99530000D01*
X154050000Y-127470000D02*
X133730000Y-127470000D01*
X133730000Y-127470000D02*
X133730000Y-135090000D01*
X153630000Y-101470000D02*
X153630000Y-111270000D01*
X150030000Y-111270000D02*
X150030000Y-101470000D01*
X153630000Y-111270000D02*
X150030000Y-111270000D01*
X150030000Y-101470000D02*
X153630000Y-101470000D01*
D12*
X118790000Y-108800000D02*
X118790000Y-118200000D01*
X124590000Y-118200000D02*
X122590000Y-118200000D01*
X120690000Y-118200000D02*
X118790000Y-118200000D01*
X124590000Y-108800000D02*
X122590000Y-108800000D01*
X120690000Y-108800000D02*
X118790000Y-108800000D01*
X144560000Y-109940000D02*
X144140000Y-109940000D01*
X144560000Y-117060000D02*
X144560000Y-116640000D01*
X144560000Y-116640000D02*
X145940000Y-116640000D01*
X137440000Y-117060000D02*
X137860000Y-117060000D01*
X137440000Y-109940000D02*
X137860000Y-109940000D01*
X144560000Y-117060000D02*
X144140000Y-117060000D01*
X144560000Y-109940000D02*
X144560000Y-110360000D01*
X137440000Y-109940000D02*
X137440000Y-110360000D01*
X137440000Y-117060000D02*
X137440000Y-116640000D01*
X130212779Y-110390000D02*
X129887221Y-110390000D01*
X130212779Y-111410000D02*
X129887221Y-111410000D01*
X129310000Y-123540000D02*
X129310000Y-119330000D01*
X129310000Y-119330000D02*
X126290000Y-119330000D01*
X126290000Y-119330000D02*
X126290000Y-123540000D01*
X133490000Y-119327500D02*
X133490000Y-123537500D01*
X136510000Y-119327500D02*
X133490000Y-119327500D01*
X136510000Y-123537500D02*
X136510000Y-119327500D01*
X135882779Y-117920000D02*
X135557221Y-117920000D01*
X135882779Y-116900000D02*
X135557221Y-116900000D01*
X144400000Y-118607221D02*
X144400000Y-118932779D01*
X145420000Y-118607221D02*
X145420000Y-118932779D01*
X136570000Y-108382779D02*
X136570000Y-108057221D01*
X137590000Y-108382779D02*
X137590000Y-108057221D01*
X147627221Y-112760000D02*
X147952779Y-112760000D01*
X147627221Y-111740000D02*
X147952779Y-111740000D01*
X149490000Y-109802779D02*
X149490000Y-109477221D01*
X148470000Y-109802779D02*
X148470000Y-109477221D01*
X130212779Y-116610000D02*
X129887221Y-116610000D01*
X130212779Y-115590000D02*
X129887221Y-115590000D01*
X144450000Y-125942779D02*
X144450000Y-125617221D01*
X143430000Y-125942779D02*
X143430000Y-125617221D01*
X122620000Y-103882779D02*
X122620000Y-103557221D01*
X121600000Y-103882779D02*
X121600000Y-103557221D01*
X123100000Y-103882779D02*
X123100000Y-103557221D01*
X124120000Y-103882779D02*
X124120000Y-103557221D01*
X125620000Y-103882779D02*
X125620000Y-103557221D01*
X124600000Y-103882779D02*
X124600000Y-103557221D01*
X125550000Y-123047221D02*
X125550000Y-123372779D01*
X124530000Y-123047221D02*
X124530000Y-123372779D01*
X132300000Y-119590000D02*
X129850000Y-119590000D01*
X130500000Y-122810000D02*
X132300000Y-122810000D01*
X129600000Y-115110000D02*
X132050000Y-115110000D01*
X131400000Y-111890000D02*
X129600000Y-111890000D01*
X128545000Y-96345000D02*
X128080000Y-96345000D01*
X125920000Y-96345000D02*
X125455000Y-96345000D01*
X125919571Y-101159479D02*
G75*
G02*
X125920000Y-96650316I1080429J2254479D01*
G01*
X128080429Y-101159479D02*
G75*
G03*
X128080000Y-96650316I-1080429J2254479D01*
G01*
X125919173Y-101692815D02*
G75*
G02*
X125455170Y-96345000I1080827J2787815D01*
G01*
X128080827Y-101692815D02*
G75*
G03*
X128544830Y-96345000I-1080827J2787815D01*
G01*
X125920000Y-125545000D02*
X125455000Y-125545000D01*
X128545000Y-125545000D02*
X128080000Y-125545000D01*
X128080827Y-130892815D02*
G75*
G03*
X128544830Y-125545000I-1080827J2787815D01*
G01*
X125919173Y-130892815D02*
G75*
G02*
X125455170Y-125545000I1080827J2787815D01*
G01*
X128080429Y-130359479D02*
G75*
G03*
X128080000Y-125850316I-1080429J2254479D01*
G01*
X125919571Y-130359479D02*
G75*
G02*
X125920000Y-125850316I1080429J2254479D01*
G01*
X123020000Y-123047221D02*
X123020000Y-123372779D01*
X124040000Y-123047221D02*
X124040000Y-123372779D01*
X122550000Y-123047221D02*
X122550000Y-123372779D01*
X121530000Y-123047221D02*
X121530000Y-123372779D01*
X137922779Y-103670000D02*
X137597221Y-103670000D01*
X137922779Y-104690000D02*
X137597221Y-104690000D01*
X137932779Y-106150000D02*
X137607221Y-106150000D01*
X137932779Y-105130000D02*
X137607221Y-105130000D01*
D11*
X147176666Y-106764761D02*
X147319523Y-106812380D01*
X147557619Y-106812380D01*
X147652857Y-106764761D01*
X147700476Y-106717142D01*
X147748095Y-106621904D01*
X147748095Y-106526666D01*
X147700476Y-106431428D01*
X147652857Y-106383809D01*
X147557619Y-106336190D01*
X147367142Y-106288571D01*
X147271904Y-106240952D01*
X147224285Y-106193333D01*
X147176666Y-106098095D01*
X147176666Y-106002857D01*
X147224285Y-105907619D01*
X147271904Y-105860000D01*
X147367142Y-105812380D01*
X147605238Y-105812380D01*
X147748095Y-105860000D01*
X148081428Y-105812380D02*
X148319523Y-106812380D01*
X148510000Y-106098095D01*
X148700476Y-106812380D01*
X148938571Y-105812380D01*
X149843333Y-106812380D02*
X149271904Y-106812380D01*
X149557619Y-106812380D02*
X149557619Y-105812380D01*
X149462380Y-105955238D01*
X149367142Y-106050476D01*
X149271904Y-106098095D01*
X127787380Y-113833333D02*
X128501666Y-113833333D01*
X128644523Y-113880952D01*
X128739761Y-113976190D01*
X128787380Y-114119047D01*
X128787380Y-114214285D01*
X128787380Y-112833333D02*
X128787380Y-113404761D01*
X128787380Y-113119047D02*
X127787380Y-113119047D01*
X127930238Y-113214285D01*
X128025476Y-113309523D01*
X128073095Y-113404761D01*
X140238095Y-118952380D02*
X140238095Y-119761904D01*
X140285714Y-119857142D01*
X140333333Y-119904761D01*
X140428571Y-119952380D01*
X140619047Y-119952380D01*
X140714285Y-119904761D01*
X140761904Y-119857142D01*
X140809523Y-119761904D01*
X140809523Y-118952380D01*
X141190476Y-118952380D02*
X141809523Y-118952380D01*
X141476190Y-119333333D01*
X141619047Y-119333333D01*
X141714285Y-119380952D01*
X141761904Y-119428571D01*
X141809523Y-119523809D01*
X141809523Y-119761904D01*
X141761904Y-119857142D01*
X141714285Y-119904761D01*
X141619047Y-119952380D01*
X141333333Y-119952380D01*
X141238095Y-119904761D01*
X141190476Y-119857142D01*
X129883333Y-110012380D02*
X129550000Y-109536190D01*
X129311904Y-110012380D02*
X129311904Y-109012380D01*
X129692857Y-109012380D01*
X129788095Y-109060000D01*
X129835714Y-109107619D01*
X129883333Y-109202857D01*
X129883333Y-109345714D01*
X129835714Y-109440952D01*
X129788095Y-109488571D01*
X129692857Y-109536190D01*
X129311904Y-109536190D01*
X130835714Y-110012380D02*
X130264285Y-110012380D01*
X130550000Y-110012380D02*
X130550000Y-109012380D01*
X130454761Y-109155238D01*
X130359523Y-109250476D01*
X130264285Y-109298095D01*
X127673333Y-125147142D02*
X127625714Y-125194761D01*
X127482857Y-125242380D01*
X127387619Y-125242380D01*
X127244761Y-125194761D01*
X127149523Y-125099523D01*
X127101904Y-125004285D01*
X127054285Y-124813809D01*
X127054285Y-124670952D01*
X127101904Y-124480476D01*
X127149523Y-124385238D01*
X127244761Y-124290000D01*
X127387619Y-124242380D01*
X127482857Y-124242380D01*
X127625714Y-124290000D01*
X127673333Y-124337619D01*
X128625714Y-125242380D02*
X128054285Y-125242380D01*
X128340000Y-125242380D02*
X128340000Y-124242380D01*
X128244761Y-124385238D01*
X128149523Y-124480476D01*
X128054285Y-124528095D01*
X134753333Y-125147142D02*
X134705714Y-125194761D01*
X134562857Y-125242380D01*
X134467619Y-125242380D01*
X134324761Y-125194761D01*
X134229523Y-125099523D01*
X134181904Y-125004285D01*
X134134285Y-124813809D01*
X134134285Y-124670952D01*
X134181904Y-124480476D01*
X134229523Y-124385238D01*
X134324761Y-124290000D01*
X134467619Y-124242380D01*
X134562857Y-124242380D01*
X134705714Y-124290000D01*
X134753333Y-124337619D01*
X135134285Y-124337619D02*
X135181904Y-124290000D01*
X135277142Y-124242380D01*
X135515238Y-124242380D01*
X135610476Y-124290000D01*
X135658095Y-124337619D01*
X135705714Y-124432857D01*
X135705714Y-124528095D01*
X135658095Y-124670952D01*
X135086666Y-125242380D01*
X135705714Y-125242380D01*
X133223333Y-117717142D02*
X133175714Y-117764761D01*
X133032857Y-117812380D01*
X132937619Y-117812380D01*
X132794761Y-117764761D01*
X132699523Y-117669523D01*
X132651904Y-117574285D01*
X132604285Y-117383809D01*
X132604285Y-117240952D01*
X132651904Y-117050476D01*
X132699523Y-116955238D01*
X132794761Y-116860000D01*
X132937619Y-116812380D01*
X133032857Y-116812380D01*
X133175714Y-116860000D01*
X133223333Y-116907619D01*
X133556666Y-116812380D02*
X134175714Y-116812380D01*
X133842380Y-117193333D01*
X133985238Y-117193333D01*
X134080476Y-117240952D01*
X134128095Y-117288571D01*
X134175714Y-117383809D01*
X134175714Y-117621904D01*
X134128095Y-117717142D01*
X134080476Y-117764761D01*
X133985238Y-117812380D01*
X133699523Y-117812380D01*
X133604285Y-117764761D01*
X133556666Y-117717142D01*
X144773333Y-121367142D02*
X144725714Y-121414761D01*
X144582857Y-121462380D01*
X144487619Y-121462380D01*
X144344761Y-121414761D01*
X144249523Y-121319523D01*
X144201904Y-121224285D01*
X144154285Y-121033809D01*
X144154285Y-120890952D01*
X144201904Y-120700476D01*
X144249523Y-120605238D01*
X144344761Y-120510000D01*
X144487619Y-120462380D01*
X144582857Y-120462380D01*
X144725714Y-120510000D01*
X144773333Y-120557619D01*
X145630476Y-120795714D02*
X145630476Y-121462380D01*
X145392380Y-120414761D02*
X145154285Y-121129047D01*
X145773333Y-121129047D01*
X135283333Y-108577142D02*
X135235714Y-108624761D01*
X135092857Y-108672380D01*
X134997619Y-108672380D01*
X134854761Y-108624761D01*
X134759523Y-108529523D01*
X134711904Y-108434285D01*
X134664285Y-108243809D01*
X134664285Y-108100952D01*
X134711904Y-107910476D01*
X134759523Y-107815238D01*
X134854761Y-107720000D01*
X134997619Y-107672380D01*
X135092857Y-107672380D01*
X135235714Y-107720000D01*
X135283333Y-107767619D01*
X136188095Y-107672380D02*
X135711904Y-107672380D01*
X135664285Y-108148571D01*
X135711904Y-108100952D01*
X135807142Y-108053333D01*
X136045238Y-108053333D01*
X136140476Y-108100952D01*
X136188095Y-108148571D01*
X136235714Y-108243809D01*
X136235714Y-108481904D01*
X136188095Y-108577142D01*
X136140476Y-108624761D01*
X136045238Y-108672380D01*
X135807142Y-108672380D01*
X135711904Y-108624761D01*
X135664285Y-108577142D01*
X147543333Y-114037142D02*
X147495714Y-114084761D01*
X147352857Y-114132380D01*
X147257619Y-114132380D01*
X147114761Y-114084761D01*
X147019523Y-113989523D01*
X146971904Y-113894285D01*
X146924285Y-113703809D01*
X146924285Y-113560952D01*
X146971904Y-113370476D01*
X147019523Y-113275238D01*
X147114761Y-113180000D01*
X147257619Y-113132380D01*
X147352857Y-113132380D01*
X147495714Y-113180000D01*
X147543333Y-113227619D01*
X148400476Y-113132380D02*
X148210000Y-113132380D01*
X148114761Y-113180000D01*
X148067142Y-113227619D01*
X147971904Y-113370476D01*
X147924285Y-113560952D01*
X147924285Y-113941904D01*
X147971904Y-114037142D01*
X148019523Y-114084761D01*
X148114761Y-114132380D01*
X148305238Y-114132380D01*
X148400476Y-114084761D01*
X148448095Y-114037142D01*
X148495714Y-113941904D01*
X148495714Y-113703809D01*
X148448095Y-113608571D01*
X148400476Y-113560952D01*
X148305238Y-113513333D01*
X148114761Y-113513333D01*
X148019523Y-113560952D01*
X147971904Y-113608571D01*
X147924285Y-113703809D01*
X147093333Y-110017142D02*
X147045714Y-110064761D01*
X146902857Y-110112380D01*
X146807619Y-110112380D01*
X146664761Y-110064761D01*
X146569523Y-109969523D01*
X146521904Y-109874285D01*
X146474285Y-109683809D01*
X146474285Y-109540952D01*
X146521904Y-109350476D01*
X146569523Y-109255238D01*
X146664761Y-109160000D01*
X146807619Y-109112380D01*
X146902857Y-109112380D01*
X147045714Y-109160000D01*
X147093333Y-109207619D01*
X147426666Y-109112380D02*
X148093333Y-109112380D01*
X147664761Y-110112380D01*
X129883333Y-117962380D02*
X129550000Y-117486190D01*
X129311904Y-117962380D02*
X129311904Y-116962380D01*
X129692857Y-116962380D01*
X129788095Y-117010000D01*
X129835714Y-117057619D01*
X129883333Y-117152857D01*
X129883333Y-117295714D01*
X129835714Y-117390952D01*
X129788095Y-117438571D01*
X129692857Y-117486190D01*
X129311904Y-117486190D01*
X130264285Y-117057619D02*
X130311904Y-117010000D01*
X130407142Y-116962380D01*
X130645238Y-116962380D01*
X130740476Y-117010000D01*
X130788095Y-117057619D01*
X130835714Y-117152857D01*
X130835714Y-117248095D01*
X130788095Y-117390952D01*
X130216666Y-117962380D01*
X130835714Y-117962380D01*
X145503333Y-126232380D02*
X145170000Y-125756190D01*
X144931904Y-126232380D02*
X144931904Y-125232380D01*
X145312857Y-125232380D01*
X145408095Y-125280000D01*
X145455714Y-125327619D01*
X145503333Y-125422857D01*
X145503333Y-125565714D01*
X145455714Y-125660952D01*
X145408095Y-125708571D01*
X145312857Y-125756190D01*
X144931904Y-125756190D01*
X145836666Y-125232380D02*
X146455714Y-125232380D01*
X146122380Y-125613333D01*
X146265238Y-125613333D01*
X146360476Y-125660952D01*
X146408095Y-125708571D01*
X146455714Y-125803809D01*
X146455714Y-126041904D01*
X146408095Y-126137142D01*
X146360476Y-126184761D01*
X146265238Y-126232380D01*
X145979523Y-126232380D01*
X145884285Y-126184761D01*
X145836666Y-126137142D01*
X122552380Y-106366666D02*
X122076190Y-106700000D01*
X122552380Y-106938095D02*
X121552380Y-106938095D01*
X121552380Y-106557142D01*
X121600000Y-106461904D01*
X121647619Y-106414285D01*
X121742857Y-106366666D01*
X121885714Y-106366666D01*
X121980952Y-106414285D01*
X122028571Y-106461904D01*
X122076190Y-106557142D01*
X122076190Y-106938095D01*
X121885714Y-105509523D02*
X122552380Y-105509523D01*
X121504761Y-105747619D02*
X122219047Y-105985714D01*
X122219047Y-105366666D01*
X124062380Y-106366666D02*
X123586190Y-106700000D01*
X124062380Y-106938095D02*
X123062380Y-106938095D01*
X123062380Y-106557142D01*
X123110000Y-106461904D01*
X123157619Y-106414285D01*
X123252857Y-106366666D01*
X123395714Y-106366666D01*
X123490952Y-106414285D01*
X123538571Y-106461904D01*
X123586190Y-106557142D01*
X123586190Y-106938095D01*
X123062380Y-105461904D02*
X123062380Y-105938095D01*
X123538571Y-105985714D01*
X123490952Y-105938095D01*
X123443333Y-105842857D01*
X123443333Y-105604761D01*
X123490952Y-105509523D01*
X123538571Y-105461904D01*
X123633809Y-105414285D01*
X123871904Y-105414285D01*
X123967142Y-105461904D01*
X124014761Y-105509523D01*
X124062380Y-105604761D01*
X124062380Y-105842857D01*
X124014761Y-105938095D01*
X123967142Y-105985714D01*
X125552380Y-106366666D02*
X125076190Y-106700000D01*
X125552380Y-106938095D02*
X124552380Y-106938095D01*
X124552380Y-106557142D01*
X124600000Y-106461904D01*
X124647619Y-106414285D01*
X124742857Y-106366666D01*
X124885714Y-106366666D01*
X124980952Y-106414285D01*
X125028571Y-106461904D01*
X125076190Y-106557142D01*
X125076190Y-106938095D01*
X124552380Y-105509523D02*
X124552380Y-105700000D01*
X124600000Y-105795238D01*
X124647619Y-105842857D01*
X124790476Y-105938095D01*
X124980952Y-105985714D01*
X125361904Y-105985714D01*
X125457142Y-105938095D01*
X125504761Y-105890476D01*
X125552380Y-105795238D01*
X125552380Y-105604761D01*
X125504761Y-105509523D01*
X125457142Y-105461904D01*
X125361904Y-105414285D01*
X125123809Y-105414285D01*
X125028571Y-105461904D01*
X124980952Y-105509523D01*
X124933333Y-105604761D01*
X124933333Y-105795238D01*
X124980952Y-105890476D01*
X125028571Y-105938095D01*
X125123809Y-105985714D01*
X125492380Y-120876666D02*
X125016190Y-121210000D01*
X125492380Y-121448095D02*
X124492380Y-121448095D01*
X124492380Y-121067142D01*
X124540000Y-120971904D01*
X124587619Y-120924285D01*
X124682857Y-120876666D01*
X124825714Y-120876666D01*
X124920952Y-120924285D01*
X124968571Y-120971904D01*
X125016190Y-121067142D01*
X125016190Y-121448095D01*
X124492380Y-120543333D02*
X124492380Y-119876666D01*
X125492380Y-120305238D01*
X130638095Y-123212380D02*
X130638095Y-124021904D01*
X130685714Y-124117142D01*
X130733333Y-124164761D01*
X130828571Y-124212380D01*
X131019047Y-124212380D01*
X131114285Y-124164761D01*
X131161904Y-124117142D01*
X131209523Y-124021904D01*
X131209523Y-123212380D01*
X132209523Y-124212380D02*
X131638095Y-124212380D01*
X131923809Y-124212380D02*
X131923809Y-123212380D01*
X131828571Y-123355238D01*
X131733333Y-123450476D01*
X131638095Y-123498095D01*
X132738095Y-112952380D02*
X132738095Y-113761904D01*
X132785714Y-113857142D01*
X132833333Y-113904761D01*
X132928571Y-113952380D01*
X133119047Y-113952380D01*
X133214285Y-113904761D01*
X133261904Y-113857142D01*
X133309523Y-113761904D01*
X133309523Y-112952380D01*
X133738095Y-113047619D02*
X133785714Y-113000000D01*
X133880952Y-112952380D01*
X134119047Y-112952380D01*
X134214285Y-113000000D01*
X134261904Y-113047619D01*
X134309523Y-113142857D01*
X134309523Y-113238095D01*
X134261904Y-113380952D01*
X133690476Y-113952380D01*
X134309523Y-113952380D01*
X126331904Y-95292380D02*
X126331904Y-94292380D01*
X126570000Y-94292380D01*
X126712857Y-94340000D01*
X126808095Y-94435238D01*
X126855714Y-94530476D01*
X126903333Y-94720952D01*
X126903333Y-94863809D01*
X126855714Y-95054285D01*
X126808095Y-95149523D01*
X126712857Y-95244761D01*
X126570000Y-95292380D01*
X126331904Y-95292380D01*
X127855714Y-95292380D02*
X127284285Y-95292380D01*
X127570000Y-95292380D02*
X127570000Y-94292380D01*
X127474761Y-94435238D01*
X127379523Y-94530476D01*
X127284285Y-94578095D01*
X126251904Y-132502380D02*
X126251904Y-131502380D01*
X126490000Y-131502380D01*
X126632857Y-131550000D01*
X126728095Y-131645238D01*
X126775714Y-131740476D01*
X126823333Y-131930952D01*
X126823333Y-132073809D01*
X126775714Y-132264285D01*
X126728095Y-132359523D01*
X126632857Y-132454761D01*
X126490000Y-132502380D01*
X126251904Y-132502380D01*
X127204285Y-131597619D02*
X127251904Y-131550000D01*
X127347142Y-131502380D01*
X127585238Y-131502380D01*
X127680476Y-131550000D01*
X127728095Y-131597619D01*
X127775714Y-131692857D01*
X127775714Y-131788095D01*
X127728095Y-131930952D01*
X127156666Y-132502380D01*
X127775714Y-132502380D01*
X123982380Y-120866666D02*
X123506190Y-121200000D01*
X123982380Y-121438095D02*
X122982380Y-121438095D01*
X122982380Y-121057142D01*
X123030000Y-120961904D01*
X123077619Y-120914285D01*
X123172857Y-120866666D01*
X123315714Y-120866666D01*
X123410952Y-120914285D01*
X123458571Y-120961904D01*
X123506190Y-121057142D01*
X123506190Y-121438095D01*
X123410952Y-120295238D02*
X123363333Y-120390476D01*
X123315714Y-120438095D01*
X123220476Y-120485714D01*
X123172857Y-120485714D01*
X123077619Y-120438095D01*
X123030000Y-120390476D01*
X122982380Y-120295238D01*
X122982380Y-120104761D01*
X123030000Y-120009523D01*
X123077619Y-119961904D01*
X123172857Y-119914285D01*
X123220476Y-119914285D01*
X123315714Y-119961904D01*
X123363333Y-120009523D01*
X123410952Y-120104761D01*
X123410952Y-120295238D01*
X123458571Y-120390476D01*
X123506190Y-120438095D01*
X123601428Y-120485714D01*
X123791904Y-120485714D01*
X123887142Y-120438095D01*
X123934761Y-120390476D01*
X123982380Y-120295238D01*
X123982380Y-120104761D01*
X123934761Y-120009523D01*
X123887142Y-119961904D01*
X123791904Y-119914285D01*
X123601428Y-119914285D01*
X123506190Y-119961904D01*
X123458571Y-120009523D01*
X123410952Y-120104761D01*
X122492380Y-120876666D02*
X122016190Y-121210000D01*
X122492380Y-121448095D02*
X121492380Y-121448095D01*
X121492380Y-121067142D01*
X121540000Y-120971904D01*
X121587619Y-120924285D01*
X121682857Y-120876666D01*
X121825714Y-120876666D01*
X121920952Y-120924285D01*
X121968571Y-120971904D01*
X122016190Y-121067142D01*
X122016190Y-121448095D01*
X122492380Y-120400476D02*
X122492380Y-120210000D01*
X122444761Y-120114761D01*
X122397142Y-120067142D01*
X122254285Y-119971904D01*
X122063809Y-119924285D01*
X121682857Y-119924285D01*
X121587619Y-119971904D01*
X121540000Y-120019523D01*
X121492380Y-120114761D01*
X121492380Y-120305238D01*
X121540000Y-120400476D01*
X121587619Y-120448095D01*
X121682857Y-120495714D01*
X121920952Y-120495714D01*
X122016190Y-120448095D01*
X122063809Y-120400476D01*
X122111428Y-120305238D01*
X122111428Y-120114761D01*
X122063809Y-120019523D01*
X122016190Y-119971904D01*
X121920952Y-119924285D01*
X134217142Y-104632380D02*
X133883809Y-104156190D01*
X133645714Y-104632380D02*
X133645714Y-103632380D01*
X134026666Y-103632380D01*
X134121904Y-103680000D01*
X134169523Y-103727619D01*
X134217142Y-103822857D01*
X134217142Y-103965714D01*
X134169523Y-104060952D01*
X134121904Y-104108571D01*
X134026666Y-104156190D01*
X133645714Y-104156190D01*
X135169523Y-104632380D02*
X134598095Y-104632380D01*
X134883809Y-104632380D02*
X134883809Y-103632380D01*
X134788571Y-103775238D01*
X134693333Y-103870476D01*
X134598095Y-103918095D01*
X135788571Y-103632380D02*
X135883809Y-103632380D01*
X135979047Y-103680000D01*
X136026666Y-103727619D01*
X136074285Y-103822857D01*
X136121904Y-104013333D01*
X136121904Y-104251428D01*
X136074285Y-104441904D01*
X136026666Y-104537142D01*
X135979047Y-104584761D01*
X135883809Y-104632380D01*
X135788571Y-104632380D01*
X135693333Y-104584761D01*
X135645714Y-104537142D01*
X135598095Y-104441904D01*
X135550476Y-104251428D01*
X135550476Y-104013333D01*
X135598095Y-103822857D01*
X135645714Y-103727619D01*
X135693333Y-103680000D01*
X135788571Y-103632380D01*
X134217142Y-106092380D02*
X133883809Y-105616190D01*
X133645714Y-106092380D02*
X133645714Y-105092380D01*
X134026666Y-105092380D01*
X134121904Y-105140000D01*
X134169523Y-105187619D01*
X134217142Y-105282857D01*
X134217142Y-105425714D01*
X134169523Y-105520952D01*
X134121904Y-105568571D01*
X134026666Y-105616190D01*
X133645714Y-105616190D01*
X135169523Y-106092380D02*
X134598095Y-106092380D01*
X134883809Y-106092380D02*
X134883809Y-105092380D01*
X134788571Y-105235238D01*
X134693333Y-105330476D01*
X134598095Y-105378095D01*
X136121904Y-106092380D02*
X135550476Y-106092380D01*
X135836190Y-106092380D02*
X135836190Y-105092380D01*
X135740952Y-105235238D01*
X135645714Y-105330476D01*
X135550476Y-105378095D01*
M02*
