M48
; DRILL file {KiCad 5.1.9-73d0e3b20d~88~ubuntu20.04.1} date Sat Jun  5 19:36:12 2021
; FORMAT={-:-/ absolute / inch / decimal}
; #@! TF.CreationDate,2021-06-05T19:36:12+02:00
; #@! TF.GenerationSoftware,Kicad,Pcbnew,5.1.9-73d0e3b20d~88~ubuntu20.04.1
; #@! TF.FileFunction,Plated,1,4,PTH
FMAT,2
INCH
T1C0.0157
T2C0.0236
T3C0.0354
T4C0.0394
%
G90
G05
T1
X4.761Y-3.7114
X4.7618Y-4.1606
X4.7622Y-3.3587
X4.7622Y-4.5043
X4.778Y-4.8047
X4.7823Y-3.0657
X4.8937Y-3.937
X4.9563Y-3.5894
X4.9567Y-3.6469
X5.0008Y-3.2181
X5.0012Y-4.6563
X5.0179Y-4.1
X5.0181Y-3.7736
X5.0315Y-4.3736
X5.1098Y-4.1193
X5.1098Y-3.7547
X5.115Y-3.4492
X5.1154Y-3.2134
X5.1154Y-3.3311
X5.1209Y-3.937
X5.1539Y-3.5748
X5.1744Y-4.2402
X5.2089Y-3.9366
X5.2295Y-4.4795
X5.2307Y-4.5878
X5.2307Y-4.687
X5.2551Y-4.0563
X5.2551Y-4.1181
X5.2614Y-3.0634
X5.2657Y-4.8102
X5.3665Y-4.8102
X5.3673Y-3.0626
X5.3846Y-4.1855
X5.385Y-4.3066
X5.3965Y-3.7425
X5.3969Y-3.5988
X5.4362Y-3.8898
X5.4606Y-4.1024
X5.4626Y-3.5425
X5.4626Y-3.7677
X5.4669Y-3.0634
X5.4673Y-4.8102
X5.5Y-4.1024
X5.5394Y-4.1024
X5.5433Y-3.7717
X5.5543Y-3.8622
X5.5665Y-3.063
X5.5665Y-4.8098
X5.5787Y-4.1024
X5.5827Y-3.7717
X5.5854Y-3.987
X5.6181Y-4.1024
X5.622Y-3.7717
X5.6594Y-4.1024
X5.6614Y-3.7717
X5.6661Y-3.063
X5.6665Y-4.8098
X5.7094Y-3.6004
X5.7185Y-3.7677
X5.7189Y-4.1063
X5.7453Y-4.0
X5.7661Y-4.8106
X5.7665Y-3.063
X5.7717Y-3.6004
X5.7835Y-4.274
X5.7839Y-4.1311
X5.8425Y-4.1311
X5.8583Y-3.5366
X5.8583Y-4.337
X5.8669Y-3.063
X5.8669Y-4.8106
X5.8839Y-3.7862
X5.8839Y-3.9299
X5.9661Y-4.8106
X5.9669Y-3.0626
X6.0614Y-3.5815
X6.063Y-4.2925
X6.0661Y-4.811
X6.0665Y-3.0634
X6.1094Y-3.7878
X6.1094Y-3.848
X6.1118Y-4.1567
X6.1665Y-4.811
X6.1673Y-3.063
X6.2661Y-3.0634
X6.2673Y-4.811
X6.3661Y-3.0634
X6.3677Y-4.811
X6.4661Y-3.0634
X6.4669Y-4.8102
X6.5665Y-3.0638
X6.5669Y-4.8094
X6.6657Y-3.063
X6.6661Y-4.8094
X6.7661Y-4.8102
X6.7665Y-3.063
X6.8673Y-3.0638
X6.8673Y-4.8102
X6.9673Y-4.8102
X6.9677Y-3.063
X7.0657Y-4.8102
X7.0669Y-3.063
X7.1618Y-4.8102
X7.1669Y-3.063
X7.2661Y-3.0634
X7.2665Y-4.8102
X7.3669Y-3.0634
X7.3669Y-4.811
X7.4665Y-3.0634
X7.4665Y-4.811
X7.5665Y-3.0634
X7.5669Y-4.8102
X7.6665Y-3.0638
X7.6665Y-4.8106
X7.7673Y-4.8106
X7.7677Y-3.0634
T3
X5.0Y-3.2874
X5.0Y-3.3374
X5.0Y-3.3874
X5.0Y-3.4374
X5.0Y-4.437
X5.0Y-4.487
X5.0Y-4.537
X5.0Y-4.587
T4
X5.3165Y-3.137
X5.3165Y-3.237
X5.3165Y-3.337
X5.3165Y-4.537
X5.3165Y-4.637
X5.3165Y-4.737
X5.4165Y-3.137
X5.4165Y-3.237
X5.4165Y-3.337
X5.4165Y-4.537
X5.4165Y-4.637
X5.4165Y-4.737
X5.5165Y-3.137
X5.5165Y-3.237
X5.5165Y-3.337
X5.5165Y-4.537
X5.5165Y-4.637
X5.5165Y-4.737
X5.6165Y-3.137
X5.6165Y-3.237
X5.6165Y-3.337
X5.6165Y-4.537
X5.6165Y-4.637
X5.6165Y-4.737
X5.7165Y-3.137
X5.7165Y-3.237
X5.7165Y-3.337
X5.7165Y-4.537
X5.7165Y-4.637
X5.7165Y-4.737
X5.8165Y-3.137
X5.8165Y-3.237
X5.8165Y-3.337
X5.8165Y-4.537
X5.8165Y-4.637
X5.8165Y-4.737
X5.9165Y-3.137
X5.9165Y-3.237
X5.9165Y-3.337
X5.9165Y-4.537
X5.9165Y-4.637
X5.9165Y-4.737
X6.0165Y-3.137
X6.0165Y-3.237
X6.0165Y-3.337
X6.0165Y-4.537
X6.0165Y-4.637
X6.0165Y-4.737
X6.1165Y-3.137
X6.1165Y-3.237
X6.1165Y-3.337
X6.1165Y-4.537
X6.1165Y-4.637
X6.1165Y-4.737
X6.2165Y-3.137
X6.2165Y-3.237
X6.2165Y-3.337
X6.2165Y-3.437
X6.2165Y-3.537
X6.2165Y-3.637
X6.2165Y-3.737
X6.2165Y-3.837
X6.2165Y-3.937
X6.2165Y-4.037
X6.2165Y-4.137
X6.2165Y-4.237
X6.2165Y-4.337
X6.2165Y-4.437
X6.2165Y-4.537
X6.2165Y-4.637
X6.2165Y-4.737
X6.3165Y-3.137
X6.3165Y-3.137
X6.3165Y-3.237
X6.3165Y-3.237
X6.3165Y-3.337
X6.3165Y-3.337
X6.3165Y-3.437
X6.3165Y-3.537
X6.3165Y-3.637
X6.3165Y-3.737
X6.3165Y-3.837
X6.3165Y-3.937
X6.3165Y-4.037
X6.3165Y-4.137
X6.3165Y-4.237
X6.3165Y-4.337
X6.3165Y-4.437
X6.3165Y-4.537
X6.3165Y-4.537
X6.3165Y-4.637
X6.3165Y-4.637
X6.3165Y-4.737
X6.3165Y-4.737
X6.4165Y-3.137
X6.4165Y-3.237
X6.4165Y-3.337
X6.4165Y-3.437
X6.4165Y-3.537
X6.4165Y-3.637
X6.4165Y-3.737
X6.4165Y-3.837
X6.4165Y-3.937
X6.4165Y-4.037
X6.4165Y-4.137
X6.4165Y-4.237
X6.4165Y-4.337
X6.4165Y-4.437
X6.4165Y-4.537
X6.4165Y-4.637
X6.4165Y-4.737
X6.5165Y-3.137
X6.5165Y-3.137
X6.5165Y-3.237
X6.5165Y-3.337
X6.5165Y-3.437
X6.5165Y-3.537
X6.5165Y-3.637
X6.5165Y-3.737
X6.5165Y-3.837
X6.5165Y-3.937
X6.5165Y-4.037
X6.5165Y-4.137
X6.5165Y-4.237
X6.5165Y-4.337
X6.5165Y-4.437
X6.5165Y-4.537
X6.5165Y-4.537
X6.5165Y-4.637
X6.5165Y-4.637
X6.5165Y-4.737
X6.5165Y-4.737
X6.6165Y-3.137
X6.6165Y-3.237
X6.6165Y-3.337
X6.6165Y-3.437
X6.6165Y-3.537
X6.6165Y-3.637
X6.6165Y-3.737
X6.6165Y-3.837
X6.6165Y-3.937
X6.6165Y-4.037
X6.6165Y-4.137
X6.6165Y-4.237
X6.6165Y-4.337
X6.6165Y-4.437
X6.6165Y-4.537
X6.6165Y-4.637
X6.6165Y-4.737
X6.7165Y-3.137
X6.7165Y-3.237
X6.7165Y-3.337
X6.7165Y-3.437
X6.7165Y-3.537
X6.7165Y-3.637
X6.7165Y-3.737
X6.7165Y-3.837
X6.7165Y-3.937
X6.7165Y-4.037
X6.7165Y-4.137
X6.7165Y-4.237
X6.7165Y-4.337
X6.7165Y-4.437
X6.7165Y-4.537
X6.7165Y-4.637
X6.7165Y-4.737
X6.8165Y-3.137
X6.8165Y-3.237
X6.8165Y-3.337
X6.8165Y-3.437
X6.8165Y-3.537
X6.8165Y-3.637
X6.8165Y-3.737
X6.8165Y-3.837
X6.8165Y-3.937
X6.8165Y-4.037
X6.8165Y-4.137
X6.8165Y-4.237
X6.8165Y-4.337
X6.8165Y-4.437
X6.8165Y-4.537
X6.8165Y-4.637
X6.8165Y-4.737
X6.9165Y-3.137
X6.9165Y-3.237
X6.9165Y-3.337
X6.9165Y-3.437
X6.9165Y-3.537
X6.9165Y-3.637
X6.9165Y-3.737
X6.9165Y-3.837
X6.9165Y-3.937
X6.9165Y-4.037
X6.9165Y-4.137
X6.9165Y-4.237
X6.9165Y-4.337
X6.9165Y-4.437
X6.9165Y-4.537
X6.9165Y-4.637
X6.9165Y-4.737
X7.0165Y-3.137
X7.0165Y-3.237
X7.0165Y-3.337
X7.0165Y-3.437
X7.0165Y-3.537
X7.0165Y-3.637
X7.0165Y-3.737
X7.0165Y-3.837
X7.0165Y-3.937
X7.0165Y-4.037
X7.0165Y-4.137
X7.0165Y-4.237
X7.0165Y-4.337
X7.0165Y-4.437
X7.0165Y-4.537
X7.0165Y-4.637
X7.0165Y-4.737
X7.1165Y-3.137
X7.1165Y-3.237
X7.1165Y-3.337
X7.1165Y-3.437
X7.1165Y-3.537
X7.1165Y-3.637
X7.1165Y-3.737
X7.1165Y-3.837
X7.1165Y-3.937
X7.1165Y-4.037
X7.1165Y-4.137
X7.1165Y-4.237
X7.1165Y-4.337
X7.1165Y-4.437
X7.1165Y-4.537
X7.1165Y-4.637
X7.1165Y-4.737
X7.2165Y-3.137
X7.2165Y-3.237
X7.2165Y-3.337
X7.2165Y-3.437
X7.2165Y-3.537
X7.2165Y-3.637
X7.2165Y-3.737
X7.2165Y-3.837
X7.2165Y-3.937
X7.2165Y-4.037
X7.2165Y-4.137
X7.2165Y-4.237
X7.2165Y-4.337
X7.2165Y-4.437
X7.2165Y-4.437
X7.2165Y-4.537
X7.2165Y-4.537
X7.2165Y-4.637
X7.2165Y-4.637
X7.2165Y-4.737
X7.3165Y-3.137
X7.3165Y-3.237
X7.3165Y-3.337
X7.3165Y-3.437
X7.3165Y-3.537
X7.3165Y-3.637
X7.3165Y-3.737
X7.3165Y-3.837
X7.3165Y-3.937
X7.3165Y-4.037
X7.3165Y-4.137
X7.3165Y-4.237
X7.3165Y-4.337
X7.3165Y-4.437
X7.3165Y-4.537
X7.3165Y-4.637
X7.3165Y-4.737
X7.4165Y-3.137
X7.4165Y-3.237
X7.4165Y-3.337
X7.4165Y-3.437
X7.4165Y-3.537
X7.4165Y-3.637
X7.4165Y-3.737
X7.4165Y-3.837
X7.4165Y-3.937
X7.4165Y-4.037
X7.4165Y-4.137
X7.4165Y-4.237
X7.4165Y-4.337
X7.4165Y-4.437
X7.4165Y-4.537
X7.4165Y-4.637
X7.4165Y-4.737
X7.5165Y-3.137
X7.5165Y-3.237
X7.5165Y-3.337
X7.5165Y-3.437
X7.5165Y-3.537
X7.5165Y-3.637
X7.5165Y-3.737
X7.5165Y-3.837
X7.5165Y-3.937
X7.5165Y-4.037
X7.5165Y-4.137
X7.5165Y-4.237
X7.5165Y-4.337
X7.5165Y-4.437
X7.5165Y-4.537
X7.5165Y-4.637
X7.5165Y-4.737
X7.6165Y-3.137
X7.6165Y-3.237
X7.6165Y-3.337
X7.6165Y-3.437
X7.6165Y-3.537
X7.6165Y-3.637
X7.6165Y-3.737
X7.6165Y-3.837
X7.6165Y-3.937
X7.6165Y-4.037
X7.6165Y-4.137
X7.6165Y-4.237
X7.6165Y-4.337
X7.6165Y-4.437
X7.6165Y-4.537
X7.6165Y-4.637
X7.6165Y-4.737
X7.7165Y-3.137
X7.7165Y-3.237
X7.7165Y-3.337
X7.7165Y-3.437
X7.7165Y-3.537
X7.7165Y-3.637
X7.7165Y-3.737
X7.7165Y-3.837
X7.7165Y-3.937
X7.7165Y-4.037
X7.7165Y-4.137
X7.7165Y-4.237
X7.7165Y-4.337
X7.7165Y-4.437
X7.7165Y-4.537
X7.7165Y-4.637
X7.7165Y-4.737
X7.8165Y-3.137
X7.8165Y-3.237
X7.8165Y-3.337
X7.8165Y-3.437
X7.8165Y-3.537
X7.8165Y-3.637
X7.8165Y-3.737
X7.8165Y-3.837
X7.8165Y-3.937
X7.8165Y-4.037
X7.8165Y-4.137
X7.8165Y-4.237
X7.8165Y-4.337
X7.8165Y-4.437
X7.8165Y-4.537
X7.8165Y-4.637
X7.8165Y-4.737
T2
G00X4.8008Y-3.7669
M15
G01X4.7772Y-3.7669
M16
G05
G00X4.8008Y-4.1071
M15
G01X4.7772Y-4.1071
M16
G05
G00X4.9752Y-3.7669
M15
G01X4.9319Y-3.7669
M16
G05
G00X4.9752Y-4.1071
M15
G01X4.9319Y-4.1071
M16
G05
T0
M30
