G04 #@! TF.GenerationSoftware,KiCad,Pcbnew,5.1.9-73d0e3b20d~88~ubuntu20.04.1*
G04 #@! TF.CreationDate,2021-06-05T19:36:16+02:00*
G04 #@! TF.ProjectId,krieger,6b726965-6765-4722-9e6b-696361645f70,v2.0*
G04 #@! TF.SameCoordinates,Original*
G04 #@! TF.FileFunction,Copper,L2,Inr*
G04 #@! TF.FilePolarity,Positive*
%FSLAX46Y46*%
G04 Gerber Fmt 4.6, Leading zero omitted, Abs format (unit mm)*
G04 Created by KiCad (PCBNEW 5.1.9-73d0e3b20d~88~ubuntu20.04.1) date 2021-06-05 19:36:16*
%MOMM*%
%LPD*%
G01*
G04 APERTURE LIST*
G04 #@! TA.AperFunction,ComponentPad*
%ADD10C,1.700000*%
G04 #@! TD*
G04 #@! TA.AperFunction,ComponentPad*
%ADD11O,1.600000X1.000000*%
G04 #@! TD*
G04 #@! TA.AperFunction,ComponentPad*
%ADD12O,2.100000X1.000000*%
G04 #@! TD*
G04 #@! TA.AperFunction,ComponentPad*
%ADD13O,1.800000X1.070000*%
G04 #@! TD*
G04 #@! TA.AperFunction,ComponentPad*
%ADD14R,1.800000X1.070000*%
G04 #@! TD*
G04 #@! TA.AperFunction,ViaPad*
%ADD15C,0.800000*%
G04 #@! TD*
G04 #@! TA.AperFunction,Conductor*
%ADD16C,0.250000*%
G04 #@! TD*
G04 #@! TA.AperFunction,Conductor*
%ADD17C,0.254000*%
G04 #@! TD*
G04 #@! TA.AperFunction,Conductor*
%ADD18C,0.100000*%
G04 #@! TD*
G04 APERTURE END LIST*
D10*
X155360000Y-79680000D03*
X152820000Y-79680000D03*
X150280000Y-79680000D03*
X147740000Y-79680000D03*
X145200000Y-79680000D03*
X142660000Y-79680000D03*
X140120000Y-79680000D03*
X137580000Y-79680000D03*
X135040000Y-79680000D03*
X155360000Y-82220000D03*
X152820000Y-82220000D03*
X150280000Y-82220000D03*
X147740000Y-82220000D03*
X145200000Y-82220000D03*
X142660000Y-82220000D03*
X140120000Y-82220000D03*
X137580000Y-82220000D03*
X135040000Y-82220000D03*
X155360000Y-84760000D03*
X152820000Y-84760000D03*
X150280000Y-84760000D03*
X147740000Y-84760000D03*
X145200000Y-84760000D03*
X142660000Y-84760000D03*
X140120000Y-84760000D03*
X137580000Y-84760000D03*
X135040000Y-84760000D03*
X155360000Y-115240000D03*
X152820000Y-115240000D03*
X150280000Y-115240000D03*
X147740000Y-115240000D03*
X145200000Y-115240000D03*
X142660000Y-115240000D03*
X140120000Y-115240000D03*
X137580000Y-115240000D03*
X135040000Y-115240000D03*
X155360000Y-117780000D03*
X152820000Y-117780000D03*
X150280000Y-117780000D03*
X147740000Y-117780000D03*
X145200000Y-117780000D03*
X142660000Y-117780000D03*
X140120000Y-117780000D03*
X137580000Y-117780000D03*
X135040000Y-117780000D03*
X155360000Y-120320000D03*
X152820000Y-120320000D03*
X150280000Y-120320000D03*
X147740000Y-120320000D03*
X145200000Y-120320000D03*
X142660000Y-120320000D03*
X140120000Y-120320000D03*
X137580000Y-120320000D03*
X135040000Y-120320000D03*
X160440000Y-79680000D03*
X160440000Y-82220000D03*
X160440000Y-84760000D03*
X160440000Y-79680000D03*
X160440000Y-84760000D03*
X160440000Y-82220000D03*
X157900000Y-79680000D03*
X157900000Y-84760000D03*
X157900000Y-82220000D03*
X160440000Y-115240000D03*
X160440000Y-117780000D03*
X160440000Y-120320000D03*
X160440000Y-115240000D03*
X160440000Y-120320000D03*
X160440000Y-117780000D03*
X157900000Y-115240000D03*
X157900000Y-120320000D03*
X157900000Y-117780000D03*
X162980000Y-82220000D03*
X162980000Y-84760000D03*
X162980000Y-79680000D03*
X162980000Y-117780000D03*
X162980000Y-120320000D03*
X162980000Y-115240000D03*
X183300000Y-115240000D03*
X183300000Y-117780000D03*
X183300000Y-112700000D03*
X165520000Y-117780000D03*
X165520000Y-120320000D03*
X165520000Y-115240000D03*
X162980000Y-97460000D03*
X165520000Y-97460000D03*
X168060000Y-97460000D03*
X170600000Y-97460000D03*
X173140000Y-97460000D03*
X175680000Y-97460000D03*
X178220000Y-97460000D03*
X180760000Y-97460000D03*
X183300000Y-97460000D03*
X185840000Y-97460000D03*
X188380000Y-97460000D03*
X190920000Y-100000000D03*
X185840000Y-115240000D03*
X162980000Y-87300000D03*
X162980000Y-89840000D03*
X162980000Y-92380000D03*
X162980000Y-94920000D03*
X165520000Y-94920000D03*
X165520000Y-92380000D03*
X165520000Y-89840000D03*
X165520000Y-87300000D03*
X165520000Y-84760000D03*
X165520000Y-120320000D03*
X165520000Y-117780000D03*
X168060000Y-117780000D03*
X168060000Y-120320000D03*
X168060000Y-84760000D03*
X168060000Y-89840000D03*
X168060000Y-87300000D03*
X168060000Y-92380000D03*
X168060000Y-94920000D03*
X170600000Y-94920000D03*
X170600000Y-92380000D03*
X170600000Y-89840000D03*
X170600000Y-87300000D03*
X170600000Y-84760000D03*
X170600000Y-120320000D03*
X170600000Y-117780000D03*
X173140000Y-117780000D03*
X173140000Y-120320000D03*
X173140000Y-84760000D03*
X173140000Y-87300000D03*
X173140000Y-89840000D03*
X173140000Y-92380000D03*
X173140000Y-94920000D03*
X175680000Y-92380000D03*
X175680000Y-89840000D03*
X175680000Y-87300000D03*
X175680000Y-84760000D03*
X175680000Y-120320000D03*
X175680000Y-117780000D03*
X178220000Y-117780000D03*
X178220000Y-120320000D03*
X178220000Y-84760000D03*
X178220000Y-87300000D03*
X178220000Y-89840000D03*
X178220000Y-92380000D03*
X178220000Y-94920000D03*
X175680000Y-94920000D03*
X180760000Y-94920000D03*
X180760000Y-92380000D03*
X180760000Y-89840000D03*
X180760000Y-87300000D03*
X180760000Y-84760000D03*
X180760000Y-120320000D03*
X180760000Y-117780000D03*
X183300000Y-117780000D03*
X183300000Y-120320000D03*
X183300000Y-84760000D03*
X183300000Y-87300000D03*
X183300000Y-89840000D03*
X183300000Y-92380000D03*
X183300000Y-94920000D03*
X185840000Y-94920000D03*
X185840000Y-92380000D03*
X185840000Y-89840000D03*
X185840000Y-87300000D03*
X188380000Y-87300000D03*
X188380000Y-89840000D03*
X188380000Y-92380000D03*
X188380000Y-94920000D03*
X190920000Y-97460000D03*
X190920000Y-94920000D03*
X190920000Y-92380000D03*
X190920000Y-89840000D03*
X190920000Y-87300000D03*
X190920000Y-112700000D03*
X188380000Y-110160000D03*
X185840000Y-110160000D03*
X185840000Y-112700000D03*
X162980000Y-100000000D03*
X165520000Y-100000000D03*
X168060000Y-100000000D03*
X170600000Y-100000000D03*
X173140000Y-100000000D03*
X175680000Y-100000000D03*
X178220000Y-100000000D03*
X180760000Y-100000000D03*
X183300000Y-100000000D03*
X185840000Y-100000000D03*
X188380000Y-100000000D03*
X190920000Y-102540000D03*
X190920000Y-105080000D03*
X190920000Y-107620000D03*
X190920000Y-110160000D03*
X188380000Y-107620000D03*
X185840000Y-107620000D03*
X183300000Y-107620000D03*
X183300000Y-110160000D03*
X183300000Y-112700000D03*
X183300000Y-115240000D03*
X162980000Y-102540000D03*
X165520000Y-102540000D03*
X168060000Y-102540000D03*
X170600000Y-102540000D03*
X173140000Y-102540000D03*
X175680000Y-102540000D03*
X178220000Y-102540000D03*
X180760000Y-102540000D03*
X183300000Y-102540000D03*
X185840000Y-102540000D03*
X188380000Y-102540000D03*
X188380000Y-105080000D03*
X185840000Y-105080000D03*
X183300000Y-105080000D03*
X180760000Y-105080000D03*
X180760000Y-107620000D03*
X180760000Y-110160000D03*
X180760000Y-112700000D03*
X180760000Y-115240000D03*
X178220000Y-115240000D03*
X175680000Y-115240000D03*
X173140000Y-115240000D03*
X170600000Y-115240000D03*
X168060000Y-115240000D03*
X165520000Y-115240000D03*
X162980000Y-107620000D03*
X162980000Y-105080000D03*
X165520000Y-105080000D03*
X168060000Y-105080000D03*
X170600000Y-105080000D03*
X173140000Y-105080000D03*
X175680000Y-105080000D03*
X178220000Y-105080000D03*
X178220000Y-107620000D03*
X178220000Y-110160000D03*
X178220000Y-112700000D03*
X175680000Y-112700000D03*
X173140000Y-112700000D03*
X170600000Y-112700000D03*
X168060000Y-112700000D03*
X165520000Y-112700000D03*
X162980000Y-112700000D03*
X162980000Y-110160000D03*
X165520000Y-110160000D03*
X165520000Y-107620000D03*
X168060000Y-107620000D03*
X170600000Y-107620000D03*
X175680000Y-107620000D03*
X175680000Y-110160000D03*
X173140000Y-110160000D03*
X170600000Y-110160000D03*
X168060000Y-110160000D03*
X173140000Y-107620000D03*
X190920000Y-84760000D03*
X188380000Y-84760000D03*
X185840000Y-84760000D03*
X190920000Y-115240000D03*
X188380000Y-115240000D03*
X188380000Y-112700000D03*
X185840000Y-117780000D03*
X185840000Y-120320000D03*
X160440000Y-102540000D03*
X160440000Y-100000000D03*
X160440000Y-105080000D03*
X160440000Y-112700000D03*
X160440000Y-110160000D03*
X160440000Y-107620000D03*
X160440000Y-87300000D03*
X160440000Y-89840000D03*
X160440000Y-97460000D03*
X160440000Y-92380000D03*
X160440000Y-94920000D03*
X157900000Y-97460000D03*
X157900000Y-94920000D03*
X157900000Y-102540000D03*
X157900000Y-100000000D03*
X157900000Y-89840000D03*
X157900000Y-92380000D03*
X157900000Y-87300000D03*
X157900000Y-110160000D03*
X157900000Y-107620000D03*
X157900000Y-105080000D03*
X157900000Y-112700000D03*
X168060000Y-79680000D03*
X168060000Y-82220000D03*
X170600000Y-82220000D03*
X173140000Y-82220000D03*
X173140000Y-79680000D03*
X170600000Y-79680000D03*
X175680000Y-82220000D03*
X175680000Y-79680000D03*
X178220000Y-82220000D03*
X178220000Y-79680000D03*
X183300000Y-82220000D03*
X180760000Y-82220000D03*
X180760000Y-79680000D03*
X183300000Y-79680000D03*
X185840000Y-82220000D03*
X185840000Y-79680000D03*
X165520000Y-79680000D03*
X165520000Y-79680000D03*
X165520000Y-82220000D03*
X188380000Y-117780000D03*
X188380000Y-120320000D03*
X190920000Y-117780000D03*
X190920000Y-120320000D03*
X188380000Y-79680000D03*
X190920000Y-79680000D03*
X190920000Y-82220000D03*
X188380000Y-82220000D03*
X193460000Y-84760000D03*
X196000000Y-97460000D03*
X198540000Y-100000000D03*
X193460000Y-97460000D03*
X193460000Y-115240000D03*
X198540000Y-110160000D03*
X193460000Y-110160000D03*
X198540000Y-87300000D03*
X193460000Y-120320000D03*
X193460000Y-117780000D03*
X196000000Y-87300000D03*
X198540000Y-117780000D03*
X196000000Y-120320000D03*
X193460000Y-102540000D03*
X193460000Y-79680000D03*
X196000000Y-94920000D03*
X196000000Y-112700000D03*
X196000000Y-115240000D03*
X198540000Y-94920000D03*
X193460000Y-107620000D03*
X193460000Y-105080000D03*
X198540000Y-89840000D03*
X198540000Y-105080000D03*
X193460000Y-112700000D03*
X196000000Y-107620000D03*
X198540000Y-115240000D03*
X198540000Y-112700000D03*
X196000000Y-110160000D03*
X196000000Y-82220000D03*
X196000000Y-79680000D03*
X198540000Y-120320000D03*
X198540000Y-82220000D03*
X198540000Y-79680000D03*
X198540000Y-84760000D03*
X193460000Y-100000000D03*
X196000000Y-84760000D03*
X193460000Y-87300000D03*
X193460000Y-82220000D03*
X193460000Y-94920000D03*
X198540000Y-102540000D03*
X198540000Y-97460000D03*
X193460000Y-89840000D03*
X196000000Y-89840000D03*
X196000000Y-100000000D03*
X196000000Y-105080000D03*
X196000000Y-117780000D03*
X193460000Y-92380000D03*
X198540000Y-107620000D03*
X198540000Y-92380000D03*
X196000000Y-92380000D03*
X196000000Y-102540000D03*
D11*
X121640000Y-104320000D03*
X121640000Y-95680000D03*
D12*
X125820000Y-95680000D03*
X125820000Y-104320000D03*
D13*
X127000000Y-87310000D03*
X127000000Y-86040000D03*
X127000000Y-84770000D03*
D14*
X127000000Y-83500000D03*
X127000000Y-112700000D03*
D13*
X127000000Y-113970000D03*
X127000000Y-115240000D03*
X127000000Y-116510000D03*
D15*
X131430000Y-107699998D03*
X148400000Y-104930000D03*
X133480000Y-103030000D03*
X149450000Y-99820000D03*
X155180000Y-97740000D03*
X155180000Y-96210000D03*
X155240000Y-105580000D03*
X146600000Y-91450000D03*
X138750000Y-95700000D03*
X145250000Y-95700000D03*
X138750000Y-89980000D03*
X136780000Y-109387500D03*
X145260000Y-104300000D03*
X146900000Y-108560000D03*
X137080000Y-91410000D03*
X129789999Y-104630000D03*
X129790000Y-95369990D03*
X197300000Y-77810000D03*
X194730000Y-77820000D03*
X192190000Y-77810000D03*
X189650000Y-77810000D03*
X187120000Y-77810000D03*
X184560000Y-77810000D03*
X182040000Y-77800000D03*
X179500000Y-77800000D03*
X176980000Y-77800000D03*
X174430000Y-77820000D03*
X171870000Y-77800000D03*
X169310000Y-77800000D03*
X166790000Y-77820000D03*
X164240000Y-77810000D03*
X161700000Y-77810000D03*
X159160000Y-77810000D03*
X156650000Y-77800000D03*
X154090000Y-77810000D03*
X151560000Y-77790000D03*
X149020000Y-77800000D03*
X146470000Y-77800000D03*
X143920000Y-77800000D03*
X141390000Y-77800000D03*
X138860000Y-77810000D03*
X136330000Y-77790000D03*
X133640000Y-77810000D03*
X127020000Y-81740000D03*
X130910000Y-90800000D03*
X120960000Y-114410000D03*
X127030000Y-118270000D03*
X141390000Y-122170000D03*
X143930000Y-122170000D03*
X146460000Y-122190000D03*
X149020000Y-122190000D03*
X151540000Y-122190000D03*
X154080000Y-122200000D03*
X156630000Y-122200000D03*
X159190000Y-122200000D03*
X161740000Y-122200000D03*
X164260000Y-122180000D03*
X166800000Y-122160000D03*
X169320000Y-122160000D03*
X171860000Y-122180000D03*
X174430000Y-122180000D03*
X176970000Y-122180000D03*
X179470000Y-122180000D03*
X181910000Y-122180000D03*
X184570000Y-122180000D03*
X187120000Y-122200000D03*
X189650000Y-122200000D03*
X192200000Y-122180000D03*
X194730000Y-122190000D03*
X197290000Y-122190000D03*
X138870000Y-122180000D03*
X136310000Y-122180000D03*
X133750000Y-122180000D03*
X141870000Y-101270000D03*
X141080000Y-98100000D03*
X138080000Y-98800000D03*
X154000000Y-109030000D03*
X153960000Y-90970000D03*
X127460000Y-95850000D03*
X127455034Y-104139161D03*
X127800000Y-111089999D03*
X148800000Y-89830000D03*
X132304990Y-99990000D03*
X121470000Y-77870000D03*
X120960000Y-85310000D03*
X120930000Y-94270000D03*
X120950000Y-105680000D03*
X121360000Y-122040000D03*
X145930000Y-101600001D03*
X124300000Y-100000000D03*
X130070000Y-100000000D03*
X146910000Y-104930000D03*
X149450000Y-96170000D03*
X145020000Y-91450000D03*
X137070000Y-95060000D03*
X136770000Y-106312500D03*
X125890000Y-91170000D03*
X125900000Y-92630000D03*
X133480002Y-104600000D03*
X148800000Y-110160000D03*
X143750000Y-104200000D03*
X142700000Y-104200000D03*
X140800000Y-95800000D03*
X141800000Y-95800000D03*
X142800013Y-95800000D03*
X143800013Y-95800000D03*
X141700000Y-104200000D03*
X140700000Y-104200000D03*
X139700000Y-104200000D03*
X138700000Y-104200000D03*
X129930000Y-81620000D03*
X129930000Y-84610000D03*
X129920000Y-87610000D03*
X132830000Y-113780000D03*
X132860000Y-116530000D03*
X132860004Y-119050008D03*
D16*
X138660000Y-113780000D02*
X132830000Y-113780000D01*
X140120000Y-115240000D02*
X138660000Y-113780000D01*
X137580000Y-117780000D02*
X136330000Y-116530000D01*
X136330000Y-116530000D02*
X132860000Y-116530000D01*
X143929992Y-119050008D02*
X145200000Y-117780000D01*
X132860004Y-119050008D02*
X143929992Y-119050008D01*
D17*
X197851897Y-77222789D02*
X198190393Y-77324987D01*
X198502588Y-77490984D01*
X198776597Y-77714460D01*
X199001980Y-77986902D01*
X199170153Y-78297931D01*
X199182841Y-78338921D01*
X198973158Y-78252068D01*
X198686260Y-78195000D01*
X198393740Y-78195000D01*
X198106842Y-78252068D01*
X197836589Y-78364010D01*
X197593368Y-78526525D01*
X197386525Y-78733368D01*
X197270000Y-78907760D01*
X197153475Y-78733368D01*
X196946632Y-78526525D01*
X196703411Y-78364010D01*
X196433158Y-78252068D01*
X196146260Y-78195000D01*
X195853740Y-78195000D01*
X195566842Y-78252068D01*
X195296589Y-78364010D01*
X195053368Y-78526525D01*
X194846525Y-78733368D01*
X194730000Y-78907760D01*
X194613475Y-78733368D01*
X194406632Y-78526525D01*
X194163411Y-78364010D01*
X193893158Y-78252068D01*
X193606260Y-78195000D01*
X193313740Y-78195000D01*
X193026842Y-78252068D01*
X192756589Y-78364010D01*
X192513368Y-78526525D01*
X192306525Y-78733368D01*
X192190000Y-78907760D01*
X192073475Y-78733368D01*
X191866632Y-78526525D01*
X191623411Y-78364010D01*
X191353158Y-78252068D01*
X191066260Y-78195000D01*
X190773740Y-78195000D01*
X190486842Y-78252068D01*
X190216589Y-78364010D01*
X189973368Y-78526525D01*
X189766525Y-78733368D01*
X189650000Y-78907760D01*
X189533475Y-78733368D01*
X189326632Y-78526525D01*
X189083411Y-78364010D01*
X188813158Y-78252068D01*
X188526260Y-78195000D01*
X188233740Y-78195000D01*
X187946842Y-78252068D01*
X187676589Y-78364010D01*
X187433368Y-78526525D01*
X187226525Y-78733368D01*
X187110000Y-78907760D01*
X186993475Y-78733368D01*
X186786632Y-78526525D01*
X186543411Y-78364010D01*
X186273158Y-78252068D01*
X185986260Y-78195000D01*
X185693740Y-78195000D01*
X185406842Y-78252068D01*
X185136589Y-78364010D01*
X184893368Y-78526525D01*
X184686525Y-78733368D01*
X184570000Y-78907760D01*
X184453475Y-78733368D01*
X184246632Y-78526525D01*
X184003411Y-78364010D01*
X183733158Y-78252068D01*
X183446260Y-78195000D01*
X183153740Y-78195000D01*
X182866842Y-78252068D01*
X182596589Y-78364010D01*
X182353368Y-78526525D01*
X182146525Y-78733368D01*
X182030000Y-78907760D01*
X181913475Y-78733368D01*
X181706632Y-78526525D01*
X181463411Y-78364010D01*
X181193158Y-78252068D01*
X180906260Y-78195000D01*
X180613740Y-78195000D01*
X180326842Y-78252068D01*
X180056589Y-78364010D01*
X179813368Y-78526525D01*
X179606525Y-78733368D01*
X179490000Y-78907760D01*
X179373475Y-78733368D01*
X179166632Y-78526525D01*
X178923411Y-78364010D01*
X178653158Y-78252068D01*
X178366260Y-78195000D01*
X178073740Y-78195000D01*
X177786842Y-78252068D01*
X177516589Y-78364010D01*
X177273368Y-78526525D01*
X177066525Y-78733368D01*
X176950000Y-78907760D01*
X176833475Y-78733368D01*
X176626632Y-78526525D01*
X176383411Y-78364010D01*
X176113158Y-78252068D01*
X175826260Y-78195000D01*
X175533740Y-78195000D01*
X175246842Y-78252068D01*
X174976589Y-78364010D01*
X174733368Y-78526525D01*
X174526525Y-78733368D01*
X174410000Y-78907760D01*
X174293475Y-78733368D01*
X174086632Y-78526525D01*
X173843411Y-78364010D01*
X173573158Y-78252068D01*
X173286260Y-78195000D01*
X172993740Y-78195000D01*
X172706842Y-78252068D01*
X172436589Y-78364010D01*
X172193368Y-78526525D01*
X171986525Y-78733368D01*
X171870000Y-78907760D01*
X171753475Y-78733368D01*
X171546632Y-78526525D01*
X171303411Y-78364010D01*
X171033158Y-78252068D01*
X170746260Y-78195000D01*
X170453740Y-78195000D01*
X170166842Y-78252068D01*
X169896589Y-78364010D01*
X169653368Y-78526525D01*
X169446525Y-78733368D01*
X169330000Y-78907760D01*
X169213475Y-78733368D01*
X169006632Y-78526525D01*
X168763411Y-78364010D01*
X168493158Y-78252068D01*
X168206260Y-78195000D01*
X167913740Y-78195000D01*
X167626842Y-78252068D01*
X167356589Y-78364010D01*
X167113368Y-78526525D01*
X166906525Y-78733368D01*
X166790000Y-78907760D01*
X166673475Y-78733368D01*
X166466632Y-78526525D01*
X166223411Y-78364010D01*
X165953158Y-78252068D01*
X165666260Y-78195000D01*
X165373740Y-78195000D01*
X165086842Y-78252068D01*
X164816589Y-78364010D01*
X164573368Y-78526525D01*
X164366525Y-78733368D01*
X164250000Y-78907760D01*
X164133475Y-78733368D01*
X163926632Y-78526525D01*
X163683411Y-78364010D01*
X163413158Y-78252068D01*
X163126260Y-78195000D01*
X162833740Y-78195000D01*
X162546842Y-78252068D01*
X162276589Y-78364010D01*
X162033368Y-78526525D01*
X161826525Y-78733368D01*
X161710000Y-78907760D01*
X161593475Y-78733368D01*
X161386632Y-78526525D01*
X161143411Y-78364010D01*
X160873158Y-78252068D01*
X160586260Y-78195000D01*
X160293740Y-78195000D01*
X160006842Y-78252068D01*
X159736589Y-78364010D01*
X159493368Y-78526525D01*
X159286525Y-78733368D01*
X159170689Y-78906729D01*
X158928397Y-78831208D01*
X158079605Y-79680000D01*
X158928397Y-80528792D01*
X159170689Y-80453271D01*
X159286525Y-80626632D01*
X159493368Y-80833475D01*
X159667760Y-80950000D01*
X159493368Y-81066525D01*
X159286525Y-81273368D01*
X159170689Y-81446729D01*
X158928397Y-81371208D01*
X158079605Y-82220000D01*
X158928397Y-83068792D01*
X159170689Y-82993271D01*
X159286525Y-83166632D01*
X159493368Y-83373475D01*
X159667760Y-83490000D01*
X159493368Y-83606525D01*
X159286525Y-83813368D01*
X159170689Y-83986729D01*
X158928397Y-83911208D01*
X158079605Y-84760000D01*
X158928397Y-85608792D01*
X159170689Y-85533271D01*
X159286525Y-85706632D01*
X159493368Y-85913475D01*
X159667760Y-86030000D01*
X159493368Y-86146525D01*
X159286525Y-86353368D01*
X159170000Y-86527760D01*
X159053475Y-86353368D01*
X158846632Y-86146525D01*
X158673271Y-86030689D01*
X158748792Y-85788397D01*
X157900000Y-84939605D01*
X157051208Y-85788397D01*
X157126729Y-86030689D01*
X156953368Y-86146525D01*
X156746525Y-86353368D01*
X156584010Y-86596589D01*
X156472068Y-86866842D01*
X156415000Y-87153740D01*
X156415000Y-87446260D01*
X156472068Y-87733158D01*
X156584010Y-88003411D01*
X156746525Y-88246632D01*
X156953368Y-88453475D01*
X157127760Y-88570000D01*
X156953368Y-88686525D01*
X156746525Y-88893368D01*
X156584010Y-89136589D01*
X156472068Y-89406842D01*
X156415000Y-89693740D01*
X156415000Y-89986260D01*
X156472068Y-90273158D01*
X156584010Y-90543411D01*
X156746525Y-90786632D01*
X156953368Y-90993475D01*
X157127760Y-91110000D01*
X156953368Y-91226525D01*
X156746525Y-91433368D01*
X156584010Y-91676589D01*
X156472068Y-91946842D01*
X156415000Y-92233740D01*
X156415000Y-92526260D01*
X156472068Y-92813158D01*
X156584010Y-93083411D01*
X156746525Y-93326632D01*
X156953368Y-93533475D01*
X157127760Y-93650000D01*
X156953368Y-93766525D01*
X156746525Y-93973368D01*
X156584010Y-94216589D01*
X156472068Y-94486842D01*
X156415000Y-94773740D01*
X156415000Y-95066260D01*
X156472068Y-95353158D01*
X156584010Y-95623411D01*
X156746525Y-95866632D01*
X156953368Y-96073475D01*
X157127760Y-96190000D01*
X156953368Y-96306525D01*
X156746525Y-96513368D01*
X156584010Y-96756589D01*
X156472068Y-97026842D01*
X156415000Y-97313740D01*
X156415000Y-97606260D01*
X156472068Y-97893158D01*
X156584010Y-98163411D01*
X156746525Y-98406632D01*
X156953368Y-98613475D01*
X157127760Y-98730000D01*
X156953368Y-98846525D01*
X156746525Y-99053368D01*
X156584010Y-99296589D01*
X156472068Y-99566842D01*
X156415000Y-99853740D01*
X156415000Y-100146260D01*
X156472068Y-100433158D01*
X156584010Y-100703411D01*
X156746525Y-100946632D01*
X156953368Y-101153475D01*
X157127760Y-101270000D01*
X156953368Y-101386525D01*
X156746525Y-101593368D01*
X156584010Y-101836589D01*
X156472068Y-102106842D01*
X156415000Y-102393740D01*
X156415000Y-102686260D01*
X156472068Y-102973158D01*
X156584010Y-103243411D01*
X156746525Y-103486632D01*
X156953368Y-103693475D01*
X157127760Y-103810000D01*
X156953368Y-103926525D01*
X156746525Y-104133368D01*
X156584010Y-104376589D01*
X156472068Y-104646842D01*
X156415000Y-104933740D01*
X156415000Y-105226260D01*
X156472068Y-105513158D01*
X156584010Y-105783411D01*
X156746525Y-106026632D01*
X156953368Y-106233475D01*
X157127760Y-106350000D01*
X156953368Y-106466525D01*
X156746525Y-106673368D01*
X156584010Y-106916589D01*
X156472068Y-107186842D01*
X156415000Y-107473740D01*
X156415000Y-107766260D01*
X156472068Y-108053158D01*
X156584010Y-108323411D01*
X156746525Y-108566632D01*
X156953368Y-108773475D01*
X157127760Y-108890000D01*
X156953368Y-109006525D01*
X156746525Y-109213368D01*
X156584010Y-109456589D01*
X156472068Y-109726842D01*
X156415000Y-110013740D01*
X156415000Y-110306260D01*
X156472068Y-110593158D01*
X156584010Y-110863411D01*
X156746525Y-111106632D01*
X156953368Y-111313475D01*
X157127760Y-111430000D01*
X156953368Y-111546525D01*
X156746525Y-111753368D01*
X156584010Y-111996589D01*
X156472068Y-112266842D01*
X156415000Y-112553740D01*
X156415000Y-112846260D01*
X156472068Y-113133158D01*
X156584010Y-113403411D01*
X156746525Y-113646632D01*
X156953368Y-113853475D01*
X157126729Y-113969311D01*
X157051208Y-114211603D01*
X157900000Y-115060395D01*
X158748792Y-114211603D01*
X158673271Y-113969311D01*
X158846632Y-113853475D01*
X159053475Y-113646632D01*
X159170000Y-113472240D01*
X159286525Y-113646632D01*
X159493368Y-113853475D01*
X159667760Y-113970000D01*
X159493368Y-114086525D01*
X159286525Y-114293368D01*
X159170689Y-114466729D01*
X158928397Y-114391208D01*
X158079605Y-115240000D01*
X158928397Y-116088792D01*
X159170689Y-116013271D01*
X159286525Y-116186632D01*
X159493368Y-116393475D01*
X159667760Y-116510000D01*
X159493368Y-116626525D01*
X159286525Y-116833368D01*
X159170689Y-117006729D01*
X158928397Y-116931208D01*
X158079605Y-117780000D01*
X158928397Y-118628792D01*
X159170689Y-118553271D01*
X159286525Y-118726632D01*
X159493368Y-118933475D01*
X159667760Y-119050000D01*
X159493368Y-119166525D01*
X159286525Y-119373368D01*
X159170689Y-119546729D01*
X158928397Y-119471208D01*
X158079605Y-120320000D01*
X158928397Y-121168792D01*
X159170689Y-121093271D01*
X159286525Y-121266632D01*
X159493368Y-121473475D01*
X159736589Y-121635990D01*
X160006842Y-121747932D01*
X160293740Y-121805000D01*
X160586260Y-121805000D01*
X160873158Y-121747932D01*
X161143411Y-121635990D01*
X161386632Y-121473475D01*
X161593475Y-121266632D01*
X161710000Y-121092240D01*
X161826525Y-121266632D01*
X162033368Y-121473475D01*
X162276589Y-121635990D01*
X162546842Y-121747932D01*
X162833740Y-121805000D01*
X163126260Y-121805000D01*
X163413158Y-121747932D01*
X163683411Y-121635990D01*
X163926632Y-121473475D01*
X164133475Y-121266632D01*
X164250000Y-121092240D01*
X164366525Y-121266632D01*
X164573368Y-121473475D01*
X164816589Y-121635990D01*
X165086842Y-121747932D01*
X165373740Y-121805000D01*
X165666260Y-121805000D01*
X165953158Y-121747932D01*
X166223411Y-121635990D01*
X166466632Y-121473475D01*
X166673475Y-121266632D01*
X166790000Y-121092240D01*
X166906525Y-121266632D01*
X167113368Y-121473475D01*
X167356589Y-121635990D01*
X167626842Y-121747932D01*
X167913740Y-121805000D01*
X168206260Y-121805000D01*
X168493158Y-121747932D01*
X168763411Y-121635990D01*
X169006632Y-121473475D01*
X169213475Y-121266632D01*
X169330000Y-121092240D01*
X169446525Y-121266632D01*
X169653368Y-121473475D01*
X169896589Y-121635990D01*
X170166842Y-121747932D01*
X170453740Y-121805000D01*
X170746260Y-121805000D01*
X171033158Y-121747932D01*
X171303411Y-121635990D01*
X171546632Y-121473475D01*
X171753475Y-121266632D01*
X171870000Y-121092240D01*
X171986525Y-121266632D01*
X172193368Y-121473475D01*
X172436589Y-121635990D01*
X172706842Y-121747932D01*
X172993740Y-121805000D01*
X173286260Y-121805000D01*
X173573158Y-121747932D01*
X173843411Y-121635990D01*
X174086632Y-121473475D01*
X174293475Y-121266632D01*
X174410000Y-121092240D01*
X174526525Y-121266632D01*
X174733368Y-121473475D01*
X174976589Y-121635990D01*
X175246842Y-121747932D01*
X175533740Y-121805000D01*
X175826260Y-121805000D01*
X176113158Y-121747932D01*
X176383411Y-121635990D01*
X176626632Y-121473475D01*
X176833475Y-121266632D01*
X176950000Y-121092240D01*
X177066525Y-121266632D01*
X177273368Y-121473475D01*
X177516589Y-121635990D01*
X177786842Y-121747932D01*
X178073740Y-121805000D01*
X178366260Y-121805000D01*
X178653158Y-121747932D01*
X178923411Y-121635990D01*
X179166632Y-121473475D01*
X179373475Y-121266632D01*
X179490000Y-121092240D01*
X179606525Y-121266632D01*
X179813368Y-121473475D01*
X180056589Y-121635990D01*
X180326842Y-121747932D01*
X180613740Y-121805000D01*
X180906260Y-121805000D01*
X181193158Y-121747932D01*
X181463411Y-121635990D01*
X181706632Y-121473475D01*
X181913475Y-121266632D01*
X182030000Y-121092240D01*
X182146525Y-121266632D01*
X182353368Y-121473475D01*
X182596589Y-121635990D01*
X182866842Y-121747932D01*
X183153740Y-121805000D01*
X183446260Y-121805000D01*
X183733158Y-121747932D01*
X184003411Y-121635990D01*
X184246632Y-121473475D01*
X184453475Y-121266632D01*
X184570000Y-121092240D01*
X184686525Y-121266632D01*
X184893368Y-121473475D01*
X185136589Y-121635990D01*
X185406842Y-121747932D01*
X185693740Y-121805000D01*
X185986260Y-121805000D01*
X186273158Y-121747932D01*
X186543411Y-121635990D01*
X186786632Y-121473475D01*
X186993475Y-121266632D01*
X187110000Y-121092240D01*
X187226525Y-121266632D01*
X187433368Y-121473475D01*
X187676589Y-121635990D01*
X187946842Y-121747932D01*
X188233740Y-121805000D01*
X188526260Y-121805000D01*
X188813158Y-121747932D01*
X189083411Y-121635990D01*
X189326632Y-121473475D01*
X189533475Y-121266632D01*
X189650000Y-121092240D01*
X189766525Y-121266632D01*
X189973368Y-121473475D01*
X190216589Y-121635990D01*
X190486842Y-121747932D01*
X190773740Y-121805000D01*
X191066260Y-121805000D01*
X191353158Y-121747932D01*
X191623411Y-121635990D01*
X191866632Y-121473475D01*
X192073475Y-121266632D01*
X192190000Y-121092240D01*
X192306525Y-121266632D01*
X192513368Y-121473475D01*
X192756589Y-121635990D01*
X193026842Y-121747932D01*
X193313740Y-121805000D01*
X193606260Y-121805000D01*
X193893158Y-121747932D01*
X194163411Y-121635990D01*
X194406632Y-121473475D01*
X194613475Y-121266632D01*
X194730000Y-121092240D01*
X194846525Y-121266632D01*
X195053368Y-121473475D01*
X195296589Y-121635990D01*
X195566842Y-121747932D01*
X195853740Y-121805000D01*
X196146260Y-121805000D01*
X196433158Y-121747932D01*
X196703411Y-121635990D01*
X196946632Y-121473475D01*
X197153475Y-121266632D01*
X197270000Y-121092240D01*
X197386525Y-121266632D01*
X197593368Y-121473475D01*
X197836589Y-121635990D01*
X198106842Y-121747932D01*
X198393740Y-121805000D01*
X198686260Y-121805000D01*
X198973158Y-121747932D01*
X199184010Y-121660595D01*
X199175013Y-121690392D01*
X199009016Y-122002588D01*
X198785539Y-122276599D01*
X198513098Y-122501980D01*
X198202069Y-122670153D01*
X197864296Y-122774711D01*
X197480977Y-122815000D01*
X122533505Y-122815000D01*
X122148103Y-122777211D01*
X121809608Y-122675013D01*
X121497412Y-122509016D01*
X121223401Y-122285539D01*
X120998020Y-122013098D01*
X120829847Y-121702069D01*
X120725289Y-121364296D01*
X120723618Y-121348397D01*
X134191208Y-121348397D01*
X134268843Y-121597472D01*
X134532883Y-121723371D01*
X134816411Y-121795339D01*
X135108531Y-121810611D01*
X135398019Y-121768599D01*
X135673747Y-121670919D01*
X135811157Y-121597472D01*
X135888792Y-121348397D01*
X135040000Y-120499605D01*
X134191208Y-121348397D01*
X120723618Y-121348397D01*
X120685000Y-120980977D01*
X120685000Y-115240000D01*
X125459339Y-115240000D01*
X125481929Y-115469360D01*
X125548831Y-115689906D01*
X125647766Y-115875000D01*
X125548831Y-116060094D01*
X125481929Y-116280640D01*
X125459339Y-116510000D01*
X125481929Y-116739360D01*
X125548831Y-116959906D01*
X125657474Y-117163162D01*
X125803682Y-117341318D01*
X125981838Y-117487526D01*
X126185094Y-117596169D01*
X126405640Y-117663071D01*
X126577523Y-117680000D01*
X127422477Y-117680000D01*
X127594360Y-117663071D01*
X127814906Y-117596169D01*
X128018162Y-117487526D01*
X128196318Y-117341318D01*
X128342526Y-117163162D01*
X128451169Y-116959906D01*
X128518071Y-116739360D01*
X128540661Y-116510000D01*
X128518071Y-116280640D01*
X128451169Y-116060094D01*
X128352234Y-115875000D01*
X128451169Y-115689906D01*
X128518071Y-115469360D01*
X128540661Y-115240000D01*
X128518071Y-115010640D01*
X128451169Y-114790094D01*
X128350846Y-114602404D01*
X128408377Y-114514421D01*
X128493900Y-114277383D01*
X128368244Y-114097000D01*
X127627560Y-114097000D01*
X127594360Y-114086929D01*
X127422477Y-114070000D01*
X126577523Y-114070000D01*
X126405640Y-114086929D01*
X126372440Y-114097000D01*
X125631756Y-114097000D01*
X125506100Y-114277383D01*
X125591623Y-114514421D01*
X125649154Y-114602404D01*
X125548831Y-114790094D01*
X125481929Y-115010640D01*
X125459339Y-115240000D01*
X120685000Y-115240000D01*
X120685000Y-112165000D01*
X125461928Y-112165000D01*
X125461928Y-113235000D01*
X125474188Y-113359482D01*
X125510498Y-113479180D01*
X125547385Y-113548190D01*
X125506100Y-113662617D01*
X125631756Y-113843000D01*
X125916800Y-113843000D01*
X125975518Y-113860812D01*
X126100000Y-113873072D01*
X127900000Y-113873072D01*
X128024482Y-113860812D01*
X128083200Y-113843000D01*
X128368244Y-113843000D01*
X128483141Y-113678061D01*
X131795000Y-113678061D01*
X131795000Y-113881939D01*
X131834774Y-114081898D01*
X131912795Y-114270256D01*
X132026063Y-114439774D01*
X132170226Y-114583937D01*
X132339744Y-114697205D01*
X132528102Y-114775226D01*
X132728061Y-114815000D01*
X132931939Y-114815000D01*
X133131898Y-114775226D01*
X133320256Y-114697205D01*
X133489774Y-114583937D01*
X133533711Y-114540000D01*
X133722597Y-114540000D01*
X133612068Y-114806842D01*
X133555000Y-115093740D01*
X133555000Y-115386260D01*
X133612068Y-115673158D01*
X133652181Y-115770000D01*
X133563711Y-115770000D01*
X133519774Y-115726063D01*
X133350256Y-115612795D01*
X133161898Y-115534774D01*
X132961939Y-115495000D01*
X132758061Y-115495000D01*
X132558102Y-115534774D01*
X132369744Y-115612795D01*
X132200226Y-115726063D01*
X132056063Y-115870226D01*
X131942795Y-116039744D01*
X131864774Y-116228102D01*
X131825000Y-116428061D01*
X131825000Y-116631939D01*
X131864774Y-116831898D01*
X131942795Y-117020256D01*
X132056063Y-117189774D01*
X132200226Y-117333937D01*
X132369744Y-117447205D01*
X132558102Y-117525226D01*
X132758061Y-117565000D01*
X132961939Y-117565000D01*
X133161898Y-117525226D01*
X133350256Y-117447205D01*
X133519774Y-117333937D01*
X133563711Y-117290000D01*
X133635613Y-117290000D01*
X133612068Y-117346842D01*
X133555000Y-117633740D01*
X133555000Y-117926260D01*
X133612068Y-118213158D01*
X133643900Y-118290008D01*
X133563715Y-118290008D01*
X133519778Y-118246071D01*
X133350260Y-118132803D01*
X133161902Y-118054782D01*
X132961943Y-118015008D01*
X132758065Y-118015008D01*
X132558106Y-118054782D01*
X132369748Y-118132803D01*
X132200230Y-118246071D01*
X132056067Y-118390234D01*
X131942799Y-118559752D01*
X131864778Y-118748110D01*
X131825004Y-118948069D01*
X131825004Y-119151947D01*
X131864778Y-119351906D01*
X131942799Y-119540264D01*
X132056067Y-119709782D01*
X132200230Y-119853945D01*
X132369748Y-119967213D01*
X132558106Y-120045234D01*
X132758065Y-120085008D01*
X132961943Y-120085008D01*
X133161902Y-120045234D01*
X133350260Y-119967213D01*
X133519778Y-119853945D01*
X133563715Y-119810008D01*
X133638000Y-119810008D01*
X133636629Y-119812883D01*
X133564661Y-120096411D01*
X133549389Y-120388531D01*
X133591401Y-120678019D01*
X133689081Y-120953747D01*
X133762528Y-121091157D01*
X134011603Y-121168792D01*
X134860395Y-120320000D01*
X134846253Y-120305858D01*
X135025858Y-120126253D01*
X135040000Y-120140395D01*
X135054143Y-120126253D01*
X135233748Y-120305858D01*
X135219605Y-120320000D01*
X136068397Y-121168792D01*
X136310689Y-121093271D01*
X136426525Y-121266632D01*
X136633368Y-121473475D01*
X136876589Y-121635990D01*
X137146842Y-121747932D01*
X137433740Y-121805000D01*
X137726260Y-121805000D01*
X138013158Y-121747932D01*
X138283411Y-121635990D01*
X138526632Y-121473475D01*
X138651710Y-121348397D01*
X139271208Y-121348397D01*
X139348843Y-121597472D01*
X139612883Y-121723371D01*
X139896411Y-121795339D01*
X140188531Y-121810611D01*
X140478019Y-121768599D01*
X140753747Y-121670919D01*
X140891157Y-121597472D01*
X140968792Y-121348397D01*
X140120000Y-120499605D01*
X139271208Y-121348397D01*
X138651710Y-121348397D01*
X138733475Y-121266632D01*
X138849311Y-121093271D01*
X139091603Y-121168792D01*
X139940395Y-120320000D01*
X139926253Y-120305858D01*
X140105858Y-120126253D01*
X140120000Y-120140395D01*
X140134143Y-120126253D01*
X140313748Y-120305858D01*
X140299605Y-120320000D01*
X141148397Y-121168792D01*
X141390689Y-121093271D01*
X141506525Y-121266632D01*
X141713368Y-121473475D01*
X141956589Y-121635990D01*
X142226842Y-121747932D01*
X142513740Y-121805000D01*
X142806260Y-121805000D01*
X143093158Y-121747932D01*
X143363411Y-121635990D01*
X143606632Y-121473475D01*
X143813475Y-121266632D01*
X143930000Y-121092240D01*
X144046525Y-121266632D01*
X144253368Y-121473475D01*
X144496589Y-121635990D01*
X144766842Y-121747932D01*
X145053740Y-121805000D01*
X145346260Y-121805000D01*
X145633158Y-121747932D01*
X145903411Y-121635990D01*
X146146632Y-121473475D01*
X146353475Y-121266632D01*
X146470000Y-121092240D01*
X146586525Y-121266632D01*
X146793368Y-121473475D01*
X147036589Y-121635990D01*
X147306842Y-121747932D01*
X147593740Y-121805000D01*
X147886260Y-121805000D01*
X148173158Y-121747932D01*
X148443411Y-121635990D01*
X148686632Y-121473475D01*
X148893475Y-121266632D01*
X149010000Y-121092240D01*
X149126525Y-121266632D01*
X149333368Y-121473475D01*
X149576589Y-121635990D01*
X149846842Y-121747932D01*
X150133740Y-121805000D01*
X150426260Y-121805000D01*
X150713158Y-121747932D01*
X150983411Y-121635990D01*
X151226632Y-121473475D01*
X151433475Y-121266632D01*
X151550000Y-121092240D01*
X151666525Y-121266632D01*
X151873368Y-121473475D01*
X152116589Y-121635990D01*
X152386842Y-121747932D01*
X152673740Y-121805000D01*
X152966260Y-121805000D01*
X153253158Y-121747932D01*
X153523411Y-121635990D01*
X153766632Y-121473475D01*
X153973475Y-121266632D01*
X154090000Y-121092240D01*
X154206525Y-121266632D01*
X154413368Y-121473475D01*
X154656589Y-121635990D01*
X154926842Y-121747932D01*
X155213740Y-121805000D01*
X155506260Y-121805000D01*
X155793158Y-121747932D01*
X156063411Y-121635990D01*
X156306632Y-121473475D01*
X156431710Y-121348397D01*
X157051208Y-121348397D01*
X157128843Y-121597472D01*
X157392883Y-121723371D01*
X157676411Y-121795339D01*
X157968531Y-121810611D01*
X158258019Y-121768599D01*
X158533747Y-121670919D01*
X158671157Y-121597472D01*
X158748792Y-121348397D01*
X157900000Y-120499605D01*
X157051208Y-121348397D01*
X156431710Y-121348397D01*
X156513475Y-121266632D01*
X156629311Y-121093271D01*
X156871603Y-121168792D01*
X157720395Y-120320000D01*
X156871603Y-119471208D01*
X156629311Y-119546729D01*
X156513475Y-119373368D01*
X156306632Y-119166525D01*
X156132240Y-119050000D01*
X156306632Y-118933475D01*
X156431710Y-118808397D01*
X157051208Y-118808397D01*
X157126514Y-119050000D01*
X157051208Y-119291603D01*
X157900000Y-120140395D01*
X158748792Y-119291603D01*
X158673486Y-119050000D01*
X158748792Y-118808397D01*
X157900000Y-117959605D01*
X157051208Y-118808397D01*
X156431710Y-118808397D01*
X156513475Y-118726632D01*
X156629311Y-118553271D01*
X156871603Y-118628792D01*
X157720395Y-117780000D01*
X156871603Y-116931208D01*
X156629311Y-117006729D01*
X156513475Y-116833368D01*
X156306632Y-116626525D01*
X156132240Y-116510000D01*
X156306632Y-116393475D01*
X156431710Y-116268397D01*
X157051208Y-116268397D01*
X157126514Y-116510000D01*
X157051208Y-116751603D01*
X157900000Y-117600395D01*
X158748792Y-116751603D01*
X158673486Y-116510000D01*
X158748792Y-116268397D01*
X157900000Y-115419605D01*
X157051208Y-116268397D01*
X156431710Y-116268397D01*
X156513475Y-116186632D01*
X156629311Y-116013271D01*
X156871603Y-116088792D01*
X157720395Y-115240000D01*
X156871603Y-114391208D01*
X156629311Y-114466729D01*
X156513475Y-114293368D01*
X156306632Y-114086525D01*
X156063411Y-113924010D01*
X155793158Y-113812068D01*
X155506260Y-113755000D01*
X155213740Y-113755000D01*
X154926842Y-113812068D01*
X154656589Y-113924010D01*
X154413368Y-114086525D01*
X154206525Y-114293368D01*
X154090000Y-114467760D01*
X153973475Y-114293368D01*
X153766632Y-114086525D01*
X153523411Y-113924010D01*
X153253158Y-113812068D01*
X152966260Y-113755000D01*
X152673740Y-113755000D01*
X152386842Y-113812068D01*
X152116589Y-113924010D01*
X151873368Y-114086525D01*
X151666525Y-114293368D01*
X151550000Y-114467760D01*
X151433475Y-114293368D01*
X151226632Y-114086525D01*
X150983411Y-113924010D01*
X150713158Y-113812068D01*
X150426260Y-113755000D01*
X150133740Y-113755000D01*
X149846842Y-113812068D01*
X149576589Y-113924010D01*
X149333368Y-114086525D01*
X149126525Y-114293368D01*
X149010000Y-114467760D01*
X148893475Y-114293368D01*
X148686632Y-114086525D01*
X148443411Y-113924010D01*
X148173158Y-113812068D01*
X147886260Y-113755000D01*
X147593740Y-113755000D01*
X147306842Y-113812068D01*
X147036589Y-113924010D01*
X146793368Y-114086525D01*
X146586525Y-114293368D01*
X146470000Y-114467760D01*
X146353475Y-114293368D01*
X146146632Y-114086525D01*
X145903411Y-113924010D01*
X145633158Y-113812068D01*
X145346260Y-113755000D01*
X145053740Y-113755000D01*
X144766842Y-113812068D01*
X144496589Y-113924010D01*
X144253368Y-114086525D01*
X144046525Y-114293368D01*
X143930000Y-114467760D01*
X143813475Y-114293368D01*
X143606632Y-114086525D01*
X143363411Y-113924010D01*
X143093158Y-113812068D01*
X142806260Y-113755000D01*
X142513740Y-113755000D01*
X142226842Y-113812068D01*
X141956589Y-113924010D01*
X141713368Y-114086525D01*
X141506525Y-114293368D01*
X141390000Y-114467760D01*
X141273475Y-114293368D01*
X141066632Y-114086525D01*
X140823411Y-113924010D01*
X140553158Y-113812068D01*
X140266260Y-113755000D01*
X139973740Y-113755000D01*
X139753592Y-113798791D01*
X139223804Y-113269003D01*
X139200001Y-113239999D01*
X139084276Y-113145026D01*
X138952247Y-113074454D01*
X138808986Y-113030997D01*
X138697333Y-113020000D01*
X138697322Y-113020000D01*
X138660000Y-113016324D01*
X138622678Y-113020000D01*
X133533711Y-113020000D01*
X133489774Y-112976063D01*
X133320256Y-112862795D01*
X133131898Y-112784774D01*
X132931939Y-112745000D01*
X132728061Y-112745000D01*
X132528102Y-112784774D01*
X132339744Y-112862795D01*
X132170226Y-112976063D01*
X132026063Y-113120226D01*
X131912795Y-113289744D01*
X131834774Y-113478102D01*
X131795000Y-113678061D01*
X128483141Y-113678061D01*
X128493900Y-113662617D01*
X128452615Y-113548190D01*
X128489502Y-113479180D01*
X128525812Y-113359482D01*
X128538072Y-113235000D01*
X128538072Y-112165000D01*
X128525812Y-112040518D01*
X128489502Y-111920820D01*
X128430537Y-111810506D01*
X128351185Y-111713815D01*
X128254494Y-111634463D01*
X128144180Y-111575498D01*
X128024482Y-111539188D01*
X127900000Y-111526928D01*
X126100000Y-111526928D01*
X125975518Y-111539188D01*
X125855820Y-111575498D01*
X125745506Y-111634463D01*
X125648815Y-111713815D01*
X125569463Y-111810506D01*
X125510498Y-111920820D01*
X125474188Y-112040518D01*
X125461928Y-112165000D01*
X120685000Y-112165000D01*
X120685000Y-110058061D01*
X147765000Y-110058061D01*
X147765000Y-110261939D01*
X147804774Y-110461898D01*
X147882795Y-110650256D01*
X147996063Y-110819774D01*
X148140226Y-110963937D01*
X148309744Y-111077205D01*
X148498102Y-111155226D01*
X148698061Y-111195000D01*
X148901939Y-111195000D01*
X149101898Y-111155226D01*
X149290256Y-111077205D01*
X149459774Y-110963937D01*
X149603937Y-110819774D01*
X149717205Y-110650256D01*
X149795226Y-110461898D01*
X149835000Y-110261939D01*
X149835000Y-110058061D01*
X149795226Y-109858102D01*
X149717205Y-109669744D01*
X149603937Y-109500226D01*
X149459774Y-109356063D01*
X149290256Y-109242795D01*
X149101898Y-109164774D01*
X148901939Y-109125000D01*
X148698061Y-109125000D01*
X148498102Y-109164774D01*
X148309744Y-109242795D01*
X148140226Y-109356063D01*
X147996063Y-109500226D01*
X147882795Y-109669744D01*
X147804774Y-109858102D01*
X147765000Y-110058061D01*
X120685000Y-110058061D01*
X120685000Y-106210561D01*
X135735000Y-106210561D01*
X135735000Y-106414439D01*
X135774774Y-106614398D01*
X135852795Y-106802756D01*
X135966063Y-106972274D01*
X136110226Y-107116437D01*
X136279744Y-107229705D01*
X136468102Y-107307726D01*
X136668061Y-107347500D01*
X136871939Y-107347500D01*
X137071898Y-107307726D01*
X137260256Y-107229705D01*
X137429774Y-107116437D01*
X137573937Y-106972274D01*
X137687205Y-106802756D01*
X137765226Y-106614398D01*
X137805000Y-106414439D01*
X137805000Y-106210561D01*
X137765226Y-106010602D01*
X137687205Y-105822244D01*
X137573937Y-105652726D01*
X137429774Y-105508563D01*
X137260256Y-105395295D01*
X137071898Y-105317274D01*
X136871939Y-105277500D01*
X136668061Y-105277500D01*
X136468102Y-105317274D01*
X136279744Y-105395295D01*
X136110226Y-105508563D01*
X135966063Y-105652726D01*
X135852795Y-105822244D01*
X135774774Y-106010602D01*
X135735000Y-106210561D01*
X120685000Y-106210561D01*
X120685000Y-105250740D01*
X120706377Y-105268284D01*
X120903553Y-105373676D01*
X121117501Y-105438577D01*
X121284248Y-105455000D01*
X121995752Y-105455000D01*
X122162499Y-105438577D01*
X122376447Y-105373676D01*
X122573623Y-105268284D01*
X122746449Y-105126449D01*
X122888284Y-104953623D01*
X122993676Y-104756447D01*
X123058577Y-104542499D01*
X123080491Y-104320000D01*
X124129509Y-104320000D01*
X124151423Y-104542499D01*
X124216324Y-104756447D01*
X124321716Y-104953623D01*
X124463551Y-105126449D01*
X124636377Y-105268284D01*
X124833553Y-105373676D01*
X125047501Y-105438577D01*
X125214248Y-105455000D01*
X126425752Y-105455000D01*
X126592499Y-105438577D01*
X126806447Y-105373676D01*
X127003623Y-105268284D01*
X127176449Y-105126449D01*
X127318284Y-104953623D01*
X127423676Y-104756447D01*
X127488577Y-104542499D01*
X127492953Y-104498061D01*
X132445002Y-104498061D01*
X132445002Y-104701939D01*
X132484776Y-104901898D01*
X132562797Y-105090256D01*
X132676065Y-105259774D01*
X132820228Y-105403937D01*
X132989746Y-105517205D01*
X133178104Y-105595226D01*
X133378063Y-105635000D01*
X133581941Y-105635000D01*
X133781900Y-105595226D01*
X133970258Y-105517205D01*
X134139776Y-105403937D01*
X134283939Y-105259774D01*
X134397207Y-105090256D01*
X134475228Y-104901898D01*
X134515002Y-104701939D01*
X134515002Y-104498061D01*
X134475228Y-104298102D01*
X134397207Y-104109744D01*
X134389401Y-104098061D01*
X137665000Y-104098061D01*
X137665000Y-104301939D01*
X137704774Y-104501898D01*
X137782795Y-104690256D01*
X137896063Y-104859774D01*
X138040226Y-105003937D01*
X138209744Y-105117205D01*
X138398102Y-105195226D01*
X138598061Y-105235000D01*
X138801939Y-105235000D01*
X139001898Y-105195226D01*
X139190256Y-105117205D01*
X139200000Y-105110694D01*
X139209744Y-105117205D01*
X139398102Y-105195226D01*
X139598061Y-105235000D01*
X139801939Y-105235000D01*
X140001898Y-105195226D01*
X140190256Y-105117205D01*
X140200000Y-105110694D01*
X140209744Y-105117205D01*
X140398102Y-105195226D01*
X140598061Y-105235000D01*
X140801939Y-105235000D01*
X141001898Y-105195226D01*
X141190256Y-105117205D01*
X141200000Y-105110694D01*
X141209744Y-105117205D01*
X141398102Y-105195226D01*
X141598061Y-105235000D01*
X141801939Y-105235000D01*
X142001898Y-105195226D01*
X142190256Y-105117205D01*
X142200000Y-105110694D01*
X142209744Y-105117205D01*
X142398102Y-105195226D01*
X142598061Y-105235000D01*
X142801939Y-105235000D01*
X143001898Y-105195226D01*
X143190256Y-105117205D01*
X143225000Y-105093990D01*
X143259744Y-105117205D01*
X143448102Y-105195226D01*
X143648061Y-105235000D01*
X143851939Y-105235000D01*
X144051898Y-105195226D01*
X144240256Y-105117205D01*
X144409774Y-105003937D01*
X144553937Y-104859774D01*
X144575126Y-104828061D01*
X145875000Y-104828061D01*
X145875000Y-105031939D01*
X145914774Y-105231898D01*
X145992795Y-105420256D01*
X146106063Y-105589774D01*
X146250226Y-105733937D01*
X146419744Y-105847205D01*
X146608102Y-105925226D01*
X146808061Y-105965000D01*
X147011939Y-105965000D01*
X147211898Y-105925226D01*
X147400256Y-105847205D01*
X147569774Y-105733937D01*
X147713937Y-105589774D01*
X147827205Y-105420256D01*
X147905226Y-105231898D01*
X147945000Y-105031939D01*
X147945000Y-104828061D01*
X147905226Y-104628102D01*
X147827205Y-104439744D01*
X147713937Y-104270226D01*
X147569774Y-104126063D01*
X147400256Y-104012795D01*
X147211898Y-103934774D01*
X147011939Y-103895000D01*
X146808061Y-103895000D01*
X146608102Y-103934774D01*
X146419744Y-104012795D01*
X146250226Y-104126063D01*
X146106063Y-104270226D01*
X145992795Y-104439744D01*
X145914774Y-104628102D01*
X145875000Y-104828061D01*
X144575126Y-104828061D01*
X144667205Y-104690256D01*
X144745226Y-104501898D01*
X144785000Y-104301939D01*
X144785000Y-104098061D01*
X144745226Y-103898102D01*
X144667205Y-103709744D01*
X144553937Y-103540226D01*
X144409774Y-103396063D01*
X144240256Y-103282795D01*
X144051898Y-103204774D01*
X143851939Y-103165000D01*
X143648061Y-103165000D01*
X143448102Y-103204774D01*
X143259744Y-103282795D01*
X143225000Y-103306010D01*
X143190256Y-103282795D01*
X143001898Y-103204774D01*
X142801939Y-103165000D01*
X142598061Y-103165000D01*
X142398102Y-103204774D01*
X142209744Y-103282795D01*
X142200000Y-103289306D01*
X142190256Y-103282795D01*
X142001898Y-103204774D01*
X141801939Y-103165000D01*
X141598061Y-103165000D01*
X141398102Y-103204774D01*
X141209744Y-103282795D01*
X141200000Y-103289306D01*
X141190256Y-103282795D01*
X141001898Y-103204774D01*
X140801939Y-103165000D01*
X140598061Y-103165000D01*
X140398102Y-103204774D01*
X140209744Y-103282795D01*
X140200000Y-103289306D01*
X140190256Y-103282795D01*
X140001898Y-103204774D01*
X139801939Y-103165000D01*
X139598061Y-103165000D01*
X139398102Y-103204774D01*
X139209744Y-103282795D01*
X139200000Y-103289306D01*
X139190256Y-103282795D01*
X139001898Y-103204774D01*
X138801939Y-103165000D01*
X138598061Y-103165000D01*
X138398102Y-103204774D01*
X138209744Y-103282795D01*
X138040226Y-103396063D01*
X137896063Y-103540226D01*
X137782795Y-103709744D01*
X137704774Y-103898102D01*
X137665000Y-104098061D01*
X134389401Y-104098061D01*
X134283939Y-103940226D01*
X134139776Y-103796063D01*
X133970258Y-103682795D01*
X133781900Y-103604774D01*
X133581941Y-103565000D01*
X133378063Y-103565000D01*
X133178104Y-103604774D01*
X132989746Y-103682795D01*
X132820228Y-103796063D01*
X132676065Y-103940226D01*
X132562797Y-104109744D01*
X132484776Y-104298102D01*
X132445002Y-104498061D01*
X127492953Y-104498061D01*
X127510491Y-104320000D01*
X127488577Y-104097501D01*
X127423676Y-103883553D01*
X127318284Y-103686377D01*
X127176449Y-103513551D01*
X127003623Y-103371716D01*
X126806447Y-103266324D01*
X126592499Y-103201423D01*
X126425752Y-103185000D01*
X126206904Y-103185000D01*
X126213108Y-103170022D01*
X126250000Y-102984552D01*
X126250000Y-102795448D01*
X126213108Y-102609978D01*
X126140741Y-102435269D01*
X126035681Y-102278036D01*
X125901964Y-102144319D01*
X125744731Y-102039259D01*
X125570022Y-101966892D01*
X125384552Y-101930000D01*
X125195448Y-101930000D01*
X125009978Y-101966892D01*
X124835269Y-102039259D01*
X124678036Y-102144319D01*
X124544319Y-102278036D01*
X124439259Y-102435269D01*
X124366892Y-102609978D01*
X124330000Y-102795448D01*
X124330000Y-102984552D01*
X124366892Y-103170022D01*
X124439259Y-103344731D01*
X124520715Y-103466638D01*
X124463551Y-103513551D01*
X124321716Y-103686377D01*
X124216324Y-103883553D01*
X124151423Y-104097501D01*
X124129509Y-104320000D01*
X123080491Y-104320000D01*
X123058577Y-104097501D01*
X122993676Y-103883553D01*
X122888284Y-103686377D01*
X122746449Y-103513551D01*
X122573623Y-103371716D01*
X122376447Y-103266324D01*
X122162499Y-103201423D01*
X121995752Y-103185000D01*
X121284248Y-103185000D01*
X121117501Y-103201423D01*
X120903553Y-103266324D01*
X120706377Y-103371716D01*
X120685000Y-103389260D01*
X120685000Y-99898061D01*
X123265000Y-99898061D01*
X123265000Y-100101939D01*
X123304774Y-100301898D01*
X123382795Y-100490256D01*
X123496063Y-100659774D01*
X123640226Y-100803937D01*
X123809744Y-100917205D01*
X123998102Y-100995226D01*
X124198061Y-101035000D01*
X124401939Y-101035000D01*
X124601898Y-100995226D01*
X124790256Y-100917205D01*
X124959774Y-100803937D01*
X125103937Y-100659774D01*
X125217205Y-100490256D01*
X125295226Y-100301898D01*
X125335000Y-100101939D01*
X125335000Y-99898061D01*
X129035000Y-99898061D01*
X129035000Y-100101939D01*
X129074774Y-100301898D01*
X129152795Y-100490256D01*
X129266063Y-100659774D01*
X129410226Y-100803937D01*
X129579744Y-100917205D01*
X129768102Y-100995226D01*
X129968061Y-101035000D01*
X130171939Y-101035000D01*
X130371898Y-100995226D01*
X130560256Y-100917205D01*
X130729774Y-100803937D01*
X130873937Y-100659774D01*
X130987205Y-100490256D01*
X131065226Y-100301898D01*
X131105000Y-100101939D01*
X131105000Y-99898061D01*
X131065226Y-99698102D01*
X130987205Y-99509744D01*
X130873937Y-99340226D01*
X130729774Y-99196063D01*
X130560256Y-99082795D01*
X130371898Y-99004774D01*
X130171939Y-98965000D01*
X129968061Y-98965000D01*
X129768102Y-99004774D01*
X129579744Y-99082795D01*
X129410226Y-99196063D01*
X129266063Y-99340226D01*
X129152795Y-99509744D01*
X129074774Y-99698102D01*
X129035000Y-99898061D01*
X125335000Y-99898061D01*
X125295226Y-99698102D01*
X125217205Y-99509744D01*
X125103937Y-99340226D01*
X124959774Y-99196063D01*
X124790256Y-99082795D01*
X124601898Y-99004774D01*
X124401939Y-98965000D01*
X124198061Y-98965000D01*
X123998102Y-99004774D01*
X123809744Y-99082795D01*
X123640226Y-99196063D01*
X123496063Y-99340226D01*
X123382795Y-99509744D01*
X123304774Y-99698102D01*
X123265000Y-99898061D01*
X120685000Y-99898061D01*
X120685000Y-96610740D01*
X120706377Y-96628284D01*
X120903553Y-96733676D01*
X121117501Y-96798577D01*
X121284248Y-96815000D01*
X121995752Y-96815000D01*
X122162499Y-96798577D01*
X122376447Y-96733676D01*
X122573623Y-96628284D01*
X122746449Y-96486449D01*
X122888284Y-96313623D01*
X122993676Y-96116447D01*
X123058577Y-95902499D01*
X123080491Y-95680000D01*
X124129509Y-95680000D01*
X124151423Y-95902499D01*
X124216324Y-96116447D01*
X124321716Y-96313623D01*
X124463551Y-96486449D01*
X124520715Y-96533362D01*
X124439259Y-96655269D01*
X124366892Y-96829978D01*
X124330000Y-97015448D01*
X124330000Y-97204552D01*
X124366892Y-97390022D01*
X124439259Y-97564731D01*
X124544319Y-97721964D01*
X124678036Y-97855681D01*
X124835269Y-97960741D01*
X125009978Y-98033108D01*
X125195448Y-98070000D01*
X125384552Y-98070000D01*
X125570022Y-98033108D01*
X125744731Y-97960741D01*
X125901964Y-97855681D01*
X126035681Y-97721964D01*
X126140741Y-97564731D01*
X126213108Y-97390022D01*
X126250000Y-97204552D01*
X126250000Y-97015448D01*
X126213108Y-96829978D01*
X126206904Y-96815000D01*
X126425752Y-96815000D01*
X126592499Y-96798577D01*
X126806447Y-96733676D01*
X127003623Y-96628284D01*
X127176449Y-96486449D01*
X127318284Y-96313623D01*
X127423676Y-96116447D01*
X127488577Y-95902499D01*
X127510491Y-95680000D01*
X127488577Y-95457501D01*
X127423676Y-95243553D01*
X127318284Y-95046377D01*
X127245805Y-94958061D01*
X136035000Y-94958061D01*
X136035000Y-95161939D01*
X136074774Y-95361898D01*
X136152795Y-95550256D01*
X136266063Y-95719774D01*
X136410226Y-95863937D01*
X136579744Y-95977205D01*
X136768102Y-96055226D01*
X136968061Y-96095000D01*
X137171939Y-96095000D01*
X137371898Y-96055226D01*
X137560256Y-95977205D01*
X137729774Y-95863937D01*
X137873937Y-95719774D01*
X137888445Y-95698061D01*
X139765000Y-95698061D01*
X139765000Y-95901939D01*
X139804774Y-96101898D01*
X139882795Y-96290256D01*
X139996063Y-96459774D01*
X140140226Y-96603937D01*
X140309744Y-96717205D01*
X140498102Y-96795226D01*
X140698061Y-96835000D01*
X140901939Y-96835000D01*
X141101898Y-96795226D01*
X141290256Y-96717205D01*
X141300000Y-96710694D01*
X141309744Y-96717205D01*
X141498102Y-96795226D01*
X141698061Y-96835000D01*
X141901939Y-96835000D01*
X142101898Y-96795226D01*
X142290256Y-96717205D01*
X142300006Y-96710690D01*
X142309757Y-96717205D01*
X142498115Y-96795226D01*
X142698074Y-96835000D01*
X142901952Y-96835000D01*
X143101911Y-96795226D01*
X143290269Y-96717205D01*
X143300013Y-96710694D01*
X143309757Y-96717205D01*
X143498115Y-96795226D01*
X143698074Y-96835000D01*
X143901952Y-96835000D01*
X144101911Y-96795226D01*
X144290269Y-96717205D01*
X144459787Y-96603937D01*
X144603950Y-96459774D01*
X144717218Y-96290256D01*
X144795239Y-96101898D01*
X144801969Y-96068061D01*
X148415000Y-96068061D01*
X148415000Y-96271939D01*
X148454774Y-96471898D01*
X148532795Y-96660256D01*
X148646063Y-96829774D01*
X148790226Y-96973937D01*
X148959744Y-97087205D01*
X149148102Y-97165226D01*
X149348061Y-97205000D01*
X149551939Y-97205000D01*
X149751898Y-97165226D01*
X149940256Y-97087205D01*
X150109774Y-96973937D01*
X150253937Y-96829774D01*
X150367205Y-96660256D01*
X150445226Y-96471898D01*
X150485000Y-96271939D01*
X150485000Y-96068061D01*
X150445226Y-95868102D01*
X150367205Y-95679744D01*
X150253937Y-95510226D01*
X150109774Y-95366063D01*
X149940256Y-95252795D01*
X149751898Y-95174774D01*
X149551939Y-95135000D01*
X149348061Y-95135000D01*
X149148102Y-95174774D01*
X148959744Y-95252795D01*
X148790226Y-95366063D01*
X148646063Y-95510226D01*
X148532795Y-95679744D01*
X148454774Y-95868102D01*
X148415000Y-96068061D01*
X144801969Y-96068061D01*
X144835013Y-95901939D01*
X144835013Y-95698061D01*
X144795239Y-95498102D01*
X144717218Y-95309744D01*
X144603950Y-95140226D01*
X144459787Y-94996063D01*
X144290269Y-94882795D01*
X144101911Y-94804774D01*
X143901952Y-94765000D01*
X143698074Y-94765000D01*
X143498115Y-94804774D01*
X143309757Y-94882795D01*
X143300013Y-94889306D01*
X143290269Y-94882795D01*
X143101911Y-94804774D01*
X142901952Y-94765000D01*
X142698074Y-94765000D01*
X142498115Y-94804774D01*
X142309757Y-94882795D01*
X142300006Y-94889310D01*
X142290256Y-94882795D01*
X142101898Y-94804774D01*
X141901939Y-94765000D01*
X141698061Y-94765000D01*
X141498102Y-94804774D01*
X141309744Y-94882795D01*
X141300000Y-94889306D01*
X141290256Y-94882795D01*
X141101898Y-94804774D01*
X140901939Y-94765000D01*
X140698061Y-94765000D01*
X140498102Y-94804774D01*
X140309744Y-94882795D01*
X140140226Y-94996063D01*
X139996063Y-95140226D01*
X139882795Y-95309744D01*
X139804774Y-95498102D01*
X139765000Y-95698061D01*
X137888445Y-95698061D01*
X137987205Y-95550256D01*
X138065226Y-95361898D01*
X138105000Y-95161939D01*
X138105000Y-94958061D01*
X138065226Y-94758102D01*
X137987205Y-94569744D01*
X137873937Y-94400226D01*
X137729774Y-94256063D01*
X137560256Y-94142795D01*
X137371898Y-94064774D01*
X137171939Y-94025000D01*
X136968061Y-94025000D01*
X136768102Y-94064774D01*
X136579744Y-94142795D01*
X136410226Y-94256063D01*
X136266063Y-94400226D01*
X136152795Y-94569744D01*
X136074774Y-94758102D01*
X136035000Y-94958061D01*
X127245805Y-94958061D01*
X127176449Y-94873551D01*
X127003623Y-94731716D01*
X126806447Y-94626324D01*
X126592499Y-94561423D01*
X126425752Y-94545000D01*
X125214248Y-94545000D01*
X125047501Y-94561423D01*
X124833553Y-94626324D01*
X124636377Y-94731716D01*
X124463551Y-94873551D01*
X124321716Y-95046377D01*
X124216324Y-95243553D01*
X124151423Y-95457501D01*
X124129509Y-95680000D01*
X123080491Y-95680000D01*
X123058577Y-95457501D01*
X122993676Y-95243553D01*
X122888284Y-95046377D01*
X122746449Y-94873551D01*
X122573623Y-94731716D01*
X122376447Y-94626324D01*
X122162499Y-94561423D01*
X121995752Y-94545000D01*
X121284248Y-94545000D01*
X121117501Y-94561423D01*
X120903553Y-94626324D01*
X120706377Y-94731716D01*
X120685000Y-94749260D01*
X120685000Y-91068061D01*
X124855000Y-91068061D01*
X124855000Y-91271939D01*
X124894774Y-91471898D01*
X124972795Y-91660256D01*
X125086063Y-91829774D01*
X125161289Y-91905000D01*
X125096063Y-91970226D01*
X124982795Y-92139744D01*
X124904774Y-92328102D01*
X124865000Y-92528061D01*
X124865000Y-92731939D01*
X124904774Y-92931898D01*
X124982795Y-93120256D01*
X125096063Y-93289774D01*
X125240226Y-93433937D01*
X125409744Y-93547205D01*
X125598102Y-93625226D01*
X125798061Y-93665000D01*
X126001939Y-93665000D01*
X126201898Y-93625226D01*
X126390256Y-93547205D01*
X126559774Y-93433937D01*
X126703937Y-93289774D01*
X126817205Y-93120256D01*
X126895226Y-92931898D01*
X126935000Y-92731939D01*
X126935000Y-92528061D01*
X126895226Y-92328102D01*
X126817205Y-92139744D01*
X126703937Y-91970226D01*
X126628711Y-91895000D01*
X126693937Y-91829774D01*
X126807205Y-91660256D01*
X126885226Y-91471898D01*
X126909858Y-91348061D01*
X143985000Y-91348061D01*
X143985000Y-91551939D01*
X144024774Y-91751898D01*
X144102795Y-91940256D01*
X144216063Y-92109774D01*
X144360226Y-92253937D01*
X144529744Y-92367205D01*
X144718102Y-92445226D01*
X144918061Y-92485000D01*
X145121939Y-92485000D01*
X145321898Y-92445226D01*
X145510256Y-92367205D01*
X145679774Y-92253937D01*
X145823937Y-92109774D01*
X145937205Y-91940256D01*
X146015226Y-91751898D01*
X146055000Y-91551939D01*
X146055000Y-91348061D01*
X146015226Y-91148102D01*
X145937205Y-90959744D01*
X145823937Y-90790226D01*
X145679774Y-90646063D01*
X145510256Y-90532795D01*
X145321898Y-90454774D01*
X145121939Y-90415000D01*
X144918061Y-90415000D01*
X144718102Y-90454774D01*
X144529744Y-90532795D01*
X144360226Y-90646063D01*
X144216063Y-90790226D01*
X144102795Y-90959744D01*
X144024774Y-91148102D01*
X143985000Y-91348061D01*
X126909858Y-91348061D01*
X126925000Y-91271939D01*
X126925000Y-91068061D01*
X126885226Y-90868102D01*
X126807205Y-90679744D01*
X126693937Y-90510226D01*
X126549774Y-90366063D01*
X126380256Y-90252795D01*
X126191898Y-90174774D01*
X125991939Y-90135000D01*
X125788061Y-90135000D01*
X125588102Y-90174774D01*
X125399744Y-90252795D01*
X125230226Y-90366063D01*
X125086063Y-90510226D01*
X124972795Y-90679744D01*
X124894774Y-90868102D01*
X124855000Y-91068061D01*
X120685000Y-91068061D01*
X120685000Y-86040000D01*
X125459339Y-86040000D01*
X125481929Y-86269360D01*
X125548831Y-86489906D01*
X125647766Y-86675000D01*
X125548831Y-86860094D01*
X125481929Y-87080640D01*
X125459339Y-87310000D01*
X125481929Y-87539360D01*
X125548831Y-87759906D01*
X125657474Y-87963162D01*
X125803682Y-88141318D01*
X125981838Y-88287526D01*
X126185094Y-88396169D01*
X126405640Y-88463071D01*
X126577523Y-88480000D01*
X127422477Y-88480000D01*
X127594360Y-88463071D01*
X127814906Y-88396169D01*
X128018162Y-88287526D01*
X128196318Y-88141318D01*
X128342526Y-87963162D01*
X128451169Y-87759906D01*
X128518071Y-87539360D01*
X128521153Y-87508061D01*
X128885000Y-87508061D01*
X128885000Y-87711939D01*
X128924774Y-87911898D01*
X129002795Y-88100256D01*
X129116063Y-88269774D01*
X129260226Y-88413937D01*
X129429744Y-88527205D01*
X129618102Y-88605226D01*
X129818061Y-88645000D01*
X130021939Y-88645000D01*
X130221898Y-88605226D01*
X130410256Y-88527205D01*
X130579774Y-88413937D01*
X130723937Y-88269774D01*
X130837205Y-88100256D01*
X130915226Y-87911898D01*
X130955000Y-87711939D01*
X130955000Y-87508061D01*
X130915226Y-87308102D01*
X130837205Y-87119744D01*
X130723937Y-86950226D01*
X130579774Y-86806063D01*
X130410256Y-86692795D01*
X130221898Y-86614774D01*
X130021939Y-86575000D01*
X129818061Y-86575000D01*
X129618102Y-86614774D01*
X129429744Y-86692795D01*
X129260226Y-86806063D01*
X129116063Y-86950226D01*
X129002795Y-87119744D01*
X128924774Y-87308102D01*
X128885000Y-87508061D01*
X128521153Y-87508061D01*
X128540661Y-87310000D01*
X128518071Y-87080640D01*
X128451169Y-86860094D01*
X128352234Y-86675000D01*
X128451169Y-86489906D01*
X128518071Y-86269360D01*
X128540661Y-86040000D01*
X128518071Y-85810640D01*
X128451169Y-85590094D01*
X128350846Y-85402404D01*
X128408377Y-85314421D01*
X128493900Y-85077383D01*
X128368244Y-84897000D01*
X127627560Y-84897000D01*
X127594360Y-84886929D01*
X127422477Y-84870000D01*
X126577523Y-84870000D01*
X126405640Y-84886929D01*
X126372440Y-84897000D01*
X125631756Y-84897000D01*
X125506100Y-85077383D01*
X125591623Y-85314421D01*
X125649154Y-85402404D01*
X125548831Y-85590094D01*
X125481929Y-85810640D01*
X125459339Y-86040000D01*
X120685000Y-86040000D01*
X120685000Y-82965000D01*
X125461928Y-82965000D01*
X125461928Y-84035000D01*
X125474188Y-84159482D01*
X125510498Y-84279180D01*
X125547385Y-84348190D01*
X125506100Y-84462617D01*
X125631756Y-84643000D01*
X125916800Y-84643000D01*
X125975518Y-84660812D01*
X126100000Y-84673072D01*
X127900000Y-84673072D01*
X128024482Y-84660812D01*
X128083200Y-84643000D01*
X128368244Y-84643000D01*
X128462243Y-84508061D01*
X128895000Y-84508061D01*
X128895000Y-84711939D01*
X128934774Y-84911898D01*
X129012795Y-85100256D01*
X129126063Y-85269774D01*
X129270226Y-85413937D01*
X129439744Y-85527205D01*
X129628102Y-85605226D01*
X129828061Y-85645000D01*
X130031939Y-85645000D01*
X130231898Y-85605226D01*
X130420256Y-85527205D01*
X130589774Y-85413937D01*
X130733937Y-85269774D01*
X130847205Y-85100256D01*
X130925226Y-84911898D01*
X130965000Y-84711939D01*
X130965000Y-84508061D01*
X130925226Y-84308102D01*
X130847205Y-84119744D01*
X130733937Y-83950226D01*
X130589774Y-83806063D01*
X130420256Y-83692795D01*
X130231898Y-83614774D01*
X130031939Y-83575000D01*
X129828061Y-83575000D01*
X129628102Y-83614774D01*
X129439744Y-83692795D01*
X129270226Y-83806063D01*
X129126063Y-83950226D01*
X129012795Y-84119744D01*
X128934774Y-84308102D01*
X128895000Y-84508061D01*
X128462243Y-84508061D01*
X128493900Y-84462617D01*
X128452615Y-84348190D01*
X128489502Y-84279180D01*
X128525812Y-84159482D01*
X128538072Y-84035000D01*
X128538072Y-82965000D01*
X128525812Y-82840518D01*
X128489502Y-82720820D01*
X128430537Y-82610506D01*
X128351185Y-82513815D01*
X128254494Y-82434463D01*
X128144180Y-82375498D01*
X128024482Y-82339188D01*
X127900000Y-82326928D01*
X126100000Y-82326928D01*
X125975518Y-82339188D01*
X125855820Y-82375498D01*
X125745506Y-82434463D01*
X125648815Y-82513815D01*
X125569463Y-82610506D01*
X125510498Y-82720820D01*
X125474188Y-82840518D01*
X125461928Y-82965000D01*
X120685000Y-82965000D01*
X120685000Y-81518061D01*
X128895000Y-81518061D01*
X128895000Y-81721939D01*
X128934774Y-81921898D01*
X129012795Y-82110256D01*
X129126063Y-82279774D01*
X129270226Y-82423937D01*
X129439744Y-82537205D01*
X129628102Y-82615226D01*
X129828061Y-82655000D01*
X130031939Y-82655000D01*
X130231898Y-82615226D01*
X130420256Y-82537205D01*
X130589774Y-82423937D01*
X130733937Y-82279774D01*
X130847205Y-82110256D01*
X130925226Y-81921898D01*
X130965000Y-81721939D01*
X130965000Y-81518061D01*
X130925226Y-81318102D01*
X130847205Y-81129744D01*
X130733937Y-80960226D01*
X130589774Y-80816063D01*
X130420256Y-80702795D01*
X130231898Y-80624774D01*
X130031939Y-80585000D01*
X129828061Y-80585000D01*
X129628102Y-80624774D01*
X129439744Y-80702795D01*
X129270226Y-80816063D01*
X129126063Y-80960226D01*
X129012795Y-81129744D01*
X128934774Y-81318102D01*
X128895000Y-81518061D01*
X120685000Y-81518061D01*
X120685000Y-79533740D01*
X133555000Y-79533740D01*
X133555000Y-79826260D01*
X133612068Y-80113158D01*
X133724010Y-80383411D01*
X133886525Y-80626632D01*
X134093368Y-80833475D01*
X134267760Y-80950000D01*
X134093368Y-81066525D01*
X133886525Y-81273368D01*
X133724010Y-81516589D01*
X133612068Y-81786842D01*
X133555000Y-82073740D01*
X133555000Y-82366260D01*
X133612068Y-82653158D01*
X133724010Y-82923411D01*
X133886525Y-83166632D01*
X134093368Y-83373475D01*
X134267760Y-83490000D01*
X134093368Y-83606525D01*
X133886525Y-83813368D01*
X133724010Y-84056589D01*
X133612068Y-84326842D01*
X133555000Y-84613740D01*
X133555000Y-84906260D01*
X133612068Y-85193158D01*
X133724010Y-85463411D01*
X133886525Y-85706632D01*
X134093368Y-85913475D01*
X134336589Y-86075990D01*
X134606842Y-86187932D01*
X134893740Y-86245000D01*
X135186260Y-86245000D01*
X135473158Y-86187932D01*
X135743411Y-86075990D01*
X135986632Y-85913475D01*
X136193475Y-85706632D01*
X136310000Y-85532240D01*
X136426525Y-85706632D01*
X136633368Y-85913475D01*
X136876589Y-86075990D01*
X137146842Y-86187932D01*
X137433740Y-86245000D01*
X137726260Y-86245000D01*
X138013158Y-86187932D01*
X138283411Y-86075990D01*
X138526632Y-85913475D01*
X138733475Y-85706632D01*
X138850000Y-85532240D01*
X138966525Y-85706632D01*
X139173368Y-85913475D01*
X139416589Y-86075990D01*
X139686842Y-86187932D01*
X139973740Y-86245000D01*
X140266260Y-86245000D01*
X140553158Y-86187932D01*
X140823411Y-86075990D01*
X141066632Y-85913475D01*
X141273475Y-85706632D01*
X141390000Y-85532240D01*
X141506525Y-85706632D01*
X141713368Y-85913475D01*
X141956589Y-86075990D01*
X142226842Y-86187932D01*
X142513740Y-86245000D01*
X142806260Y-86245000D01*
X143093158Y-86187932D01*
X143363411Y-86075990D01*
X143606632Y-85913475D01*
X143813475Y-85706632D01*
X143930000Y-85532240D01*
X144046525Y-85706632D01*
X144253368Y-85913475D01*
X144496589Y-86075990D01*
X144766842Y-86187932D01*
X145053740Y-86245000D01*
X145346260Y-86245000D01*
X145633158Y-86187932D01*
X145903411Y-86075990D01*
X146146632Y-85913475D01*
X146353475Y-85706632D01*
X146470000Y-85532240D01*
X146586525Y-85706632D01*
X146793368Y-85913475D01*
X147036589Y-86075990D01*
X147306842Y-86187932D01*
X147593740Y-86245000D01*
X147886260Y-86245000D01*
X148173158Y-86187932D01*
X148443411Y-86075990D01*
X148686632Y-85913475D01*
X148893475Y-85706632D01*
X149010000Y-85532240D01*
X149126525Y-85706632D01*
X149333368Y-85913475D01*
X149576589Y-86075990D01*
X149846842Y-86187932D01*
X150133740Y-86245000D01*
X150426260Y-86245000D01*
X150713158Y-86187932D01*
X150983411Y-86075990D01*
X151226632Y-85913475D01*
X151433475Y-85706632D01*
X151550000Y-85532240D01*
X151666525Y-85706632D01*
X151873368Y-85913475D01*
X152116589Y-86075990D01*
X152386842Y-86187932D01*
X152673740Y-86245000D01*
X152966260Y-86245000D01*
X153253158Y-86187932D01*
X153523411Y-86075990D01*
X153766632Y-85913475D01*
X153973475Y-85706632D01*
X154090000Y-85532240D01*
X154206525Y-85706632D01*
X154413368Y-85913475D01*
X154656589Y-86075990D01*
X154926842Y-86187932D01*
X155213740Y-86245000D01*
X155506260Y-86245000D01*
X155793158Y-86187932D01*
X156063411Y-86075990D01*
X156306632Y-85913475D01*
X156513475Y-85706632D01*
X156629311Y-85533271D01*
X156871603Y-85608792D01*
X157720395Y-84760000D01*
X156871603Y-83911208D01*
X156629311Y-83986729D01*
X156513475Y-83813368D01*
X156306632Y-83606525D01*
X156132240Y-83490000D01*
X156306632Y-83373475D01*
X156431710Y-83248397D01*
X157051208Y-83248397D01*
X157126514Y-83490000D01*
X157051208Y-83731603D01*
X157900000Y-84580395D01*
X158748792Y-83731603D01*
X158673486Y-83490000D01*
X158748792Y-83248397D01*
X157900000Y-82399605D01*
X157051208Y-83248397D01*
X156431710Y-83248397D01*
X156513475Y-83166632D01*
X156629311Y-82993271D01*
X156871603Y-83068792D01*
X157720395Y-82220000D01*
X156871603Y-81371208D01*
X156629311Y-81446729D01*
X156513475Y-81273368D01*
X156306632Y-81066525D01*
X156133271Y-80950689D01*
X156208792Y-80708397D01*
X157051208Y-80708397D01*
X157126514Y-80950000D01*
X157051208Y-81191603D01*
X157900000Y-82040395D01*
X158748792Y-81191603D01*
X158673486Y-80950000D01*
X158748792Y-80708397D01*
X157900000Y-79859605D01*
X157051208Y-80708397D01*
X156208792Y-80708397D01*
X155360000Y-79859605D01*
X154511208Y-80708397D01*
X154586729Y-80950689D01*
X154413368Y-81066525D01*
X154206525Y-81273368D01*
X154090000Y-81447760D01*
X153973475Y-81273368D01*
X153766632Y-81066525D01*
X153592240Y-80950000D01*
X153766632Y-80833475D01*
X153973475Y-80626632D01*
X154089311Y-80453271D01*
X154331603Y-80528792D01*
X155180395Y-79680000D01*
X155539605Y-79680000D01*
X156388397Y-80528792D01*
X156630000Y-80453486D01*
X156871603Y-80528792D01*
X157720395Y-79680000D01*
X156871603Y-78831208D01*
X156630000Y-78906514D01*
X156388397Y-78831208D01*
X155539605Y-79680000D01*
X155180395Y-79680000D01*
X154331603Y-78831208D01*
X154089311Y-78906729D01*
X153973475Y-78733368D01*
X153891710Y-78651603D01*
X154511208Y-78651603D01*
X155360000Y-79500395D01*
X156208792Y-78651603D01*
X157051208Y-78651603D01*
X157900000Y-79500395D01*
X158748792Y-78651603D01*
X158671157Y-78402528D01*
X158407117Y-78276629D01*
X158123589Y-78204661D01*
X157831469Y-78189389D01*
X157541981Y-78231401D01*
X157266253Y-78329081D01*
X157128843Y-78402528D01*
X157051208Y-78651603D01*
X156208792Y-78651603D01*
X156131157Y-78402528D01*
X155867117Y-78276629D01*
X155583589Y-78204661D01*
X155291469Y-78189389D01*
X155001981Y-78231401D01*
X154726253Y-78329081D01*
X154588843Y-78402528D01*
X154511208Y-78651603D01*
X153891710Y-78651603D01*
X153766632Y-78526525D01*
X153523411Y-78364010D01*
X153253158Y-78252068D01*
X152966260Y-78195000D01*
X152673740Y-78195000D01*
X152386842Y-78252068D01*
X152116589Y-78364010D01*
X151873368Y-78526525D01*
X151666525Y-78733368D01*
X151550000Y-78907760D01*
X151433475Y-78733368D01*
X151226632Y-78526525D01*
X150983411Y-78364010D01*
X150713158Y-78252068D01*
X150426260Y-78195000D01*
X150133740Y-78195000D01*
X149846842Y-78252068D01*
X149576589Y-78364010D01*
X149333368Y-78526525D01*
X149126525Y-78733368D01*
X149010000Y-78907760D01*
X148893475Y-78733368D01*
X148686632Y-78526525D01*
X148443411Y-78364010D01*
X148173158Y-78252068D01*
X147886260Y-78195000D01*
X147593740Y-78195000D01*
X147306842Y-78252068D01*
X147036589Y-78364010D01*
X146793368Y-78526525D01*
X146586525Y-78733368D01*
X146470000Y-78907760D01*
X146353475Y-78733368D01*
X146146632Y-78526525D01*
X145903411Y-78364010D01*
X145633158Y-78252068D01*
X145346260Y-78195000D01*
X145053740Y-78195000D01*
X144766842Y-78252068D01*
X144496589Y-78364010D01*
X144253368Y-78526525D01*
X144046525Y-78733368D01*
X143930000Y-78907760D01*
X143813475Y-78733368D01*
X143606632Y-78526525D01*
X143363411Y-78364010D01*
X143093158Y-78252068D01*
X142806260Y-78195000D01*
X142513740Y-78195000D01*
X142226842Y-78252068D01*
X141956589Y-78364010D01*
X141713368Y-78526525D01*
X141506525Y-78733368D01*
X141390000Y-78907760D01*
X141273475Y-78733368D01*
X141066632Y-78526525D01*
X140823411Y-78364010D01*
X140553158Y-78252068D01*
X140266260Y-78195000D01*
X139973740Y-78195000D01*
X139686842Y-78252068D01*
X139416589Y-78364010D01*
X139173368Y-78526525D01*
X138966525Y-78733368D01*
X138850000Y-78907760D01*
X138733475Y-78733368D01*
X138526632Y-78526525D01*
X138283411Y-78364010D01*
X138013158Y-78252068D01*
X137726260Y-78195000D01*
X137433740Y-78195000D01*
X137146842Y-78252068D01*
X136876589Y-78364010D01*
X136633368Y-78526525D01*
X136426525Y-78733368D01*
X136310000Y-78907760D01*
X136193475Y-78733368D01*
X135986632Y-78526525D01*
X135743411Y-78364010D01*
X135473158Y-78252068D01*
X135186260Y-78195000D01*
X134893740Y-78195000D01*
X134606842Y-78252068D01*
X134336589Y-78364010D01*
X134093368Y-78526525D01*
X133886525Y-78733368D01*
X133724010Y-78976589D01*
X133612068Y-79246842D01*
X133555000Y-79533740D01*
X120685000Y-79533740D01*
X120685000Y-79033504D01*
X120722789Y-78648103D01*
X120824987Y-78309607D01*
X120990984Y-77997412D01*
X121214460Y-77723403D01*
X121486902Y-77498020D01*
X121797931Y-77329847D01*
X122135708Y-77225288D01*
X122519022Y-77185000D01*
X197466496Y-77185000D01*
X197851897Y-77222789D01*
G04 #@! TA.AperFunction,Conductor*
D18*
G36*
X197851897Y-77222789D02*
G01*
X198190393Y-77324987D01*
X198502588Y-77490984D01*
X198776597Y-77714460D01*
X199001980Y-77986902D01*
X199170153Y-78297931D01*
X199182841Y-78338921D01*
X198973158Y-78252068D01*
X198686260Y-78195000D01*
X198393740Y-78195000D01*
X198106842Y-78252068D01*
X197836589Y-78364010D01*
X197593368Y-78526525D01*
X197386525Y-78733368D01*
X197270000Y-78907760D01*
X197153475Y-78733368D01*
X196946632Y-78526525D01*
X196703411Y-78364010D01*
X196433158Y-78252068D01*
X196146260Y-78195000D01*
X195853740Y-78195000D01*
X195566842Y-78252068D01*
X195296589Y-78364010D01*
X195053368Y-78526525D01*
X194846525Y-78733368D01*
X194730000Y-78907760D01*
X194613475Y-78733368D01*
X194406632Y-78526525D01*
X194163411Y-78364010D01*
X193893158Y-78252068D01*
X193606260Y-78195000D01*
X193313740Y-78195000D01*
X193026842Y-78252068D01*
X192756589Y-78364010D01*
X192513368Y-78526525D01*
X192306525Y-78733368D01*
X192190000Y-78907760D01*
X192073475Y-78733368D01*
X191866632Y-78526525D01*
X191623411Y-78364010D01*
X191353158Y-78252068D01*
X191066260Y-78195000D01*
X190773740Y-78195000D01*
X190486842Y-78252068D01*
X190216589Y-78364010D01*
X189973368Y-78526525D01*
X189766525Y-78733368D01*
X189650000Y-78907760D01*
X189533475Y-78733368D01*
X189326632Y-78526525D01*
X189083411Y-78364010D01*
X188813158Y-78252068D01*
X188526260Y-78195000D01*
X188233740Y-78195000D01*
X187946842Y-78252068D01*
X187676589Y-78364010D01*
X187433368Y-78526525D01*
X187226525Y-78733368D01*
X187110000Y-78907760D01*
X186993475Y-78733368D01*
X186786632Y-78526525D01*
X186543411Y-78364010D01*
X186273158Y-78252068D01*
X185986260Y-78195000D01*
X185693740Y-78195000D01*
X185406842Y-78252068D01*
X185136589Y-78364010D01*
X184893368Y-78526525D01*
X184686525Y-78733368D01*
X184570000Y-78907760D01*
X184453475Y-78733368D01*
X184246632Y-78526525D01*
X184003411Y-78364010D01*
X183733158Y-78252068D01*
X183446260Y-78195000D01*
X183153740Y-78195000D01*
X182866842Y-78252068D01*
X182596589Y-78364010D01*
X182353368Y-78526525D01*
X182146525Y-78733368D01*
X182030000Y-78907760D01*
X181913475Y-78733368D01*
X181706632Y-78526525D01*
X181463411Y-78364010D01*
X181193158Y-78252068D01*
X180906260Y-78195000D01*
X180613740Y-78195000D01*
X180326842Y-78252068D01*
X180056589Y-78364010D01*
X179813368Y-78526525D01*
X179606525Y-78733368D01*
X179490000Y-78907760D01*
X179373475Y-78733368D01*
X179166632Y-78526525D01*
X178923411Y-78364010D01*
X178653158Y-78252068D01*
X178366260Y-78195000D01*
X178073740Y-78195000D01*
X177786842Y-78252068D01*
X177516589Y-78364010D01*
X177273368Y-78526525D01*
X177066525Y-78733368D01*
X176950000Y-78907760D01*
X176833475Y-78733368D01*
X176626632Y-78526525D01*
X176383411Y-78364010D01*
X176113158Y-78252068D01*
X175826260Y-78195000D01*
X175533740Y-78195000D01*
X175246842Y-78252068D01*
X174976589Y-78364010D01*
X174733368Y-78526525D01*
X174526525Y-78733368D01*
X174410000Y-78907760D01*
X174293475Y-78733368D01*
X174086632Y-78526525D01*
X173843411Y-78364010D01*
X173573158Y-78252068D01*
X173286260Y-78195000D01*
X172993740Y-78195000D01*
X172706842Y-78252068D01*
X172436589Y-78364010D01*
X172193368Y-78526525D01*
X171986525Y-78733368D01*
X171870000Y-78907760D01*
X171753475Y-78733368D01*
X171546632Y-78526525D01*
X171303411Y-78364010D01*
X171033158Y-78252068D01*
X170746260Y-78195000D01*
X170453740Y-78195000D01*
X170166842Y-78252068D01*
X169896589Y-78364010D01*
X169653368Y-78526525D01*
X169446525Y-78733368D01*
X169330000Y-78907760D01*
X169213475Y-78733368D01*
X169006632Y-78526525D01*
X168763411Y-78364010D01*
X168493158Y-78252068D01*
X168206260Y-78195000D01*
X167913740Y-78195000D01*
X167626842Y-78252068D01*
X167356589Y-78364010D01*
X167113368Y-78526525D01*
X166906525Y-78733368D01*
X166790000Y-78907760D01*
X166673475Y-78733368D01*
X166466632Y-78526525D01*
X166223411Y-78364010D01*
X165953158Y-78252068D01*
X165666260Y-78195000D01*
X165373740Y-78195000D01*
X165086842Y-78252068D01*
X164816589Y-78364010D01*
X164573368Y-78526525D01*
X164366525Y-78733368D01*
X164250000Y-78907760D01*
X164133475Y-78733368D01*
X163926632Y-78526525D01*
X163683411Y-78364010D01*
X163413158Y-78252068D01*
X163126260Y-78195000D01*
X162833740Y-78195000D01*
X162546842Y-78252068D01*
X162276589Y-78364010D01*
X162033368Y-78526525D01*
X161826525Y-78733368D01*
X161710000Y-78907760D01*
X161593475Y-78733368D01*
X161386632Y-78526525D01*
X161143411Y-78364010D01*
X160873158Y-78252068D01*
X160586260Y-78195000D01*
X160293740Y-78195000D01*
X160006842Y-78252068D01*
X159736589Y-78364010D01*
X159493368Y-78526525D01*
X159286525Y-78733368D01*
X159170689Y-78906729D01*
X158928397Y-78831208D01*
X158079605Y-79680000D01*
X158928397Y-80528792D01*
X159170689Y-80453271D01*
X159286525Y-80626632D01*
X159493368Y-80833475D01*
X159667760Y-80950000D01*
X159493368Y-81066525D01*
X159286525Y-81273368D01*
X159170689Y-81446729D01*
X158928397Y-81371208D01*
X158079605Y-82220000D01*
X158928397Y-83068792D01*
X159170689Y-82993271D01*
X159286525Y-83166632D01*
X159493368Y-83373475D01*
X159667760Y-83490000D01*
X159493368Y-83606525D01*
X159286525Y-83813368D01*
X159170689Y-83986729D01*
X158928397Y-83911208D01*
X158079605Y-84760000D01*
X158928397Y-85608792D01*
X159170689Y-85533271D01*
X159286525Y-85706632D01*
X159493368Y-85913475D01*
X159667760Y-86030000D01*
X159493368Y-86146525D01*
X159286525Y-86353368D01*
X159170000Y-86527760D01*
X159053475Y-86353368D01*
X158846632Y-86146525D01*
X158673271Y-86030689D01*
X158748792Y-85788397D01*
X157900000Y-84939605D01*
X157051208Y-85788397D01*
X157126729Y-86030689D01*
X156953368Y-86146525D01*
X156746525Y-86353368D01*
X156584010Y-86596589D01*
X156472068Y-86866842D01*
X156415000Y-87153740D01*
X156415000Y-87446260D01*
X156472068Y-87733158D01*
X156584010Y-88003411D01*
X156746525Y-88246632D01*
X156953368Y-88453475D01*
X157127760Y-88570000D01*
X156953368Y-88686525D01*
X156746525Y-88893368D01*
X156584010Y-89136589D01*
X156472068Y-89406842D01*
X156415000Y-89693740D01*
X156415000Y-89986260D01*
X156472068Y-90273158D01*
X156584010Y-90543411D01*
X156746525Y-90786632D01*
X156953368Y-90993475D01*
X157127760Y-91110000D01*
X156953368Y-91226525D01*
X156746525Y-91433368D01*
X156584010Y-91676589D01*
X156472068Y-91946842D01*
X156415000Y-92233740D01*
X156415000Y-92526260D01*
X156472068Y-92813158D01*
X156584010Y-93083411D01*
X156746525Y-93326632D01*
X156953368Y-93533475D01*
X157127760Y-93650000D01*
X156953368Y-93766525D01*
X156746525Y-93973368D01*
X156584010Y-94216589D01*
X156472068Y-94486842D01*
X156415000Y-94773740D01*
X156415000Y-95066260D01*
X156472068Y-95353158D01*
X156584010Y-95623411D01*
X156746525Y-95866632D01*
X156953368Y-96073475D01*
X157127760Y-96190000D01*
X156953368Y-96306525D01*
X156746525Y-96513368D01*
X156584010Y-96756589D01*
X156472068Y-97026842D01*
X156415000Y-97313740D01*
X156415000Y-97606260D01*
X156472068Y-97893158D01*
X156584010Y-98163411D01*
X156746525Y-98406632D01*
X156953368Y-98613475D01*
X157127760Y-98730000D01*
X156953368Y-98846525D01*
X156746525Y-99053368D01*
X156584010Y-99296589D01*
X156472068Y-99566842D01*
X156415000Y-99853740D01*
X156415000Y-100146260D01*
X156472068Y-100433158D01*
X156584010Y-100703411D01*
X156746525Y-100946632D01*
X156953368Y-101153475D01*
X157127760Y-101270000D01*
X156953368Y-101386525D01*
X156746525Y-101593368D01*
X156584010Y-101836589D01*
X156472068Y-102106842D01*
X156415000Y-102393740D01*
X156415000Y-102686260D01*
X156472068Y-102973158D01*
X156584010Y-103243411D01*
X156746525Y-103486632D01*
X156953368Y-103693475D01*
X157127760Y-103810000D01*
X156953368Y-103926525D01*
X156746525Y-104133368D01*
X156584010Y-104376589D01*
X156472068Y-104646842D01*
X156415000Y-104933740D01*
X156415000Y-105226260D01*
X156472068Y-105513158D01*
X156584010Y-105783411D01*
X156746525Y-106026632D01*
X156953368Y-106233475D01*
X157127760Y-106350000D01*
X156953368Y-106466525D01*
X156746525Y-106673368D01*
X156584010Y-106916589D01*
X156472068Y-107186842D01*
X156415000Y-107473740D01*
X156415000Y-107766260D01*
X156472068Y-108053158D01*
X156584010Y-108323411D01*
X156746525Y-108566632D01*
X156953368Y-108773475D01*
X157127760Y-108890000D01*
X156953368Y-109006525D01*
X156746525Y-109213368D01*
X156584010Y-109456589D01*
X156472068Y-109726842D01*
X156415000Y-110013740D01*
X156415000Y-110306260D01*
X156472068Y-110593158D01*
X156584010Y-110863411D01*
X156746525Y-111106632D01*
X156953368Y-111313475D01*
X157127760Y-111430000D01*
X156953368Y-111546525D01*
X156746525Y-111753368D01*
X156584010Y-111996589D01*
X156472068Y-112266842D01*
X156415000Y-112553740D01*
X156415000Y-112846260D01*
X156472068Y-113133158D01*
X156584010Y-113403411D01*
X156746525Y-113646632D01*
X156953368Y-113853475D01*
X157126729Y-113969311D01*
X157051208Y-114211603D01*
X157900000Y-115060395D01*
X158748792Y-114211603D01*
X158673271Y-113969311D01*
X158846632Y-113853475D01*
X159053475Y-113646632D01*
X159170000Y-113472240D01*
X159286525Y-113646632D01*
X159493368Y-113853475D01*
X159667760Y-113970000D01*
X159493368Y-114086525D01*
X159286525Y-114293368D01*
X159170689Y-114466729D01*
X158928397Y-114391208D01*
X158079605Y-115240000D01*
X158928397Y-116088792D01*
X159170689Y-116013271D01*
X159286525Y-116186632D01*
X159493368Y-116393475D01*
X159667760Y-116510000D01*
X159493368Y-116626525D01*
X159286525Y-116833368D01*
X159170689Y-117006729D01*
X158928397Y-116931208D01*
X158079605Y-117780000D01*
X158928397Y-118628792D01*
X159170689Y-118553271D01*
X159286525Y-118726632D01*
X159493368Y-118933475D01*
X159667760Y-119050000D01*
X159493368Y-119166525D01*
X159286525Y-119373368D01*
X159170689Y-119546729D01*
X158928397Y-119471208D01*
X158079605Y-120320000D01*
X158928397Y-121168792D01*
X159170689Y-121093271D01*
X159286525Y-121266632D01*
X159493368Y-121473475D01*
X159736589Y-121635990D01*
X160006842Y-121747932D01*
X160293740Y-121805000D01*
X160586260Y-121805000D01*
X160873158Y-121747932D01*
X161143411Y-121635990D01*
X161386632Y-121473475D01*
X161593475Y-121266632D01*
X161710000Y-121092240D01*
X161826525Y-121266632D01*
X162033368Y-121473475D01*
X162276589Y-121635990D01*
X162546842Y-121747932D01*
X162833740Y-121805000D01*
X163126260Y-121805000D01*
X163413158Y-121747932D01*
X163683411Y-121635990D01*
X163926632Y-121473475D01*
X164133475Y-121266632D01*
X164250000Y-121092240D01*
X164366525Y-121266632D01*
X164573368Y-121473475D01*
X164816589Y-121635990D01*
X165086842Y-121747932D01*
X165373740Y-121805000D01*
X165666260Y-121805000D01*
X165953158Y-121747932D01*
X166223411Y-121635990D01*
X166466632Y-121473475D01*
X166673475Y-121266632D01*
X166790000Y-121092240D01*
X166906525Y-121266632D01*
X167113368Y-121473475D01*
X167356589Y-121635990D01*
X167626842Y-121747932D01*
X167913740Y-121805000D01*
X168206260Y-121805000D01*
X168493158Y-121747932D01*
X168763411Y-121635990D01*
X169006632Y-121473475D01*
X169213475Y-121266632D01*
X169330000Y-121092240D01*
X169446525Y-121266632D01*
X169653368Y-121473475D01*
X169896589Y-121635990D01*
X170166842Y-121747932D01*
X170453740Y-121805000D01*
X170746260Y-121805000D01*
X171033158Y-121747932D01*
X171303411Y-121635990D01*
X171546632Y-121473475D01*
X171753475Y-121266632D01*
X171870000Y-121092240D01*
X171986525Y-121266632D01*
X172193368Y-121473475D01*
X172436589Y-121635990D01*
X172706842Y-121747932D01*
X172993740Y-121805000D01*
X173286260Y-121805000D01*
X173573158Y-121747932D01*
X173843411Y-121635990D01*
X174086632Y-121473475D01*
X174293475Y-121266632D01*
X174410000Y-121092240D01*
X174526525Y-121266632D01*
X174733368Y-121473475D01*
X174976589Y-121635990D01*
X175246842Y-121747932D01*
X175533740Y-121805000D01*
X175826260Y-121805000D01*
X176113158Y-121747932D01*
X176383411Y-121635990D01*
X176626632Y-121473475D01*
X176833475Y-121266632D01*
X176950000Y-121092240D01*
X177066525Y-121266632D01*
X177273368Y-121473475D01*
X177516589Y-121635990D01*
X177786842Y-121747932D01*
X178073740Y-121805000D01*
X178366260Y-121805000D01*
X178653158Y-121747932D01*
X178923411Y-121635990D01*
X179166632Y-121473475D01*
X179373475Y-121266632D01*
X179490000Y-121092240D01*
X179606525Y-121266632D01*
X179813368Y-121473475D01*
X180056589Y-121635990D01*
X180326842Y-121747932D01*
X180613740Y-121805000D01*
X180906260Y-121805000D01*
X181193158Y-121747932D01*
X181463411Y-121635990D01*
X181706632Y-121473475D01*
X181913475Y-121266632D01*
X182030000Y-121092240D01*
X182146525Y-121266632D01*
X182353368Y-121473475D01*
X182596589Y-121635990D01*
X182866842Y-121747932D01*
X183153740Y-121805000D01*
X183446260Y-121805000D01*
X183733158Y-121747932D01*
X184003411Y-121635990D01*
X184246632Y-121473475D01*
X184453475Y-121266632D01*
X184570000Y-121092240D01*
X184686525Y-121266632D01*
X184893368Y-121473475D01*
X185136589Y-121635990D01*
X185406842Y-121747932D01*
X185693740Y-121805000D01*
X185986260Y-121805000D01*
X186273158Y-121747932D01*
X186543411Y-121635990D01*
X186786632Y-121473475D01*
X186993475Y-121266632D01*
X187110000Y-121092240D01*
X187226525Y-121266632D01*
X187433368Y-121473475D01*
X187676589Y-121635990D01*
X187946842Y-121747932D01*
X188233740Y-121805000D01*
X188526260Y-121805000D01*
X188813158Y-121747932D01*
X189083411Y-121635990D01*
X189326632Y-121473475D01*
X189533475Y-121266632D01*
X189650000Y-121092240D01*
X189766525Y-121266632D01*
X189973368Y-121473475D01*
X190216589Y-121635990D01*
X190486842Y-121747932D01*
X190773740Y-121805000D01*
X191066260Y-121805000D01*
X191353158Y-121747932D01*
X191623411Y-121635990D01*
X191866632Y-121473475D01*
X192073475Y-121266632D01*
X192190000Y-121092240D01*
X192306525Y-121266632D01*
X192513368Y-121473475D01*
X192756589Y-121635990D01*
X193026842Y-121747932D01*
X193313740Y-121805000D01*
X193606260Y-121805000D01*
X193893158Y-121747932D01*
X194163411Y-121635990D01*
X194406632Y-121473475D01*
X194613475Y-121266632D01*
X194730000Y-121092240D01*
X194846525Y-121266632D01*
X195053368Y-121473475D01*
X195296589Y-121635990D01*
X195566842Y-121747932D01*
X195853740Y-121805000D01*
X196146260Y-121805000D01*
X196433158Y-121747932D01*
X196703411Y-121635990D01*
X196946632Y-121473475D01*
X197153475Y-121266632D01*
X197270000Y-121092240D01*
X197386525Y-121266632D01*
X197593368Y-121473475D01*
X197836589Y-121635990D01*
X198106842Y-121747932D01*
X198393740Y-121805000D01*
X198686260Y-121805000D01*
X198973158Y-121747932D01*
X199184010Y-121660595D01*
X199175013Y-121690392D01*
X199009016Y-122002588D01*
X198785539Y-122276599D01*
X198513098Y-122501980D01*
X198202069Y-122670153D01*
X197864296Y-122774711D01*
X197480977Y-122815000D01*
X122533505Y-122815000D01*
X122148103Y-122777211D01*
X121809608Y-122675013D01*
X121497412Y-122509016D01*
X121223401Y-122285539D01*
X120998020Y-122013098D01*
X120829847Y-121702069D01*
X120725289Y-121364296D01*
X120723618Y-121348397D01*
X134191208Y-121348397D01*
X134268843Y-121597472D01*
X134532883Y-121723371D01*
X134816411Y-121795339D01*
X135108531Y-121810611D01*
X135398019Y-121768599D01*
X135673747Y-121670919D01*
X135811157Y-121597472D01*
X135888792Y-121348397D01*
X135040000Y-120499605D01*
X134191208Y-121348397D01*
X120723618Y-121348397D01*
X120685000Y-120980977D01*
X120685000Y-115240000D01*
X125459339Y-115240000D01*
X125481929Y-115469360D01*
X125548831Y-115689906D01*
X125647766Y-115875000D01*
X125548831Y-116060094D01*
X125481929Y-116280640D01*
X125459339Y-116510000D01*
X125481929Y-116739360D01*
X125548831Y-116959906D01*
X125657474Y-117163162D01*
X125803682Y-117341318D01*
X125981838Y-117487526D01*
X126185094Y-117596169D01*
X126405640Y-117663071D01*
X126577523Y-117680000D01*
X127422477Y-117680000D01*
X127594360Y-117663071D01*
X127814906Y-117596169D01*
X128018162Y-117487526D01*
X128196318Y-117341318D01*
X128342526Y-117163162D01*
X128451169Y-116959906D01*
X128518071Y-116739360D01*
X128540661Y-116510000D01*
X128518071Y-116280640D01*
X128451169Y-116060094D01*
X128352234Y-115875000D01*
X128451169Y-115689906D01*
X128518071Y-115469360D01*
X128540661Y-115240000D01*
X128518071Y-115010640D01*
X128451169Y-114790094D01*
X128350846Y-114602404D01*
X128408377Y-114514421D01*
X128493900Y-114277383D01*
X128368244Y-114097000D01*
X127627560Y-114097000D01*
X127594360Y-114086929D01*
X127422477Y-114070000D01*
X126577523Y-114070000D01*
X126405640Y-114086929D01*
X126372440Y-114097000D01*
X125631756Y-114097000D01*
X125506100Y-114277383D01*
X125591623Y-114514421D01*
X125649154Y-114602404D01*
X125548831Y-114790094D01*
X125481929Y-115010640D01*
X125459339Y-115240000D01*
X120685000Y-115240000D01*
X120685000Y-112165000D01*
X125461928Y-112165000D01*
X125461928Y-113235000D01*
X125474188Y-113359482D01*
X125510498Y-113479180D01*
X125547385Y-113548190D01*
X125506100Y-113662617D01*
X125631756Y-113843000D01*
X125916800Y-113843000D01*
X125975518Y-113860812D01*
X126100000Y-113873072D01*
X127900000Y-113873072D01*
X128024482Y-113860812D01*
X128083200Y-113843000D01*
X128368244Y-113843000D01*
X128483141Y-113678061D01*
X131795000Y-113678061D01*
X131795000Y-113881939D01*
X131834774Y-114081898D01*
X131912795Y-114270256D01*
X132026063Y-114439774D01*
X132170226Y-114583937D01*
X132339744Y-114697205D01*
X132528102Y-114775226D01*
X132728061Y-114815000D01*
X132931939Y-114815000D01*
X133131898Y-114775226D01*
X133320256Y-114697205D01*
X133489774Y-114583937D01*
X133533711Y-114540000D01*
X133722597Y-114540000D01*
X133612068Y-114806842D01*
X133555000Y-115093740D01*
X133555000Y-115386260D01*
X133612068Y-115673158D01*
X133652181Y-115770000D01*
X133563711Y-115770000D01*
X133519774Y-115726063D01*
X133350256Y-115612795D01*
X133161898Y-115534774D01*
X132961939Y-115495000D01*
X132758061Y-115495000D01*
X132558102Y-115534774D01*
X132369744Y-115612795D01*
X132200226Y-115726063D01*
X132056063Y-115870226D01*
X131942795Y-116039744D01*
X131864774Y-116228102D01*
X131825000Y-116428061D01*
X131825000Y-116631939D01*
X131864774Y-116831898D01*
X131942795Y-117020256D01*
X132056063Y-117189774D01*
X132200226Y-117333937D01*
X132369744Y-117447205D01*
X132558102Y-117525226D01*
X132758061Y-117565000D01*
X132961939Y-117565000D01*
X133161898Y-117525226D01*
X133350256Y-117447205D01*
X133519774Y-117333937D01*
X133563711Y-117290000D01*
X133635613Y-117290000D01*
X133612068Y-117346842D01*
X133555000Y-117633740D01*
X133555000Y-117926260D01*
X133612068Y-118213158D01*
X133643900Y-118290008D01*
X133563715Y-118290008D01*
X133519778Y-118246071D01*
X133350260Y-118132803D01*
X133161902Y-118054782D01*
X132961943Y-118015008D01*
X132758065Y-118015008D01*
X132558106Y-118054782D01*
X132369748Y-118132803D01*
X132200230Y-118246071D01*
X132056067Y-118390234D01*
X131942799Y-118559752D01*
X131864778Y-118748110D01*
X131825004Y-118948069D01*
X131825004Y-119151947D01*
X131864778Y-119351906D01*
X131942799Y-119540264D01*
X132056067Y-119709782D01*
X132200230Y-119853945D01*
X132369748Y-119967213D01*
X132558106Y-120045234D01*
X132758065Y-120085008D01*
X132961943Y-120085008D01*
X133161902Y-120045234D01*
X133350260Y-119967213D01*
X133519778Y-119853945D01*
X133563715Y-119810008D01*
X133638000Y-119810008D01*
X133636629Y-119812883D01*
X133564661Y-120096411D01*
X133549389Y-120388531D01*
X133591401Y-120678019D01*
X133689081Y-120953747D01*
X133762528Y-121091157D01*
X134011603Y-121168792D01*
X134860395Y-120320000D01*
X134846253Y-120305858D01*
X135025858Y-120126253D01*
X135040000Y-120140395D01*
X135054143Y-120126253D01*
X135233748Y-120305858D01*
X135219605Y-120320000D01*
X136068397Y-121168792D01*
X136310689Y-121093271D01*
X136426525Y-121266632D01*
X136633368Y-121473475D01*
X136876589Y-121635990D01*
X137146842Y-121747932D01*
X137433740Y-121805000D01*
X137726260Y-121805000D01*
X138013158Y-121747932D01*
X138283411Y-121635990D01*
X138526632Y-121473475D01*
X138651710Y-121348397D01*
X139271208Y-121348397D01*
X139348843Y-121597472D01*
X139612883Y-121723371D01*
X139896411Y-121795339D01*
X140188531Y-121810611D01*
X140478019Y-121768599D01*
X140753747Y-121670919D01*
X140891157Y-121597472D01*
X140968792Y-121348397D01*
X140120000Y-120499605D01*
X139271208Y-121348397D01*
X138651710Y-121348397D01*
X138733475Y-121266632D01*
X138849311Y-121093271D01*
X139091603Y-121168792D01*
X139940395Y-120320000D01*
X139926253Y-120305858D01*
X140105858Y-120126253D01*
X140120000Y-120140395D01*
X140134143Y-120126253D01*
X140313748Y-120305858D01*
X140299605Y-120320000D01*
X141148397Y-121168792D01*
X141390689Y-121093271D01*
X141506525Y-121266632D01*
X141713368Y-121473475D01*
X141956589Y-121635990D01*
X142226842Y-121747932D01*
X142513740Y-121805000D01*
X142806260Y-121805000D01*
X143093158Y-121747932D01*
X143363411Y-121635990D01*
X143606632Y-121473475D01*
X143813475Y-121266632D01*
X143930000Y-121092240D01*
X144046525Y-121266632D01*
X144253368Y-121473475D01*
X144496589Y-121635990D01*
X144766842Y-121747932D01*
X145053740Y-121805000D01*
X145346260Y-121805000D01*
X145633158Y-121747932D01*
X145903411Y-121635990D01*
X146146632Y-121473475D01*
X146353475Y-121266632D01*
X146470000Y-121092240D01*
X146586525Y-121266632D01*
X146793368Y-121473475D01*
X147036589Y-121635990D01*
X147306842Y-121747932D01*
X147593740Y-121805000D01*
X147886260Y-121805000D01*
X148173158Y-121747932D01*
X148443411Y-121635990D01*
X148686632Y-121473475D01*
X148893475Y-121266632D01*
X149010000Y-121092240D01*
X149126525Y-121266632D01*
X149333368Y-121473475D01*
X149576589Y-121635990D01*
X149846842Y-121747932D01*
X150133740Y-121805000D01*
X150426260Y-121805000D01*
X150713158Y-121747932D01*
X150983411Y-121635990D01*
X151226632Y-121473475D01*
X151433475Y-121266632D01*
X151550000Y-121092240D01*
X151666525Y-121266632D01*
X151873368Y-121473475D01*
X152116589Y-121635990D01*
X152386842Y-121747932D01*
X152673740Y-121805000D01*
X152966260Y-121805000D01*
X153253158Y-121747932D01*
X153523411Y-121635990D01*
X153766632Y-121473475D01*
X153973475Y-121266632D01*
X154090000Y-121092240D01*
X154206525Y-121266632D01*
X154413368Y-121473475D01*
X154656589Y-121635990D01*
X154926842Y-121747932D01*
X155213740Y-121805000D01*
X155506260Y-121805000D01*
X155793158Y-121747932D01*
X156063411Y-121635990D01*
X156306632Y-121473475D01*
X156431710Y-121348397D01*
X157051208Y-121348397D01*
X157128843Y-121597472D01*
X157392883Y-121723371D01*
X157676411Y-121795339D01*
X157968531Y-121810611D01*
X158258019Y-121768599D01*
X158533747Y-121670919D01*
X158671157Y-121597472D01*
X158748792Y-121348397D01*
X157900000Y-120499605D01*
X157051208Y-121348397D01*
X156431710Y-121348397D01*
X156513475Y-121266632D01*
X156629311Y-121093271D01*
X156871603Y-121168792D01*
X157720395Y-120320000D01*
X156871603Y-119471208D01*
X156629311Y-119546729D01*
X156513475Y-119373368D01*
X156306632Y-119166525D01*
X156132240Y-119050000D01*
X156306632Y-118933475D01*
X156431710Y-118808397D01*
X157051208Y-118808397D01*
X157126514Y-119050000D01*
X157051208Y-119291603D01*
X157900000Y-120140395D01*
X158748792Y-119291603D01*
X158673486Y-119050000D01*
X158748792Y-118808397D01*
X157900000Y-117959605D01*
X157051208Y-118808397D01*
X156431710Y-118808397D01*
X156513475Y-118726632D01*
X156629311Y-118553271D01*
X156871603Y-118628792D01*
X157720395Y-117780000D01*
X156871603Y-116931208D01*
X156629311Y-117006729D01*
X156513475Y-116833368D01*
X156306632Y-116626525D01*
X156132240Y-116510000D01*
X156306632Y-116393475D01*
X156431710Y-116268397D01*
X157051208Y-116268397D01*
X157126514Y-116510000D01*
X157051208Y-116751603D01*
X157900000Y-117600395D01*
X158748792Y-116751603D01*
X158673486Y-116510000D01*
X158748792Y-116268397D01*
X157900000Y-115419605D01*
X157051208Y-116268397D01*
X156431710Y-116268397D01*
X156513475Y-116186632D01*
X156629311Y-116013271D01*
X156871603Y-116088792D01*
X157720395Y-115240000D01*
X156871603Y-114391208D01*
X156629311Y-114466729D01*
X156513475Y-114293368D01*
X156306632Y-114086525D01*
X156063411Y-113924010D01*
X155793158Y-113812068D01*
X155506260Y-113755000D01*
X155213740Y-113755000D01*
X154926842Y-113812068D01*
X154656589Y-113924010D01*
X154413368Y-114086525D01*
X154206525Y-114293368D01*
X154090000Y-114467760D01*
X153973475Y-114293368D01*
X153766632Y-114086525D01*
X153523411Y-113924010D01*
X153253158Y-113812068D01*
X152966260Y-113755000D01*
X152673740Y-113755000D01*
X152386842Y-113812068D01*
X152116589Y-113924010D01*
X151873368Y-114086525D01*
X151666525Y-114293368D01*
X151550000Y-114467760D01*
X151433475Y-114293368D01*
X151226632Y-114086525D01*
X150983411Y-113924010D01*
X150713158Y-113812068D01*
X150426260Y-113755000D01*
X150133740Y-113755000D01*
X149846842Y-113812068D01*
X149576589Y-113924010D01*
X149333368Y-114086525D01*
X149126525Y-114293368D01*
X149010000Y-114467760D01*
X148893475Y-114293368D01*
X148686632Y-114086525D01*
X148443411Y-113924010D01*
X148173158Y-113812068D01*
X147886260Y-113755000D01*
X147593740Y-113755000D01*
X147306842Y-113812068D01*
X147036589Y-113924010D01*
X146793368Y-114086525D01*
X146586525Y-114293368D01*
X146470000Y-114467760D01*
X146353475Y-114293368D01*
X146146632Y-114086525D01*
X145903411Y-113924010D01*
X145633158Y-113812068D01*
X145346260Y-113755000D01*
X145053740Y-113755000D01*
X144766842Y-113812068D01*
X144496589Y-113924010D01*
X144253368Y-114086525D01*
X144046525Y-114293368D01*
X143930000Y-114467760D01*
X143813475Y-114293368D01*
X143606632Y-114086525D01*
X143363411Y-113924010D01*
X143093158Y-113812068D01*
X142806260Y-113755000D01*
X142513740Y-113755000D01*
X142226842Y-113812068D01*
X141956589Y-113924010D01*
X141713368Y-114086525D01*
X141506525Y-114293368D01*
X141390000Y-114467760D01*
X141273475Y-114293368D01*
X141066632Y-114086525D01*
X140823411Y-113924010D01*
X140553158Y-113812068D01*
X140266260Y-113755000D01*
X139973740Y-113755000D01*
X139753592Y-113798791D01*
X139223804Y-113269003D01*
X139200001Y-113239999D01*
X139084276Y-113145026D01*
X138952247Y-113074454D01*
X138808986Y-113030997D01*
X138697333Y-113020000D01*
X138697322Y-113020000D01*
X138660000Y-113016324D01*
X138622678Y-113020000D01*
X133533711Y-113020000D01*
X133489774Y-112976063D01*
X133320256Y-112862795D01*
X133131898Y-112784774D01*
X132931939Y-112745000D01*
X132728061Y-112745000D01*
X132528102Y-112784774D01*
X132339744Y-112862795D01*
X132170226Y-112976063D01*
X132026063Y-113120226D01*
X131912795Y-113289744D01*
X131834774Y-113478102D01*
X131795000Y-113678061D01*
X128483141Y-113678061D01*
X128493900Y-113662617D01*
X128452615Y-113548190D01*
X128489502Y-113479180D01*
X128525812Y-113359482D01*
X128538072Y-113235000D01*
X128538072Y-112165000D01*
X128525812Y-112040518D01*
X128489502Y-111920820D01*
X128430537Y-111810506D01*
X128351185Y-111713815D01*
X128254494Y-111634463D01*
X128144180Y-111575498D01*
X128024482Y-111539188D01*
X127900000Y-111526928D01*
X126100000Y-111526928D01*
X125975518Y-111539188D01*
X125855820Y-111575498D01*
X125745506Y-111634463D01*
X125648815Y-111713815D01*
X125569463Y-111810506D01*
X125510498Y-111920820D01*
X125474188Y-112040518D01*
X125461928Y-112165000D01*
X120685000Y-112165000D01*
X120685000Y-110058061D01*
X147765000Y-110058061D01*
X147765000Y-110261939D01*
X147804774Y-110461898D01*
X147882795Y-110650256D01*
X147996063Y-110819774D01*
X148140226Y-110963937D01*
X148309744Y-111077205D01*
X148498102Y-111155226D01*
X148698061Y-111195000D01*
X148901939Y-111195000D01*
X149101898Y-111155226D01*
X149290256Y-111077205D01*
X149459774Y-110963937D01*
X149603937Y-110819774D01*
X149717205Y-110650256D01*
X149795226Y-110461898D01*
X149835000Y-110261939D01*
X149835000Y-110058061D01*
X149795226Y-109858102D01*
X149717205Y-109669744D01*
X149603937Y-109500226D01*
X149459774Y-109356063D01*
X149290256Y-109242795D01*
X149101898Y-109164774D01*
X148901939Y-109125000D01*
X148698061Y-109125000D01*
X148498102Y-109164774D01*
X148309744Y-109242795D01*
X148140226Y-109356063D01*
X147996063Y-109500226D01*
X147882795Y-109669744D01*
X147804774Y-109858102D01*
X147765000Y-110058061D01*
X120685000Y-110058061D01*
X120685000Y-106210561D01*
X135735000Y-106210561D01*
X135735000Y-106414439D01*
X135774774Y-106614398D01*
X135852795Y-106802756D01*
X135966063Y-106972274D01*
X136110226Y-107116437D01*
X136279744Y-107229705D01*
X136468102Y-107307726D01*
X136668061Y-107347500D01*
X136871939Y-107347500D01*
X137071898Y-107307726D01*
X137260256Y-107229705D01*
X137429774Y-107116437D01*
X137573937Y-106972274D01*
X137687205Y-106802756D01*
X137765226Y-106614398D01*
X137805000Y-106414439D01*
X137805000Y-106210561D01*
X137765226Y-106010602D01*
X137687205Y-105822244D01*
X137573937Y-105652726D01*
X137429774Y-105508563D01*
X137260256Y-105395295D01*
X137071898Y-105317274D01*
X136871939Y-105277500D01*
X136668061Y-105277500D01*
X136468102Y-105317274D01*
X136279744Y-105395295D01*
X136110226Y-105508563D01*
X135966063Y-105652726D01*
X135852795Y-105822244D01*
X135774774Y-106010602D01*
X135735000Y-106210561D01*
X120685000Y-106210561D01*
X120685000Y-105250740D01*
X120706377Y-105268284D01*
X120903553Y-105373676D01*
X121117501Y-105438577D01*
X121284248Y-105455000D01*
X121995752Y-105455000D01*
X122162499Y-105438577D01*
X122376447Y-105373676D01*
X122573623Y-105268284D01*
X122746449Y-105126449D01*
X122888284Y-104953623D01*
X122993676Y-104756447D01*
X123058577Y-104542499D01*
X123080491Y-104320000D01*
X124129509Y-104320000D01*
X124151423Y-104542499D01*
X124216324Y-104756447D01*
X124321716Y-104953623D01*
X124463551Y-105126449D01*
X124636377Y-105268284D01*
X124833553Y-105373676D01*
X125047501Y-105438577D01*
X125214248Y-105455000D01*
X126425752Y-105455000D01*
X126592499Y-105438577D01*
X126806447Y-105373676D01*
X127003623Y-105268284D01*
X127176449Y-105126449D01*
X127318284Y-104953623D01*
X127423676Y-104756447D01*
X127488577Y-104542499D01*
X127492953Y-104498061D01*
X132445002Y-104498061D01*
X132445002Y-104701939D01*
X132484776Y-104901898D01*
X132562797Y-105090256D01*
X132676065Y-105259774D01*
X132820228Y-105403937D01*
X132989746Y-105517205D01*
X133178104Y-105595226D01*
X133378063Y-105635000D01*
X133581941Y-105635000D01*
X133781900Y-105595226D01*
X133970258Y-105517205D01*
X134139776Y-105403937D01*
X134283939Y-105259774D01*
X134397207Y-105090256D01*
X134475228Y-104901898D01*
X134515002Y-104701939D01*
X134515002Y-104498061D01*
X134475228Y-104298102D01*
X134397207Y-104109744D01*
X134389401Y-104098061D01*
X137665000Y-104098061D01*
X137665000Y-104301939D01*
X137704774Y-104501898D01*
X137782795Y-104690256D01*
X137896063Y-104859774D01*
X138040226Y-105003937D01*
X138209744Y-105117205D01*
X138398102Y-105195226D01*
X138598061Y-105235000D01*
X138801939Y-105235000D01*
X139001898Y-105195226D01*
X139190256Y-105117205D01*
X139200000Y-105110694D01*
X139209744Y-105117205D01*
X139398102Y-105195226D01*
X139598061Y-105235000D01*
X139801939Y-105235000D01*
X140001898Y-105195226D01*
X140190256Y-105117205D01*
X140200000Y-105110694D01*
X140209744Y-105117205D01*
X140398102Y-105195226D01*
X140598061Y-105235000D01*
X140801939Y-105235000D01*
X141001898Y-105195226D01*
X141190256Y-105117205D01*
X141200000Y-105110694D01*
X141209744Y-105117205D01*
X141398102Y-105195226D01*
X141598061Y-105235000D01*
X141801939Y-105235000D01*
X142001898Y-105195226D01*
X142190256Y-105117205D01*
X142200000Y-105110694D01*
X142209744Y-105117205D01*
X142398102Y-105195226D01*
X142598061Y-105235000D01*
X142801939Y-105235000D01*
X143001898Y-105195226D01*
X143190256Y-105117205D01*
X143225000Y-105093990D01*
X143259744Y-105117205D01*
X143448102Y-105195226D01*
X143648061Y-105235000D01*
X143851939Y-105235000D01*
X144051898Y-105195226D01*
X144240256Y-105117205D01*
X144409774Y-105003937D01*
X144553937Y-104859774D01*
X144575126Y-104828061D01*
X145875000Y-104828061D01*
X145875000Y-105031939D01*
X145914774Y-105231898D01*
X145992795Y-105420256D01*
X146106063Y-105589774D01*
X146250226Y-105733937D01*
X146419744Y-105847205D01*
X146608102Y-105925226D01*
X146808061Y-105965000D01*
X147011939Y-105965000D01*
X147211898Y-105925226D01*
X147400256Y-105847205D01*
X147569774Y-105733937D01*
X147713937Y-105589774D01*
X147827205Y-105420256D01*
X147905226Y-105231898D01*
X147945000Y-105031939D01*
X147945000Y-104828061D01*
X147905226Y-104628102D01*
X147827205Y-104439744D01*
X147713937Y-104270226D01*
X147569774Y-104126063D01*
X147400256Y-104012795D01*
X147211898Y-103934774D01*
X147011939Y-103895000D01*
X146808061Y-103895000D01*
X146608102Y-103934774D01*
X146419744Y-104012795D01*
X146250226Y-104126063D01*
X146106063Y-104270226D01*
X145992795Y-104439744D01*
X145914774Y-104628102D01*
X145875000Y-104828061D01*
X144575126Y-104828061D01*
X144667205Y-104690256D01*
X144745226Y-104501898D01*
X144785000Y-104301939D01*
X144785000Y-104098061D01*
X144745226Y-103898102D01*
X144667205Y-103709744D01*
X144553937Y-103540226D01*
X144409774Y-103396063D01*
X144240256Y-103282795D01*
X144051898Y-103204774D01*
X143851939Y-103165000D01*
X143648061Y-103165000D01*
X143448102Y-103204774D01*
X143259744Y-103282795D01*
X143225000Y-103306010D01*
X143190256Y-103282795D01*
X143001898Y-103204774D01*
X142801939Y-103165000D01*
X142598061Y-103165000D01*
X142398102Y-103204774D01*
X142209744Y-103282795D01*
X142200000Y-103289306D01*
X142190256Y-103282795D01*
X142001898Y-103204774D01*
X141801939Y-103165000D01*
X141598061Y-103165000D01*
X141398102Y-103204774D01*
X141209744Y-103282795D01*
X141200000Y-103289306D01*
X141190256Y-103282795D01*
X141001898Y-103204774D01*
X140801939Y-103165000D01*
X140598061Y-103165000D01*
X140398102Y-103204774D01*
X140209744Y-103282795D01*
X140200000Y-103289306D01*
X140190256Y-103282795D01*
X140001898Y-103204774D01*
X139801939Y-103165000D01*
X139598061Y-103165000D01*
X139398102Y-103204774D01*
X139209744Y-103282795D01*
X139200000Y-103289306D01*
X139190256Y-103282795D01*
X139001898Y-103204774D01*
X138801939Y-103165000D01*
X138598061Y-103165000D01*
X138398102Y-103204774D01*
X138209744Y-103282795D01*
X138040226Y-103396063D01*
X137896063Y-103540226D01*
X137782795Y-103709744D01*
X137704774Y-103898102D01*
X137665000Y-104098061D01*
X134389401Y-104098061D01*
X134283939Y-103940226D01*
X134139776Y-103796063D01*
X133970258Y-103682795D01*
X133781900Y-103604774D01*
X133581941Y-103565000D01*
X133378063Y-103565000D01*
X133178104Y-103604774D01*
X132989746Y-103682795D01*
X132820228Y-103796063D01*
X132676065Y-103940226D01*
X132562797Y-104109744D01*
X132484776Y-104298102D01*
X132445002Y-104498061D01*
X127492953Y-104498061D01*
X127510491Y-104320000D01*
X127488577Y-104097501D01*
X127423676Y-103883553D01*
X127318284Y-103686377D01*
X127176449Y-103513551D01*
X127003623Y-103371716D01*
X126806447Y-103266324D01*
X126592499Y-103201423D01*
X126425752Y-103185000D01*
X126206904Y-103185000D01*
X126213108Y-103170022D01*
X126250000Y-102984552D01*
X126250000Y-102795448D01*
X126213108Y-102609978D01*
X126140741Y-102435269D01*
X126035681Y-102278036D01*
X125901964Y-102144319D01*
X125744731Y-102039259D01*
X125570022Y-101966892D01*
X125384552Y-101930000D01*
X125195448Y-101930000D01*
X125009978Y-101966892D01*
X124835269Y-102039259D01*
X124678036Y-102144319D01*
X124544319Y-102278036D01*
X124439259Y-102435269D01*
X124366892Y-102609978D01*
X124330000Y-102795448D01*
X124330000Y-102984552D01*
X124366892Y-103170022D01*
X124439259Y-103344731D01*
X124520715Y-103466638D01*
X124463551Y-103513551D01*
X124321716Y-103686377D01*
X124216324Y-103883553D01*
X124151423Y-104097501D01*
X124129509Y-104320000D01*
X123080491Y-104320000D01*
X123058577Y-104097501D01*
X122993676Y-103883553D01*
X122888284Y-103686377D01*
X122746449Y-103513551D01*
X122573623Y-103371716D01*
X122376447Y-103266324D01*
X122162499Y-103201423D01*
X121995752Y-103185000D01*
X121284248Y-103185000D01*
X121117501Y-103201423D01*
X120903553Y-103266324D01*
X120706377Y-103371716D01*
X120685000Y-103389260D01*
X120685000Y-99898061D01*
X123265000Y-99898061D01*
X123265000Y-100101939D01*
X123304774Y-100301898D01*
X123382795Y-100490256D01*
X123496063Y-100659774D01*
X123640226Y-100803937D01*
X123809744Y-100917205D01*
X123998102Y-100995226D01*
X124198061Y-101035000D01*
X124401939Y-101035000D01*
X124601898Y-100995226D01*
X124790256Y-100917205D01*
X124959774Y-100803937D01*
X125103937Y-100659774D01*
X125217205Y-100490256D01*
X125295226Y-100301898D01*
X125335000Y-100101939D01*
X125335000Y-99898061D01*
X129035000Y-99898061D01*
X129035000Y-100101939D01*
X129074774Y-100301898D01*
X129152795Y-100490256D01*
X129266063Y-100659774D01*
X129410226Y-100803937D01*
X129579744Y-100917205D01*
X129768102Y-100995226D01*
X129968061Y-101035000D01*
X130171939Y-101035000D01*
X130371898Y-100995226D01*
X130560256Y-100917205D01*
X130729774Y-100803937D01*
X130873937Y-100659774D01*
X130987205Y-100490256D01*
X131065226Y-100301898D01*
X131105000Y-100101939D01*
X131105000Y-99898061D01*
X131065226Y-99698102D01*
X130987205Y-99509744D01*
X130873937Y-99340226D01*
X130729774Y-99196063D01*
X130560256Y-99082795D01*
X130371898Y-99004774D01*
X130171939Y-98965000D01*
X129968061Y-98965000D01*
X129768102Y-99004774D01*
X129579744Y-99082795D01*
X129410226Y-99196063D01*
X129266063Y-99340226D01*
X129152795Y-99509744D01*
X129074774Y-99698102D01*
X129035000Y-99898061D01*
X125335000Y-99898061D01*
X125295226Y-99698102D01*
X125217205Y-99509744D01*
X125103937Y-99340226D01*
X124959774Y-99196063D01*
X124790256Y-99082795D01*
X124601898Y-99004774D01*
X124401939Y-98965000D01*
X124198061Y-98965000D01*
X123998102Y-99004774D01*
X123809744Y-99082795D01*
X123640226Y-99196063D01*
X123496063Y-99340226D01*
X123382795Y-99509744D01*
X123304774Y-99698102D01*
X123265000Y-99898061D01*
X120685000Y-99898061D01*
X120685000Y-96610740D01*
X120706377Y-96628284D01*
X120903553Y-96733676D01*
X121117501Y-96798577D01*
X121284248Y-96815000D01*
X121995752Y-96815000D01*
X122162499Y-96798577D01*
X122376447Y-96733676D01*
X122573623Y-96628284D01*
X122746449Y-96486449D01*
X122888284Y-96313623D01*
X122993676Y-96116447D01*
X123058577Y-95902499D01*
X123080491Y-95680000D01*
X124129509Y-95680000D01*
X124151423Y-95902499D01*
X124216324Y-96116447D01*
X124321716Y-96313623D01*
X124463551Y-96486449D01*
X124520715Y-96533362D01*
X124439259Y-96655269D01*
X124366892Y-96829978D01*
X124330000Y-97015448D01*
X124330000Y-97204552D01*
X124366892Y-97390022D01*
X124439259Y-97564731D01*
X124544319Y-97721964D01*
X124678036Y-97855681D01*
X124835269Y-97960741D01*
X125009978Y-98033108D01*
X125195448Y-98070000D01*
X125384552Y-98070000D01*
X125570022Y-98033108D01*
X125744731Y-97960741D01*
X125901964Y-97855681D01*
X126035681Y-97721964D01*
X126140741Y-97564731D01*
X126213108Y-97390022D01*
X126250000Y-97204552D01*
X126250000Y-97015448D01*
X126213108Y-96829978D01*
X126206904Y-96815000D01*
X126425752Y-96815000D01*
X126592499Y-96798577D01*
X126806447Y-96733676D01*
X127003623Y-96628284D01*
X127176449Y-96486449D01*
X127318284Y-96313623D01*
X127423676Y-96116447D01*
X127488577Y-95902499D01*
X127510491Y-95680000D01*
X127488577Y-95457501D01*
X127423676Y-95243553D01*
X127318284Y-95046377D01*
X127245805Y-94958061D01*
X136035000Y-94958061D01*
X136035000Y-95161939D01*
X136074774Y-95361898D01*
X136152795Y-95550256D01*
X136266063Y-95719774D01*
X136410226Y-95863937D01*
X136579744Y-95977205D01*
X136768102Y-96055226D01*
X136968061Y-96095000D01*
X137171939Y-96095000D01*
X137371898Y-96055226D01*
X137560256Y-95977205D01*
X137729774Y-95863937D01*
X137873937Y-95719774D01*
X137888445Y-95698061D01*
X139765000Y-95698061D01*
X139765000Y-95901939D01*
X139804774Y-96101898D01*
X139882795Y-96290256D01*
X139996063Y-96459774D01*
X140140226Y-96603937D01*
X140309744Y-96717205D01*
X140498102Y-96795226D01*
X140698061Y-96835000D01*
X140901939Y-96835000D01*
X141101898Y-96795226D01*
X141290256Y-96717205D01*
X141300000Y-96710694D01*
X141309744Y-96717205D01*
X141498102Y-96795226D01*
X141698061Y-96835000D01*
X141901939Y-96835000D01*
X142101898Y-96795226D01*
X142290256Y-96717205D01*
X142300006Y-96710690D01*
X142309757Y-96717205D01*
X142498115Y-96795226D01*
X142698074Y-96835000D01*
X142901952Y-96835000D01*
X143101911Y-96795226D01*
X143290269Y-96717205D01*
X143300013Y-96710694D01*
X143309757Y-96717205D01*
X143498115Y-96795226D01*
X143698074Y-96835000D01*
X143901952Y-96835000D01*
X144101911Y-96795226D01*
X144290269Y-96717205D01*
X144459787Y-96603937D01*
X144603950Y-96459774D01*
X144717218Y-96290256D01*
X144795239Y-96101898D01*
X144801969Y-96068061D01*
X148415000Y-96068061D01*
X148415000Y-96271939D01*
X148454774Y-96471898D01*
X148532795Y-96660256D01*
X148646063Y-96829774D01*
X148790226Y-96973937D01*
X148959744Y-97087205D01*
X149148102Y-97165226D01*
X149348061Y-97205000D01*
X149551939Y-97205000D01*
X149751898Y-97165226D01*
X149940256Y-97087205D01*
X150109774Y-96973937D01*
X150253937Y-96829774D01*
X150367205Y-96660256D01*
X150445226Y-96471898D01*
X150485000Y-96271939D01*
X150485000Y-96068061D01*
X150445226Y-95868102D01*
X150367205Y-95679744D01*
X150253937Y-95510226D01*
X150109774Y-95366063D01*
X149940256Y-95252795D01*
X149751898Y-95174774D01*
X149551939Y-95135000D01*
X149348061Y-95135000D01*
X149148102Y-95174774D01*
X148959744Y-95252795D01*
X148790226Y-95366063D01*
X148646063Y-95510226D01*
X148532795Y-95679744D01*
X148454774Y-95868102D01*
X148415000Y-96068061D01*
X144801969Y-96068061D01*
X144835013Y-95901939D01*
X144835013Y-95698061D01*
X144795239Y-95498102D01*
X144717218Y-95309744D01*
X144603950Y-95140226D01*
X144459787Y-94996063D01*
X144290269Y-94882795D01*
X144101911Y-94804774D01*
X143901952Y-94765000D01*
X143698074Y-94765000D01*
X143498115Y-94804774D01*
X143309757Y-94882795D01*
X143300013Y-94889306D01*
X143290269Y-94882795D01*
X143101911Y-94804774D01*
X142901952Y-94765000D01*
X142698074Y-94765000D01*
X142498115Y-94804774D01*
X142309757Y-94882795D01*
X142300006Y-94889310D01*
X142290256Y-94882795D01*
X142101898Y-94804774D01*
X141901939Y-94765000D01*
X141698061Y-94765000D01*
X141498102Y-94804774D01*
X141309744Y-94882795D01*
X141300000Y-94889306D01*
X141290256Y-94882795D01*
X141101898Y-94804774D01*
X140901939Y-94765000D01*
X140698061Y-94765000D01*
X140498102Y-94804774D01*
X140309744Y-94882795D01*
X140140226Y-94996063D01*
X139996063Y-95140226D01*
X139882795Y-95309744D01*
X139804774Y-95498102D01*
X139765000Y-95698061D01*
X137888445Y-95698061D01*
X137987205Y-95550256D01*
X138065226Y-95361898D01*
X138105000Y-95161939D01*
X138105000Y-94958061D01*
X138065226Y-94758102D01*
X137987205Y-94569744D01*
X137873937Y-94400226D01*
X137729774Y-94256063D01*
X137560256Y-94142795D01*
X137371898Y-94064774D01*
X137171939Y-94025000D01*
X136968061Y-94025000D01*
X136768102Y-94064774D01*
X136579744Y-94142795D01*
X136410226Y-94256063D01*
X136266063Y-94400226D01*
X136152795Y-94569744D01*
X136074774Y-94758102D01*
X136035000Y-94958061D01*
X127245805Y-94958061D01*
X127176449Y-94873551D01*
X127003623Y-94731716D01*
X126806447Y-94626324D01*
X126592499Y-94561423D01*
X126425752Y-94545000D01*
X125214248Y-94545000D01*
X125047501Y-94561423D01*
X124833553Y-94626324D01*
X124636377Y-94731716D01*
X124463551Y-94873551D01*
X124321716Y-95046377D01*
X124216324Y-95243553D01*
X124151423Y-95457501D01*
X124129509Y-95680000D01*
X123080491Y-95680000D01*
X123058577Y-95457501D01*
X122993676Y-95243553D01*
X122888284Y-95046377D01*
X122746449Y-94873551D01*
X122573623Y-94731716D01*
X122376447Y-94626324D01*
X122162499Y-94561423D01*
X121995752Y-94545000D01*
X121284248Y-94545000D01*
X121117501Y-94561423D01*
X120903553Y-94626324D01*
X120706377Y-94731716D01*
X120685000Y-94749260D01*
X120685000Y-91068061D01*
X124855000Y-91068061D01*
X124855000Y-91271939D01*
X124894774Y-91471898D01*
X124972795Y-91660256D01*
X125086063Y-91829774D01*
X125161289Y-91905000D01*
X125096063Y-91970226D01*
X124982795Y-92139744D01*
X124904774Y-92328102D01*
X124865000Y-92528061D01*
X124865000Y-92731939D01*
X124904774Y-92931898D01*
X124982795Y-93120256D01*
X125096063Y-93289774D01*
X125240226Y-93433937D01*
X125409744Y-93547205D01*
X125598102Y-93625226D01*
X125798061Y-93665000D01*
X126001939Y-93665000D01*
X126201898Y-93625226D01*
X126390256Y-93547205D01*
X126559774Y-93433937D01*
X126703937Y-93289774D01*
X126817205Y-93120256D01*
X126895226Y-92931898D01*
X126935000Y-92731939D01*
X126935000Y-92528061D01*
X126895226Y-92328102D01*
X126817205Y-92139744D01*
X126703937Y-91970226D01*
X126628711Y-91895000D01*
X126693937Y-91829774D01*
X126807205Y-91660256D01*
X126885226Y-91471898D01*
X126909858Y-91348061D01*
X143985000Y-91348061D01*
X143985000Y-91551939D01*
X144024774Y-91751898D01*
X144102795Y-91940256D01*
X144216063Y-92109774D01*
X144360226Y-92253937D01*
X144529744Y-92367205D01*
X144718102Y-92445226D01*
X144918061Y-92485000D01*
X145121939Y-92485000D01*
X145321898Y-92445226D01*
X145510256Y-92367205D01*
X145679774Y-92253937D01*
X145823937Y-92109774D01*
X145937205Y-91940256D01*
X146015226Y-91751898D01*
X146055000Y-91551939D01*
X146055000Y-91348061D01*
X146015226Y-91148102D01*
X145937205Y-90959744D01*
X145823937Y-90790226D01*
X145679774Y-90646063D01*
X145510256Y-90532795D01*
X145321898Y-90454774D01*
X145121939Y-90415000D01*
X144918061Y-90415000D01*
X144718102Y-90454774D01*
X144529744Y-90532795D01*
X144360226Y-90646063D01*
X144216063Y-90790226D01*
X144102795Y-90959744D01*
X144024774Y-91148102D01*
X143985000Y-91348061D01*
X126909858Y-91348061D01*
X126925000Y-91271939D01*
X126925000Y-91068061D01*
X126885226Y-90868102D01*
X126807205Y-90679744D01*
X126693937Y-90510226D01*
X126549774Y-90366063D01*
X126380256Y-90252795D01*
X126191898Y-90174774D01*
X125991939Y-90135000D01*
X125788061Y-90135000D01*
X125588102Y-90174774D01*
X125399744Y-90252795D01*
X125230226Y-90366063D01*
X125086063Y-90510226D01*
X124972795Y-90679744D01*
X124894774Y-90868102D01*
X124855000Y-91068061D01*
X120685000Y-91068061D01*
X120685000Y-86040000D01*
X125459339Y-86040000D01*
X125481929Y-86269360D01*
X125548831Y-86489906D01*
X125647766Y-86675000D01*
X125548831Y-86860094D01*
X125481929Y-87080640D01*
X125459339Y-87310000D01*
X125481929Y-87539360D01*
X125548831Y-87759906D01*
X125657474Y-87963162D01*
X125803682Y-88141318D01*
X125981838Y-88287526D01*
X126185094Y-88396169D01*
X126405640Y-88463071D01*
X126577523Y-88480000D01*
X127422477Y-88480000D01*
X127594360Y-88463071D01*
X127814906Y-88396169D01*
X128018162Y-88287526D01*
X128196318Y-88141318D01*
X128342526Y-87963162D01*
X128451169Y-87759906D01*
X128518071Y-87539360D01*
X128521153Y-87508061D01*
X128885000Y-87508061D01*
X128885000Y-87711939D01*
X128924774Y-87911898D01*
X129002795Y-88100256D01*
X129116063Y-88269774D01*
X129260226Y-88413937D01*
X129429744Y-88527205D01*
X129618102Y-88605226D01*
X129818061Y-88645000D01*
X130021939Y-88645000D01*
X130221898Y-88605226D01*
X130410256Y-88527205D01*
X130579774Y-88413937D01*
X130723937Y-88269774D01*
X130837205Y-88100256D01*
X130915226Y-87911898D01*
X130955000Y-87711939D01*
X130955000Y-87508061D01*
X130915226Y-87308102D01*
X130837205Y-87119744D01*
X130723937Y-86950226D01*
X130579774Y-86806063D01*
X130410256Y-86692795D01*
X130221898Y-86614774D01*
X130021939Y-86575000D01*
X129818061Y-86575000D01*
X129618102Y-86614774D01*
X129429744Y-86692795D01*
X129260226Y-86806063D01*
X129116063Y-86950226D01*
X129002795Y-87119744D01*
X128924774Y-87308102D01*
X128885000Y-87508061D01*
X128521153Y-87508061D01*
X128540661Y-87310000D01*
X128518071Y-87080640D01*
X128451169Y-86860094D01*
X128352234Y-86675000D01*
X128451169Y-86489906D01*
X128518071Y-86269360D01*
X128540661Y-86040000D01*
X128518071Y-85810640D01*
X128451169Y-85590094D01*
X128350846Y-85402404D01*
X128408377Y-85314421D01*
X128493900Y-85077383D01*
X128368244Y-84897000D01*
X127627560Y-84897000D01*
X127594360Y-84886929D01*
X127422477Y-84870000D01*
X126577523Y-84870000D01*
X126405640Y-84886929D01*
X126372440Y-84897000D01*
X125631756Y-84897000D01*
X125506100Y-85077383D01*
X125591623Y-85314421D01*
X125649154Y-85402404D01*
X125548831Y-85590094D01*
X125481929Y-85810640D01*
X125459339Y-86040000D01*
X120685000Y-86040000D01*
X120685000Y-82965000D01*
X125461928Y-82965000D01*
X125461928Y-84035000D01*
X125474188Y-84159482D01*
X125510498Y-84279180D01*
X125547385Y-84348190D01*
X125506100Y-84462617D01*
X125631756Y-84643000D01*
X125916800Y-84643000D01*
X125975518Y-84660812D01*
X126100000Y-84673072D01*
X127900000Y-84673072D01*
X128024482Y-84660812D01*
X128083200Y-84643000D01*
X128368244Y-84643000D01*
X128462243Y-84508061D01*
X128895000Y-84508061D01*
X128895000Y-84711939D01*
X128934774Y-84911898D01*
X129012795Y-85100256D01*
X129126063Y-85269774D01*
X129270226Y-85413937D01*
X129439744Y-85527205D01*
X129628102Y-85605226D01*
X129828061Y-85645000D01*
X130031939Y-85645000D01*
X130231898Y-85605226D01*
X130420256Y-85527205D01*
X130589774Y-85413937D01*
X130733937Y-85269774D01*
X130847205Y-85100256D01*
X130925226Y-84911898D01*
X130965000Y-84711939D01*
X130965000Y-84508061D01*
X130925226Y-84308102D01*
X130847205Y-84119744D01*
X130733937Y-83950226D01*
X130589774Y-83806063D01*
X130420256Y-83692795D01*
X130231898Y-83614774D01*
X130031939Y-83575000D01*
X129828061Y-83575000D01*
X129628102Y-83614774D01*
X129439744Y-83692795D01*
X129270226Y-83806063D01*
X129126063Y-83950226D01*
X129012795Y-84119744D01*
X128934774Y-84308102D01*
X128895000Y-84508061D01*
X128462243Y-84508061D01*
X128493900Y-84462617D01*
X128452615Y-84348190D01*
X128489502Y-84279180D01*
X128525812Y-84159482D01*
X128538072Y-84035000D01*
X128538072Y-82965000D01*
X128525812Y-82840518D01*
X128489502Y-82720820D01*
X128430537Y-82610506D01*
X128351185Y-82513815D01*
X128254494Y-82434463D01*
X128144180Y-82375498D01*
X128024482Y-82339188D01*
X127900000Y-82326928D01*
X126100000Y-82326928D01*
X125975518Y-82339188D01*
X125855820Y-82375498D01*
X125745506Y-82434463D01*
X125648815Y-82513815D01*
X125569463Y-82610506D01*
X125510498Y-82720820D01*
X125474188Y-82840518D01*
X125461928Y-82965000D01*
X120685000Y-82965000D01*
X120685000Y-81518061D01*
X128895000Y-81518061D01*
X128895000Y-81721939D01*
X128934774Y-81921898D01*
X129012795Y-82110256D01*
X129126063Y-82279774D01*
X129270226Y-82423937D01*
X129439744Y-82537205D01*
X129628102Y-82615226D01*
X129828061Y-82655000D01*
X130031939Y-82655000D01*
X130231898Y-82615226D01*
X130420256Y-82537205D01*
X130589774Y-82423937D01*
X130733937Y-82279774D01*
X130847205Y-82110256D01*
X130925226Y-81921898D01*
X130965000Y-81721939D01*
X130965000Y-81518061D01*
X130925226Y-81318102D01*
X130847205Y-81129744D01*
X130733937Y-80960226D01*
X130589774Y-80816063D01*
X130420256Y-80702795D01*
X130231898Y-80624774D01*
X130031939Y-80585000D01*
X129828061Y-80585000D01*
X129628102Y-80624774D01*
X129439744Y-80702795D01*
X129270226Y-80816063D01*
X129126063Y-80960226D01*
X129012795Y-81129744D01*
X128934774Y-81318102D01*
X128895000Y-81518061D01*
X120685000Y-81518061D01*
X120685000Y-79533740D01*
X133555000Y-79533740D01*
X133555000Y-79826260D01*
X133612068Y-80113158D01*
X133724010Y-80383411D01*
X133886525Y-80626632D01*
X134093368Y-80833475D01*
X134267760Y-80950000D01*
X134093368Y-81066525D01*
X133886525Y-81273368D01*
X133724010Y-81516589D01*
X133612068Y-81786842D01*
X133555000Y-82073740D01*
X133555000Y-82366260D01*
X133612068Y-82653158D01*
X133724010Y-82923411D01*
X133886525Y-83166632D01*
X134093368Y-83373475D01*
X134267760Y-83490000D01*
X134093368Y-83606525D01*
X133886525Y-83813368D01*
X133724010Y-84056589D01*
X133612068Y-84326842D01*
X133555000Y-84613740D01*
X133555000Y-84906260D01*
X133612068Y-85193158D01*
X133724010Y-85463411D01*
X133886525Y-85706632D01*
X134093368Y-85913475D01*
X134336589Y-86075990D01*
X134606842Y-86187932D01*
X134893740Y-86245000D01*
X135186260Y-86245000D01*
X135473158Y-86187932D01*
X135743411Y-86075990D01*
X135986632Y-85913475D01*
X136193475Y-85706632D01*
X136310000Y-85532240D01*
X136426525Y-85706632D01*
X136633368Y-85913475D01*
X136876589Y-86075990D01*
X137146842Y-86187932D01*
X137433740Y-86245000D01*
X137726260Y-86245000D01*
X138013158Y-86187932D01*
X138283411Y-86075990D01*
X138526632Y-85913475D01*
X138733475Y-85706632D01*
X138850000Y-85532240D01*
X138966525Y-85706632D01*
X139173368Y-85913475D01*
X139416589Y-86075990D01*
X139686842Y-86187932D01*
X139973740Y-86245000D01*
X140266260Y-86245000D01*
X140553158Y-86187932D01*
X140823411Y-86075990D01*
X141066632Y-85913475D01*
X141273475Y-85706632D01*
X141390000Y-85532240D01*
X141506525Y-85706632D01*
X141713368Y-85913475D01*
X141956589Y-86075990D01*
X142226842Y-86187932D01*
X142513740Y-86245000D01*
X142806260Y-86245000D01*
X143093158Y-86187932D01*
X143363411Y-86075990D01*
X143606632Y-85913475D01*
X143813475Y-85706632D01*
X143930000Y-85532240D01*
X144046525Y-85706632D01*
X144253368Y-85913475D01*
X144496589Y-86075990D01*
X144766842Y-86187932D01*
X145053740Y-86245000D01*
X145346260Y-86245000D01*
X145633158Y-86187932D01*
X145903411Y-86075990D01*
X146146632Y-85913475D01*
X146353475Y-85706632D01*
X146470000Y-85532240D01*
X146586525Y-85706632D01*
X146793368Y-85913475D01*
X147036589Y-86075990D01*
X147306842Y-86187932D01*
X147593740Y-86245000D01*
X147886260Y-86245000D01*
X148173158Y-86187932D01*
X148443411Y-86075990D01*
X148686632Y-85913475D01*
X148893475Y-85706632D01*
X149010000Y-85532240D01*
X149126525Y-85706632D01*
X149333368Y-85913475D01*
X149576589Y-86075990D01*
X149846842Y-86187932D01*
X150133740Y-86245000D01*
X150426260Y-86245000D01*
X150713158Y-86187932D01*
X150983411Y-86075990D01*
X151226632Y-85913475D01*
X151433475Y-85706632D01*
X151550000Y-85532240D01*
X151666525Y-85706632D01*
X151873368Y-85913475D01*
X152116589Y-86075990D01*
X152386842Y-86187932D01*
X152673740Y-86245000D01*
X152966260Y-86245000D01*
X153253158Y-86187932D01*
X153523411Y-86075990D01*
X153766632Y-85913475D01*
X153973475Y-85706632D01*
X154090000Y-85532240D01*
X154206525Y-85706632D01*
X154413368Y-85913475D01*
X154656589Y-86075990D01*
X154926842Y-86187932D01*
X155213740Y-86245000D01*
X155506260Y-86245000D01*
X155793158Y-86187932D01*
X156063411Y-86075990D01*
X156306632Y-85913475D01*
X156513475Y-85706632D01*
X156629311Y-85533271D01*
X156871603Y-85608792D01*
X157720395Y-84760000D01*
X156871603Y-83911208D01*
X156629311Y-83986729D01*
X156513475Y-83813368D01*
X156306632Y-83606525D01*
X156132240Y-83490000D01*
X156306632Y-83373475D01*
X156431710Y-83248397D01*
X157051208Y-83248397D01*
X157126514Y-83490000D01*
X157051208Y-83731603D01*
X157900000Y-84580395D01*
X158748792Y-83731603D01*
X158673486Y-83490000D01*
X158748792Y-83248397D01*
X157900000Y-82399605D01*
X157051208Y-83248397D01*
X156431710Y-83248397D01*
X156513475Y-83166632D01*
X156629311Y-82993271D01*
X156871603Y-83068792D01*
X157720395Y-82220000D01*
X156871603Y-81371208D01*
X156629311Y-81446729D01*
X156513475Y-81273368D01*
X156306632Y-81066525D01*
X156133271Y-80950689D01*
X156208792Y-80708397D01*
X157051208Y-80708397D01*
X157126514Y-80950000D01*
X157051208Y-81191603D01*
X157900000Y-82040395D01*
X158748792Y-81191603D01*
X158673486Y-80950000D01*
X158748792Y-80708397D01*
X157900000Y-79859605D01*
X157051208Y-80708397D01*
X156208792Y-80708397D01*
X155360000Y-79859605D01*
X154511208Y-80708397D01*
X154586729Y-80950689D01*
X154413368Y-81066525D01*
X154206525Y-81273368D01*
X154090000Y-81447760D01*
X153973475Y-81273368D01*
X153766632Y-81066525D01*
X153592240Y-80950000D01*
X153766632Y-80833475D01*
X153973475Y-80626632D01*
X154089311Y-80453271D01*
X154331603Y-80528792D01*
X155180395Y-79680000D01*
X155539605Y-79680000D01*
X156388397Y-80528792D01*
X156630000Y-80453486D01*
X156871603Y-80528792D01*
X157720395Y-79680000D01*
X156871603Y-78831208D01*
X156630000Y-78906514D01*
X156388397Y-78831208D01*
X155539605Y-79680000D01*
X155180395Y-79680000D01*
X154331603Y-78831208D01*
X154089311Y-78906729D01*
X153973475Y-78733368D01*
X153891710Y-78651603D01*
X154511208Y-78651603D01*
X155360000Y-79500395D01*
X156208792Y-78651603D01*
X157051208Y-78651603D01*
X157900000Y-79500395D01*
X158748792Y-78651603D01*
X158671157Y-78402528D01*
X158407117Y-78276629D01*
X158123589Y-78204661D01*
X157831469Y-78189389D01*
X157541981Y-78231401D01*
X157266253Y-78329081D01*
X157128843Y-78402528D01*
X157051208Y-78651603D01*
X156208792Y-78651603D01*
X156131157Y-78402528D01*
X155867117Y-78276629D01*
X155583589Y-78204661D01*
X155291469Y-78189389D01*
X155001981Y-78231401D01*
X154726253Y-78329081D01*
X154588843Y-78402528D01*
X154511208Y-78651603D01*
X153891710Y-78651603D01*
X153766632Y-78526525D01*
X153523411Y-78364010D01*
X153253158Y-78252068D01*
X152966260Y-78195000D01*
X152673740Y-78195000D01*
X152386842Y-78252068D01*
X152116589Y-78364010D01*
X151873368Y-78526525D01*
X151666525Y-78733368D01*
X151550000Y-78907760D01*
X151433475Y-78733368D01*
X151226632Y-78526525D01*
X150983411Y-78364010D01*
X150713158Y-78252068D01*
X150426260Y-78195000D01*
X150133740Y-78195000D01*
X149846842Y-78252068D01*
X149576589Y-78364010D01*
X149333368Y-78526525D01*
X149126525Y-78733368D01*
X149010000Y-78907760D01*
X148893475Y-78733368D01*
X148686632Y-78526525D01*
X148443411Y-78364010D01*
X148173158Y-78252068D01*
X147886260Y-78195000D01*
X147593740Y-78195000D01*
X147306842Y-78252068D01*
X147036589Y-78364010D01*
X146793368Y-78526525D01*
X146586525Y-78733368D01*
X146470000Y-78907760D01*
X146353475Y-78733368D01*
X146146632Y-78526525D01*
X145903411Y-78364010D01*
X145633158Y-78252068D01*
X145346260Y-78195000D01*
X145053740Y-78195000D01*
X144766842Y-78252068D01*
X144496589Y-78364010D01*
X144253368Y-78526525D01*
X144046525Y-78733368D01*
X143930000Y-78907760D01*
X143813475Y-78733368D01*
X143606632Y-78526525D01*
X143363411Y-78364010D01*
X143093158Y-78252068D01*
X142806260Y-78195000D01*
X142513740Y-78195000D01*
X142226842Y-78252068D01*
X141956589Y-78364010D01*
X141713368Y-78526525D01*
X141506525Y-78733368D01*
X141390000Y-78907760D01*
X141273475Y-78733368D01*
X141066632Y-78526525D01*
X140823411Y-78364010D01*
X140553158Y-78252068D01*
X140266260Y-78195000D01*
X139973740Y-78195000D01*
X139686842Y-78252068D01*
X139416589Y-78364010D01*
X139173368Y-78526525D01*
X138966525Y-78733368D01*
X138850000Y-78907760D01*
X138733475Y-78733368D01*
X138526632Y-78526525D01*
X138283411Y-78364010D01*
X138013158Y-78252068D01*
X137726260Y-78195000D01*
X137433740Y-78195000D01*
X137146842Y-78252068D01*
X136876589Y-78364010D01*
X136633368Y-78526525D01*
X136426525Y-78733368D01*
X136310000Y-78907760D01*
X136193475Y-78733368D01*
X135986632Y-78526525D01*
X135743411Y-78364010D01*
X135473158Y-78252068D01*
X135186260Y-78195000D01*
X134893740Y-78195000D01*
X134606842Y-78252068D01*
X134336589Y-78364010D01*
X134093368Y-78526525D01*
X133886525Y-78733368D01*
X133724010Y-78976589D01*
X133612068Y-79246842D01*
X133555000Y-79533740D01*
X120685000Y-79533740D01*
X120685000Y-79033504D01*
X120722789Y-78648103D01*
X120824987Y-78309607D01*
X120990984Y-77997412D01*
X121214460Y-77723403D01*
X121486902Y-77498020D01*
X121797931Y-77329847D01*
X122135708Y-77225288D01*
X122519022Y-77185000D01*
X197466496Y-77185000D01*
X197851897Y-77222789D01*
G37*
G04 #@! TD.AperFunction*
M02*
