G04 #@! TF.GenerationSoftware,KiCad,Pcbnew,5.1.9-73d0e3b20d~88~ubuntu20.04.1*
G04 #@! TF.CreationDate,2021-05-24T14:30:18+02:00*
G04 #@! TF.ProjectId,krieger,6b726965-6765-4722-9e6b-696361645f70,v2.0*
G04 #@! TF.SameCoordinates,Original*
G04 #@! TF.FileFunction,Copper,L1,Top*
G04 #@! TF.FilePolarity,Positive*
%FSLAX46Y46*%
G04 Gerber Fmt 4.6, Leading zero omitted, Abs format (unit mm)*
G04 Created by KiCad (PCBNEW 5.1.9-73d0e3b20d~88~ubuntu20.04.1) date 2021-05-24 14:30:18*
%MOMM*%
%LPD*%
G01*
G04 APERTURE LIST*
G04 #@! TA.AperFunction,ComponentPad*
%ADD10C,1.700000*%
G04 #@! TD*
G04 #@! TA.AperFunction,ComponentPad*
%ADD11O,1.600000X1.000000*%
G04 #@! TD*
G04 #@! TA.AperFunction,ComponentPad*
%ADD12O,2.100000X1.000000*%
G04 #@! TD*
G04 #@! TA.AperFunction,SMDPad,CuDef*
%ADD13R,1.450000X0.300000*%
G04 #@! TD*
G04 #@! TA.AperFunction,SMDPad,CuDef*
%ADD14R,1.450000X0.600000*%
G04 #@! TD*
G04 #@! TA.AperFunction,SMDPad,CuDef*
%ADD15R,1.060000X0.650000*%
G04 #@! TD*
G04 #@! TA.AperFunction,ComponentPad*
%ADD16O,1.800000X1.070000*%
G04 #@! TD*
G04 #@! TA.AperFunction,ComponentPad*
%ADD17R,1.800000X1.070000*%
G04 #@! TD*
G04 #@! TA.AperFunction,SMDPad,CuDef*
%ADD18R,2.400000X2.000000*%
G04 #@! TD*
G04 #@! TA.AperFunction,SMDPad,CuDef*
%ADD19R,1.000000X1.000000*%
G04 #@! TD*
G04 #@! TA.AperFunction,SMDPad,CuDef*
%ADD20R,1.500000X2.000000*%
G04 #@! TD*
G04 #@! TA.AperFunction,ViaPad*
%ADD21C,0.800000*%
G04 #@! TD*
G04 #@! TA.AperFunction,Conductor*
%ADD22C,0.250000*%
G04 #@! TD*
G04 #@! TA.AperFunction,Conductor*
%ADD23C,0.500000*%
G04 #@! TD*
G04 #@! TA.AperFunction,Conductor*
%ADD24C,0.300000*%
G04 #@! TD*
G04 #@! TA.AperFunction,Conductor*
%ADD25C,0.450000*%
G04 #@! TD*
G04 #@! TA.AperFunction,Conductor*
%ADD26C,0.400000*%
G04 #@! TD*
G04 APERTURE END LIST*
D10*
X155360000Y-79680000D03*
X152820000Y-79680000D03*
X150280000Y-79680000D03*
X147740000Y-79680000D03*
X145200000Y-79680000D03*
X142660000Y-79680000D03*
X140120000Y-79680000D03*
X137580000Y-79680000D03*
X135040000Y-79680000D03*
X155360000Y-82220000D03*
X152820000Y-82220000D03*
X150280000Y-82220000D03*
X147740000Y-82220000D03*
X145200000Y-82220000D03*
X142660000Y-82220000D03*
X140120000Y-82220000D03*
X137580000Y-82220000D03*
X135040000Y-82220000D03*
X155360000Y-84760000D03*
X152820000Y-84760000D03*
X150280000Y-84760000D03*
X147740000Y-84760000D03*
X145200000Y-84760000D03*
X142660000Y-84760000D03*
X140120000Y-84760000D03*
X137580000Y-84760000D03*
X135040000Y-84760000D03*
X155360000Y-115240000D03*
X152820000Y-115240000D03*
X150280000Y-115240000D03*
X147740000Y-115240000D03*
X145200000Y-115240000D03*
X142660000Y-115240000D03*
X140120000Y-115240000D03*
X137580000Y-115240000D03*
X135040000Y-115240000D03*
X155360000Y-117780000D03*
X152820000Y-117780000D03*
X150280000Y-117780000D03*
X147740000Y-117780000D03*
X145200000Y-117780000D03*
X142660000Y-117780000D03*
X140120000Y-117780000D03*
X137580000Y-117780000D03*
X135040000Y-117780000D03*
X155360000Y-120320000D03*
X152820000Y-120320000D03*
X150280000Y-120320000D03*
X147740000Y-120320000D03*
X145200000Y-120320000D03*
X142660000Y-120320000D03*
X140120000Y-120320000D03*
X137580000Y-120320000D03*
X135040000Y-120320000D03*
X160440000Y-79680000D03*
X160440000Y-82220000D03*
X160440000Y-84760000D03*
X160440000Y-79680000D03*
X160440000Y-84760000D03*
X160440000Y-82220000D03*
X157900000Y-79680000D03*
X157900000Y-84760000D03*
X157900000Y-82220000D03*
X160440000Y-115240000D03*
X160440000Y-117780000D03*
X160440000Y-120320000D03*
X160440000Y-115240000D03*
X160440000Y-120320000D03*
X160440000Y-117780000D03*
X157900000Y-115240000D03*
X157900000Y-120320000D03*
X157900000Y-117780000D03*
X162980000Y-82220000D03*
X162980000Y-84760000D03*
X162980000Y-79680000D03*
X162980000Y-117780000D03*
X162980000Y-120320000D03*
X162980000Y-115240000D03*
X183300000Y-115240000D03*
X183300000Y-117780000D03*
X183300000Y-112700000D03*
X165520000Y-117780000D03*
X165520000Y-120320000D03*
X165520000Y-115240000D03*
X162980000Y-97460000D03*
X165520000Y-97460000D03*
X168060000Y-97460000D03*
X170600000Y-97460000D03*
X173140000Y-97460000D03*
X175680000Y-97460000D03*
X178220000Y-97460000D03*
X180760000Y-97460000D03*
X183300000Y-97460000D03*
X185840000Y-97460000D03*
X188380000Y-97460000D03*
X190920000Y-100000000D03*
X185840000Y-115240000D03*
X162980000Y-87300000D03*
X162980000Y-89840000D03*
X162980000Y-92380000D03*
X162980000Y-94920000D03*
X165520000Y-94920000D03*
X165520000Y-92380000D03*
X165520000Y-89840000D03*
X165520000Y-87300000D03*
X165520000Y-84760000D03*
X165520000Y-120320000D03*
X165520000Y-117780000D03*
X168060000Y-117780000D03*
X168060000Y-120320000D03*
X168060000Y-84760000D03*
X168060000Y-89840000D03*
X168060000Y-87300000D03*
X168060000Y-92380000D03*
X168060000Y-94920000D03*
X170600000Y-94920000D03*
X170600000Y-92380000D03*
X170600000Y-89840000D03*
X170600000Y-87300000D03*
X170600000Y-84760000D03*
X170600000Y-120320000D03*
X170600000Y-117780000D03*
X173140000Y-117780000D03*
X173140000Y-120320000D03*
X173140000Y-84760000D03*
X173140000Y-87300000D03*
X173140000Y-89840000D03*
X173140000Y-92380000D03*
X173140000Y-94920000D03*
X175680000Y-92380000D03*
X175680000Y-89840000D03*
X175680000Y-87300000D03*
X175680000Y-84760000D03*
X175680000Y-120320000D03*
X175680000Y-117780000D03*
X178220000Y-117780000D03*
X178220000Y-120320000D03*
X178220000Y-84760000D03*
X178220000Y-87300000D03*
X178220000Y-89840000D03*
X178220000Y-92380000D03*
X178220000Y-94920000D03*
X175680000Y-94920000D03*
X180760000Y-94920000D03*
X180760000Y-92380000D03*
X180760000Y-89840000D03*
X180760000Y-87300000D03*
X180760000Y-84760000D03*
X180760000Y-120320000D03*
X180760000Y-117780000D03*
X183300000Y-117780000D03*
X183300000Y-120320000D03*
X183300000Y-84760000D03*
X183300000Y-87300000D03*
X183300000Y-89840000D03*
X183300000Y-92380000D03*
X183300000Y-94920000D03*
X185840000Y-94920000D03*
X185840000Y-92380000D03*
X185840000Y-89840000D03*
X185840000Y-87300000D03*
X188380000Y-87300000D03*
X188380000Y-89840000D03*
X188380000Y-92380000D03*
X188380000Y-94920000D03*
X190920000Y-97460000D03*
X190920000Y-94920000D03*
X190920000Y-92380000D03*
X190920000Y-89840000D03*
X190920000Y-87300000D03*
X190920000Y-112700000D03*
X188380000Y-110160000D03*
X185840000Y-110160000D03*
X185840000Y-112700000D03*
X162980000Y-100000000D03*
X165520000Y-100000000D03*
X168060000Y-100000000D03*
X170600000Y-100000000D03*
X173140000Y-100000000D03*
X175680000Y-100000000D03*
X178220000Y-100000000D03*
X180760000Y-100000000D03*
X183300000Y-100000000D03*
X185840000Y-100000000D03*
X188380000Y-100000000D03*
X190920000Y-102540000D03*
X190920000Y-105080000D03*
X190920000Y-107620000D03*
X190920000Y-110160000D03*
X188380000Y-107620000D03*
X185840000Y-107620000D03*
X183300000Y-107620000D03*
X183300000Y-110160000D03*
X183300000Y-112700000D03*
X183300000Y-115240000D03*
X162980000Y-102540000D03*
X165520000Y-102540000D03*
X168060000Y-102540000D03*
X170600000Y-102540000D03*
X173140000Y-102540000D03*
X175680000Y-102540000D03*
X178220000Y-102540000D03*
X180760000Y-102540000D03*
X183300000Y-102540000D03*
X185840000Y-102540000D03*
X188380000Y-102540000D03*
X188380000Y-105080000D03*
X185840000Y-105080000D03*
X183300000Y-105080000D03*
X180760000Y-105080000D03*
X180760000Y-107620000D03*
X180760000Y-110160000D03*
X180760000Y-112700000D03*
X180760000Y-115240000D03*
X178220000Y-115240000D03*
X175680000Y-115240000D03*
X173140000Y-115240000D03*
X170600000Y-115240000D03*
X168060000Y-115240000D03*
X165520000Y-115240000D03*
X162980000Y-107620000D03*
X162980000Y-105080000D03*
X165520000Y-105080000D03*
X168060000Y-105080000D03*
X170600000Y-105080000D03*
X173140000Y-105080000D03*
X175680000Y-105080000D03*
X178220000Y-105080000D03*
X178220000Y-107620000D03*
X178220000Y-110160000D03*
X178220000Y-112700000D03*
X175680000Y-112700000D03*
X173140000Y-112700000D03*
X170600000Y-112700000D03*
X168060000Y-112700000D03*
X165520000Y-112700000D03*
X162980000Y-112700000D03*
X162980000Y-110160000D03*
X165520000Y-110160000D03*
X165520000Y-107620000D03*
X168060000Y-107620000D03*
X170600000Y-107620000D03*
X175680000Y-107620000D03*
X175680000Y-110160000D03*
X173140000Y-110160000D03*
X170600000Y-110160000D03*
X168060000Y-110160000D03*
X173140000Y-107620000D03*
X190920000Y-84760000D03*
X188380000Y-84760000D03*
X185840000Y-84760000D03*
X190920000Y-115240000D03*
X188380000Y-115240000D03*
X188380000Y-112700000D03*
X185840000Y-117780000D03*
X185840000Y-120320000D03*
X160440000Y-102540000D03*
X160440000Y-100000000D03*
X160440000Y-105080000D03*
X160440000Y-112700000D03*
X160440000Y-110160000D03*
X160440000Y-107620000D03*
X160440000Y-87300000D03*
X160440000Y-89840000D03*
X160440000Y-97460000D03*
X160440000Y-92380000D03*
X160440000Y-94920000D03*
X157900000Y-97460000D03*
X157900000Y-94920000D03*
X157900000Y-102540000D03*
X157900000Y-100000000D03*
X157900000Y-89840000D03*
X157900000Y-92380000D03*
X157900000Y-87300000D03*
X157900000Y-110160000D03*
X157900000Y-107620000D03*
X157900000Y-105080000D03*
X157900000Y-112700000D03*
X168060000Y-79680000D03*
X168060000Y-82220000D03*
X170600000Y-82220000D03*
X173140000Y-82220000D03*
X173140000Y-79680000D03*
X170600000Y-79680000D03*
X175680000Y-82220000D03*
X175680000Y-79680000D03*
X178220000Y-82220000D03*
X178220000Y-79680000D03*
X183300000Y-82220000D03*
X180760000Y-82220000D03*
X180760000Y-79680000D03*
X183300000Y-79680000D03*
X185840000Y-82220000D03*
X185840000Y-79680000D03*
X165520000Y-79680000D03*
X165520000Y-79680000D03*
X165520000Y-82220000D03*
X188380000Y-117780000D03*
X188380000Y-120320000D03*
X190920000Y-117780000D03*
X190920000Y-120320000D03*
X188380000Y-79680000D03*
X190920000Y-79680000D03*
X190920000Y-82220000D03*
X188380000Y-82220000D03*
X193460000Y-84760000D03*
X196000000Y-97460000D03*
X198540000Y-100000000D03*
X193460000Y-97460000D03*
X193460000Y-115240000D03*
X198540000Y-110160000D03*
X193460000Y-110160000D03*
X198540000Y-87300000D03*
X193460000Y-120320000D03*
X193460000Y-117780000D03*
X196000000Y-87300000D03*
X198540000Y-117780000D03*
X196000000Y-120320000D03*
X193460000Y-102540000D03*
X193460000Y-79680000D03*
X196000000Y-94920000D03*
X196000000Y-112700000D03*
X196000000Y-115240000D03*
X198540000Y-94920000D03*
X193460000Y-107620000D03*
X193460000Y-105080000D03*
X198540000Y-89840000D03*
X198540000Y-105080000D03*
X193460000Y-112700000D03*
X196000000Y-107620000D03*
X198540000Y-115240000D03*
X198540000Y-112700000D03*
X196000000Y-110160000D03*
X196000000Y-82220000D03*
X196000000Y-79680000D03*
X198540000Y-120320000D03*
X198540000Y-82220000D03*
X198540000Y-79680000D03*
X198540000Y-84760000D03*
X193460000Y-100000000D03*
X196000000Y-84760000D03*
X193460000Y-87300000D03*
X193460000Y-82220000D03*
X193460000Y-94920000D03*
X198540000Y-102540000D03*
X198540000Y-97460000D03*
X193460000Y-89840000D03*
X196000000Y-89840000D03*
X196000000Y-100000000D03*
X196000000Y-105080000D03*
X196000000Y-117780000D03*
X193460000Y-92380000D03*
X198540000Y-107620000D03*
X198540000Y-92380000D03*
X196000000Y-92380000D03*
X196000000Y-102540000D03*
G04 #@! TA.AperFunction,SMDPad,CuDef*
G36*
G01*
X130743750Y-81185000D02*
X131256250Y-81185000D01*
G75*
G02*
X131475000Y-81403750I0J-218750D01*
G01*
X131475000Y-81841250D01*
G75*
G02*
X131256250Y-82060000I-218750J0D01*
G01*
X130743750Y-82060000D01*
G75*
G02*
X130525000Y-81841250I0J218750D01*
G01*
X130525000Y-81403750D01*
G75*
G02*
X130743750Y-81185000I218750J0D01*
G01*
G37*
G04 #@! TD.AperFunction*
G04 #@! TA.AperFunction,SMDPad,CuDef*
G36*
G01*
X130743750Y-82760000D02*
X131256250Y-82760000D01*
G75*
G02*
X131475000Y-82978750I0J-218750D01*
G01*
X131475000Y-83416250D01*
G75*
G02*
X131256250Y-83635000I-218750J0D01*
G01*
X130743750Y-83635000D01*
G75*
G02*
X130525000Y-83416250I0J218750D01*
G01*
X130525000Y-82978750D01*
G75*
G02*
X130743750Y-82760000I218750J0D01*
G01*
G37*
G04 #@! TD.AperFunction*
D11*
X121640000Y-104320000D03*
X121640000Y-95680000D03*
D12*
X125820000Y-95680000D03*
X125820000Y-104320000D03*
D13*
X126735000Y-99750000D03*
X126735000Y-101750000D03*
X126735000Y-101250000D03*
X126735000Y-100750000D03*
X126735000Y-100250000D03*
X126735000Y-99250000D03*
X126735000Y-98750000D03*
X126735000Y-98250000D03*
D14*
X126735000Y-103250000D03*
X126735000Y-102450000D03*
X126735000Y-97550000D03*
X126735000Y-96750000D03*
X126735000Y-96750000D03*
X126735000Y-97550000D03*
X126735000Y-102450000D03*
X126735000Y-103250000D03*
G04 #@! TA.AperFunction,SMDPad,CuDef*
G36*
G01*
X128463750Y-94935000D02*
X128976250Y-94935000D01*
G75*
G02*
X129195000Y-95153750I0J-218750D01*
G01*
X129195000Y-95591250D01*
G75*
G02*
X128976250Y-95810000I-218750J0D01*
G01*
X128463750Y-95810000D01*
G75*
G02*
X128245000Y-95591250I0J218750D01*
G01*
X128245000Y-95153750D01*
G75*
G02*
X128463750Y-94935000I218750J0D01*
G01*
G37*
G04 #@! TD.AperFunction*
G04 #@! TA.AperFunction,SMDPad,CuDef*
G36*
G01*
X128463750Y-96510000D02*
X128976250Y-96510000D01*
G75*
G02*
X129195000Y-96728750I0J-218750D01*
G01*
X129195000Y-97166250D01*
G75*
G02*
X128976250Y-97385000I-218750J0D01*
G01*
X128463750Y-97385000D01*
G75*
G02*
X128245000Y-97166250I0J218750D01*
G01*
X128245000Y-96728750D01*
G75*
G02*
X128463750Y-96510000I218750J0D01*
G01*
G37*
G04 #@! TD.AperFunction*
G04 #@! TA.AperFunction,SMDPad,CuDef*
G36*
G01*
X126874997Y-109165000D02*
X128725003Y-109165000D01*
G75*
G02*
X128975000Y-109414997I0J-249997D01*
G01*
X128975000Y-110240003D01*
G75*
G02*
X128725003Y-110490000I-249997J0D01*
G01*
X126874997Y-110490000D01*
G75*
G02*
X126625000Y-110240003I0J249997D01*
G01*
X126625000Y-109414997D01*
G75*
G02*
X126874997Y-109165000I249997J0D01*
G01*
G37*
G04 #@! TD.AperFunction*
G04 #@! TA.AperFunction,SMDPad,CuDef*
G36*
G01*
X126874997Y-106090000D02*
X128725003Y-106090000D01*
G75*
G02*
X128975000Y-106339997I0J-249997D01*
G01*
X128975000Y-107165003D01*
G75*
G02*
X128725003Y-107415000I-249997J0D01*
G01*
X126874997Y-107415000D01*
G75*
G02*
X126625000Y-107165003I0J249997D01*
G01*
X126625000Y-106339997D01*
G75*
G02*
X126874997Y-106090000I249997J0D01*
G01*
G37*
G04 #@! TD.AperFunction*
G04 #@! TA.AperFunction,SMDPad,CuDef*
G36*
G01*
X134084997Y-105650000D02*
X135935003Y-105650000D01*
G75*
G02*
X136185000Y-105899997I0J-249997D01*
G01*
X136185000Y-106725003D01*
G75*
G02*
X135935003Y-106975000I-249997J0D01*
G01*
X134084997Y-106975000D01*
G75*
G02*
X133835000Y-106725003I0J249997D01*
G01*
X133835000Y-105899997D01*
G75*
G02*
X134084997Y-105650000I249997J0D01*
G01*
G37*
G04 #@! TD.AperFunction*
G04 #@! TA.AperFunction,SMDPad,CuDef*
G36*
G01*
X134084997Y-108725000D02*
X135935003Y-108725000D01*
G75*
G02*
X136185000Y-108974997I0J-249997D01*
G01*
X136185000Y-109800003D01*
G75*
G02*
X135935003Y-110050000I-249997J0D01*
G01*
X134084997Y-110050000D01*
G75*
G02*
X133835000Y-109800003I0J249997D01*
G01*
X133835000Y-108974997D01*
G75*
G02*
X134084997Y-108725000I249997J0D01*
G01*
G37*
G04 #@! TD.AperFunction*
G04 #@! TA.AperFunction,SMDPad,CuDef*
G36*
G01*
X149193750Y-98350000D02*
X149706250Y-98350000D01*
G75*
G02*
X149925000Y-98568750I0J-218750D01*
G01*
X149925000Y-99006250D01*
G75*
G02*
X149706250Y-99225000I-218750J0D01*
G01*
X149193750Y-99225000D01*
G75*
G02*
X148975000Y-99006250I0J218750D01*
G01*
X148975000Y-98568750D01*
G75*
G02*
X149193750Y-98350000I218750J0D01*
G01*
G37*
G04 #@! TD.AperFunction*
G04 #@! TA.AperFunction,SMDPad,CuDef*
G36*
G01*
X149193750Y-96775000D02*
X149706250Y-96775000D01*
G75*
G02*
X149925000Y-96993750I0J-218750D01*
G01*
X149925000Y-97431250D01*
G75*
G02*
X149706250Y-97650000I-218750J0D01*
G01*
X149193750Y-97650000D01*
G75*
G02*
X148975000Y-97431250I0J218750D01*
G01*
X148975000Y-96993750D01*
G75*
G02*
X149193750Y-96775000I218750J0D01*
G01*
G37*
G04 #@! TD.AperFunction*
G04 #@! TA.AperFunction,SMDPad,CuDef*
G36*
G01*
X134806250Y-105045000D02*
X134293750Y-105045000D01*
G75*
G02*
X134075000Y-104826250I0J218750D01*
G01*
X134075000Y-104388750D01*
G75*
G02*
X134293750Y-104170000I218750J0D01*
G01*
X134806250Y-104170000D01*
G75*
G02*
X135025000Y-104388750I0J-218750D01*
G01*
X135025000Y-104826250D01*
G75*
G02*
X134806250Y-105045000I-218750J0D01*
G01*
G37*
G04 #@! TD.AperFunction*
G04 #@! TA.AperFunction,SMDPad,CuDef*
G36*
G01*
X134806250Y-103470000D02*
X134293750Y-103470000D01*
G75*
G02*
X134075000Y-103251250I0J218750D01*
G01*
X134075000Y-102813750D01*
G75*
G02*
X134293750Y-102595000I218750J0D01*
G01*
X134806250Y-102595000D01*
G75*
G02*
X135025000Y-102813750I0J-218750D01*
G01*
X135025000Y-103251250D01*
G75*
G02*
X134806250Y-103470000I-218750J0D01*
G01*
G37*
G04 #@! TD.AperFunction*
G04 #@! TA.AperFunction,SMDPad,CuDef*
G36*
G01*
X146160000Y-92786250D02*
X146160000Y-92273750D01*
G75*
G02*
X146378750Y-92055000I218750J0D01*
G01*
X146816250Y-92055000D01*
G75*
G02*
X147035000Y-92273750I0J-218750D01*
G01*
X147035000Y-92786250D01*
G75*
G02*
X146816250Y-93005000I-218750J0D01*
G01*
X146378750Y-93005000D01*
G75*
G02*
X146160000Y-92786250I0J218750D01*
G01*
G37*
G04 #@! TD.AperFunction*
G04 #@! TA.AperFunction,SMDPad,CuDef*
G36*
G01*
X144585000Y-92786250D02*
X144585000Y-92273750D01*
G75*
G02*
X144803750Y-92055000I218750J0D01*
G01*
X145241250Y-92055000D01*
G75*
G02*
X145460000Y-92273750I0J-218750D01*
G01*
X145460000Y-92786250D01*
G75*
G02*
X145241250Y-93005000I-218750J0D01*
G01*
X144803750Y-93005000D01*
G75*
G02*
X144585000Y-92786250I0J218750D01*
G01*
G37*
G04 #@! TD.AperFunction*
G04 #@! TA.AperFunction,SMDPad,CuDef*
G36*
G01*
X137326250Y-94455000D02*
X136813750Y-94455000D01*
G75*
G02*
X136595000Y-94236250I0J218750D01*
G01*
X136595000Y-93798750D01*
G75*
G02*
X136813750Y-93580000I218750J0D01*
G01*
X137326250Y-93580000D01*
G75*
G02*
X137545000Y-93798750I0J-218750D01*
G01*
X137545000Y-94236250D01*
G75*
G02*
X137326250Y-94455000I-218750J0D01*
G01*
G37*
G04 #@! TD.AperFunction*
G04 #@! TA.AperFunction,SMDPad,CuDef*
G36*
G01*
X137326250Y-92880000D02*
X136813750Y-92880000D01*
G75*
G02*
X136595000Y-92661250I0J218750D01*
G01*
X136595000Y-92223750D01*
G75*
G02*
X136813750Y-92005000I218750J0D01*
G01*
X137326250Y-92005000D01*
G75*
G02*
X137545000Y-92223750I0J-218750D01*
G01*
X137545000Y-92661250D01*
G75*
G02*
X137326250Y-92880000I-218750J0D01*
G01*
G37*
G04 #@! TD.AperFunction*
G04 #@! TA.AperFunction,SMDPad,CuDef*
G36*
G01*
X152135000Y-96466250D02*
X152135000Y-95953750D01*
G75*
G02*
X152353750Y-95735000I218750J0D01*
G01*
X152791250Y-95735000D01*
G75*
G02*
X153010000Y-95953750I0J-218750D01*
G01*
X153010000Y-96466250D01*
G75*
G02*
X152791250Y-96685000I-218750J0D01*
G01*
X152353750Y-96685000D01*
G75*
G02*
X152135000Y-96466250I0J218750D01*
G01*
G37*
G04 #@! TD.AperFunction*
G04 #@! TA.AperFunction,SMDPad,CuDef*
G36*
G01*
X153710000Y-96466250D02*
X153710000Y-95953750D01*
G75*
G02*
X153928750Y-95735000I218750J0D01*
G01*
X154366250Y-95735000D01*
G75*
G02*
X154585000Y-95953750I0J-218750D01*
G01*
X154585000Y-96466250D01*
G75*
G02*
X154366250Y-96685000I-218750J0D01*
G01*
X153928750Y-96685000D01*
G75*
G02*
X153710000Y-96466250I0J218750D01*
G01*
G37*
G04 #@! TD.AperFunction*
G04 #@! TA.AperFunction,SMDPad,CuDef*
G36*
G01*
X128976250Y-103490000D02*
X128463750Y-103490000D01*
G75*
G02*
X128245000Y-103271250I0J218750D01*
G01*
X128245000Y-102833750D01*
G75*
G02*
X128463750Y-102615000I218750J0D01*
G01*
X128976250Y-102615000D01*
G75*
G02*
X129195000Y-102833750I0J-218750D01*
G01*
X129195000Y-103271250D01*
G75*
G02*
X128976250Y-103490000I-218750J0D01*
G01*
G37*
G04 #@! TD.AperFunction*
G04 #@! TA.AperFunction,SMDPad,CuDef*
G36*
G01*
X128976250Y-105065000D02*
X128463750Y-105065000D01*
G75*
G02*
X128245000Y-104846250I0J218750D01*
G01*
X128245000Y-104408750D01*
G75*
G02*
X128463750Y-104190000I218750J0D01*
G01*
X128976250Y-104190000D01*
G75*
G02*
X129195000Y-104408750I0J-218750D01*
G01*
X129195000Y-104846250D01*
G75*
G02*
X128976250Y-105065000I-218750J0D01*
G01*
G37*
G04 #@! TD.AperFunction*
G04 #@! TA.AperFunction,SMDPad,CuDef*
G36*
G01*
X148636250Y-107975000D02*
X148123750Y-107975000D01*
G75*
G02*
X147905000Y-107756250I0J218750D01*
G01*
X147905000Y-107318750D01*
G75*
G02*
X148123750Y-107100000I218750J0D01*
G01*
X148636250Y-107100000D01*
G75*
G02*
X148855000Y-107318750I0J-218750D01*
G01*
X148855000Y-107756250D01*
G75*
G02*
X148636250Y-107975000I-218750J0D01*
G01*
G37*
G04 #@! TD.AperFunction*
G04 #@! TA.AperFunction,SMDPad,CuDef*
G36*
G01*
X148636250Y-106400000D02*
X148123750Y-106400000D01*
G75*
G02*
X147905000Y-106181250I0J218750D01*
G01*
X147905000Y-105743750D01*
G75*
G02*
X148123750Y-105525000I218750J0D01*
G01*
X148636250Y-105525000D01*
G75*
G02*
X148855000Y-105743750I0J-218750D01*
G01*
X148855000Y-106181250D01*
G75*
G02*
X148636250Y-106400000I-218750J0D01*
G01*
G37*
G04 #@! TD.AperFunction*
G04 #@! TA.AperFunction,SMDPad,CuDef*
G36*
G01*
X130743750Y-85750000D02*
X131256250Y-85750000D01*
G75*
G02*
X131475000Y-85968750I0J-218750D01*
G01*
X131475000Y-86406250D01*
G75*
G02*
X131256250Y-86625000I-218750J0D01*
G01*
X130743750Y-86625000D01*
G75*
G02*
X130525000Y-86406250I0J218750D01*
G01*
X130525000Y-85968750D01*
G75*
G02*
X130743750Y-85750000I218750J0D01*
G01*
G37*
G04 #@! TD.AperFunction*
G04 #@! TA.AperFunction,SMDPad,CuDef*
G36*
G01*
X130743750Y-84175000D02*
X131256250Y-84175000D01*
G75*
G02*
X131475000Y-84393750I0J-218750D01*
G01*
X131475000Y-84831250D01*
G75*
G02*
X131256250Y-85050000I-218750J0D01*
G01*
X130743750Y-85050000D01*
G75*
G02*
X130525000Y-84831250I0J218750D01*
G01*
X130525000Y-84393750D01*
G75*
G02*
X130743750Y-84175000I218750J0D01*
G01*
G37*
G04 #@! TD.AperFunction*
G04 #@! TA.AperFunction,SMDPad,CuDef*
G36*
G01*
X130743750Y-87175000D02*
X131256250Y-87175000D01*
G75*
G02*
X131475000Y-87393750I0J-218750D01*
G01*
X131475000Y-87831250D01*
G75*
G02*
X131256250Y-88050000I-218750J0D01*
G01*
X130743750Y-88050000D01*
G75*
G02*
X130525000Y-87831250I0J218750D01*
G01*
X130525000Y-87393750D01*
G75*
G02*
X130743750Y-87175000I218750J0D01*
G01*
G37*
G04 #@! TD.AperFunction*
G04 #@! TA.AperFunction,SMDPad,CuDef*
G36*
G01*
X130743750Y-88750000D02*
X131256250Y-88750000D01*
G75*
G02*
X131475000Y-88968750I0J-218750D01*
G01*
X131475000Y-89406250D01*
G75*
G02*
X131256250Y-89625000I-218750J0D01*
G01*
X130743750Y-89625000D01*
G75*
G02*
X130525000Y-89406250I0J218750D01*
G01*
X130525000Y-88968750D01*
G75*
G02*
X130743750Y-88750000I218750J0D01*
G01*
G37*
G04 #@! TD.AperFunction*
G04 #@! TA.AperFunction,SMDPad,CuDef*
G36*
G01*
X131266250Y-111250000D02*
X130753750Y-111250000D01*
G75*
G02*
X130535000Y-111031250I0J218750D01*
G01*
X130535000Y-110593750D01*
G75*
G02*
X130753750Y-110375000I218750J0D01*
G01*
X131266250Y-110375000D01*
G75*
G02*
X131485000Y-110593750I0J-218750D01*
G01*
X131485000Y-111031250D01*
G75*
G02*
X131266250Y-111250000I-218750J0D01*
G01*
G37*
G04 #@! TD.AperFunction*
G04 #@! TA.AperFunction,SMDPad,CuDef*
G36*
G01*
X131266250Y-112825000D02*
X130753750Y-112825000D01*
G75*
G02*
X130535000Y-112606250I0J218750D01*
G01*
X130535000Y-112168750D01*
G75*
G02*
X130753750Y-111950000I218750J0D01*
G01*
X131266250Y-111950000D01*
G75*
G02*
X131485000Y-112168750I0J-218750D01*
G01*
X131485000Y-112606250D01*
G75*
G02*
X131266250Y-112825000I-218750J0D01*
G01*
G37*
G04 #@! TD.AperFunction*
D15*
X130300000Y-106750000D03*
X130300000Y-107700000D03*
X130300000Y-108650000D03*
X132500000Y-108650000D03*
X132500000Y-106750000D03*
X131200000Y-100950000D03*
X131200000Y-100000000D03*
X131200000Y-99050000D03*
X129000000Y-99050000D03*
X129000000Y-100950000D03*
X129000000Y-100000000D03*
D16*
X127000000Y-87310000D03*
X127000000Y-86040000D03*
X127000000Y-84770000D03*
D17*
X127000000Y-83500000D03*
X127000000Y-112700000D03*
D16*
X127000000Y-113970000D03*
X127000000Y-115240000D03*
X127000000Y-116510000D03*
G04 #@! TA.AperFunction,SMDPad,CuDef*
G36*
G01*
X131266250Y-115825000D02*
X130753750Y-115825000D01*
G75*
G02*
X130535000Y-115606250I0J218750D01*
G01*
X130535000Y-115168750D01*
G75*
G02*
X130753750Y-114950000I218750J0D01*
G01*
X131266250Y-114950000D01*
G75*
G02*
X131485000Y-115168750I0J-218750D01*
G01*
X131485000Y-115606250D01*
G75*
G02*
X131266250Y-115825000I-218750J0D01*
G01*
G37*
G04 #@! TD.AperFunction*
G04 #@! TA.AperFunction,SMDPad,CuDef*
G36*
G01*
X131266250Y-114250000D02*
X130753750Y-114250000D01*
G75*
G02*
X130535000Y-114031250I0J218750D01*
G01*
X130535000Y-113593750D01*
G75*
G02*
X130753750Y-113375000I218750J0D01*
G01*
X131266250Y-113375000D01*
G75*
G02*
X131485000Y-113593750I0J-218750D01*
G01*
X131485000Y-114031250D01*
G75*
G02*
X131266250Y-114250000I-218750J0D01*
G01*
G37*
G04 #@! TD.AperFunction*
G04 #@! TA.AperFunction,SMDPad,CuDef*
G36*
G01*
X131266250Y-117250000D02*
X130753750Y-117250000D01*
G75*
G02*
X130535000Y-117031250I0J218750D01*
G01*
X130535000Y-116593750D01*
G75*
G02*
X130753750Y-116375000I218750J0D01*
G01*
X131266250Y-116375000D01*
G75*
G02*
X131485000Y-116593750I0J-218750D01*
G01*
X131485000Y-117031250D01*
G75*
G02*
X131266250Y-117250000I-218750J0D01*
G01*
G37*
G04 #@! TD.AperFunction*
G04 #@! TA.AperFunction,SMDPad,CuDef*
G36*
G01*
X131266250Y-118825000D02*
X130753750Y-118825000D01*
G75*
G02*
X130535000Y-118606250I0J218750D01*
G01*
X130535000Y-118168750D01*
G75*
G02*
X130753750Y-117950000I218750J0D01*
G01*
X131266250Y-117950000D01*
G75*
G02*
X131485000Y-118168750I0J-218750D01*
G01*
X131485000Y-118606250D01*
G75*
G02*
X131266250Y-118825000I-218750J0D01*
G01*
G37*
G04 #@! TD.AperFunction*
G04 #@! TA.AperFunction,SMDPad,CuDef*
G36*
G01*
X128935000Y-90913750D02*
X128935000Y-91426250D01*
G75*
G02*
X128716250Y-91645000I-218750J0D01*
G01*
X128278750Y-91645000D01*
G75*
G02*
X128060000Y-91426250I0J218750D01*
G01*
X128060000Y-90913750D01*
G75*
G02*
X128278750Y-90695000I218750J0D01*
G01*
X128716250Y-90695000D01*
G75*
G02*
X128935000Y-90913750I0J-218750D01*
G01*
G37*
G04 #@! TD.AperFunction*
G04 #@! TA.AperFunction,SMDPad,CuDef*
G36*
G01*
X127360000Y-90913750D02*
X127360000Y-91426250D01*
G75*
G02*
X127141250Y-91645000I-218750J0D01*
G01*
X126703750Y-91645000D01*
G75*
G02*
X126485000Y-91426250I0J218750D01*
G01*
X126485000Y-90913750D01*
G75*
G02*
X126703750Y-90695000I218750J0D01*
G01*
X127141250Y-90695000D01*
G75*
G02*
X127360000Y-90913750I0J-218750D01*
G01*
G37*
G04 #@! TD.AperFunction*
G04 #@! TA.AperFunction,SMDPad,CuDef*
G36*
G01*
X127370000Y-92373750D02*
X127370000Y-92886250D01*
G75*
G02*
X127151250Y-93105000I-218750J0D01*
G01*
X126713750Y-93105000D01*
G75*
G02*
X126495000Y-92886250I0J218750D01*
G01*
X126495000Y-92373750D01*
G75*
G02*
X126713750Y-92155000I218750J0D01*
G01*
X127151250Y-92155000D01*
G75*
G02*
X127370000Y-92373750I0J-218750D01*
G01*
G37*
G04 #@! TD.AperFunction*
G04 #@! TA.AperFunction,SMDPad,CuDef*
G36*
G01*
X128945000Y-92373750D02*
X128945000Y-92886250D01*
G75*
G02*
X128726250Y-93105000I-218750J0D01*
G01*
X128288750Y-93105000D01*
G75*
G02*
X128070000Y-92886250I0J218750D01*
G01*
X128070000Y-92373750D01*
G75*
G02*
X128288750Y-92155000I218750J0D01*
G01*
X128726250Y-92155000D01*
G75*
G02*
X128945000Y-92373750I0J-218750D01*
G01*
G37*
G04 #@! TD.AperFunction*
G04 #@! TA.AperFunction,SMDPad,CuDef*
G36*
G01*
X146650000Y-105525000D02*
X147150000Y-105525000D01*
G75*
G02*
X147375000Y-105750000I0J-225000D01*
G01*
X147375000Y-106200000D01*
G75*
G02*
X147150000Y-106425000I-225000J0D01*
G01*
X146650000Y-106425000D01*
G75*
G02*
X146425000Y-106200000I0J225000D01*
G01*
X146425000Y-105750000D01*
G75*
G02*
X146650000Y-105525000I225000J0D01*
G01*
G37*
G04 #@! TD.AperFunction*
G04 #@! TA.AperFunction,SMDPad,CuDef*
G36*
G01*
X146650000Y-107075000D02*
X147150000Y-107075000D01*
G75*
G02*
X147375000Y-107300000I0J-225000D01*
G01*
X147375000Y-107750000D01*
G75*
G02*
X147150000Y-107975000I-225000J0D01*
G01*
X146650000Y-107975000D01*
G75*
G02*
X146425000Y-107750000I0J225000D01*
G01*
X146425000Y-107300000D01*
G75*
G02*
X146650000Y-107075000I225000J0D01*
G01*
G37*
G04 #@! TD.AperFunction*
G04 #@! TA.AperFunction,SMDPad,CuDef*
G36*
G01*
X153745000Y-105830000D02*
X153745000Y-105330000D01*
G75*
G02*
X153970000Y-105105000I225000J0D01*
G01*
X154420000Y-105105000D01*
G75*
G02*
X154645000Y-105330000I0J-225000D01*
G01*
X154645000Y-105830000D01*
G75*
G02*
X154420000Y-106055000I-225000J0D01*
G01*
X153970000Y-106055000D01*
G75*
G02*
X153745000Y-105830000I0J225000D01*
G01*
G37*
G04 #@! TD.AperFunction*
G04 #@! TA.AperFunction,SMDPad,CuDef*
G36*
G01*
X152195000Y-105830000D02*
X152195000Y-105330000D01*
G75*
G02*
X152420000Y-105105000I225000J0D01*
G01*
X152870000Y-105105000D01*
G75*
G02*
X153095000Y-105330000I0J-225000D01*
G01*
X153095000Y-105830000D01*
G75*
G02*
X152870000Y-106055000I-225000J0D01*
G01*
X152420000Y-106055000D01*
G75*
G02*
X152195000Y-105830000I0J225000D01*
G01*
G37*
G04 #@! TD.AperFunction*
G04 #@! TA.AperFunction,SMDPad,CuDef*
G36*
G01*
X152135000Y-98000000D02*
X152135000Y-97500000D01*
G75*
G02*
X152360000Y-97275000I225000J0D01*
G01*
X152810000Y-97275000D01*
G75*
G02*
X153035000Y-97500000I0J-225000D01*
G01*
X153035000Y-98000000D01*
G75*
G02*
X152810000Y-98225000I-225000J0D01*
G01*
X152360000Y-98225000D01*
G75*
G02*
X152135000Y-98000000I0J225000D01*
G01*
G37*
G04 #@! TD.AperFunction*
G04 #@! TA.AperFunction,SMDPad,CuDef*
G36*
G01*
X153685000Y-98000000D02*
X153685000Y-97500000D01*
G75*
G02*
X153910000Y-97275000I225000J0D01*
G01*
X154360000Y-97275000D01*
G75*
G02*
X154585000Y-97500000I0J-225000D01*
G01*
X154585000Y-98000000D01*
G75*
G02*
X154360000Y-98225000I-225000J0D01*
G01*
X153910000Y-98225000D01*
G75*
G02*
X153685000Y-98000000I0J225000D01*
G01*
G37*
G04 #@! TD.AperFunction*
G04 #@! TA.AperFunction,SMDPad,CuDef*
G36*
G01*
X139000000Y-91475000D02*
X138500000Y-91475000D01*
G75*
G02*
X138275000Y-91250000I0J225000D01*
G01*
X138275000Y-90800000D01*
G75*
G02*
X138500000Y-90575000I225000J0D01*
G01*
X139000000Y-90575000D01*
G75*
G02*
X139225000Y-90800000I0J-225000D01*
G01*
X139225000Y-91250000D01*
G75*
G02*
X139000000Y-91475000I-225000J0D01*
G01*
G37*
G04 #@! TD.AperFunction*
G04 #@! TA.AperFunction,SMDPad,CuDef*
G36*
G01*
X139000000Y-93025000D02*
X138500000Y-93025000D01*
G75*
G02*
X138275000Y-92800000I0J225000D01*
G01*
X138275000Y-92350000D01*
G75*
G02*
X138500000Y-92125000I225000J0D01*
G01*
X139000000Y-92125000D01*
G75*
G02*
X139225000Y-92350000I0J-225000D01*
G01*
X139225000Y-92800000D01*
G75*
G02*
X139000000Y-93025000I-225000J0D01*
G01*
G37*
G04 #@! TD.AperFunction*
G04 #@! TA.AperFunction,SMDPad,CuDef*
G36*
G01*
X148450000Y-103675000D02*
X148450000Y-103825000D01*
G75*
G02*
X148375000Y-103900000I-75000J0D01*
G01*
X146975000Y-103900000D01*
G75*
G02*
X146900000Y-103825000I0J75000D01*
G01*
X146900000Y-103675000D01*
G75*
G02*
X146975000Y-103600000I75000J0D01*
G01*
X148375000Y-103600000D01*
G75*
G02*
X148450000Y-103675000I0J-75000D01*
G01*
G37*
G04 #@! TD.AperFunction*
G04 #@! TA.AperFunction,SMDPad,CuDef*
G36*
G01*
X148450000Y-103175000D02*
X148450000Y-103325000D01*
G75*
G02*
X148375000Y-103400000I-75000J0D01*
G01*
X146975000Y-103400000D01*
G75*
G02*
X146900000Y-103325000I0J75000D01*
G01*
X146900000Y-103175000D01*
G75*
G02*
X146975000Y-103100000I75000J0D01*
G01*
X148375000Y-103100000D01*
G75*
G02*
X148450000Y-103175000I0J-75000D01*
G01*
G37*
G04 #@! TD.AperFunction*
G04 #@! TA.AperFunction,SMDPad,CuDef*
G36*
G01*
X148450000Y-102675000D02*
X148450000Y-102825000D01*
G75*
G02*
X148375000Y-102900000I-75000J0D01*
G01*
X146975000Y-102900000D01*
G75*
G02*
X146900000Y-102825000I0J75000D01*
G01*
X146900000Y-102675000D01*
G75*
G02*
X146975000Y-102600000I75000J0D01*
G01*
X148375000Y-102600000D01*
G75*
G02*
X148450000Y-102675000I0J-75000D01*
G01*
G37*
G04 #@! TD.AperFunction*
G04 #@! TA.AperFunction,SMDPad,CuDef*
G36*
G01*
X148450000Y-102175000D02*
X148450000Y-102325000D01*
G75*
G02*
X148375000Y-102400000I-75000J0D01*
G01*
X146975000Y-102400000D01*
G75*
G02*
X146900000Y-102325000I0J75000D01*
G01*
X146900000Y-102175000D01*
G75*
G02*
X146975000Y-102100000I75000J0D01*
G01*
X148375000Y-102100000D01*
G75*
G02*
X148450000Y-102175000I0J-75000D01*
G01*
G37*
G04 #@! TD.AperFunction*
G04 #@! TA.AperFunction,SMDPad,CuDef*
G36*
G01*
X148450000Y-101675000D02*
X148450000Y-101825000D01*
G75*
G02*
X148375000Y-101900000I-75000J0D01*
G01*
X146975000Y-101900000D01*
G75*
G02*
X146900000Y-101825000I0J75000D01*
G01*
X146900000Y-101675000D01*
G75*
G02*
X146975000Y-101600000I75000J0D01*
G01*
X148375000Y-101600000D01*
G75*
G02*
X148450000Y-101675000I0J-75000D01*
G01*
G37*
G04 #@! TD.AperFunction*
G04 #@! TA.AperFunction,SMDPad,CuDef*
G36*
G01*
X148450000Y-101175000D02*
X148450000Y-101325000D01*
G75*
G02*
X148375000Y-101400000I-75000J0D01*
G01*
X146975000Y-101400000D01*
G75*
G02*
X146900000Y-101325000I0J75000D01*
G01*
X146900000Y-101175000D01*
G75*
G02*
X146975000Y-101100000I75000J0D01*
G01*
X148375000Y-101100000D01*
G75*
G02*
X148450000Y-101175000I0J-75000D01*
G01*
G37*
G04 #@! TD.AperFunction*
G04 #@! TA.AperFunction,SMDPad,CuDef*
G36*
G01*
X148450000Y-100675000D02*
X148450000Y-100825000D01*
G75*
G02*
X148375000Y-100900000I-75000J0D01*
G01*
X146975000Y-100900000D01*
G75*
G02*
X146900000Y-100825000I0J75000D01*
G01*
X146900000Y-100675000D01*
G75*
G02*
X146975000Y-100600000I75000J0D01*
G01*
X148375000Y-100600000D01*
G75*
G02*
X148450000Y-100675000I0J-75000D01*
G01*
G37*
G04 #@! TD.AperFunction*
G04 #@! TA.AperFunction,SMDPad,CuDef*
G36*
G01*
X148450000Y-100175000D02*
X148450000Y-100325000D01*
G75*
G02*
X148375000Y-100400000I-75000J0D01*
G01*
X146975000Y-100400000D01*
G75*
G02*
X146900000Y-100325000I0J75000D01*
G01*
X146900000Y-100175000D01*
G75*
G02*
X146975000Y-100100000I75000J0D01*
G01*
X148375000Y-100100000D01*
G75*
G02*
X148450000Y-100175000I0J-75000D01*
G01*
G37*
G04 #@! TD.AperFunction*
G04 #@! TA.AperFunction,SMDPad,CuDef*
G36*
G01*
X148450000Y-99675000D02*
X148450000Y-99825000D01*
G75*
G02*
X148375000Y-99900000I-75000J0D01*
G01*
X146975000Y-99900000D01*
G75*
G02*
X146900000Y-99825000I0J75000D01*
G01*
X146900000Y-99675000D01*
G75*
G02*
X146975000Y-99600000I75000J0D01*
G01*
X148375000Y-99600000D01*
G75*
G02*
X148450000Y-99675000I0J-75000D01*
G01*
G37*
G04 #@! TD.AperFunction*
G04 #@! TA.AperFunction,SMDPad,CuDef*
G36*
G01*
X148450000Y-99175000D02*
X148450000Y-99325000D01*
G75*
G02*
X148375000Y-99400000I-75000J0D01*
G01*
X146975000Y-99400000D01*
G75*
G02*
X146900000Y-99325000I0J75000D01*
G01*
X146900000Y-99175000D01*
G75*
G02*
X146975000Y-99100000I75000J0D01*
G01*
X148375000Y-99100000D01*
G75*
G02*
X148450000Y-99175000I0J-75000D01*
G01*
G37*
G04 #@! TD.AperFunction*
G04 #@! TA.AperFunction,SMDPad,CuDef*
G36*
G01*
X148450000Y-98675000D02*
X148450000Y-98825000D01*
G75*
G02*
X148375000Y-98900000I-75000J0D01*
G01*
X146975000Y-98900000D01*
G75*
G02*
X146900000Y-98825000I0J75000D01*
G01*
X146900000Y-98675000D01*
G75*
G02*
X146975000Y-98600000I75000J0D01*
G01*
X148375000Y-98600000D01*
G75*
G02*
X148450000Y-98675000I0J-75000D01*
G01*
G37*
G04 #@! TD.AperFunction*
G04 #@! TA.AperFunction,SMDPad,CuDef*
G36*
G01*
X148450000Y-98175000D02*
X148450000Y-98325000D01*
G75*
G02*
X148375000Y-98400000I-75000J0D01*
G01*
X146975000Y-98400000D01*
G75*
G02*
X146900000Y-98325000I0J75000D01*
G01*
X146900000Y-98175000D01*
G75*
G02*
X146975000Y-98100000I75000J0D01*
G01*
X148375000Y-98100000D01*
G75*
G02*
X148450000Y-98175000I0J-75000D01*
G01*
G37*
G04 #@! TD.AperFunction*
G04 #@! TA.AperFunction,SMDPad,CuDef*
G36*
G01*
X148450000Y-97675000D02*
X148450000Y-97825000D01*
G75*
G02*
X148375000Y-97900000I-75000J0D01*
G01*
X146975000Y-97900000D01*
G75*
G02*
X146900000Y-97825000I0J75000D01*
G01*
X146900000Y-97675000D01*
G75*
G02*
X146975000Y-97600000I75000J0D01*
G01*
X148375000Y-97600000D01*
G75*
G02*
X148450000Y-97675000I0J-75000D01*
G01*
G37*
G04 #@! TD.AperFunction*
G04 #@! TA.AperFunction,SMDPad,CuDef*
G36*
G01*
X148450000Y-97175000D02*
X148450000Y-97325000D01*
G75*
G02*
X148375000Y-97400000I-75000J0D01*
G01*
X146975000Y-97400000D01*
G75*
G02*
X146900000Y-97325000I0J75000D01*
G01*
X146900000Y-97175000D01*
G75*
G02*
X146975000Y-97100000I75000J0D01*
G01*
X148375000Y-97100000D01*
G75*
G02*
X148450000Y-97175000I0J-75000D01*
G01*
G37*
G04 #@! TD.AperFunction*
G04 #@! TA.AperFunction,SMDPad,CuDef*
G36*
G01*
X148450000Y-96675000D02*
X148450000Y-96825000D01*
G75*
G02*
X148375000Y-96900000I-75000J0D01*
G01*
X146975000Y-96900000D01*
G75*
G02*
X146900000Y-96825000I0J75000D01*
G01*
X146900000Y-96675000D01*
G75*
G02*
X146975000Y-96600000I75000J0D01*
G01*
X148375000Y-96600000D01*
G75*
G02*
X148450000Y-96675000I0J-75000D01*
G01*
G37*
G04 #@! TD.AperFunction*
G04 #@! TA.AperFunction,SMDPad,CuDef*
G36*
G01*
X148450000Y-96175000D02*
X148450000Y-96325000D01*
G75*
G02*
X148375000Y-96400000I-75000J0D01*
G01*
X146975000Y-96400000D01*
G75*
G02*
X146900000Y-96325000I0J75000D01*
G01*
X146900000Y-96175000D01*
G75*
G02*
X146975000Y-96100000I75000J0D01*
G01*
X148375000Y-96100000D01*
G75*
G02*
X148450000Y-96175000I0J-75000D01*
G01*
G37*
G04 #@! TD.AperFunction*
G04 #@! TA.AperFunction,SMDPad,CuDef*
G36*
G01*
X145900000Y-93625000D02*
X145900000Y-95025000D01*
G75*
G02*
X145825000Y-95100000I-75000J0D01*
G01*
X145675000Y-95100000D01*
G75*
G02*
X145600000Y-95025000I0J75000D01*
G01*
X145600000Y-93625000D01*
G75*
G02*
X145675000Y-93550000I75000J0D01*
G01*
X145825000Y-93550000D01*
G75*
G02*
X145900000Y-93625000I0J-75000D01*
G01*
G37*
G04 #@! TD.AperFunction*
G04 #@! TA.AperFunction,SMDPad,CuDef*
G36*
G01*
X145400000Y-93625000D02*
X145400000Y-95025000D01*
G75*
G02*
X145325000Y-95100000I-75000J0D01*
G01*
X145175000Y-95100000D01*
G75*
G02*
X145100000Y-95025000I0J75000D01*
G01*
X145100000Y-93625000D01*
G75*
G02*
X145175000Y-93550000I75000J0D01*
G01*
X145325000Y-93550000D01*
G75*
G02*
X145400000Y-93625000I0J-75000D01*
G01*
G37*
G04 #@! TD.AperFunction*
G04 #@! TA.AperFunction,SMDPad,CuDef*
G36*
G01*
X144900000Y-93625000D02*
X144900000Y-95025000D01*
G75*
G02*
X144825000Y-95100000I-75000J0D01*
G01*
X144675000Y-95100000D01*
G75*
G02*
X144600000Y-95025000I0J75000D01*
G01*
X144600000Y-93625000D01*
G75*
G02*
X144675000Y-93550000I75000J0D01*
G01*
X144825000Y-93550000D01*
G75*
G02*
X144900000Y-93625000I0J-75000D01*
G01*
G37*
G04 #@! TD.AperFunction*
G04 #@! TA.AperFunction,SMDPad,CuDef*
G36*
G01*
X144400000Y-93625000D02*
X144400000Y-95025000D01*
G75*
G02*
X144325000Y-95100000I-75000J0D01*
G01*
X144175000Y-95100000D01*
G75*
G02*
X144100000Y-95025000I0J75000D01*
G01*
X144100000Y-93625000D01*
G75*
G02*
X144175000Y-93550000I75000J0D01*
G01*
X144325000Y-93550000D01*
G75*
G02*
X144400000Y-93625000I0J-75000D01*
G01*
G37*
G04 #@! TD.AperFunction*
G04 #@! TA.AperFunction,SMDPad,CuDef*
G36*
G01*
X143900000Y-93625000D02*
X143900000Y-95025000D01*
G75*
G02*
X143825000Y-95100000I-75000J0D01*
G01*
X143675000Y-95100000D01*
G75*
G02*
X143600000Y-95025000I0J75000D01*
G01*
X143600000Y-93625000D01*
G75*
G02*
X143675000Y-93550000I75000J0D01*
G01*
X143825000Y-93550000D01*
G75*
G02*
X143900000Y-93625000I0J-75000D01*
G01*
G37*
G04 #@! TD.AperFunction*
G04 #@! TA.AperFunction,SMDPad,CuDef*
G36*
G01*
X143400000Y-93625000D02*
X143400000Y-95025000D01*
G75*
G02*
X143325000Y-95100000I-75000J0D01*
G01*
X143175000Y-95100000D01*
G75*
G02*
X143100000Y-95025000I0J75000D01*
G01*
X143100000Y-93625000D01*
G75*
G02*
X143175000Y-93550000I75000J0D01*
G01*
X143325000Y-93550000D01*
G75*
G02*
X143400000Y-93625000I0J-75000D01*
G01*
G37*
G04 #@! TD.AperFunction*
G04 #@! TA.AperFunction,SMDPad,CuDef*
G36*
G01*
X142900000Y-93625000D02*
X142900000Y-95025000D01*
G75*
G02*
X142825000Y-95100000I-75000J0D01*
G01*
X142675000Y-95100000D01*
G75*
G02*
X142600000Y-95025000I0J75000D01*
G01*
X142600000Y-93625000D01*
G75*
G02*
X142675000Y-93550000I75000J0D01*
G01*
X142825000Y-93550000D01*
G75*
G02*
X142900000Y-93625000I0J-75000D01*
G01*
G37*
G04 #@! TD.AperFunction*
G04 #@! TA.AperFunction,SMDPad,CuDef*
G36*
G01*
X142400000Y-93625000D02*
X142400000Y-95025000D01*
G75*
G02*
X142325000Y-95100000I-75000J0D01*
G01*
X142175000Y-95100000D01*
G75*
G02*
X142100000Y-95025000I0J75000D01*
G01*
X142100000Y-93625000D01*
G75*
G02*
X142175000Y-93550000I75000J0D01*
G01*
X142325000Y-93550000D01*
G75*
G02*
X142400000Y-93625000I0J-75000D01*
G01*
G37*
G04 #@! TD.AperFunction*
G04 #@! TA.AperFunction,SMDPad,CuDef*
G36*
G01*
X141900000Y-93625000D02*
X141900000Y-95025000D01*
G75*
G02*
X141825000Y-95100000I-75000J0D01*
G01*
X141675000Y-95100000D01*
G75*
G02*
X141600000Y-95025000I0J75000D01*
G01*
X141600000Y-93625000D01*
G75*
G02*
X141675000Y-93550000I75000J0D01*
G01*
X141825000Y-93550000D01*
G75*
G02*
X141900000Y-93625000I0J-75000D01*
G01*
G37*
G04 #@! TD.AperFunction*
G04 #@! TA.AperFunction,SMDPad,CuDef*
G36*
G01*
X141400000Y-93625000D02*
X141400000Y-95025000D01*
G75*
G02*
X141325000Y-95100000I-75000J0D01*
G01*
X141175000Y-95100000D01*
G75*
G02*
X141100000Y-95025000I0J75000D01*
G01*
X141100000Y-93625000D01*
G75*
G02*
X141175000Y-93550000I75000J0D01*
G01*
X141325000Y-93550000D01*
G75*
G02*
X141400000Y-93625000I0J-75000D01*
G01*
G37*
G04 #@! TD.AperFunction*
G04 #@! TA.AperFunction,SMDPad,CuDef*
G36*
G01*
X140900000Y-93625000D02*
X140900000Y-95025000D01*
G75*
G02*
X140825000Y-95100000I-75000J0D01*
G01*
X140675000Y-95100000D01*
G75*
G02*
X140600000Y-95025000I0J75000D01*
G01*
X140600000Y-93625000D01*
G75*
G02*
X140675000Y-93550000I75000J0D01*
G01*
X140825000Y-93550000D01*
G75*
G02*
X140900000Y-93625000I0J-75000D01*
G01*
G37*
G04 #@! TD.AperFunction*
G04 #@! TA.AperFunction,SMDPad,CuDef*
G36*
G01*
X140400000Y-93625000D02*
X140400000Y-95025000D01*
G75*
G02*
X140325000Y-95100000I-75000J0D01*
G01*
X140175000Y-95100000D01*
G75*
G02*
X140100000Y-95025000I0J75000D01*
G01*
X140100000Y-93625000D01*
G75*
G02*
X140175000Y-93550000I75000J0D01*
G01*
X140325000Y-93550000D01*
G75*
G02*
X140400000Y-93625000I0J-75000D01*
G01*
G37*
G04 #@! TD.AperFunction*
G04 #@! TA.AperFunction,SMDPad,CuDef*
G36*
G01*
X139900000Y-93625000D02*
X139900000Y-95025000D01*
G75*
G02*
X139825000Y-95100000I-75000J0D01*
G01*
X139675000Y-95100000D01*
G75*
G02*
X139600000Y-95025000I0J75000D01*
G01*
X139600000Y-93625000D01*
G75*
G02*
X139675000Y-93550000I75000J0D01*
G01*
X139825000Y-93550000D01*
G75*
G02*
X139900000Y-93625000I0J-75000D01*
G01*
G37*
G04 #@! TD.AperFunction*
G04 #@! TA.AperFunction,SMDPad,CuDef*
G36*
G01*
X139400000Y-93625000D02*
X139400000Y-95025000D01*
G75*
G02*
X139325000Y-95100000I-75000J0D01*
G01*
X139175000Y-95100000D01*
G75*
G02*
X139100000Y-95025000I0J75000D01*
G01*
X139100000Y-93625000D01*
G75*
G02*
X139175000Y-93550000I75000J0D01*
G01*
X139325000Y-93550000D01*
G75*
G02*
X139400000Y-93625000I0J-75000D01*
G01*
G37*
G04 #@! TD.AperFunction*
G04 #@! TA.AperFunction,SMDPad,CuDef*
G36*
G01*
X138900000Y-93625000D02*
X138900000Y-95025000D01*
G75*
G02*
X138825000Y-95100000I-75000J0D01*
G01*
X138675000Y-95100000D01*
G75*
G02*
X138600000Y-95025000I0J75000D01*
G01*
X138600000Y-93625000D01*
G75*
G02*
X138675000Y-93550000I75000J0D01*
G01*
X138825000Y-93550000D01*
G75*
G02*
X138900000Y-93625000I0J-75000D01*
G01*
G37*
G04 #@! TD.AperFunction*
G04 #@! TA.AperFunction,SMDPad,CuDef*
G36*
G01*
X138400000Y-93625000D02*
X138400000Y-95025000D01*
G75*
G02*
X138325000Y-95100000I-75000J0D01*
G01*
X138175000Y-95100000D01*
G75*
G02*
X138100000Y-95025000I0J75000D01*
G01*
X138100000Y-93625000D01*
G75*
G02*
X138175000Y-93550000I75000J0D01*
G01*
X138325000Y-93550000D01*
G75*
G02*
X138400000Y-93625000I0J-75000D01*
G01*
G37*
G04 #@! TD.AperFunction*
G04 #@! TA.AperFunction,SMDPad,CuDef*
G36*
G01*
X137100000Y-96175000D02*
X137100000Y-96325000D01*
G75*
G02*
X137025000Y-96400000I-75000J0D01*
G01*
X135625000Y-96400000D01*
G75*
G02*
X135550000Y-96325000I0J75000D01*
G01*
X135550000Y-96175000D01*
G75*
G02*
X135625000Y-96100000I75000J0D01*
G01*
X137025000Y-96100000D01*
G75*
G02*
X137100000Y-96175000I0J-75000D01*
G01*
G37*
G04 #@! TD.AperFunction*
G04 #@! TA.AperFunction,SMDPad,CuDef*
G36*
G01*
X137100000Y-96675000D02*
X137100000Y-96825000D01*
G75*
G02*
X137025000Y-96900000I-75000J0D01*
G01*
X135625000Y-96900000D01*
G75*
G02*
X135550000Y-96825000I0J75000D01*
G01*
X135550000Y-96675000D01*
G75*
G02*
X135625000Y-96600000I75000J0D01*
G01*
X137025000Y-96600000D01*
G75*
G02*
X137100000Y-96675000I0J-75000D01*
G01*
G37*
G04 #@! TD.AperFunction*
G04 #@! TA.AperFunction,SMDPad,CuDef*
G36*
G01*
X137100000Y-97175000D02*
X137100000Y-97325000D01*
G75*
G02*
X137025000Y-97400000I-75000J0D01*
G01*
X135625000Y-97400000D01*
G75*
G02*
X135550000Y-97325000I0J75000D01*
G01*
X135550000Y-97175000D01*
G75*
G02*
X135625000Y-97100000I75000J0D01*
G01*
X137025000Y-97100000D01*
G75*
G02*
X137100000Y-97175000I0J-75000D01*
G01*
G37*
G04 #@! TD.AperFunction*
G04 #@! TA.AperFunction,SMDPad,CuDef*
G36*
G01*
X137100000Y-97675000D02*
X137100000Y-97825000D01*
G75*
G02*
X137025000Y-97900000I-75000J0D01*
G01*
X135625000Y-97900000D01*
G75*
G02*
X135550000Y-97825000I0J75000D01*
G01*
X135550000Y-97675000D01*
G75*
G02*
X135625000Y-97600000I75000J0D01*
G01*
X137025000Y-97600000D01*
G75*
G02*
X137100000Y-97675000I0J-75000D01*
G01*
G37*
G04 #@! TD.AperFunction*
G04 #@! TA.AperFunction,SMDPad,CuDef*
G36*
G01*
X137100000Y-98175000D02*
X137100000Y-98325000D01*
G75*
G02*
X137025000Y-98400000I-75000J0D01*
G01*
X135625000Y-98400000D01*
G75*
G02*
X135550000Y-98325000I0J75000D01*
G01*
X135550000Y-98175000D01*
G75*
G02*
X135625000Y-98100000I75000J0D01*
G01*
X137025000Y-98100000D01*
G75*
G02*
X137100000Y-98175000I0J-75000D01*
G01*
G37*
G04 #@! TD.AperFunction*
G04 #@! TA.AperFunction,SMDPad,CuDef*
G36*
G01*
X137100000Y-98675000D02*
X137100000Y-98825000D01*
G75*
G02*
X137025000Y-98900000I-75000J0D01*
G01*
X135625000Y-98900000D01*
G75*
G02*
X135550000Y-98825000I0J75000D01*
G01*
X135550000Y-98675000D01*
G75*
G02*
X135625000Y-98600000I75000J0D01*
G01*
X137025000Y-98600000D01*
G75*
G02*
X137100000Y-98675000I0J-75000D01*
G01*
G37*
G04 #@! TD.AperFunction*
G04 #@! TA.AperFunction,SMDPad,CuDef*
G36*
G01*
X137100000Y-99175000D02*
X137100000Y-99325000D01*
G75*
G02*
X137025000Y-99400000I-75000J0D01*
G01*
X135625000Y-99400000D01*
G75*
G02*
X135550000Y-99325000I0J75000D01*
G01*
X135550000Y-99175000D01*
G75*
G02*
X135625000Y-99100000I75000J0D01*
G01*
X137025000Y-99100000D01*
G75*
G02*
X137100000Y-99175000I0J-75000D01*
G01*
G37*
G04 #@! TD.AperFunction*
G04 #@! TA.AperFunction,SMDPad,CuDef*
G36*
G01*
X137100000Y-99675000D02*
X137100000Y-99825000D01*
G75*
G02*
X137025000Y-99900000I-75000J0D01*
G01*
X135625000Y-99900000D01*
G75*
G02*
X135550000Y-99825000I0J75000D01*
G01*
X135550000Y-99675000D01*
G75*
G02*
X135625000Y-99600000I75000J0D01*
G01*
X137025000Y-99600000D01*
G75*
G02*
X137100000Y-99675000I0J-75000D01*
G01*
G37*
G04 #@! TD.AperFunction*
G04 #@! TA.AperFunction,SMDPad,CuDef*
G36*
G01*
X137100000Y-100175000D02*
X137100000Y-100325000D01*
G75*
G02*
X137025000Y-100400000I-75000J0D01*
G01*
X135625000Y-100400000D01*
G75*
G02*
X135550000Y-100325000I0J75000D01*
G01*
X135550000Y-100175000D01*
G75*
G02*
X135625000Y-100100000I75000J0D01*
G01*
X137025000Y-100100000D01*
G75*
G02*
X137100000Y-100175000I0J-75000D01*
G01*
G37*
G04 #@! TD.AperFunction*
G04 #@! TA.AperFunction,SMDPad,CuDef*
G36*
G01*
X137100000Y-100675000D02*
X137100000Y-100825000D01*
G75*
G02*
X137025000Y-100900000I-75000J0D01*
G01*
X135625000Y-100900000D01*
G75*
G02*
X135550000Y-100825000I0J75000D01*
G01*
X135550000Y-100675000D01*
G75*
G02*
X135625000Y-100600000I75000J0D01*
G01*
X137025000Y-100600000D01*
G75*
G02*
X137100000Y-100675000I0J-75000D01*
G01*
G37*
G04 #@! TD.AperFunction*
G04 #@! TA.AperFunction,SMDPad,CuDef*
G36*
G01*
X137100000Y-101175000D02*
X137100000Y-101325000D01*
G75*
G02*
X137025000Y-101400000I-75000J0D01*
G01*
X135625000Y-101400000D01*
G75*
G02*
X135550000Y-101325000I0J75000D01*
G01*
X135550000Y-101175000D01*
G75*
G02*
X135625000Y-101100000I75000J0D01*
G01*
X137025000Y-101100000D01*
G75*
G02*
X137100000Y-101175000I0J-75000D01*
G01*
G37*
G04 #@! TD.AperFunction*
G04 #@! TA.AperFunction,SMDPad,CuDef*
G36*
G01*
X137100000Y-101675000D02*
X137100000Y-101825000D01*
G75*
G02*
X137025000Y-101900000I-75000J0D01*
G01*
X135625000Y-101900000D01*
G75*
G02*
X135550000Y-101825000I0J75000D01*
G01*
X135550000Y-101675000D01*
G75*
G02*
X135625000Y-101600000I75000J0D01*
G01*
X137025000Y-101600000D01*
G75*
G02*
X137100000Y-101675000I0J-75000D01*
G01*
G37*
G04 #@! TD.AperFunction*
G04 #@! TA.AperFunction,SMDPad,CuDef*
G36*
G01*
X137100000Y-102175000D02*
X137100000Y-102325000D01*
G75*
G02*
X137025000Y-102400000I-75000J0D01*
G01*
X135625000Y-102400000D01*
G75*
G02*
X135550000Y-102325000I0J75000D01*
G01*
X135550000Y-102175000D01*
G75*
G02*
X135625000Y-102100000I75000J0D01*
G01*
X137025000Y-102100000D01*
G75*
G02*
X137100000Y-102175000I0J-75000D01*
G01*
G37*
G04 #@! TD.AperFunction*
G04 #@! TA.AperFunction,SMDPad,CuDef*
G36*
G01*
X137100000Y-102675000D02*
X137100000Y-102825000D01*
G75*
G02*
X137025000Y-102900000I-75000J0D01*
G01*
X135625000Y-102900000D01*
G75*
G02*
X135550000Y-102825000I0J75000D01*
G01*
X135550000Y-102675000D01*
G75*
G02*
X135625000Y-102600000I75000J0D01*
G01*
X137025000Y-102600000D01*
G75*
G02*
X137100000Y-102675000I0J-75000D01*
G01*
G37*
G04 #@! TD.AperFunction*
G04 #@! TA.AperFunction,SMDPad,CuDef*
G36*
G01*
X137100000Y-103175000D02*
X137100000Y-103325000D01*
G75*
G02*
X137025000Y-103400000I-75000J0D01*
G01*
X135625000Y-103400000D01*
G75*
G02*
X135550000Y-103325000I0J75000D01*
G01*
X135550000Y-103175000D01*
G75*
G02*
X135625000Y-103100000I75000J0D01*
G01*
X137025000Y-103100000D01*
G75*
G02*
X137100000Y-103175000I0J-75000D01*
G01*
G37*
G04 #@! TD.AperFunction*
G04 #@! TA.AperFunction,SMDPad,CuDef*
G36*
G01*
X137100000Y-103675000D02*
X137100000Y-103825000D01*
G75*
G02*
X137025000Y-103900000I-75000J0D01*
G01*
X135625000Y-103900000D01*
G75*
G02*
X135550000Y-103825000I0J75000D01*
G01*
X135550000Y-103675000D01*
G75*
G02*
X135625000Y-103600000I75000J0D01*
G01*
X137025000Y-103600000D01*
G75*
G02*
X137100000Y-103675000I0J-75000D01*
G01*
G37*
G04 #@! TD.AperFunction*
G04 #@! TA.AperFunction,SMDPad,CuDef*
G36*
G01*
X138400000Y-104975000D02*
X138400000Y-106375000D01*
G75*
G02*
X138325000Y-106450000I-75000J0D01*
G01*
X138175000Y-106450000D01*
G75*
G02*
X138100000Y-106375000I0J75000D01*
G01*
X138100000Y-104975000D01*
G75*
G02*
X138175000Y-104900000I75000J0D01*
G01*
X138325000Y-104900000D01*
G75*
G02*
X138400000Y-104975000I0J-75000D01*
G01*
G37*
G04 #@! TD.AperFunction*
G04 #@! TA.AperFunction,SMDPad,CuDef*
G36*
G01*
X138900000Y-104975000D02*
X138900000Y-106375000D01*
G75*
G02*
X138825000Y-106450000I-75000J0D01*
G01*
X138675000Y-106450000D01*
G75*
G02*
X138600000Y-106375000I0J75000D01*
G01*
X138600000Y-104975000D01*
G75*
G02*
X138675000Y-104900000I75000J0D01*
G01*
X138825000Y-104900000D01*
G75*
G02*
X138900000Y-104975000I0J-75000D01*
G01*
G37*
G04 #@! TD.AperFunction*
G04 #@! TA.AperFunction,SMDPad,CuDef*
G36*
G01*
X139400000Y-104975000D02*
X139400000Y-106375000D01*
G75*
G02*
X139325000Y-106450000I-75000J0D01*
G01*
X139175000Y-106450000D01*
G75*
G02*
X139100000Y-106375000I0J75000D01*
G01*
X139100000Y-104975000D01*
G75*
G02*
X139175000Y-104900000I75000J0D01*
G01*
X139325000Y-104900000D01*
G75*
G02*
X139400000Y-104975000I0J-75000D01*
G01*
G37*
G04 #@! TD.AperFunction*
G04 #@! TA.AperFunction,SMDPad,CuDef*
G36*
G01*
X139900000Y-104975000D02*
X139900000Y-106375000D01*
G75*
G02*
X139825000Y-106450000I-75000J0D01*
G01*
X139675000Y-106450000D01*
G75*
G02*
X139600000Y-106375000I0J75000D01*
G01*
X139600000Y-104975000D01*
G75*
G02*
X139675000Y-104900000I75000J0D01*
G01*
X139825000Y-104900000D01*
G75*
G02*
X139900000Y-104975000I0J-75000D01*
G01*
G37*
G04 #@! TD.AperFunction*
G04 #@! TA.AperFunction,SMDPad,CuDef*
G36*
G01*
X140400000Y-104975000D02*
X140400000Y-106375000D01*
G75*
G02*
X140325000Y-106450000I-75000J0D01*
G01*
X140175000Y-106450000D01*
G75*
G02*
X140100000Y-106375000I0J75000D01*
G01*
X140100000Y-104975000D01*
G75*
G02*
X140175000Y-104900000I75000J0D01*
G01*
X140325000Y-104900000D01*
G75*
G02*
X140400000Y-104975000I0J-75000D01*
G01*
G37*
G04 #@! TD.AperFunction*
G04 #@! TA.AperFunction,SMDPad,CuDef*
G36*
G01*
X140900000Y-104975000D02*
X140900000Y-106375000D01*
G75*
G02*
X140825000Y-106450000I-75000J0D01*
G01*
X140675000Y-106450000D01*
G75*
G02*
X140600000Y-106375000I0J75000D01*
G01*
X140600000Y-104975000D01*
G75*
G02*
X140675000Y-104900000I75000J0D01*
G01*
X140825000Y-104900000D01*
G75*
G02*
X140900000Y-104975000I0J-75000D01*
G01*
G37*
G04 #@! TD.AperFunction*
G04 #@! TA.AperFunction,SMDPad,CuDef*
G36*
G01*
X141400000Y-104975000D02*
X141400000Y-106375000D01*
G75*
G02*
X141325000Y-106450000I-75000J0D01*
G01*
X141175000Y-106450000D01*
G75*
G02*
X141100000Y-106375000I0J75000D01*
G01*
X141100000Y-104975000D01*
G75*
G02*
X141175000Y-104900000I75000J0D01*
G01*
X141325000Y-104900000D01*
G75*
G02*
X141400000Y-104975000I0J-75000D01*
G01*
G37*
G04 #@! TD.AperFunction*
G04 #@! TA.AperFunction,SMDPad,CuDef*
G36*
G01*
X141900000Y-104975000D02*
X141900000Y-106375000D01*
G75*
G02*
X141825000Y-106450000I-75000J0D01*
G01*
X141675000Y-106450000D01*
G75*
G02*
X141600000Y-106375000I0J75000D01*
G01*
X141600000Y-104975000D01*
G75*
G02*
X141675000Y-104900000I75000J0D01*
G01*
X141825000Y-104900000D01*
G75*
G02*
X141900000Y-104975000I0J-75000D01*
G01*
G37*
G04 #@! TD.AperFunction*
G04 #@! TA.AperFunction,SMDPad,CuDef*
G36*
G01*
X142400000Y-104975000D02*
X142400000Y-106375000D01*
G75*
G02*
X142325000Y-106450000I-75000J0D01*
G01*
X142175000Y-106450000D01*
G75*
G02*
X142100000Y-106375000I0J75000D01*
G01*
X142100000Y-104975000D01*
G75*
G02*
X142175000Y-104900000I75000J0D01*
G01*
X142325000Y-104900000D01*
G75*
G02*
X142400000Y-104975000I0J-75000D01*
G01*
G37*
G04 #@! TD.AperFunction*
G04 #@! TA.AperFunction,SMDPad,CuDef*
G36*
G01*
X142900000Y-104975000D02*
X142900000Y-106375000D01*
G75*
G02*
X142825000Y-106450000I-75000J0D01*
G01*
X142675000Y-106450000D01*
G75*
G02*
X142600000Y-106375000I0J75000D01*
G01*
X142600000Y-104975000D01*
G75*
G02*
X142675000Y-104900000I75000J0D01*
G01*
X142825000Y-104900000D01*
G75*
G02*
X142900000Y-104975000I0J-75000D01*
G01*
G37*
G04 #@! TD.AperFunction*
G04 #@! TA.AperFunction,SMDPad,CuDef*
G36*
G01*
X143400000Y-104975000D02*
X143400000Y-106375000D01*
G75*
G02*
X143325000Y-106450000I-75000J0D01*
G01*
X143175000Y-106450000D01*
G75*
G02*
X143100000Y-106375000I0J75000D01*
G01*
X143100000Y-104975000D01*
G75*
G02*
X143175000Y-104900000I75000J0D01*
G01*
X143325000Y-104900000D01*
G75*
G02*
X143400000Y-104975000I0J-75000D01*
G01*
G37*
G04 #@! TD.AperFunction*
G04 #@! TA.AperFunction,SMDPad,CuDef*
G36*
G01*
X143900000Y-104975000D02*
X143900000Y-106375000D01*
G75*
G02*
X143825000Y-106450000I-75000J0D01*
G01*
X143675000Y-106450000D01*
G75*
G02*
X143600000Y-106375000I0J75000D01*
G01*
X143600000Y-104975000D01*
G75*
G02*
X143675000Y-104900000I75000J0D01*
G01*
X143825000Y-104900000D01*
G75*
G02*
X143900000Y-104975000I0J-75000D01*
G01*
G37*
G04 #@! TD.AperFunction*
G04 #@! TA.AperFunction,SMDPad,CuDef*
G36*
G01*
X144400000Y-104975000D02*
X144400000Y-106375000D01*
G75*
G02*
X144325000Y-106450000I-75000J0D01*
G01*
X144175000Y-106450000D01*
G75*
G02*
X144100000Y-106375000I0J75000D01*
G01*
X144100000Y-104975000D01*
G75*
G02*
X144175000Y-104900000I75000J0D01*
G01*
X144325000Y-104900000D01*
G75*
G02*
X144400000Y-104975000I0J-75000D01*
G01*
G37*
G04 #@! TD.AperFunction*
G04 #@! TA.AperFunction,SMDPad,CuDef*
G36*
G01*
X144900000Y-104975000D02*
X144900000Y-106375000D01*
G75*
G02*
X144825000Y-106450000I-75000J0D01*
G01*
X144675000Y-106450000D01*
G75*
G02*
X144600000Y-106375000I0J75000D01*
G01*
X144600000Y-104975000D01*
G75*
G02*
X144675000Y-104900000I75000J0D01*
G01*
X144825000Y-104900000D01*
G75*
G02*
X144900000Y-104975000I0J-75000D01*
G01*
G37*
G04 #@! TD.AperFunction*
G04 #@! TA.AperFunction,SMDPad,CuDef*
G36*
G01*
X145400000Y-104975000D02*
X145400000Y-106375000D01*
G75*
G02*
X145325000Y-106450000I-75000J0D01*
G01*
X145175000Y-106450000D01*
G75*
G02*
X145100000Y-106375000I0J75000D01*
G01*
X145100000Y-104975000D01*
G75*
G02*
X145175000Y-104900000I75000J0D01*
G01*
X145325000Y-104900000D01*
G75*
G02*
X145400000Y-104975000I0J-75000D01*
G01*
G37*
G04 #@! TD.AperFunction*
G04 #@! TA.AperFunction,SMDPad,CuDef*
G36*
G01*
X145900000Y-104975000D02*
X145900000Y-106375000D01*
G75*
G02*
X145825000Y-106450000I-75000J0D01*
G01*
X145675000Y-106450000D01*
G75*
G02*
X145600000Y-106375000I0J75000D01*
G01*
X145600000Y-104975000D01*
G75*
G02*
X145675000Y-104900000I75000J0D01*
G01*
X145825000Y-104900000D01*
G75*
G02*
X145900000Y-104975000I0J-75000D01*
G01*
G37*
G04 #@! TD.AperFunction*
D18*
X153440000Y-103530000D03*
X153440000Y-99830000D03*
D19*
X125170000Y-107040000D03*
X125170000Y-109540000D03*
D20*
X147450000Y-110160000D03*
X155450000Y-110160000D03*
X147450000Y-89840000D03*
X155450000Y-89840000D03*
D21*
X131430000Y-107699998D03*
X148400000Y-104930000D03*
X133480000Y-103030000D03*
X149450000Y-99820000D03*
X155180000Y-97740000D03*
X155180000Y-96210000D03*
X155240000Y-105580000D03*
X146600000Y-91450000D03*
X138750000Y-95700000D03*
X145250000Y-95700000D03*
X138750000Y-89980000D03*
X136780000Y-109387500D03*
X145260000Y-104300000D03*
X146900000Y-108560000D03*
X137080000Y-91410000D03*
X129789999Y-104630000D03*
X129790000Y-95369990D03*
X197300000Y-77810000D03*
X194730000Y-77820000D03*
X192190000Y-77810000D03*
X189650000Y-77810000D03*
X187120000Y-77810000D03*
X184560000Y-77810000D03*
X182040000Y-77800000D03*
X179500000Y-77800000D03*
X176980000Y-77800000D03*
X174430000Y-77820000D03*
X171870000Y-77800000D03*
X169310000Y-77800000D03*
X166790000Y-77820000D03*
X164240000Y-77810000D03*
X161700000Y-77810000D03*
X159160000Y-77810000D03*
X156650000Y-77800000D03*
X154090000Y-77810000D03*
X151560000Y-77790000D03*
X149020000Y-77800000D03*
X146470000Y-77800000D03*
X143920000Y-77800000D03*
X141390000Y-77800000D03*
X138860000Y-77810000D03*
X136330000Y-77790000D03*
X133640000Y-77810000D03*
X127020000Y-81740000D03*
X130910000Y-90800000D03*
X120960000Y-114410000D03*
X127030000Y-118270000D03*
X141390000Y-122170000D03*
X143930000Y-122170000D03*
X146460000Y-122190000D03*
X149020000Y-122190000D03*
X151540000Y-122190000D03*
X154080000Y-122200000D03*
X156630000Y-122200000D03*
X159190000Y-122200000D03*
X161740000Y-122200000D03*
X164260000Y-122180000D03*
X166800000Y-122160000D03*
X169320000Y-122160000D03*
X171860000Y-122180000D03*
X174430000Y-122180000D03*
X176970000Y-122180000D03*
X179470000Y-122180000D03*
X181910000Y-122180000D03*
X184570000Y-122180000D03*
X187120000Y-122200000D03*
X189650000Y-122200000D03*
X192200000Y-122180000D03*
X194730000Y-122190000D03*
X197290000Y-122190000D03*
X138870000Y-122180000D03*
X136310000Y-122180000D03*
X133750000Y-122180000D03*
X141870000Y-101270000D03*
X141080000Y-98100000D03*
X138080000Y-98800000D03*
X154000000Y-109030000D03*
X153960000Y-90970000D03*
X127460000Y-95850000D03*
X127455034Y-104139161D03*
X127800000Y-111089999D03*
X148800000Y-89830000D03*
X132304990Y-99990000D03*
X121470000Y-77870000D03*
X120960000Y-85310000D03*
X120930000Y-94270000D03*
X120950000Y-105680000D03*
X121360000Y-122040000D03*
X145930000Y-101600001D03*
X124300000Y-100000000D03*
X130070000Y-100000000D03*
X146910000Y-104930000D03*
X149450000Y-96170000D03*
X145020000Y-91450000D03*
X137070000Y-95060000D03*
X136770000Y-106312500D03*
X125890000Y-91170000D03*
X125900000Y-92630000D03*
X133480002Y-104600000D03*
X148800000Y-110160000D03*
X143750000Y-104200000D03*
X142700000Y-104200000D03*
X140800000Y-95800000D03*
X141800000Y-95800000D03*
X142800013Y-95800000D03*
X143800013Y-95800000D03*
X141700000Y-104200000D03*
X140700000Y-104200000D03*
X139700000Y-104200000D03*
X138700000Y-104200000D03*
X129930000Y-81620000D03*
X129930000Y-84610000D03*
X129920000Y-87610000D03*
X132830000Y-113780000D03*
X132860000Y-116530000D03*
X132860004Y-119050008D03*
D22*
X131429998Y-107700000D02*
X131430000Y-107699998D01*
D23*
X130300000Y-107700000D02*
X131429998Y-107700000D01*
D22*
X148380000Y-104950000D02*
X148400000Y-104930000D01*
X148380000Y-105962500D02*
X148380000Y-104950000D01*
D24*
X134767500Y-103250000D02*
X134550000Y-103032500D01*
X136325000Y-103250000D02*
X134767500Y-103250000D01*
D22*
X133482500Y-103032500D02*
X133480000Y-103030000D01*
D23*
X134550000Y-103032500D02*
X133482500Y-103032500D01*
D22*
X155170000Y-97750000D02*
X155180000Y-97740000D01*
X154135000Y-97750000D02*
X155170000Y-97750000D01*
X154147500Y-96210000D02*
X155180000Y-96210000D01*
X154195000Y-105580000D02*
X155240000Y-105580000D01*
D24*
X138750000Y-94325000D02*
X138750000Y-95700000D01*
D23*
X131200000Y-100000000D02*
X132310000Y-100000000D01*
D22*
X145250000Y-104310000D02*
X145260000Y-104300000D01*
D24*
X145250000Y-105675000D02*
X145250000Y-104310000D01*
D22*
X137220000Y-92540000D02*
X136892500Y-92540000D01*
X137070000Y-91420000D02*
X137080000Y-91410000D01*
D23*
X137070000Y-92442500D02*
X137070000Y-91420000D01*
X138750000Y-91025000D02*
X138750000Y-89980000D01*
D22*
X146597500Y-91452500D02*
X146600000Y-91450000D01*
D23*
X146597500Y-92530000D02*
X146597500Y-91452500D01*
D24*
X148912500Y-98250000D02*
X149450000Y-98787500D01*
X147675000Y-98250000D02*
X148912500Y-98250000D01*
D23*
X149450000Y-98787500D02*
X149450000Y-99820000D01*
D22*
X145250000Y-94325000D02*
X145250000Y-95700000D01*
X128720000Y-104627500D02*
X129787499Y-104627500D01*
X129787499Y-104627500D02*
X129789999Y-104630000D01*
X128720000Y-95372500D02*
X129787490Y-95372500D01*
X129787490Y-95372500D02*
X129790000Y-95369990D01*
D23*
X136780000Y-109387500D02*
X135010000Y-109387500D01*
X146900000Y-107525000D02*
X146900000Y-108560000D01*
X127455034Y-103895034D02*
X127455034Y-104139161D01*
X126810000Y-103250000D02*
X127455034Y-103895034D01*
X126735000Y-103250000D02*
X126810000Y-103250000D01*
X127460000Y-96100000D02*
X127460000Y-95850000D01*
X126810000Y-96750000D02*
X127460000Y-96100000D01*
X126735000Y-96750000D02*
X126810000Y-96750000D01*
X127800000Y-109825000D02*
X127800000Y-111089999D01*
D22*
X148790000Y-89840000D02*
X148800000Y-89830000D01*
X147450000Y-89840000D02*
X148790000Y-89840000D01*
X132310000Y-100000000D02*
X132310000Y-99995010D01*
X132310000Y-99995010D02*
X132304990Y-99990000D01*
X146075000Y-107525000D02*
X146900000Y-107525000D01*
X145250000Y-106700000D02*
X146075000Y-107525000D01*
X145250000Y-105675000D02*
X145250000Y-106700000D01*
X145250000Y-96890000D02*
X145250000Y-95700000D01*
X146610000Y-98250000D02*
X145250000Y-96890000D01*
X147675000Y-98250000D02*
X146610000Y-98250000D01*
X138750000Y-98130000D02*
X138080000Y-98800000D01*
X138750000Y-95700000D02*
X138750000Y-98130000D01*
X140380000Y-98800000D02*
X141080000Y-98100000D01*
X138080000Y-98800000D02*
X140380000Y-98800000D01*
X141080000Y-100480000D02*
X141870000Y-101270000D01*
X141080000Y-98100000D02*
X141080000Y-100480000D01*
X141380000Y-122180000D02*
X141390000Y-122170000D01*
X133750000Y-122180000D02*
X141380000Y-122180000D01*
X197270000Y-122170000D02*
X197290000Y-122190000D01*
X141390000Y-122170000D02*
X197270000Y-122170000D01*
X197300000Y-77810000D02*
X133640000Y-77810000D01*
X157900000Y-84760000D02*
X157900000Y-79680000D01*
X157900000Y-79680000D02*
X155360000Y-79680000D01*
X157900000Y-79070000D02*
X159160000Y-77810000D01*
X157900000Y-79680000D02*
X157900000Y-79070000D01*
X157900000Y-79050000D02*
X156650000Y-77800000D01*
X157900000Y-79680000D02*
X157900000Y-79050000D01*
X155360000Y-79080000D02*
X154090000Y-77810000D01*
X155360000Y-79680000D02*
X155360000Y-79080000D01*
X155360000Y-79090000D02*
X156650000Y-77800000D01*
X155360000Y-79680000D02*
X155360000Y-79090000D01*
X157900000Y-115240000D02*
X157900000Y-120320000D01*
X157900000Y-120910000D02*
X159190000Y-122200000D01*
X157900000Y-120320000D02*
X157900000Y-120910000D01*
X157900000Y-120930000D02*
X156630000Y-122200000D01*
X157900000Y-120320000D02*
X157900000Y-120930000D01*
X145260000Y-104300000D02*
X145260000Y-102270001D01*
X145260000Y-102270001D02*
X145930000Y-101600001D01*
D23*
X129000000Y-100000000D02*
X130070000Y-100000000D01*
D25*
X124300000Y-100820000D02*
X124300000Y-100000000D01*
X125930000Y-102450000D02*
X124300000Y-100820000D01*
X126735000Y-102450000D02*
X125930000Y-102450000D01*
X124300000Y-99190000D02*
X124300000Y-100000000D01*
X125940000Y-97550000D02*
X124300000Y-99190000D01*
X126735000Y-97550000D02*
X125940000Y-97550000D01*
D23*
X124350000Y-109540000D02*
X125170000Y-109540000D01*
X123470000Y-108660000D02*
X124350000Y-109540000D01*
X123820000Y-100000000D02*
X123470000Y-100350000D01*
X123470000Y-100350000D02*
X123470000Y-108660000D01*
X124300000Y-100000000D02*
X123820000Y-100000000D01*
D22*
X146900000Y-104940000D02*
X146910000Y-104930000D01*
D23*
X146900000Y-105975000D02*
X146900000Y-104940000D01*
D22*
X147675000Y-105200000D02*
X146900000Y-105975000D01*
X147675000Y-103750000D02*
X147675000Y-105200000D01*
D24*
X146600000Y-105675000D02*
X146900000Y-105975000D01*
X145750000Y-105675000D02*
X146600000Y-105675000D01*
X135407500Y-103750000D02*
X134550000Y-104607500D01*
X136325000Y-103750000D02*
X135407500Y-103750000D01*
D23*
X134572500Y-106750000D02*
X135010000Y-106312500D01*
X132500000Y-106750000D02*
X134572500Y-106750000D01*
D22*
X126922500Y-91170000D02*
X125890000Y-91170000D01*
X126932500Y-92630000D02*
X125900000Y-92630000D01*
D23*
X134550000Y-104607500D02*
X133487502Y-104607500D01*
D22*
X133487502Y-104607500D02*
X133480002Y-104600000D01*
X137377500Y-94325000D02*
X137070000Y-94017500D01*
D24*
X138250000Y-94325000D02*
X137377500Y-94325000D01*
D23*
X137070000Y-95060000D02*
X137070000Y-94017500D01*
D22*
X145022500Y-91452500D02*
X145020000Y-91450000D01*
D23*
X145022500Y-92530000D02*
X145022500Y-91452500D01*
D24*
X144750000Y-92802500D02*
X145022500Y-92530000D01*
X144750000Y-94325000D02*
X144750000Y-92802500D01*
X148912500Y-97750000D02*
X149450000Y-97212500D01*
X147675000Y-97750000D02*
X148912500Y-97750000D01*
D23*
X149450000Y-97212500D02*
X149450000Y-96170000D01*
X136770000Y-106312500D02*
X135010000Y-106312500D01*
D22*
X157900000Y-110160000D02*
X155450000Y-110160000D01*
X157900000Y-87300000D02*
X157900000Y-92380000D01*
X157900000Y-107620000D02*
X157900000Y-112700000D01*
X130112500Y-83197500D02*
X131000000Y-83197500D01*
X129810000Y-83500000D02*
X130112500Y-83197500D01*
X127000000Y-83500000D02*
X129810000Y-83500000D01*
X130107500Y-110812500D02*
X131010000Y-110812500D01*
X128220000Y-112700000D02*
X130107500Y-110812500D01*
X127000000Y-112700000D02*
X128220000Y-112700000D01*
X128720000Y-102370000D02*
X128720000Y-103052500D01*
X128100000Y-101750000D02*
X128720000Y-102370000D01*
X126735000Y-101750000D02*
X128100000Y-101750000D01*
X126735000Y-100750000D02*
X128000000Y-100750000D01*
X128200000Y-100950000D02*
X129000000Y-100950000D01*
X128000000Y-100750000D02*
X128200000Y-100950000D01*
X131200000Y-100950000D02*
X129000000Y-100950000D01*
X127695002Y-100750000D02*
X126735000Y-100750000D01*
X127860000Y-100585002D02*
X127695002Y-100750000D01*
X127860000Y-99900000D02*
X127860000Y-100585002D01*
X127710000Y-99750000D02*
X127860000Y-99900000D01*
X126735000Y-99750000D02*
X127710000Y-99750000D01*
X133310000Y-100950000D02*
X131200000Y-100950000D01*
X134610000Y-102250000D02*
X133310000Y-100950000D01*
X136325000Y-102250000D02*
X134610000Y-102250000D01*
X125665000Y-100250000D02*
X126590000Y-100250000D01*
X125589999Y-99325001D02*
X125589999Y-100174999D01*
X125589999Y-100174999D02*
X125665000Y-100250000D01*
X125665000Y-99250000D02*
X125589999Y-99325001D01*
X126590000Y-99250000D02*
X125665000Y-99250000D01*
X126735000Y-99250000D02*
X127910000Y-99250000D01*
X128110000Y-99050000D02*
X129000000Y-99050000D01*
X127910000Y-99250000D02*
X128110000Y-99050000D01*
X131200000Y-99050000D02*
X129000000Y-99050000D01*
X132400000Y-99050000D02*
X131200000Y-99050000D01*
X135100000Y-101750000D02*
X132400000Y-99050000D01*
X136325000Y-101750000D02*
X135100000Y-101750000D01*
X128720000Y-97750000D02*
X128720000Y-96947500D01*
X127720000Y-98750000D02*
X128720000Y-97750000D01*
X126735000Y-98750000D02*
X127720000Y-98750000D01*
X128877500Y-89187500D02*
X127000000Y-87310000D01*
X131000000Y-89187500D02*
X128877500Y-89187500D01*
X130852500Y-86040000D02*
X131000000Y-86187500D01*
X127000000Y-86040000D02*
X130852500Y-86040000D01*
X130097500Y-113812500D02*
X131010000Y-113812500D01*
X128670000Y-115240000D02*
X130097500Y-113812500D01*
X127000000Y-115240000D02*
X128670000Y-115240000D01*
X130172500Y-116812500D02*
X131010000Y-116812500D01*
X129870000Y-116510000D02*
X130172500Y-116812500D01*
X127000000Y-116510000D02*
X129870000Y-116510000D01*
X146533590Y-97250000D02*
X147675000Y-97250000D01*
X145990000Y-96706410D02*
X146533590Y-97250000D01*
X145990000Y-95660000D02*
X145990000Y-96706410D01*
X154090000Y-87560000D02*
X145990000Y-95660000D01*
X154090000Y-83490000D02*
X154090000Y-87560000D01*
X152820000Y-82220000D02*
X154090000Y-83490000D01*
X146670000Y-96750000D02*
X147675000Y-96750000D01*
X146470000Y-96550000D02*
X146670000Y-96750000D01*
X146470000Y-95910000D02*
X146470000Y-96550000D01*
X155360000Y-87020000D02*
X146470000Y-95910000D01*
X155360000Y-84760000D02*
X155360000Y-87020000D01*
X149380000Y-88280000D02*
X151560000Y-86100000D01*
X146800000Y-88280000D02*
X149380000Y-88280000D01*
X151560000Y-86100000D02*
X151560000Y-83500000D01*
X144250000Y-90830000D02*
X146800000Y-88280000D01*
X151560000Y-83500000D02*
X150280000Y-82220000D01*
X144250000Y-94325000D02*
X144250000Y-90830000D01*
X143940000Y-83500000D02*
X142660000Y-82220000D01*
X143940000Y-85930000D02*
X143940000Y-83500000D01*
X141250000Y-88620000D02*
X143940000Y-85930000D01*
X141250000Y-94325000D02*
X141250000Y-88620000D01*
X142660000Y-86090000D02*
X142660000Y-84760000D01*
X140750000Y-88000000D02*
X142660000Y-86090000D01*
X140750000Y-94325000D02*
X140750000Y-88000000D01*
X141400000Y-86260000D02*
X141400000Y-83500000D01*
X140250000Y-87410000D02*
X141400000Y-86260000D01*
X141400000Y-83500000D02*
X140120000Y-82220000D01*
X140250000Y-94325000D02*
X140250000Y-87410000D01*
X138850000Y-80950000D02*
X140120000Y-79680000D01*
X138850000Y-87240000D02*
X138850000Y-80950000D01*
X135460000Y-94550000D02*
X135460000Y-90630000D01*
X135460000Y-90630000D02*
X138850000Y-87240000D01*
X136325000Y-95415000D02*
X135460000Y-94550000D01*
X136325000Y-96250000D02*
X136325000Y-95415000D01*
X154090000Y-116510000D02*
X152820000Y-117780000D01*
X154090000Y-113720000D02*
X154090000Y-116510000D01*
X149580000Y-109210000D02*
X154090000Y-113720000D01*
X149580000Y-104080000D02*
X149580000Y-109210000D01*
X148750000Y-103250000D02*
X149580000Y-104080000D01*
X147675000Y-103250000D02*
X148750000Y-103250000D01*
X155360000Y-113750000D02*
X155360000Y-115240000D01*
X150230000Y-108620000D02*
X155360000Y-113750000D01*
X150230000Y-103800000D02*
X150230000Y-108620000D01*
X149180000Y-102750000D02*
X150230000Y-103800000D01*
X147675000Y-102750000D02*
X149180000Y-102750000D01*
X156630000Y-116510000D02*
X155360000Y-117780000D01*
X156630000Y-113720000D02*
X156630000Y-116510000D01*
X150950000Y-108040000D02*
X156630000Y-113720000D01*
X147914990Y-102274990D02*
X149684990Y-102274990D01*
X150950000Y-103540000D02*
X150950000Y-108040000D01*
X149684990Y-102274990D02*
X150950000Y-103540000D01*
X147890000Y-102250000D02*
X147914990Y-102274990D01*
X147675000Y-102250000D02*
X147890000Y-102250000D01*
X150280000Y-113960000D02*
X150280000Y-115240000D01*
X147048587Y-112730000D02*
X149050000Y-112730000D01*
X149050000Y-112730000D02*
X150280000Y-113960000D01*
X144250000Y-109931413D02*
X147048587Y-112730000D01*
X144250000Y-105675000D02*
X144250000Y-109931413D01*
X151560000Y-113840000D02*
X151560000Y-116500000D01*
X149570000Y-111850000D02*
X151560000Y-113840000D01*
X146930000Y-111850000D02*
X149570000Y-111850000D01*
X151560000Y-116500000D02*
X150280000Y-117780000D01*
X144750000Y-109670000D02*
X146930000Y-111850000D01*
X144750000Y-105675000D02*
X144750000Y-109670000D01*
X137730000Y-111010000D02*
X135040000Y-113700000D01*
X137730000Y-103120000D02*
X137730000Y-111010000D01*
X137360000Y-102750000D02*
X137730000Y-103120000D01*
X135040000Y-113700000D02*
X135040000Y-115240000D01*
X136325000Y-102750000D02*
X137360000Y-102750000D01*
X136320000Y-116500000D02*
X135040000Y-117780000D01*
X136320000Y-113700000D02*
X136320000Y-116500000D01*
X138250000Y-111770000D02*
X136320000Y-113700000D01*
X138250000Y-105675000D02*
X138250000Y-111770000D01*
X137580000Y-113720000D02*
X137580000Y-115240000D01*
X138750000Y-112550000D02*
X137580000Y-113720000D01*
X138750000Y-105675000D02*
X138750000Y-112550000D01*
X149010000Y-116510000D02*
X147740000Y-117780000D01*
X149010000Y-113930000D02*
X149010000Y-116510000D01*
X148520000Y-113440000D02*
X149010000Y-113930000D01*
X146950000Y-113440000D02*
X148520000Y-113440000D01*
X143250000Y-109740000D02*
X146950000Y-113440000D01*
X143250000Y-105675000D02*
X143250000Y-109740000D01*
X143940000Y-116500000D02*
X142660000Y-117780000D01*
X143940000Y-114350000D02*
X143940000Y-116500000D01*
X141250000Y-111660000D02*
X143940000Y-114350000D01*
X141250000Y-105675000D02*
X141250000Y-111660000D01*
X145200000Y-114540000D02*
X145200000Y-115240000D01*
X141750000Y-111090000D02*
X145200000Y-114540000D01*
X141750000Y-105675000D02*
X141750000Y-111090000D01*
X143750000Y-105675000D02*
X143750000Y-104200000D01*
X152820000Y-113750000D02*
X152820000Y-115240000D01*
X149230000Y-110160000D02*
X152820000Y-113750000D01*
X149230000Y-110160000D02*
X148800000Y-110160000D01*
X148800000Y-110160000D02*
X147450000Y-110160000D01*
X148800000Y-108910000D02*
X148800000Y-110160000D01*
X148380000Y-108490000D02*
X148800000Y-108910000D01*
X148380000Y-107537500D02*
X148380000Y-108490000D01*
X142250000Y-110580000D02*
X142250000Y-105675000D01*
X146470000Y-114800000D02*
X142250000Y-110580000D01*
X146470000Y-116510000D02*
X146470000Y-114800000D01*
X145200000Y-117780000D02*
X146470000Y-116510000D01*
X147740000Y-115110000D02*
X147740000Y-115240000D01*
X142750000Y-110120000D02*
X147740000Y-115110000D01*
X142750000Y-105675000D02*
X142750000Y-110120000D01*
X151930000Y-96210000D02*
X152572500Y-96210000D01*
X151550000Y-96590000D02*
X151930000Y-96210000D01*
X151550000Y-100020000D02*
X151550000Y-96590000D01*
X150820000Y-100750000D02*
X151550000Y-100020000D01*
X147675000Y-100750000D02*
X150820000Y-100750000D01*
X142700000Y-102300000D02*
X142700000Y-104200000D01*
X144250000Y-100750000D02*
X142700000Y-102300000D01*
X147675000Y-100750000D02*
X144250000Y-100750000D01*
X155450000Y-92520000D02*
X155450000Y-89840000D01*
X152572500Y-95397500D02*
X155450000Y-92520000D01*
X152572500Y-96210000D02*
X152572500Y-95397500D01*
X151684990Y-101774990D02*
X153440000Y-103530000D01*
X147794990Y-101774990D02*
X151684990Y-101774990D01*
X147770000Y-101750000D02*
X147794990Y-101774990D01*
X147675000Y-101750000D02*
X147770000Y-101750000D01*
X152645000Y-104325000D02*
X152645000Y-105580000D01*
X153440000Y-103530000D02*
X152645000Y-104325000D01*
X152044990Y-101225010D02*
X153440000Y-99830000D01*
X147784990Y-101225010D02*
X152044990Y-101225010D01*
X147760000Y-101250000D02*
X147784990Y-101225010D01*
X147675000Y-101250000D02*
X147760000Y-101250000D01*
X152585000Y-98975000D02*
X152585000Y-97750000D01*
X153440000Y-99830000D02*
X152585000Y-98975000D01*
D24*
X139250000Y-93075000D02*
X138750000Y-92575000D01*
X139250000Y-94325000D02*
X139250000Y-93075000D01*
D22*
X142660000Y-114110000D02*
X142660000Y-115240000D01*
X140750000Y-112200000D02*
X142660000Y-114110000D01*
X140750000Y-105675000D02*
X140750000Y-112200000D01*
X156630000Y-86440000D02*
X147675000Y-95395000D01*
X147675000Y-95395000D02*
X147675000Y-96250000D01*
X156630000Y-83490000D02*
X156630000Y-86440000D01*
X155360000Y-82220000D02*
X156630000Y-83490000D01*
X152820000Y-87840000D02*
X152820000Y-84760000D01*
X146335000Y-94325000D02*
X152820000Y-87840000D01*
X145750000Y-94325000D02*
X146335000Y-94325000D01*
X150280000Y-85990000D02*
X150280000Y-84760000D01*
X146860000Y-87440000D02*
X148830000Y-87440000D01*
X148830000Y-87440000D02*
X150280000Y-85990000D01*
X143750000Y-90550000D02*
X146860000Y-87440000D01*
X143750000Y-94325000D02*
X143750000Y-90550000D01*
X149020000Y-83500000D02*
X147740000Y-82220000D01*
X148380000Y-86700000D02*
X149020000Y-86060000D01*
X149020000Y-86060000D02*
X149020000Y-83500000D01*
X146850000Y-86700000D02*
X148380000Y-86700000D01*
X143250000Y-90300000D02*
X146850000Y-86700000D01*
X143250000Y-94325000D02*
X143250000Y-90300000D01*
X142750000Y-89990000D02*
X147740000Y-85000000D01*
X142750000Y-94320000D02*
X142750000Y-89990000D01*
X142745000Y-94325000D02*
X142750000Y-94320000D01*
X147740000Y-85000000D02*
X147740000Y-84760000D01*
X142750000Y-94325000D02*
X142745000Y-94325000D01*
X146480000Y-83500000D02*
X145200000Y-82220000D01*
X146480000Y-85360000D02*
X146480000Y-83500000D01*
X142250000Y-89590000D02*
X146480000Y-85360000D01*
X142250000Y-94325000D02*
X142250000Y-89590000D01*
X145200000Y-85810000D02*
X145200000Y-84760000D01*
X141750000Y-89260000D02*
X145200000Y-85810000D01*
X141750000Y-94325000D02*
X141750000Y-89260000D01*
X140120000Y-86290000D02*
X140120000Y-84760000D01*
X139750000Y-86660000D02*
X140120000Y-86290000D01*
X139750000Y-94325000D02*
X139750000Y-86660000D01*
X134990000Y-89590000D02*
X137580000Y-87000000D01*
X134990000Y-96440000D02*
X134990000Y-89590000D01*
X137580000Y-87000000D02*
X137580000Y-84760000D01*
X135300000Y-96750000D02*
X134990000Y-96440000D01*
X136325000Y-96750000D02*
X135300000Y-96750000D01*
X136215001Y-83584999D02*
X137580000Y-82220000D01*
X136215001Y-86724999D02*
X136215001Y-83584999D01*
X135162050Y-97250000D02*
X134490000Y-96577950D01*
X134490000Y-96577950D02*
X134490000Y-88450000D01*
X136325000Y-97250000D02*
X135162050Y-97250000D01*
X134490000Y-88450000D02*
X136215001Y-86724999D01*
X133850000Y-87430000D02*
X135040000Y-86240000D01*
X133850000Y-96574360D02*
X133850000Y-87430000D01*
X135025640Y-97750000D02*
X133850000Y-96574360D01*
X135040000Y-86240000D02*
X135040000Y-84760000D01*
X136325000Y-97750000D02*
X135025640Y-97750000D01*
X147675000Y-100250000D02*
X144284315Y-100250000D01*
X144284315Y-100250000D02*
X140800000Y-96765685D01*
X140800000Y-96765685D02*
X140800000Y-95800000D01*
X141800000Y-96782843D02*
X141800000Y-95800000D01*
X144767157Y-99750000D02*
X141800000Y-96782843D01*
X147675000Y-99750000D02*
X144767157Y-99750000D01*
X142800013Y-96600013D02*
X142800013Y-95800000D01*
X145450000Y-99250000D02*
X142800013Y-96600013D01*
X147675000Y-99250000D02*
X145450000Y-99250000D01*
X143800013Y-96400013D02*
X143800013Y-95800000D01*
X146150000Y-98750000D02*
X143800013Y-96400013D01*
X147675000Y-98750000D02*
X146150000Y-98750000D01*
X127787500Y-106740000D02*
X127800000Y-106752500D01*
X130297500Y-106752500D02*
X130300000Y-106750000D01*
D23*
X127800000Y-106752500D02*
X130297500Y-106752500D01*
D26*
X141390000Y-119050000D02*
X142660000Y-120320000D01*
D23*
X133710000Y-118360000D02*
X134400000Y-119050000D01*
X133710000Y-111740000D02*
X133710000Y-118360000D01*
D26*
X134400000Y-119050000D02*
X141390000Y-119050000D01*
D23*
X131640000Y-109670000D02*
X133710000Y-111740000D01*
X130660000Y-109670000D02*
X131640000Y-109670000D01*
X130300000Y-109310000D02*
X130660000Y-109670000D01*
X130300000Y-108650000D02*
X130300000Y-109310000D01*
X126000000Y-107040000D02*
X125170000Y-107040000D01*
X126287500Y-106752500D02*
X126000000Y-107040000D01*
X127800000Y-106752500D02*
X126287500Y-106752500D01*
X128720000Y-108650000D02*
X127800000Y-107730000D01*
X127800000Y-107730000D02*
X127800000Y-106752500D01*
X130300000Y-108650000D02*
X128720000Y-108650000D01*
D22*
X141700000Y-102300000D02*
X141700000Y-104200000D01*
X136325000Y-99750000D02*
X139150000Y-99750000D01*
X139150000Y-99750000D02*
X141700000Y-102300000D01*
X129730000Y-91170000D02*
X128497500Y-91170000D01*
X131270000Y-92710000D02*
X129730000Y-91170000D01*
X131270000Y-96540000D02*
X131270000Y-92710000D01*
X134480000Y-99750000D02*
X131270000Y-96540000D01*
X136325000Y-99750000D02*
X134480000Y-99750000D01*
X136325000Y-100250000D02*
X138615685Y-100250000D01*
X138615685Y-100250000D02*
X140700000Y-102334315D01*
X140700000Y-102334315D02*
X140700000Y-104200000D01*
X129810000Y-92630000D02*
X128507500Y-92630000D01*
X130515001Y-93335001D02*
X129810000Y-92630000D01*
X130515001Y-96528591D02*
X130515001Y-93335001D01*
X134236410Y-100250000D02*
X130515001Y-96528591D01*
X136325000Y-100250000D02*
X134236410Y-100250000D01*
X136325000Y-100750000D02*
X138150000Y-100750000D01*
X138150000Y-100750000D02*
X139700000Y-102300000D01*
X139700000Y-102300000D02*
X139700000Y-104200000D01*
X138700000Y-102300000D02*
X138700000Y-104200000D01*
X136325000Y-101250000D02*
X137650000Y-101250000D01*
X137650000Y-101250000D02*
X138700000Y-102300000D01*
X130997500Y-81620000D02*
X131000000Y-81622500D01*
X129930000Y-81620000D02*
X130997500Y-81620000D01*
X134616410Y-99250000D02*
X136325000Y-99250000D01*
X131920000Y-96553590D02*
X134616410Y-99250000D01*
X131920000Y-81680000D02*
X131920000Y-96553590D01*
X133920000Y-79680000D02*
X131920000Y-81680000D01*
X135040000Y-79680000D02*
X133920000Y-79680000D01*
X130997500Y-84610000D02*
X131000000Y-84612500D01*
X129930000Y-84610000D02*
X130997500Y-84610000D01*
X136325000Y-98750000D02*
X134752820Y-98750000D01*
X134752820Y-98750000D02*
X132550000Y-96547180D01*
X132550000Y-96547180D02*
X132550000Y-82930000D01*
X132550000Y-82930000D02*
X134540000Y-80940000D01*
X134540000Y-80940000D02*
X136320000Y-80940000D01*
X136320000Y-80940000D02*
X137580000Y-79680000D01*
X130997500Y-87610000D02*
X131000000Y-87612500D01*
X129920000Y-87610000D02*
X130997500Y-87610000D01*
X134889230Y-98250000D02*
X133180000Y-96540770D01*
X136325000Y-98250000D02*
X134889230Y-98250000D01*
X133180000Y-84080000D02*
X135040000Y-82220000D01*
X133180000Y-96540770D02*
X133180000Y-84080000D01*
X140120000Y-113730000D02*
X140120000Y-115240000D01*
X139750000Y-113360000D02*
X140120000Y-113730000D01*
X139750000Y-105675000D02*
X139750000Y-113360000D01*
X131977500Y-112387500D02*
X132830000Y-113240000D01*
X132830000Y-113240000D02*
X132830000Y-113780000D01*
X131010000Y-112387500D02*
X131977500Y-112387500D01*
X138850000Y-116510000D02*
X137580000Y-117780000D01*
X138850000Y-113710000D02*
X138850000Y-116510000D01*
X139250000Y-113310000D02*
X138850000Y-113710000D01*
X139250000Y-105675000D02*
X139250000Y-113310000D01*
X132860000Y-116120000D02*
X132860000Y-116530000D01*
X132127500Y-115387500D02*
X132860000Y-116120000D01*
X131010000Y-115387500D02*
X132127500Y-115387500D01*
X131010000Y-118387500D02*
X132197496Y-118387500D01*
X132197496Y-118387500D02*
X132860004Y-119050008D01*
X141390000Y-116510000D02*
X140120000Y-117780000D01*
X141390000Y-113890000D02*
X141390000Y-116510000D01*
X140250000Y-112750000D02*
X141390000Y-113890000D01*
X140250000Y-105675000D02*
X140250000Y-112750000D01*
M02*
