G04 #@! TF.GenerationSoftware,KiCad,Pcbnew,5.1.9-73d0e3b20d~88~ubuntu20.04.1*
G04 #@! TF.CreationDate,2021-05-24T14:30:18+02:00*
G04 #@! TF.ProjectId,krieger,6b726965-6765-4722-9e6b-696361645f70,v2.0*
G04 #@! TF.SameCoordinates,Original*
G04 #@! TF.FileFunction,Copper,L3,Inr*
G04 #@! TF.FilePolarity,Positive*
%FSLAX46Y46*%
G04 Gerber Fmt 4.6, Leading zero omitted, Abs format (unit mm)*
G04 Created by KiCad (PCBNEW 5.1.9-73d0e3b20d~88~ubuntu20.04.1) date 2021-05-24 14:30:18*
%MOMM*%
%LPD*%
G01*
G04 APERTURE LIST*
G04 #@! TA.AperFunction,ComponentPad*
%ADD10C,1.700000*%
G04 #@! TD*
G04 #@! TA.AperFunction,ComponentPad*
%ADD11O,1.600000X1.000000*%
G04 #@! TD*
G04 #@! TA.AperFunction,ComponentPad*
%ADD12O,2.100000X1.000000*%
G04 #@! TD*
G04 #@! TA.AperFunction,ComponentPad*
%ADD13O,1.800000X1.070000*%
G04 #@! TD*
G04 #@! TA.AperFunction,ComponentPad*
%ADD14R,1.800000X1.070000*%
G04 #@! TD*
G04 #@! TA.AperFunction,ViaPad*
%ADD15C,0.800000*%
G04 #@! TD*
G04 #@! TA.AperFunction,Conductor*
%ADD16C,0.500000*%
G04 #@! TD*
G04 #@! TA.AperFunction,Conductor*
%ADD17C,0.250000*%
G04 #@! TD*
G04 #@! TA.AperFunction,Conductor*
%ADD18C,0.400000*%
G04 #@! TD*
G04 #@! TA.AperFunction,Conductor*
%ADD19C,0.254000*%
G04 #@! TD*
G04 #@! TA.AperFunction,Conductor*
%ADD20C,0.100000*%
G04 #@! TD*
G04 APERTURE END LIST*
D10*
X155360000Y-79680000D03*
X152820000Y-79680000D03*
X150280000Y-79680000D03*
X147740000Y-79680000D03*
X145200000Y-79680000D03*
X142660000Y-79680000D03*
X140120000Y-79680000D03*
X137580000Y-79680000D03*
X135040000Y-79680000D03*
X155360000Y-82220000D03*
X152820000Y-82220000D03*
X150280000Y-82220000D03*
X147740000Y-82220000D03*
X145200000Y-82220000D03*
X142660000Y-82220000D03*
X140120000Y-82220000D03*
X137580000Y-82220000D03*
X135040000Y-82220000D03*
X155360000Y-84760000D03*
X152820000Y-84760000D03*
X150280000Y-84760000D03*
X147740000Y-84760000D03*
X145200000Y-84760000D03*
X142660000Y-84760000D03*
X140120000Y-84760000D03*
X137580000Y-84760000D03*
X135040000Y-84760000D03*
X155360000Y-115240000D03*
X152820000Y-115240000D03*
X150280000Y-115240000D03*
X147740000Y-115240000D03*
X145200000Y-115240000D03*
X142660000Y-115240000D03*
X140120000Y-115240000D03*
X137580000Y-115240000D03*
X135040000Y-115240000D03*
X155360000Y-117780000D03*
X152820000Y-117780000D03*
X150280000Y-117780000D03*
X147740000Y-117780000D03*
X145200000Y-117780000D03*
X142660000Y-117780000D03*
X140120000Y-117780000D03*
X137580000Y-117780000D03*
X135040000Y-117780000D03*
X155360000Y-120320000D03*
X152820000Y-120320000D03*
X150280000Y-120320000D03*
X147740000Y-120320000D03*
X145200000Y-120320000D03*
X142660000Y-120320000D03*
X140120000Y-120320000D03*
X137580000Y-120320000D03*
X135040000Y-120320000D03*
X160440000Y-79680000D03*
X160440000Y-82220000D03*
X160440000Y-84760000D03*
X160440000Y-79680000D03*
X160440000Y-84760000D03*
X160440000Y-82220000D03*
X157900000Y-79680000D03*
X157900000Y-84760000D03*
X157900000Y-82220000D03*
X160440000Y-115240000D03*
X160440000Y-117780000D03*
X160440000Y-120320000D03*
X160440000Y-115240000D03*
X160440000Y-120320000D03*
X160440000Y-117780000D03*
X157900000Y-115240000D03*
X157900000Y-120320000D03*
X157900000Y-117780000D03*
X162980000Y-82220000D03*
X162980000Y-84760000D03*
X162980000Y-79680000D03*
X162980000Y-117780000D03*
X162980000Y-120320000D03*
X162980000Y-115240000D03*
X183300000Y-115240000D03*
X183300000Y-117780000D03*
X183300000Y-112700000D03*
X165520000Y-117780000D03*
X165520000Y-120320000D03*
X165520000Y-115240000D03*
X162980000Y-97460000D03*
X165520000Y-97460000D03*
X168060000Y-97460000D03*
X170600000Y-97460000D03*
X173140000Y-97460000D03*
X175680000Y-97460000D03*
X178220000Y-97460000D03*
X180760000Y-97460000D03*
X183300000Y-97460000D03*
X185840000Y-97460000D03*
X188380000Y-97460000D03*
X190920000Y-100000000D03*
X185840000Y-115240000D03*
X162980000Y-87300000D03*
X162980000Y-89840000D03*
X162980000Y-92380000D03*
X162980000Y-94920000D03*
X165520000Y-94920000D03*
X165520000Y-92380000D03*
X165520000Y-89840000D03*
X165520000Y-87300000D03*
X165520000Y-84760000D03*
X165520000Y-120320000D03*
X165520000Y-117780000D03*
X168060000Y-117780000D03*
X168060000Y-120320000D03*
X168060000Y-84760000D03*
X168060000Y-89840000D03*
X168060000Y-87300000D03*
X168060000Y-92380000D03*
X168060000Y-94920000D03*
X170600000Y-94920000D03*
X170600000Y-92380000D03*
X170600000Y-89840000D03*
X170600000Y-87300000D03*
X170600000Y-84760000D03*
X170600000Y-120320000D03*
X170600000Y-117780000D03*
X173140000Y-117780000D03*
X173140000Y-120320000D03*
X173140000Y-84760000D03*
X173140000Y-87300000D03*
X173140000Y-89840000D03*
X173140000Y-92380000D03*
X173140000Y-94920000D03*
X175680000Y-92380000D03*
X175680000Y-89840000D03*
X175680000Y-87300000D03*
X175680000Y-84760000D03*
X175680000Y-120320000D03*
X175680000Y-117780000D03*
X178220000Y-117780000D03*
X178220000Y-120320000D03*
X178220000Y-84760000D03*
X178220000Y-87300000D03*
X178220000Y-89840000D03*
X178220000Y-92380000D03*
X178220000Y-94920000D03*
X175680000Y-94920000D03*
X180760000Y-94920000D03*
X180760000Y-92380000D03*
X180760000Y-89840000D03*
X180760000Y-87300000D03*
X180760000Y-84760000D03*
X180760000Y-120320000D03*
X180760000Y-117780000D03*
X183300000Y-117780000D03*
X183300000Y-120320000D03*
X183300000Y-84760000D03*
X183300000Y-87300000D03*
X183300000Y-89840000D03*
X183300000Y-92380000D03*
X183300000Y-94920000D03*
X185840000Y-94920000D03*
X185840000Y-92380000D03*
X185840000Y-89840000D03*
X185840000Y-87300000D03*
X188380000Y-87300000D03*
X188380000Y-89840000D03*
X188380000Y-92380000D03*
X188380000Y-94920000D03*
X190920000Y-97460000D03*
X190920000Y-94920000D03*
X190920000Y-92380000D03*
X190920000Y-89840000D03*
X190920000Y-87300000D03*
X190920000Y-112700000D03*
X188380000Y-110160000D03*
X185840000Y-110160000D03*
X185840000Y-112700000D03*
X162980000Y-100000000D03*
X165520000Y-100000000D03*
X168060000Y-100000000D03*
X170600000Y-100000000D03*
X173140000Y-100000000D03*
X175680000Y-100000000D03*
X178220000Y-100000000D03*
X180760000Y-100000000D03*
X183300000Y-100000000D03*
X185840000Y-100000000D03*
X188380000Y-100000000D03*
X190920000Y-102540000D03*
X190920000Y-105080000D03*
X190920000Y-107620000D03*
X190920000Y-110160000D03*
X188380000Y-107620000D03*
X185840000Y-107620000D03*
X183300000Y-107620000D03*
X183300000Y-110160000D03*
X183300000Y-112700000D03*
X183300000Y-115240000D03*
X162980000Y-102540000D03*
X165520000Y-102540000D03*
X168060000Y-102540000D03*
X170600000Y-102540000D03*
X173140000Y-102540000D03*
X175680000Y-102540000D03*
X178220000Y-102540000D03*
X180760000Y-102540000D03*
X183300000Y-102540000D03*
X185840000Y-102540000D03*
X188380000Y-102540000D03*
X188380000Y-105080000D03*
X185840000Y-105080000D03*
X183300000Y-105080000D03*
X180760000Y-105080000D03*
X180760000Y-107620000D03*
X180760000Y-110160000D03*
X180760000Y-112700000D03*
X180760000Y-115240000D03*
X178220000Y-115240000D03*
X175680000Y-115240000D03*
X173140000Y-115240000D03*
X170600000Y-115240000D03*
X168060000Y-115240000D03*
X165520000Y-115240000D03*
X162980000Y-107620000D03*
X162980000Y-105080000D03*
X165520000Y-105080000D03*
X168060000Y-105080000D03*
X170600000Y-105080000D03*
X173140000Y-105080000D03*
X175680000Y-105080000D03*
X178220000Y-105080000D03*
X178220000Y-107620000D03*
X178220000Y-110160000D03*
X178220000Y-112700000D03*
X175680000Y-112700000D03*
X173140000Y-112700000D03*
X170600000Y-112700000D03*
X168060000Y-112700000D03*
X165520000Y-112700000D03*
X162980000Y-112700000D03*
X162980000Y-110160000D03*
X165520000Y-110160000D03*
X165520000Y-107620000D03*
X168060000Y-107620000D03*
X170600000Y-107620000D03*
X175680000Y-107620000D03*
X175680000Y-110160000D03*
X173140000Y-110160000D03*
X170600000Y-110160000D03*
X168060000Y-110160000D03*
X173140000Y-107620000D03*
X190920000Y-84760000D03*
X188380000Y-84760000D03*
X185840000Y-84760000D03*
X190920000Y-115240000D03*
X188380000Y-115240000D03*
X188380000Y-112700000D03*
X185840000Y-117780000D03*
X185840000Y-120320000D03*
X160440000Y-102540000D03*
X160440000Y-100000000D03*
X160440000Y-105080000D03*
X160440000Y-112700000D03*
X160440000Y-110160000D03*
X160440000Y-107620000D03*
X160440000Y-87300000D03*
X160440000Y-89840000D03*
X160440000Y-97460000D03*
X160440000Y-92380000D03*
X160440000Y-94920000D03*
X157900000Y-97460000D03*
X157900000Y-94920000D03*
X157900000Y-102540000D03*
X157900000Y-100000000D03*
X157900000Y-89840000D03*
X157900000Y-92380000D03*
X157900000Y-87300000D03*
X157900000Y-110160000D03*
X157900000Y-107620000D03*
X157900000Y-105080000D03*
X157900000Y-112700000D03*
X168060000Y-79680000D03*
X168060000Y-82220000D03*
X170600000Y-82220000D03*
X173140000Y-82220000D03*
X173140000Y-79680000D03*
X170600000Y-79680000D03*
X175680000Y-82220000D03*
X175680000Y-79680000D03*
X178220000Y-82220000D03*
X178220000Y-79680000D03*
X183300000Y-82220000D03*
X180760000Y-82220000D03*
X180760000Y-79680000D03*
X183300000Y-79680000D03*
X185840000Y-82220000D03*
X185840000Y-79680000D03*
X165520000Y-79680000D03*
X165520000Y-79680000D03*
X165520000Y-82220000D03*
X188380000Y-117780000D03*
X188380000Y-120320000D03*
X190920000Y-117780000D03*
X190920000Y-120320000D03*
X188380000Y-79680000D03*
X190920000Y-79680000D03*
X190920000Y-82220000D03*
X188380000Y-82220000D03*
X193460000Y-84760000D03*
X196000000Y-97460000D03*
X198540000Y-100000000D03*
X193460000Y-97460000D03*
X193460000Y-115240000D03*
X198540000Y-110160000D03*
X193460000Y-110160000D03*
X198540000Y-87300000D03*
X193460000Y-120320000D03*
X193460000Y-117780000D03*
X196000000Y-87300000D03*
X198540000Y-117780000D03*
X196000000Y-120320000D03*
X193460000Y-102540000D03*
X193460000Y-79680000D03*
X196000000Y-94920000D03*
X196000000Y-112700000D03*
X196000000Y-115240000D03*
X198540000Y-94920000D03*
X193460000Y-107620000D03*
X193460000Y-105080000D03*
X198540000Y-89840000D03*
X198540000Y-105080000D03*
X193460000Y-112700000D03*
X196000000Y-107620000D03*
X198540000Y-115240000D03*
X198540000Y-112700000D03*
X196000000Y-110160000D03*
X196000000Y-82220000D03*
X196000000Y-79680000D03*
X198540000Y-120320000D03*
X198540000Y-82220000D03*
X198540000Y-79680000D03*
X198540000Y-84760000D03*
X193460000Y-100000000D03*
X196000000Y-84760000D03*
X193460000Y-87300000D03*
X193460000Y-82220000D03*
X193460000Y-94920000D03*
X198540000Y-102540000D03*
X198540000Y-97460000D03*
X193460000Y-89840000D03*
X196000000Y-89840000D03*
X196000000Y-100000000D03*
X196000000Y-105080000D03*
X196000000Y-117780000D03*
X193460000Y-92380000D03*
X198540000Y-107620000D03*
X198540000Y-92380000D03*
X196000000Y-92380000D03*
X196000000Y-102540000D03*
D11*
X121640000Y-104320000D03*
X121640000Y-95680000D03*
D12*
X125820000Y-95680000D03*
X125820000Y-104320000D03*
D13*
X127000000Y-87310000D03*
X127000000Y-86040000D03*
X127000000Y-84770000D03*
D14*
X127000000Y-83500000D03*
X127000000Y-112700000D03*
D13*
X127000000Y-113970000D03*
X127000000Y-115240000D03*
X127000000Y-116510000D03*
D15*
X131430000Y-107699998D03*
X148400000Y-104930000D03*
X133480000Y-103030000D03*
X149450000Y-99820000D03*
X155180000Y-97740000D03*
X155180000Y-96210000D03*
X155240000Y-105580000D03*
X146600000Y-91450000D03*
X138750000Y-95700000D03*
X145250000Y-95700000D03*
X138750000Y-89980000D03*
X136780000Y-109387500D03*
X145260000Y-104300000D03*
X146900000Y-108560000D03*
X137080000Y-91410000D03*
X129789999Y-104630000D03*
X129790000Y-95369990D03*
X197300000Y-77810000D03*
X194730000Y-77820000D03*
X192190000Y-77810000D03*
X189650000Y-77810000D03*
X187120000Y-77810000D03*
X184560000Y-77810000D03*
X182040000Y-77800000D03*
X179500000Y-77800000D03*
X176980000Y-77800000D03*
X174430000Y-77820000D03*
X171870000Y-77800000D03*
X169310000Y-77800000D03*
X166790000Y-77820000D03*
X164240000Y-77810000D03*
X161700000Y-77810000D03*
X159160000Y-77810000D03*
X156650000Y-77800000D03*
X154090000Y-77810000D03*
X151560000Y-77790000D03*
X149020000Y-77800000D03*
X146470000Y-77800000D03*
X143920000Y-77800000D03*
X141390000Y-77800000D03*
X138860000Y-77810000D03*
X136330000Y-77790000D03*
X133640000Y-77810000D03*
X127020000Y-81740000D03*
X130910000Y-90800000D03*
X120960000Y-114410000D03*
X127030000Y-118270000D03*
X141390000Y-122170000D03*
X143930000Y-122170000D03*
X146460000Y-122190000D03*
X149020000Y-122190000D03*
X151540000Y-122190000D03*
X154080000Y-122200000D03*
X156630000Y-122200000D03*
X159190000Y-122200000D03*
X161740000Y-122200000D03*
X164260000Y-122180000D03*
X166800000Y-122160000D03*
X169320000Y-122160000D03*
X171860000Y-122180000D03*
X174430000Y-122180000D03*
X176970000Y-122180000D03*
X179470000Y-122180000D03*
X181910000Y-122180000D03*
X184570000Y-122180000D03*
X187120000Y-122200000D03*
X189650000Y-122200000D03*
X192200000Y-122180000D03*
X194730000Y-122190000D03*
X197290000Y-122190000D03*
X138870000Y-122180000D03*
X136310000Y-122180000D03*
X133750000Y-122180000D03*
X141870000Y-101270000D03*
X141080000Y-98100000D03*
X138080000Y-98800000D03*
X154000000Y-109030000D03*
X153960000Y-90970000D03*
X127460000Y-95850000D03*
X127455034Y-104139161D03*
X127800000Y-111089999D03*
X148800000Y-89830000D03*
X132304990Y-99990000D03*
X121470000Y-77870000D03*
X120960000Y-85310000D03*
X120930000Y-94270000D03*
X120950000Y-105680000D03*
X121360000Y-122040000D03*
X145930000Y-101600001D03*
X124300000Y-100000000D03*
X130070000Y-100000000D03*
X146910000Y-104930000D03*
X149450000Y-96170000D03*
X145020000Y-91450000D03*
X137070000Y-95060000D03*
X136770000Y-106312500D03*
X125890000Y-91170000D03*
X125900000Y-92630000D03*
X133480002Y-104600000D03*
X148800000Y-110160000D03*
X143750000Y-104200000D03*
X142700000Y-104200000D03*
X140800000Y-95800000D03*
X141800000Y-95800000D03*
X142800013Y-95800000D03*
X143800013Y-95800000D03*
X141700000Y-104200000D03*
X140700000Y-104200000D03*
X139700000Y-104200000D03*
X138700000Y-104200000D03*
X129930000Y-81620000D03*
X129930000Y-84610000D03*
X129920000Y-87610000D03*
X132830000Y-113780000D03*
X132860000Y-116530000D03*
X132860004Y-119050008D03*
D16*
X124300000Y-100000000D02*
X130070000Y-100000000D01*
D17*
X151560000Y-86410000D02*
X151550000Y-86420000D01*
D18*
X151550000Y-80950000D02*
X151550000Y-87000000D01*
X152820000Y-79680000D02*
X151550000Y-80950000D01*
X138850000Y-119050000D02*
X138850000Y-113000000D01*
X137580000Y-120320000D02*
X138850000Y-119050000D01*
X136310000Y-119050000D02*
X136310000Y-113000000D01*
X137580000Y-120320000D02*
X136310000Y-119050000D01*
X154090000Y-80950000D02*
X154090000Y-87000000D01*
X152820000Y-79680000D02*
X154090000Y-80950000D01*
D17*
X147323499Y-110160000D02*
X148800000Y-110160000D01*
X143750000Y-106586501D02*
X147323499Y-110160000D01*
X143750000Y-104200000D02*
X143750000Y-106586501D01*
X154090000Y-119050000D02*
X155360000Y-120320000D01*
X149440000Y-113120000D02*
X152630000Y-113120000D01*
X152630000Y-113120000D02*
X154090000Y-114580000D01*
X142700000Y-106380000D02*
X149440000Y-113120000D01*
X154090000Y-114580000D02*
X154090000Y-119050000D01*
X142700000Y-104200000D02*
X142700000Y-106380000D01*
X141400000Y-80940000D02*
X142660000Y-79680000D01*
X141400000Y-86260000D02*
X141400000Y-80940000D01*
X140800000Y-86860000D02*
X141400000Y-86260000D01*
X140800000Y-95800000D02*
X140800000Y-86860000D01*
X143940000Y-80940000D02*
X145200000Y-79680000D01*
X143940000Y-85930000D02*
X143940000Y-80940000D01*
X141800000Y-88070000D02*
X143940000Y-85930000D01*
X141800000Y-95800000D02*
X141800000Y-88070000D01*
X146480000Y-80940000D02*
X147740000Y-79680000D01*
X146480000Y-86260000D02*
X146480000Y-80940000D01*
X142800013Y-89939987D02*
X146480000Y-86260000D01*
X142800013Y-95800000D02*
X142800013Y-89939987D01*
X149020000Y-86060000D02*
X149020000Y-80940000D01*
X143800013Y-91279987D02*
X149020000Y-86060000D01*
X149020000Y-80940000D02*
X150280000Y-79680000D01*
X143800013Y-95800000D02*
X143800013Y-91279987D01*
X125820000Y-95680000D02*
X121640000Y-95680000D01*
X121640000Y-95680000D02*
X121640000Y-104320000D01*
X121640000Y-104320000D02*
X125820000Y-104320000D01*
X141700000Y-106620000D02*
X141700000Y-104200000D01*
X148770000Y-113690000D02*
X141700000Y-106620000D01*
X151560000Y-114420000D02*
X150830000Y-113690000D01*
X150830000Y-113690000D02*
X148770000Y-113690000D01*
X151560000Y-119060000D02*
X151560000Y-114420000D01*
X152820000Y-120320000D02*
X151560000Y-119060000D01*
X140700000Y-106380000D02*
X140700000Y-104200000D01*
X149010000Y-114690000D02*
X140700000Y-106380000D01*
X149010000Y-119050000D02*
X149010000Y-114690000D01*
X150280000Y-120320000D02*
X149010000Y-119050000D01*
X139700000Y-106190000D02*
X139700000Y-104200000D01*
X146470000Y-112960000D02*
X139700000Y-106190000D01*
X146470000Y-119050000D02*
X146470000Y-112960000D01*
X147740000Y-120320000D02*
X146470000Y-119050000D01*
X138700000Y-106070000D02*
X138700000Y-104200000D01*
X143940000Y-111310000D02*
X138700000Y-106070000D01*
X143940000Y-119060000D02*
X143940000Y-111310000D01*
X145200000Y-120320000D02*
X143940000Y-119060000D01*
X131980000Y-81620000D02*
X129930000Y-81620000D01*
X133920000Y-79680000D02*
X131980000Y-81620000D01*
X135040000Y-79680000D02*
X133920000Y-79680000D01*
X137580000Y-79680000D02*
X136320000Y-80940000D01*
X136320000Y-80940000D02*
X134540000Y-80940000D01*
X134540000Y-80940000D02*
X132550000Y-82930000D01*
X132550000Y-82930000D02*
X132550000Y-83870000D01*
X132550000Y-83870000D02*
X131810000Y-84610000D01*
X131810000Y-84610000D02*
X129930000Y-84610000D01*
X131740000Y-87610000D02*
X129920000Y-87610000D01*
X132550000Y-86800000D02*
X131740000Y-87610000D01*
X132550000Y-84710000D02*
X132550000Y-86800000D01*
X135040000Y-82220000D02*
X132550000Y-84710000D01*
D19*
X132722795Y-77319744D02*
X132644774Y-77508102D01*
X132605000Y-77708061D01*
X132605000Y-77911939D01*
X132644774Y-78111898D01*
X132722795Y-78300256D01*
X132836063Y-78469774D01*
X132980226Y-78613937D01*
X133149744Y-78727205D01*
X133338102Y-78805226D01*
X133538061Y-78845000D01*
X133741939Y-78845000D01*
X133822664Y-78828943D01*
X133750269Y-78937290D01*
X133627753Y-78974454D01*
X133495724Y-79045026D01*
X133379999Y-79139999D01*
X133356201Y-79168997D01*
X131665199Y-80860000D01*
X130633711Y-80860000D01*
X130589774Y-80816063D01*
X130420256Y-80702795D01*
X130231898Y-80624774D01*
X130031939Y-80585000D01*
X129828061Y-80585000D01*
X129628102Y-80624774D01*
X129439744Y-80702795D01*
X129270226Y-80816063D01*
X129126063Y-80960226D01*
X129012795Y-81129744D01*
X128934774Y-81318102D01*
X128895000Y-81518061D01*
X128895000Y-81721939D01*
X128934774Y-81921898D01*
X129012795Y-82110256D01*
X129126063Y-82279774D01*
X129270226Y-82423937D01*
X129439744Y-82537205D01*
X129628102Y-82615226D01*
X129828061Y-82655000D01*
X130031939Y-82655000D01*
X130231898Y-82615226D01*
X130420256Y-82537205D01*
X130589774Y-82423937D01*
X130633711Y-82380000D01*
X131942678Y-82380000D01*
X131980000Y-82383676D01*
X132017322Y-82380000D01*
X132017333Y-82380000D01*
X132022844Y-82379457D01*
X132009999Y-82389999D01*
X131973509Y-82434463D01*
X131915026Y-82505724D01*
X131856496Y-82615226D01*
X131844454Y-82637754D01*
X131800997Y-82781015D01*
X131790000Y-82892668D01*
X131790000Y-82892678D01*
X131786324Y-82930000D01*
X131790000Y-82967323D01*
X131790001Y-83555198D01*
X131495199Y-83850000D01*
X130633711Y-83850000D01*
X130589774Y-83806063D01*
X130420256Y-83692795D01*
X130231898Y-83614774D01*
X130031939Y-83575000D01*
X129828061Y-83575000D01*
X129628102Y-83614774D01*
X129439744Y-83692795D01*
X129270226Y-83806063D01*
X129126063Y-83950226D01*
X129012795Y-84119744D01*
X128934774Y-84308102D01*
X128895000Y-84508061D01*
X128895000Y-84711939D01*
X128934774Y-84911898D01*
X129012795Y-85100256D01*
X129126063Y-85269774D01*
X129270226Y-85413937D01*
X129439744Y-85527205D01*
X129628102Y-85605226D01*
X129828061Y-85645000D01*
X130031939Y-85645000D01*
X130231898Y-85605226D01*
X130420256Y-85527205D01*
X130589774Y-85413937D01*
X130633711Y-85370000D01*
X131772678Y-85370000D01*
X131790000Y-85371706D01*
X131790001Y-86485197D01*
X131425199Y-86850000D01*
X130623711Y-86850000D01*
X130579774Y-86806063D01*
X130410256Y-86692795D01*
X130221898Y-86614774D01*
X130021939Y-86575000D01*
X129818061Y-86575000D01*
X129618102Y-86614774D01*
X129429744Y-86692795D01*
X129260226Y-86806063D01*
X129116063Y-86950226D01*
X129002795Y-87119744D01*
X128924774Y-87308102D01*
X128885000Y-87508061D01*
X128885000Y-87711939D01*
X128924774Y-87911898D01*
X129002795Y-88100256D01*
X129116063Y-88269774D01*
X129260226Y-88413937D01*
X129429744Y-88527205D01*
X129618102Y-88605226D01*
X129818061Y-88645000D01*
X130021939Y-88645000D01*
X130221898Y-88605226D01*
X130410256Y-88527205D01*
X130579774Y-88413937D01*
X130623711Y-88370000D01*
X131702678Y-88370000D01*
X131740000Y-88373676D01*
X131777322Y-88370000D01*
X131777333Y-88370000D01*
X131888986Y-88359003D01*
X132032247Y-88315546D01*
X132164276Y-88244974D01*
X132280001Y-88150001D01*
X132303803Y-88120998D01*
X133061002Y-87363799D01*
X133090001Y-87340001D01*
X133122829Y-87300000D01*
X133184974Y-87224277D01*
X133255546Y-87092247D01*
X133276346Y-87023677D01*
X133299003Y-86948986D01*
X133310000Y-86837333D01*
X133310000Y-86837323D01*
X133313676Y-86800000D01*
X133310000Y-86762678D01*
X133310000Y-85024801D01*
X133555000Y-84779801D01*
X133555000Y-84906260D01*
X133612068Y-85193158D01*
X133724010Y-85463411D01*
X133886525Y-85706632D01*
X134093368Y-85913475D01*
X134336589Y-86075990D01*
X134606842Y-86187932D01*
X134893740Y-86245000D01*
X135186260Y-86245000D01*
X135473158Y-86187932D01*
X135743411Y-86075990D01*
X135986632Y-85913475D01*
X136193475Y-85706632D01*
X136310000Y-85532240D01*
X136426525Y-85706632D01*
X136633368Y-85913475D01*
X136876589Y-86075990D01*
X137146842Y-86187932D01*
X137433740Y-86245000D01*
X137726260Y-86245000D01*
X138013158Y-86187932D01*
X138283411Y-86075990D01*
X138526632Y-85913475D01*
X138733475Y-85706632D01*
X138850000Y-85532240D01*
X138966525Y-85706632D01*
X139173368Y-85913475D01*
X139416589Y-86075990D01*
X139686842Y-86187932D01*
X139973740Y-86245000D01*
X140266260Y-86245000D01*
X140358558Y-86226641D01*
X140288998Y-86296201D01*
X140260000Y-86319999D01*
X140236202Y-86348997D01*
X140236201Y-86348998D01*
X140165026Y-86435724D01*
X140094454Y-86567754D01*
X140069198Y-86651015D01*
X140059109Y-86684277D01*
X140050998Y-86711015D01*
X140036324Y-86860000D01*
X140040001Y-86897332D01*
X140040000Y-95096289D01*
X139996063Y-95140226D01*
X139882795Y-95309744D01*
X139804774Y-95498102D01*
X139784946Y-95597787D01*
X139745226Y-95398102D01*
X139667205Y-95209744D01*
X139553937Y-95040226D01*
X139409774Y-94896063D01*
X139240256Y-94782795D01*
X139051898Y-94704774D01*
X138851939Y-94665000D01*
X138648061Y-94665000D01*
X138448102Y-94704774D01*
X138259744Y-94782795D01*
X138090226Y-94896063D01*
X137946063Y-95040226D01*
X137832795Y-95209744D01*
X137754774Y-95398102D01*
X137715000Y-95598061D01*
X137715000Y-95801939D01*
X137754774Y-96001898D01*
X137832795Y-96190256D01*
X137946063Y-96359774D01*
X138090226Y-96503937D01*
X138259744Y-96617205D01*
X138448102Y-96695226D01*
X138648061Y-96735000D01*
X138851939Y-96735000D01*
X139051898Y-96695226D01*
X139240256Y-96617205D01*
X139409774Y-96503937D01*
X139553937Y-96359774D01*
X139667205Y-96190256D01*
X139745226Y-96001898D01*
X139765054Y-95902213D01*
X139804774Y-96101898D01*
X139882795Y-96290256D01*
X139996063Y-96459774D01*
X140140226Y-96603937D01*
X140309744Y-96717205D01*
X140498102Y-96795226D01*
X140698061Y-96835000D01*
X140901939Y-96835000D01*
X141101898Y-96795226D01*
X141290256Y-96717205D01*
X141300000Y-96710694D01*
X141309744Y-96717205D01*
X141498102Y-96795226D01*
X141698061Y-96835000D01*
X141901939Y-96835000D01*
X142101898Y-96795226D01*
X142290256Y-96717205D01*
X142300006Y-96710690D01*
X142309757Y-96717205D01*
X142498115Y-96795226D01*
X142698074Y-96835000D01*
X142901952Y-96835000D01*
X143101911Y-96795226D01*
X143290269Y-96717205D01*
X143300013Y-96710694D01*
X143309757Y-96717205D01*
X143498115Y-96795226D01*
X143698074Y-96835000D01*
X143901952Y-96835000D01*
X144101911Y-96795226D01*
X144290269Y-96717205D01*
X144459787Y-96603937D01*
X144575007Y-96488718D01*
X144590226Y-96503937D01*
X144759744Y-96617205D01*
X144948102Y-96695226D01*
X145148061Y-96735000D01*
X145351939Y-96735000D01*
X145551898Y-96695226D01*
X145740256Y-96617205D01*
X145909774Y-96503937D01*
X146053937Y-96359774D01*
X146167205Y-96190256D01*
X146201251Y-96108061D01*
X154145000Y-96108061D01*
X154145000Y-96311939D01*
X154184774Y-96511898D01*
X154262795Y-96700256D01*
X154376063Y-96869774D01*
X154481289Y-96975000D01*
X154376063Y-97080226D01*
X154262795Y-97249744D01*
X154184774Y-97438102D01*
X154145000Y-97638061D01*
X154145000Y-97841939D01*
X154184774Y-98041898D01*
X154262795Y-98230256D01*
X154376063Y-98399774D01*
X154520226Y-98543937D01*
X154689744Y-98657205D01*
X154878102Y-98735226D01*
X155078061Y-98775000D01*
X155281939Y-98775000D01*
X155481898Y-98735226D01*
X155670256Y-98657205D01*
X155839774Y-98543937D01*
X155983937Y-98399774D01*
X156097205Y-98230256D01*
X156175226Y-98041898D01*
X156215000Y-97841939D01*
X156215000Y-97638061D01*
X156175226Y-97438102D01*
X156097205Y-97249744D01*
X155983937Y-97080226D01*
X155878711Y-96975000D01*
X155983937Y-96869774D01*
X156097205Y-96700256D01*
X156175226Y-96511898D01*
X156215000Y-96311939D01*
X156215000Y-96108061D01*
X156175226Y-95908102D01*
X156097205Y-95719744D01*
X155983937Y-95550226D01*
X155839774Y-95406063D01*
X155670256Y-95292795D01*
X155481898Y-95214774D01*
X155281939Y-95175000D01*
X155078061Y-95175000D01*
X154878102Y-95214774D01*
X154689744Y-95292795D01*
X154520226Y-95406063D01*
X154376063Y-95550226D01*
X154262795Y-95719744D01*
X154184774Y-95908102D01*
X154145000Y-96108061D01*
X146201251Y-96108061D01*
X146245226Y-96001898D01*
X146285000Y-95801939D01*
X146285000Y-95598061D01*
X146245226Y-95398102D01*
X146167205Y-95209744D01*
X146053937Y-95040226D01*
X145909774Y-94896063D01*
X145740256Y-94782795D01*
X145551898Y-94704774D01*
X145351939Y-94665000D01*
X145148061Y-94665000D01*
X144948102Y-94704774D01*
X144759744Y-94782795D01*
X144590226Y-94896063D01*
X144560013Y-94926276D01*
X144560013Y-91594788D01*
X144806740Y-91348061D01*
X145565000Y-91348061D01*
X145565000Y-91551939D01*
X145604774Y-91751898D01*
X145682795Y-91940256D01*
X145796063Y-92109774D01*
X145940226Y-92253937D01*
X146109744Y-92367205D01*
X146298102Y-92445226D01*
X146498061Y-92485000D01*
X146701939Y-92485000D01*
X146885282Y-92448531D01*
X156409389Y-92448531D01*
X156451401Y-92738019D01*
X156549081Y-93013747D01*
X156622528Y-93151157D01*
X156871603Y-93228792D01*
X157720395Y-92380000D01*
X156871603Y-91531208D01*
X156622528Y-91608843D01*
X156496629Y-91872883D01*
X156424661Y-92156411D01*
X156409389Y-92448531D01*
X146885282Y-92448531D01*
X146901898Y-92445226D01*
X147090256Y-92367205D01*
X147259774Y-92253937D01*
X147403937Y-92109774D01*
X147517205Y-91940256D01*
X147595226Y-91751898D01*
X147635000Y-91551939D01*
X147635000Y-91348061D01*
X147595226Y-91148102D01*
X147517205Y-90959744D01*
X147455945Y-90868061D01*
X152925000Y-90868061D01*
X152925000Y-91071939D01*
X152964774Y-91271898D01*
X153042795Y-91460256D01*
X153156063Y-91629774D01*
X153300226Y-91773937D01*
X153469744Y-91887205D01*
X153658102Y-91965226D01*
X153858061Y-92005000D01*
X154061939Y-92005000D01*
X154261898Y-91965226D01*
X154450256Y-91887205D01*
X154619774Y-91773937D01*
X154763937Y-91629774D01*
X154877205Y-91460256D01*
X154955226Y-91271898D01*
X154995000Y-91071939D01*
X154995000Y-90868397D01*
X157051208Y-90868397D01*
X157126514Y-91110000D01*
X157051208Y-91351603D01*
X157900000Y-92200395D01*
X158748792Y-91351603D01*
X158673486Y-91110000D01*
X158748792Y-90868397D01*
X157900000Y-90019605D01*
X157051208Y-90868397D01*
X154995000Y-90868397D01*
X154995000Y-90868061D01*
X154955226Y-90668102D01*
X154877205Y-90479744D01*
X154763937Y-90310226D01*
X154619774Y-90166063D01*
X154450256Y-90052795D01*
X154261898Y-89974774D01*
X154061939Y-89935000D01*
X153858061Y-89935000D01*
X153658102Y-89974774D01*
X153469744Y-90052795D01*
X153300226Y-90166063D01*
X153156063Y-90310226D01*
X153042795Y-90479744D01*
X152964774Y-90668102D01*
X152925000Y-90868061D01*
X147455945Y-90868061D01*
X147403937Y-90790226D01*
X147259774Y-90646063D01*
X147090256Y-90532795D01*
X146901898Y-90454774D01*
X146701939Y-90415000D01*
X146498061Y-90415000D01*
X146298102Y-90454774D01*
X146109744Y-90532795D01*
X145940226Y-90646063D01*
X145796063Y-90790226D01*
X145682795Y-90959744D01*
X145604774Y-91148102D01*
X145565000Y-91348061D01*
X144806740Y-91348061D01*
X146426740Y-89728061D01*
X147765000Y-89728061D01*
X147765000Y-89931939D01*
X147804774Y-90131898D01*
X147882795Y-90320256D01*
X147996063Y-90489774D01*
X148140226Y-90633937D01*
X148309744Y-90747205D01*
X148498102Y-90825226D01*
X148698061Y-90865000D01*
X148901939Y-90865000D01*
X149101898Y-90825226D01*
X149290256Y-90747205D01*
X149459774Y-90633937D01*
X149603937Y-90489774D01*
X149717205Y-90320256D01*
X149795226Y-90131898D01*
X149835000Y-89931939D01*
X149835000Y-89908531D01*
X156409389Y-89908531D01*
X156451401Y-90198019D01*
X156549081Y-90473747D01*
X156622528Y-90611157D01*
X156871603Y-90688792D01*
X157720395Y-89840000D01*
X156871603Y-88991208D01*
X156622528Y-89068843D01*
X156496629Y-89332883D01*
X156424661Y-89616411D01*
X156409389Y-89908531D01*
X149835000Y-89908531D01*
X149835000Y-89728061D01*
X149795226Y-89528102D01*
X149717205Y-89339744D01*
X149603937Y-89170226D01*
X149459774Y-89026063D01*
X149290256Y-88912795D01*
X149101898Y-88834774D01*
X148901939Y-88795000D01*
X148698061Y-88795000D01*
X148498102Y-88834774D01*
X148309744Y-88912795D01*
X148140226Y-89026063D01*
X147996063Y-89170226D01*
X147882795Y-89339744D01*
X147804774Y-89528102D01*
X147765000Y-89728061D01*
X146426740Y-89728061D01*
X147826404Y-88328397D01*
X157051208Y-88328397D01*
X157126514Y-88570000D01*
X157051208Y-88811603D01*
X157900000Y-89660395D01*
X158748792Y-88811603D01*
X158673486Y-88570000D01*
X158748792Y-88328397D01*
X157900000Y-87479605D01*
X157051208Y-88328397D01*
X147826404Y-88328397D01*
X148786271Y-87368531D01*
X156409389Y-87368531D01*
X156451401Y-87658019D01*
X156549081Y-87933747D01*
X156622528Y-88071157D01*
X156871603Y-88148792D01*
X157720395Y-87300000D01*
X156871603Y-86451208D01*
X156622528Y-86528843D01*
X156496629Y-86792883D01*
X156424661Y-87076411D01*
X156409389Y-87368531D01*
X148786271Y-87368531D01*
X149531009Y-86623794D01*
X149560001Y-86600001D01*
X149583795Y-86571008D01*
X149583799Y-86571004D01*
X149641811Y-86500315D01*
X149654974Y-86484276D01*
X149725546Y-86352247D01*
X149769003Y-86208986D01*
X149774046Y-86157779D01*
X149846842Y-86187932D01*
X150133740Y-86245000D01*
X150426260Y-86245000D01*
X150713158Y-86187932D01*
X150983411Y-86075990D01*
X151226632Y-85913475D01*
X151433475Y-85706632D01*
X151550000Y-85532240D01*
X151666525Y-85706632D01*
X151873368Y-85913475D01*
X152116589Y-86075990D01*
X152386842Y-86187932D01*
X152673740Y-86245000D01*
X152966260Y-86245000D01*
X153253158Y-86187932D01*
X153523411Y-86075990D01*
X153766632Y-85913475D01*
X153973475Y-85706632D01*
X154090000Y-85532240D01*
X154206525Y-85706632D01*
X154413368Y-85913475D01*
X154656589Y-86075990D01*
X154926842Y-86187932D01*
X155213740Y-86245000D01*
X155506260Y-86245000D01*
X155793158Y-86187932D01*
X156063411Y-86075990D01*
X156306632Y-85913475D01*
X156513475Y-85706632D01*
X156630000Y-85532240D01*
X156746525Y-85706632D01*
X156953368Y-85913475D01*
X157126729Y-86029311D01*
X157051208Y-86271603D01*
X157900000Y-87120395D01*
X158748792Y-86271603D01*
X158673271Y-86029311D01*
X158846632Y-85913475D01*
X159053475Y-85706632D01*
X159170000Y-85532240D01*
X159286525Y-85706632D01*
X159493368Y-85913475D01*
X159667760Y-86030000D01*
X159493368Y-86146525D01*
X159286525Y-86353368D01*
X159170689Y-86526729D01*
X158928397Y-86451208D01*
X158079605Y-87300000D01*
X158928397Y-88148792D01*
X159170689Y-88073271D01*
X159286525Y-88246632D01*
X159493368Y-88453475D01*
X159667760Y-88570000D01*
X159493368Y-88686525D01*
X159286525Y-88893368D01*
X159170689Y-89066729D01*
X158928397Y-88991208D01*
X158079605Y-89840000D01*
X158928397Y-90688792D01*
X159170689Y-90613271D01*
X159286525Y-90786632D01*
X159493368Y-90993475D01*
X159667760Y-91110000D01*
X159493368Y-91226525D01*
X159286525Y-91433368D01*
X159170689Y-91606729D01*
X158928397Y-91531208D01*
X158079605Y-92380000D01*
X158928397Y-93228792D01*
X159170689Y-93153271D01*
X159286525Y-93326632D01*
X159493368Y-93533475D01*
X159667760Y-93650000D01*
X159493368Y-93766525D01*
X159286525Y-93973368D01*
X159170000Y-94147760D01*
X159053475Y-93973368D01*
X158846632Y-93766525D01*
X158673271Y-93650689D01*
X158748792Y-93408397D01*
X157900000Y-92559605D01*
X157051208Y-93408397D01*
X157126729Y-93650689D01*
X156953368Y-93766525D01*
X156746525Y-93973368D01*
X156584010Y-94216589D01*
X156472068Y-94486842D01*
X156415000Y-94773740D01*
X156415000Y-95066260D01*
X156472068Y-95353158D01*
X156584010Y-95623411D01*
X156746525Y-95866632D01*
X156953368Y-96073475D01*
X157127760Y-96190000D01*
X156953368Y-96306525D01*
X156746525Y-96513368D01*
X156584010Y-96756589D01*
X156472068Y-97026842D01*
X156415000Y-97313740D01*
X156415000Y-97606260D01*
X156472068Y-97893158D01*
X156584010Y-98163411D01*
X156746525Y-98406632D01*
X156953368Y-98613475D01*
X157127760Y-98730000D01*
X156953368Y-98846525D01*
X156746525Y-99053368D01*
X156584010Y-99296589D01*
X156472068Y-99566842D01*
X156415000Y-99853740D01*
X156415000Y-100146260D01*
X156472068Y-100433158D01*
X156584010Y-100703411D01*
X156746525Y-100946632D01*
X156953368Y-101153475D01*
X157127760Y-101270000D01*
X156953368Y-101386525D01*
X156746525Y-101593368D01*
X156584010Y-101836589D01*
X156472068Y-102106842D01*
X156415000Y-102393740D01*
X156415000Y-102686260D01*
X156472068Y-102973158D01*
X156584010Y-103243411D01*
X156746525Y-103486632D01*
X156953368Y-103693475D01*
X157127760Y-103810000D01*
X156953368Y-103926525D01*
X156746525Y-104133368D01*
X156584010Y-104376589D01*
X156472068Y-104646842D01*
X156415000Y-104933740D01*
X156415000Y-105226260D01*
X156472068Y-105513158D01*
X156584010Y-105783411D01*
X156746525Y-106026632D01*
X156953368Y-106233475D01*
X157126729Y-106349311D01*
X157051208Y-106591603D01*
X157900000Y-107440395D01*
X158748792Y-106591603D01*
X158673271Y-106349311D01*
X158846632Y-106233475D01*
X159053475Y-106026632D01*
X159170000Y-105852240D01*
X159286525Y-106026632D01*
X159493368Y-106233475D01*
X159667760Y-106350000D01*
X159493368Y-106466525D01*
X159286525Y-106673368D01*
X159170689Y-106846729D01*
X158928397Y-106771208D01*
X158079605Y-107620000D01*
X158928397Y-108468792D01*
X159170689Y-108393271D01*
X159286525Y-108566632D01*
X159493368Y-108773475D01*
X159667760Y-108890000D01*
X159493368Y-109006525D01*
X159286525Y-109213368D01*
X159170689Y-109386729D01*
X158928397Y-109311208D01*
X158079605Y-110160000D01*
X158928397Y-111008792D01*
X159170689Y-110933271D01*
X159286525Y-111106632D01*
X159493368Y-111313475D01*
X159667760Y-111430000D01*
X159493368Y-111546525D01*
X159286525Y-111753368D01*
X159170689Y-111926729D01*
X158928397Y-111851208D01*
X158079605Y-112700000D01*
X158928397Y-113548792D01*
X159170689Y-113473271D01*
X159286525Y-113646632D01*
X159493368Y-113853475D01*
X159667760Y-113970000D01*
X159493368Y-114086525D01*
X159286525Y-114293368D01*
X159170000Y-114467760D01*
X159053475Y-114293368D01*
X158846632Y-114086525D01*
X158673271Y-113970689D01*
X158748792Y-113728397D01*
X157900000Y-112879605D01*
X157051208Y-113728397D01*
X157126729Y-113970689D01*
X156953368Y-114086525D01*
X156746525Y-114293368D01*
X156630000Y-114467760D01*
X156513475Y-114293368D01*
X156306632Y-114086525D01*
X156063411Y-113924010D01*
X155793158Y-113812068D01*
X155506260Y-113755000D01*
X155213740Y-113755000D01*
X154926842Y-113812068D01*
X154656589Y-113924010D01*
X154568003Y-113983201D01*
X153353333Y-112768531D01*
X156409389Y-112768531D01*
X156451401Y-113058019D01*
X156549081Y-113333747D01*
X156622528Y-113471157D01*
X156871603Y-113548792D01*
X157720395Y-112700000D01*
X156871603Y-111851208D01*
X156622528Y-111928843D01*
X156496629Y-112192883D01*
X156424661Y-112476411D01*
X156409389Y-112768531D01*
X153353333Y-112768531D01*
X153193804Y-112609003D01*
X153170001Y-112579999D01*
X153054276Y-112485026D01*
X152922247Y-112414454D01*
X152778986Y-112370997D01*
X152667333Y-112360000D01*
X152667322Y-112360000D01*
X152630000Y-112356324D01*
X152592678Y-112360000D01*
X149754803Y-112360000D01*
X148562922Y-111168119D01*
X148698061Y-111195000D01*
X148901939Y-111195000D01*
X148935134Y-111188397D01*
X157051208Y-111188397D01*
X157126514Y-111430000D01*
X157051208Y-111671603D01*
X157900000Y-112520395D01*
X158748792Y-111671603D01*
X158673486Y-111430000D01*
X158748792Y-111188397D01*
X157900000Y-110339605D01*
X157051208Y-111188397D01*
X148935134Y-111188397D01*
X149101898Y-111155226D01*
X149290256Y-111077205D01*
X149459774Y-110963937D01*
X149603937Y-110819774D01*
X149717205Y-110650256D01*
X149795226Y-110461898D01*
X149835000Y-110261939D01*
X149835000Y-110228531D01*
X156409389Y-110228531D01*
X156451401Y-110518019D01*
X156549081Y-110793747D01*
X156622528Y-110931157D01*
X156871603Y-111008792D01*
X157720395Y-110160000D01*
X156871603Y-109311208D01*
X156622528Y-109388843D01*
X156496629Y-109652883D01*
X156424661Y-109936411D01*
X156409389Y-110228531D01*
X149835000Y-110228531D01*
X149835000Y-110058061D01*
X149795226Y-109858102D01*
X149717205Y-109669744D01*
X149603937Y-109500226D01*
X149459774Y-109356063D01*
X149290256Y-109242795D01*
X149101898Y-109164774D01*
X148901939Y-109125000D01*
X148698061Y-109125000D01*
X148498102Y-109164774D01*
X148309744Y-109242795D01*
X148140226Y-109356063D01*
X148096289Y-109400000D01*
X147638301Y-109400000D01*
X147581006Y-109342705D01*
X147703937Y-109219774D01*
X147817205Y-109050256D01*
X147867820Y-108928061D01*
X152965000Y-108928061D01*
X152965000Y-109131939D01*
X153004774Y-109331898D01*
X153082795Y-109520256D01*
X153196063Y-109689774D01*
X153340226Y-109833937D01*
X153509744Y-109947205D01*
X153698102Y-110025226D01*
X153898061Y-110065000D01*
X154101939Y-110065000D01*
X154301898Y-110025226D01*
X154490256Y-109947205D01*
X154659774Y-109833937D01*
X154803937Y-109689774D01*
X154917205Y-109520256D01*
X154995226Y-109331898D01*
X155035000Y-109131939D01*
X155035000Y-108928061D01*
X154995226Y-108728102D01*
X154962211Y-108648397D01*
X157051208Y-108648397D01*
X157126514Y-108890000D01*
X157051208Y-109131603D01*
X157900000Y-109980395D01*
X158748792Y-109131603D01*
X158673486Y-108890000D01*
X158748792Y-108648397D01*
X157900000Y-107799605D01*
X157051208Y-108648397D01*
X154962211Y-108648397D01*
X154917205Y-108539744D01*
X154803937Y-108370226D01*
X154659774Y-108226063D01*
X154490256Y-108112795D01*
X154301898Y-108034774D01*
X154101939Y-107995000D01*
X153898061Y-107995000D01*
X153698102Y-108034774D01*
X153509744Y-108112795D01*
X153340226Y-108226063D01*
X153196063Y-108370226D01*
X153082795Y-108539744D01*
X153004774Y-108728102D01*
X152965000Y-108928061D01*
X147867820Y-108928061D01*
X147895226Y-108861898D01*
X147935000Y-108661939D01*
X147935000Y-108458061D01*
X147895226Y-108258102D01*
X147817205Y-108069744D01*
X147703937Y-107900226D01*
X147559774Y-107756063D01*
X147458705Y-107688531D01*
X156409389Y-107688531D01*
X156451401Y-107978019D01*
X156549081Y-108253747D01*
X156622528Y-108391157D01*
X156871603Y-108468792D01*
X157720395Y-107620000D01*
X156871603Y-106771208D01*
X156622528Y-106848843D01*
X156496629Y-107112883D01*
X156424661Y-107396411D01*
X156409389Y-107688531D01*
X147458705Y-107688531D01*
X147390256Y-107642795D01*
X147201898Y-107564774D01*
X147001939Y-107525000D01*
X146798061Y-107525000D01*
X146598102Y-107564774D01*
X146409744Y-107642795D01*
X146240226Y-107756063D01*
X146117295Y-107878994D01*
X144510000Y-106271700D01*
X144510000Y-105013711D01*
X144600226Y-105103937D01*
X144769744Y-105217205D01*
X144958102Y-105295226D01*
X145158061Y-105335000D01*
X145361939Y-105335000D01*
X145561898Y-105295226D01*
X145750256Y-105217205D01*
X145919774Y-105103937D01*
X146063937Y-104959774D01*
X146151944Y-104828061D01*
X147365000Y-104828061D01*
X147365000Y-105031939D01*
X147404774Y-105231898D01*
X147482795Y-105420256D01*
X147596063Y-105589774D01*
X147740226Y-105733937D01*
X147909744Y-105847205D01*
X148098102Y-105925226D01*
X148298061Y-105965000D01*
X148501939Y-105965000D01*
X148701898Y-105925226D01*
X148890256Y-105847205D01*
X149059774Y-105733937D01*
X149203937Y-105589774D01*
X149278581Y-105478061D01*
X154205000Y-105478061D01*
X154205000Y-105681939D01*
X154244774Y-105881898D01*
X154322795Y-106070256D01*
X154436063Y-106239774D01*
X154580226Y-106383937D01*
X154749744Y-106497205D01*
X154938102Y-106575226D01*
X155138061Y-106615000D01*
X155341939Y-106615000D01*
X155541898Y-106575226D01*
X155730256Y-106497205D01*
X155899774Y-106383937D01*
X156043937Y-106239774D01*
X156157205Y-106070256D01*
X156235226Y-105881898D01*
X156275000Y-105681939D01*
X156275000Y-105478061D01*
X156235226Y-105278102D01*
X156157205Y-105089744D01*
X156043937Y-104920226D01*
X155899774Y-104776063D01*
X155730256Y-104662795D01*
X155541898Y-104584774D01*
X155341939Y-104545000D01*
X155138061Y-104545000D01*
X154938102Y-104584774D01*
X154749744Y-104662795D01*
X154580226Y-104776063D01*
X154436063Y-104920226D01*
X154322795Y-105089744D01*
X154244774Y-105278102D01*
X154205000Y-105478061D01*
X149278581Y-105478061D01*
X149317205Y-105420256D01*
X149395226Y-105231898D01*
X149435000Y-105031939D01*
X149435000Y-104828061D01*
X149395226Y-104628102D01*
X149317205Y-104439744D01*
X149203937Y-104270226D01*
X149059774Y-104126063D01*
X148890256Y-104012795D01*
X148701898Y-103934774D01*
X148501939Y-103895000D01*
X148298061Y-103895000D01*
X148098102Y-103934774D01*
X147909744Y-104012795D01*
X147740226Y-104126063D01*
X147596063Y-104270226D01*
X147482795Y-104439744D01*
X147404774Y-104628102D01*
X147365000Y-104828061D01*
X146151944Y-104828061D01*
X146177205Y-104790256D01*
X146255226Y-104601898D01*
X146295000Y-104401939D01*
X146295000Y-104198061D01*
X146255226Y-103998102D01*
X146177205Y-103809744D01*
X146063937Y-103640226D01*
X145919774Y-103496063D01*
X145750256Y-103382795D01*
X145561898Y-103304774D01*
X145361939Y-103265000D01*
X145158061Y-103265000D01*
X144958102Y-103304774D01*
X144769744Y-103382795D01*
X144600226Y-103496063D01*
X144554789Y-103541500D01*
X144553937Y-103540226D01*
X144409774Y-103396063D01*
X144240256Y-103282795D01*
X144051898Y-103204774D01*
X143851939Y-103165000D01*
X143648061Y-103165000D01*
X143448102Y-103204774D01*
X143259744Y-103282795D01*
X143225000Y-103306010D01*
X143190256Y-103282795D01*
X143001898Y-103204774D01*
X142801939Y-103165000D01*
X142598061Y-103165000D01*
X142398102Y-103204774D01*
X142209744Y-103282795D01*
X142200000Y-103289306D01*
X142190256Y-103282795D01*
X142001898Y-103204774D01*
X141801939Y-103165000D01*
X141598061Y-103165000D01*
X141398102Y-103204774D01*
X141209744Y-103282795D01*
X141200000Y-103289306D01*
X141190256Y-103282795D01*
X141001898Y-103204774D01*
X140801939Y-103165000D01*
X140598061Y-103165000D01*
X140398102Y-103204774D01*
X140209744Y-103282795D01*
X140200000Y-103289306D01*
X140190256Y-103282795D01*
X140001898Y-103204774D01*
X139801939Y-103165000D01*
X139598061Y-103165000D01*
X139398102Y-103204774D01*
X139209744Y-103282795D01*
X139200000Y-103289306D01*
X139190256Y-103282795D01*
X139001898Y-103204774D01*
X138801939Y-103165000D01*
X138598061Y-103165000D01*
X138398102Y-103204774D01*
X138209744Y-103282795D01*
X138040226Y-103396063D01*
X137896063Y-103540226D01*
X137782795Y-103709744D01*
X137704774Y-103898102D01*
X137665000Y-104098061D01*
X137665000Y-104301939D01*
X137704774Y-104501898D01*
X137782795Y-104690256D01*
X137896063Y-104859774D01*
X137940001Y-104903712D01*
X137940000Y-106032677D01*
X137936324Y-106070000D01*
X137940000Y-106107322D01*
X137940000Y-106107332D01*
X137950997Y-106218985D01*
X137973830Y-106294255D01*
X137994454Y-106362246D01*
X138065026Y-106494276D01*
X138093511Y-106528985D01*
X138159999Y-106610001D01*
X138189003Y-106633804D01*
X143180001Y-111624803D01*
X143180001Y-113848039D01*
X143093158Y-113812068D01*
X142806260Y-113755000D01*
X142513740Y-113755000D01*
X142226842Y-113812068D01*
X141956589Y-113924010D01*
X141713368Y-114086525D01*
X141506525Y-114293368D01*
X141390000Y-114467760D01*
X141273475Y-114293368D01*
X141066632Y-114086525D01*
X140823411Y-113924010D01*
X140553158Y-113812068D01*
X140266260Y-113755000D01*
X139973740Y-113755000D01*
X139686842Y-113812068D01*
X139416589Y-113924010D01*
X139173368Y-114086525D01*
X138966525Y-114293368D01*
X138850000Y-114467760D01*
X138733475Y-114293368D01*
X138526632Y-114086525D01*
X138283411Y-113924010D01*
X138013158Y-113812068D01*
X137726260Y-113755000D01*
X137433740Y-113755000D01*
X137146842Y-113812068D01*
X136876589Y-113924010D01*
X136633368Y-114086525D01*
X136426525Y-114293368D01*
X136310000Y-114467760D01*
X136193475Y-114293368D01*
X135986632Y-114086525D01*
X135743411Y-113924010D01*
X135473158Y-113812068D01*
X135186260Y-113755000D01*
X134893740Y-113755000D01*
X134606842Y-113812068D01*
X134336589Y-113924010D01*
X134093368Y-114086525D01*
X133886525Y-114293368D01*
X133724010Y-114536589D01*
X133612068Y-114806842D01*
X133555000Y-115093740D01*
X133555000Y-115386260D01*
X133612068Y-115673158D01*
X133724010Y-115943411D01*
X133886525Y-116186632D01*
X134093368Y-116393475D01*
X134267760Y-116510000D01*
X134093368Y-116626525D01*
X133886525Y-116833368D01*
X133802575Y-116959009D01*
X133855226Y-116831898D01*
X133895000Y-116631939D01*
X133895000Y-116428061D01*
X133855226Y-116228102D01*
X133777205Y-116039744D01*
X133663937Y-115870226D01*
X133519774Y-115726063D01*
X133350256Y-115612795D01*
X133161898Y-115534774D01*
X132961939Y-115495000D01*
X132758061Y-115495000D01*
X132558102Y-115534774D01*
X132369744Y-115612795D01*
X132200226Y-115726063D01*
X132056063Y-115870226D01*
X131942795Y-116039744D01*
X131864774Y-116228102D01*
X131825000Y-116428061D01*
X131825000Y-116631939D01*
X131864774Y-116831898D01*
X131942795Y-117020256D01*
X132056063Y-117189774D01*
X132200226Y-117333937D01*
X132369744Y-117447205D01*
X132558102Y-117525226D01*
X132758061Y-117565000D01*
X132961939Y-117565000D01*
X133161898Y-117525226D01*
X133350256Y-117447205D01*
X133519774Y-117333937D01*
X133663937Y-117189774D01*
X133698641Y-117137836D01*
X133612068Y-117346842D01*
X133555000Y-117633740D01*
X133555000Y-117926260D01*
X133612068Y-118213158D01*
X133720439Y-118474789D01*
X133663941Y-118390234D01*
X133519778Y-118246071D01*
X133350260Y-118132803D01*
X133161902Y-118054782D01*
X132961943Y-118015008D01*
X132758065Y-118015008D01*
X132558106Y-118054782D01*
X132369748Y-118132803D01*
X132200230Y-118246071D01*
X132056067Y-118390234D01*
X131942799Y-118559752D01*
X131864778Y-118748110D01*
X131825004Y-118948069D01*
X131825004Y-119151947D01*
X131864778Y-119351906D01*
X131942799Y-119540264D01*
X132056067Y-119709782D01*
X132200230Y-119853945D01*
X132369748Y-119967213D01*
X132558106Y-120045234D01*
X132758065Y-120085008D01*
X132961943Y-120085008D01*
X133161902Y-120045234D01*
X133350260Y-119967213D01*
X133519778Y-119853945D01*
X133663941Y-119709782D01*
X133720421Y-119625253D01*
X133612068Y-119886842D01*
X133555000Y-120173740D01*
X133555000Y-120466260D01*
X133612068Y-120753158D01*
X133724010Y-121023411D01*
X133805253Y-121145000D01*
X133648061Y-121145000D01*
X133448102Y-121184774D01*
X133259744Y-121262795D01*
X133090226Y-121376063D01*
X132946063Y-121520226D01*
X132832795Y-121689744D01*
X132754774Y-121878102D01*
X132715000Y-122078061D01*
X132715000Y-122281939D01*
X132754774Y-122481898D01*
X132832795Y-122670256D01*
X132929510Y-122815000D01*
X122533505Y-122815000D01*
X122148103Y-122777211D01*
X122100786Y-122762925D01*
X122163937Y-122699774D01*
X122277205Y-122530256D01*
X122355226Y-122341898D01*
X122395000Y-122141939D01*
X122395000Y-121938061D01*
X122355226Y-121738102D01*
X122277205Y-121549744D01*
X122163937Y-121380226D01*
X122019774Y-121236063D01*
X121850256Y-121122795D01*
X121661898Y-121044774D01*
X121461939Y-121005000D01*
X121258061Y-121005000D01*
X121058102Y-121044774D01*
X120869744Y-121122795D01*
X120711051Y-121228830D01*
X120685000Y-120980977D01*
X120685000Y-115410576D01*
X120858061Y-115445000D01*
X121061939Y-115445000D01*
X121261898Y-115405226D01*
X121450256Y-115327205D01*
X121619774Y-115213937D01*
X121763937Y-115069774D01*
X121877205Y-114900256D01*
X121955226Y-114711898D01*
X121995000Y-114511939D01*
X121995000Y-114308061D01*
X121955226Y-114108102D01*
X121898022Y-113970000D01*
X125459339Y-113970000D01*
X125481929Y-114199360D01*
X125548831Y-114419906D01*
X125647766Y-114605000D01*
X125548831Y-114790094D01*
X125481929Y-115010640D01*
X125459339Y-115240000D01*
X125481929Y-115469360D01*
X125548831Y-115689906D01*
X125647766Y-115875000D01*
X125548831Y-116060094D01*
X125481929Y-116280640D01*
X125459339Y-116510000D01*
X125481929Y-116739360D01*
X125548831Y-116959906D01*
X125657474Y-117163162D01*
X125803682Y-117341318D01*
X125981838Y-117487526D01*
X126185094Y-117596169D01*
X126227313Y-117608976D01*
X126226063Y-117610226D01*
X126112795Y-117779744D01*
X126034774Y-117968102D01*
X125995000Y-118168061D01*
X125995000Y-118371939D01*
X126034774Y-118571898D01*
X126112795Y-118760256D01*
X126226063Y-118929774D01*
X126370226Y-119073937D01*
X126539744Y-119187205D01*
X126728102Y-119265226D01*
X126928061Y-119305000D01*
X127131939Y-119305000D01*
X127331898Y-119265226D01*
X127520256Y-119187205D01*
X127689774Y-119073937D01*
X127833937Y-118929774D01*
X127947205Y-118760256D01*
X128025226Y-118571898D01*
X128065000Y-118371939D01*
X128065000Y-118168061D01*
X128025226Y-117968102D01*
X127947205Y-117779744D01*
X127833937Y-117610226D01*
X127818147Y-117594436D01*
X128018162Y-117487526D01*
X128196318Y-117341318D01*
X128342526Y-117163162D01*
X128451169Y-116959906D01*
X128518071Y-116739360D01*
X128540661Y-116510000D01*
X128518071Y-116280640D01*
X128451169Y-116060094D01*
X128352234Y-115875000D01*
X128451169Y-115689906D01*
X128518071Y-115469360D01*
X128540661Y-115240000D01*
X128518071Y-115010640D01*
X128451169Y-114790094D01*
X128352234Y-114605000D01*
X128451169Y-114419906D01*
X128518071Y-114199360D01*
X128540661Y-113970000D01*
X128518071Y-113740640D01*
X128499089Y-113678061D01*
X131795000Y-113678061D01*
X131795000Y-113881939D01*
X131834774Y-114081898D01*
X131912795Y-114270256D01*
X132026063Y-114439774D01*
X132170226Y-114583937D01*
X132339744Y-114697205D01*
X132528102Y-114775226D01*
X132728061Y-114815000D01*
X132931939Y-114815000D01*
X133131898Y-114775226D01*
X133320256Y-114697205D01*
X133489774Y-114583937D01*
X133633937Y-114439774D01*
X133747205Y-114270256D01*
X133825226Y-114081898D01*
X133865000Y-113881939D01*
X133865000Y-113678061D01*
X133825226Y-113478102D01*
X133747205Y-113289744D01*
X133633937Y-113120226D01*
X133489774Y-112976063D01*
X133320256Y-112862795D01*
X133131898Y-112784774D01*
X132931939Y-112745000D01*
X132728061Y-112745000D01*
X132528102Y-112784774D01*
X132339744Y-112862795D01*
X132170226Y-112976063D01*
X132026063Y-113120226D01*
X131912795Y-113289744D01*
X131834774Y-113478102D01*
X131795000Y-113678061D01*
X128499089Y-113678061D01*
X128457130Y-113539743D01*
X128489502Y-113479180D01*
X128525812Y-113359482D01*
X128538072Y-113235000D01*
X128538072Y-112165000D01*
X128525812Y-112040518D01*
X128489502Y-111920820D01*
X128469782Y-111883928D01*
X128603937Y-111749773D01*
X128717205Y-111580255D01*
X128795226Y-111391897D01*
X128835000Y-111191938D01*
X128835000Y-110988060D01*
X128795226Y-110788101D01*
X128717205Y-110599743D01*
X128603937Y-110430225D01*
X128459774Y-110286062D01*
X128290256Y-110172794D01*
X128101898Y-110094773D01*
X127901939Y-110054999D01*
X127698061Y-110054999D01*
X127498102Y-110094773D01*
X127309744Y-110172794D01*
X127140226Y-110286062D01*
X126996063Y-110430225D01*
X126882795Y-110599743D01*
X126804774Y-110788101D01*
X126765000Y-110988060D01*
X126765000Y-111191938D01*
X126804774Y-111391897D01*
X126860706Y-111526928D01*
X126100000Y-111526928D01*
X125975518Y-111539188D01*
X125855820Y-111575498D01*
X125745506Y-111634463D01*
X125648815Y-111713815D01*
X125569463Y-111810506D01*
X125510498Y-111920820D01*
X125474188Y-112040518D01*
X125461928Y-112165000D01*
X125461928Y-113235000D01*
X125474188Y-113359482D01*
X125510498Y-113479180D01*
X125542870Y-113539743D01*
X125481929Y-113740640D01*
X125459339Y-113970000D01*
X121898022Y-113970000D01*
X121877205Y-113919744D01*
X121763937Y-113750226D01*
X121619774Y-113606063D01*
X121450256Y-113492795D01*
X121261898Y-113414774D01*
X121061939Y-113375000D01*
X120858061Y-113375000D01*
X120685000Y-113409424D01*
X120685000Y-109285561D01*
X135745000Y-109285561D01*
X135745000Y-109489439D01*
X135784774Y-109689398D01*
X135862795Y-109877756D01*
X135976063Y-110047274D01*
X136120226Y-110191437D01*
X136289744Y-110304705D01*
X136478102Y-110382726D01*
X136678061Y-110422500D01*
X136881939Y-110422500D01*
X137081898Y-110382726D01*
X137270256Y-110304705D01*
X137439774Y-110191437D01*
X137583937Y-110047274D01*
X137697205Y-109877756D01*
X137775226Y-109689398D01*
X137815000Y-109489439D01*
X137815000Y-109285561D01*
X137775226Y-109085602D01*
X137697205Y-108897244D01*
X137583937Y-108727726D01*
X137439774Y-108583563D01*
X137270256Y-108470295D01*
X137081898Y-108392274D01*
X136881939Y-108352500D01*
X136678061Y-108352500D01*
X136478102Y-108392274D01*
X136289744Y-108470295D01*
X136120226Y-108583563D01*
X135976063Y-108727726D01*
X135862795Y-108897244D01*
X135784774Y-109085602D01*
X135745000Y-109285561D01*
X120685000Y-109285561D01*
X120685000Y-107598059D01*
X130395000Y-107598059D01*
X130395000Y-107801937D01*
X130434774Y-108001896D01*
X130512795Y-108190254D01*
X130626063Y-108359772D01*
X130770226Y-108503935D01*
X130939744Y-108617203D01*
X131128102Y-108695224D01*
X131328061Y-108734998D01*
X131531939Y-108734998D01*
X131731898Y-108695224D01*
X131920256Y-108617203D01*
X132089774Y-108503935D01*
X132233937Y-108359772D01*
X132347205Y-108190254D01*
X132425226Y-108001896D01*
X132465000Y-107801937D01*
X132465000Y-107598059D01*
X132425226Y-107398100D01*
X132347205Y-107209742D01*
X132233937Y-107040224D01*
X132089774Y-106896061D01*
X131920256Y-106782793D01*
X131731898Y-106704772D01*
X131531939Y-106664998D01*
X131328061Y-106664998D01*
X131128102Y-106704772D01*
X130939744Y-106782793D01*
X130770226Y-106896061D01*
X130626063Y-107040224D01*
X130512795Y-107209742D01*
X130434774Y-107398100D01*
X130395000Y-107598059D01*
X120685000Y-107598059D01*
X120685000Y-106682565D01*
X120848061Y-106715000D01*
X121051939Y-106715000D01*
X121251898Y-106675226D01*
X121440256Y-106597205D01*
X121609774Y-106483937D01*
X121753937Y-106339774D01*
X121867205Y-106170256D01*
X121945226Y-105981898D01*
X121985000Y-105781939D01*
X121985000Y-105578061D01*
X121960522Y-105455000D01*
X121995752Y-105455000D01*
X122162499Y-105438577D01*
X122376447Y-105373676D01*
X122573623Y-105268284D01*
X122746449Y-105126449D01*
X122784569Y-105080000D01*
X124425431Y-105080000D01*
X124463551Y-105126449D01*
X124636377Y-105268284D01*
X124833553Y-105373676D01*
X125047501Y-105438577D01*
X125214248Y-105455000D01*
X126425752Y-105455000D01*
X126592499Y-105438577D01*
X126806447Y-105373676D01*
X127003623Y-105268284D01*
X127164115Y-105136571D01*
X127353095Y-105174161D01*
X127556973Y-105174161D01*
X127756932Y-105134387D01*
X127945290Y-105056366D01*
X128114808Y-104943098D01*
X128258971Y-104798935D01*
X128372239Y-104629417D01*
X128414222Y-104528061D01*
X128754999Y-104528061D01*
X128754999Y-104731939D01*
X128794773Y-104931898D01*
X128872794Y-105120256D01*
X128986062Y-105289774D01*
X129130225Y-105433937D01*
X129299743Y-105547205D01*
X129488101Y-105625226D01*
X129688060Y-105665000D01*
X129891938Y-105665000D01*
X130091897Y-105625226D01*
X130280255Y-105547205D01*
X130449773Y-105433937D01*
X130593936Y-105289774D01*
X130707204Y-105120256D01*
X130785225Y-104931898D01*
X130824999Y-104731939D01*
X130824999Y-104528061D01*
X130785225Y-104328102D01*
X130707204Y-104139744D01*
X130593936Y-103970226D01*
X130449773Y-103826063D01*
X130280255Y-103712795D01*
X130091897Y-103634774D01*
X129891938Y-103595000D01*
X129688060Y-103595000D01*
X129488101Y-103634774D01*
X129299743Y-103712795D01*
X129130225Y-103826063D01*
X128986062Y-103970226D01*
X128872794Y-104139744D01*
X128794773Y-104328102D01*
X128754999Y-104528061D01*
X128414222Y-104528061D01*
X128450260Y-104441059D01*
X128490034Y-104241100D01*
X128490034Y-104037222D01*
X128450260Y-103837263D01*
X128372239Y-103648905D01*
X128258971Y-103479387D01*
X128114808Y-103335224D01*
X127945290Y-103221956D01*
X127756932Y-103143935D01*
X127556973Y-103104161D01*
X127353095Y-103104161D01*
X127153136Y-103143935D01*
X126964778Y-103221956D01*
X126857520Y-103293623D01*
X126806447Y-103266324D01*
X126592499Y-103201423D01*
X126425752Y-103185000D01*
X126206904Y-103185000D01*
X126213108Y-103170022D01*
X126250000Y-102984552D01*
X126250000Y-102928061D01*
X132445000Y-102928061D01*
X132445000Y-103131939D01*
X132484774Y-103331898D01*
X132562795Y-103520256D01*
X132676063Y-103689774D01*
X132820226Y-103833937D01*
X132989744Y-103947205D01*
X133178102Y-104025226D01*
X133378061Y-104065000D01*
X133581939Y-104065000D01*
X133781898Y-104025226D01*
X133970256Y-103947205D01*
X134139774Y-103833937D01*
X134283937Y-103689774D01*
X134397205Y-103520256D01*
X134475226Y-103331898D01*
X134515000Y-103131939D01*
X134515000Y-102928061D01*
X134475226Y-102728102D01*
X134397205Y-102539744D01*
X134283937Y-102370226D01*
X134139774Y-102226063D01*
X133970256Y-102112795D01*
X133781898Y-102034774D01*
X133581939Y-101995000D01*
X133378061Y-101995000D01*
X133178102Y-102034774D01*
X132989744Y-102112795D01*
X132820226Y-102226063D01*
X132676063Y-102370226D01*
X132562795Y-102539744D01*
X132484774Y-102728102D01*
X132445000Y-102928061D01*
X126250000Y-102928061D01*
X126250000Y-102795448D01*
X126213108Y-102609978D01*
X126140741Y-102435269D01*
X126035681Y-102278036D01*
X125901964Y-102144319D01*
X125744731Y-102039259D01*
X125570022Y-101966892D01*
X125384552Y-101930000D01*
X125195448Y-101930000D01*
X125009978Y-101966892D01*
X124835269Y-102039259D01*
X124678036Y-102144319D01*
X124544319Y-102278036D01*
X124439259Y-102435269D01*
X124366892Y-102609978D01*
X124330000Y-102795448D01*
X124330000Y-102984552D01*
X124366892Y-103170022D01*
X124439259Y-103344731D01*
X124520715Y-103466638D01*
X124463551Y-103513551D01*
X124425431Y-103560000D01*
X122784569Y-103560000D01*
X122746449Y-103513551D01*
X122573623Y-103371716D01*
X122400000Y-103278913D01*
X122400000Y-101168061D01*
X140835000Y-101168061D01*
X140835000Y-101371939D01*
X140874774Y-101571898D01*
X140952795Y-101760256D01*
X141066063Y-101929774D01*
X141210226Y-102073937D01*
X141379744Y-102187205D01*
X141568102Y-102265226D01*
X141768061Y-102305000D01*
X141971939Y-102305000D01*
X142171898Y-102265226D01*
X142360256Y-102187205D01*
X142529774Y-102073937D01*
X142673937Y-101929774D01*
X142787205Y-101760256D01*
X142865226Y-101571898D01*
X142879912Y-101498062D01*
X144895000Y-101498062D01*
X144895000Y-101701940D01*
X144934774Y-101901899D01*
X145012795Y-102090257D01*
X145126063Y-102259775D01*
X145270226Y-102403938D01*
X145439744Y-102517206D01*
X145628102Y-102595227D01*
X145828061Y-102635001D01*
X146031939Y-102635001D01*
X146231898Y-102595227D01*
X146420256Y-102517206D01*
X146589774Y-102403938D01*
X146733937Y-102259775D01*
X146847205Y-102090257D01*
X146925226Y-101901899D01*
X146965000Y-101701940D01*
X146965000Y-101498062D01*
X146925226Y-101298103D01*
X146847205Y-101109745D01*
X146733937Y-100940227D01*
X146589774Y-100796064D01*
X146420256Y-100682796D01*
X146231898Y-100604775D01*
X146031939Y-100565001D01*
X145828061Y-100565001D01*
X145628102Y-100604775D01*
X145439744Y-100682796D01*
X145270226Y-100796064D01*
X145126063Y-100940227D01*
X145012795Y-101109745D01*
X144934774Y-101298103D01*
X144895000Y-101498062D01*
X142879912Y-101498062D01*
X142905000Y-101371939D01*
X142905000Y-101168061D01*
X142865226Y-100968102D01*
X142787205Y-100779744D01*
X142673937Y-100610226D01*
X142529774Y-100466063D01*
X142360256Y-100352795D01*
X142171898Y-100274774D01*
X141971939Y-100235000D01*
X141768061Y-100235000D01*
X141568102Y-100274774D01*
X141379744Y-100352795D01*
X141210226Y-100466063D01*
X141066063Y-100610226D01*
X140952795Y-100779744D01*
X140874774Y-100968102D01*
X140835000Y-101168061D01*
X122400000Y-101168061D01*
X122400000Y-99898061D01*
X123265000Y-99898061D01*
X123265000Y-100101939D01*
X123304774Y-100301898D01*
X123382795Y-100490256D01*
X123496063Y-100659774D01*
X123640226Y-100803937D01*
X123809744Y-100917205D01*
X123998102Y-100995226D01*
X124198061Y-101035000D01*
X124401939Y-101035000D01*
X124601898Y-100995226D01*
X124790256Y-100917205D01*
X124838454Y-100885000D01*
X129531546Y-100885000D01*
X129579744Y-100917205D01*
X129768102Y-100995226D01*
X129968061Y-101035000D01*
X130171939Y-101035000D01*
X130371898Y-100995226D01*
X130560256Y-100917205D01*
X130729774Y-100803937D01*
X130873937Y-100659774D01*
X130987205Y-100490256D01*
X131065226Y-100301898D01*
X131105000Y-100101939D01*
X131105000Y-99898061D01*
X131103011Y-99888061D01*
X131269990Y-99888061D01*
X131269990Y-100091939D01*
X131309764Y-100291898D01*
X131387785Y-100480256D01*
X131501053Y-100649774D01*
X131645216Y-100793937D01*
X131814734Y-100907205D01*
X132003092Y-100985226D01*
X132203051Y-101025000D01*
X132406929Y-101025000D01*
X132606888Y-100985226D01*
X132795246Y-100907205D01*
X132964764Y-100793937D01*
X133108927Y-100649774D01*
X133222195Y-100480256D01*
X133300216Y-100291898D01*
X133339990Y-100091939D01*
X133339990Y-99888061D01*
X133300216Y-99688102D01*
X133222195Y-99499744D01*
X133108927Y-99330226D01*
X132964764Y-99186063D01*
X132795246Y-99072795D01*
X132606888Y-98994774D01*
X132406929Y-98955000D01*
X132203051Y-98955000D01*
X132003092Y-98994774D01*
X131814734Y-99072795D01*
X131645216Y-99186063D01*
X131501053Y-99330226D01*
X131387785Y-99499744D01*
X131309764Y-99688102D01*
X131269990Y-99888061D01*
X131103011Y-99888061D01*
X131065226Y-99698102D01*
X130987205Y-99509744D01*
X130873937Y-99340226D01*
X130729774Y-99196063D01*
X130560256Y-99082795D01*
X130371898Y-99004774D01*
X130171939Y-98965000D01*
X129968061Y-98965000D01*
X129768102Y-99004774D01*
X129579744Y-99082795D01*
X129531546Y-99115000D01*
X124838454Y-99115000D01*
X124790256Y-99082795D01*
X124601898Y-99004774D01*
X124401939Y-98965000D01*
X124198061Y-98965000D01*
X123998102Y-99004774D01*
X123809744Y-99082795D01*
X123640226Y-99196063D01*
X123496063Y-99340226D01*
X123382795Y-99509744D01*
X123304774Y-99698102D01*
X123265000Y-99898061D01*
X122400000Y-99898061D01*
X122400000Y-98698061D01*
X137045000Y-98698061D01*
X137045000Y-98901939D01*
X137084774Y-99101898D01*
X137162795Y-99290256D01*
X137276063Y-99459774D01*
X137420226Y-99603937D01*
X137589744Y-99717205D01*
X137778102Y-99795226D01*
X137978061Y-99835000D01*
X138181939Y-99835000D01*
X138381898Y-99795226D01*
X138568189Y-99718061D01*
X148415000Y-99718061D01*
X148415000Y-99921939D01*
X148454774Y-100121898D01*
X148532795Y-100310256D01*
X148646063Y-100479774D01*
X148790226Y-100623937D01*
X148959744Y-100737205D01*
X149148102Y-100815226D01*
X149348061Y-100855000D01*
X149551939Y-100855000D01*
X149751898Y-100815226D01*
X149940256Y-100737205D01*
X150109774Y-100623937D01*
X150253937Y-100479774D01*
X150367205Y-100310256D01*
X150445226Y-100121898D01*
X150485000Y-99921939D01*
X150485000Y-99718061D01*
X150445226Y-99518102D01*
X150367205Y-99329744D01*
X150253937Y-99160226D01*
X150109774Y-99016063D01*
X149940256Y-98902795D01*
X149751898Y-98824774D01*
X149551939Y-98785000D01*
X149348061Y-98785000D01*
X149148102Y-98824774D01*
X148959744Y-98902795D01*
X148790226Y-99016063D01*
X148646063Y-99160226D01*
X148532795Y-99329744D01*
X148454774Y-99518102D01*
X148415000Y-99718061D01*
X138568189Y-99718061D01*
X138570256Y-99717205D01*
X138739774Y-99603937D01*
X138883937Y-99459774D01*
X138997205Y-99290256D01*
X139075226Y-99101898D01*
X139115000Y-98901939D01*
X139115000Y-98698061D01*
X139075226Y-98498102D01*
X138997205Y-98309744D01*
X138883937Y-98140226D01*
X138741772Y-97998061D01*
X140045000Y-97998061D01*
X140045000Y-98201939D01*
X140084774Y-98401898D01*
X140162795Y-98590256D01*
X140276063Y-98759774D01*
X140420226Y-98903937D01*
X140589744Y-99017205D01*
X140778102Y-99095226D01*
X140978061Y-99135000D01*
X141181939Y-99135000D01*
X141381898Y-99095226D01*
X141570256Y-99017205D01*
X141739774Y-98903937D01*
X141883937Y-98759774D01*
X141997205Y-98590256D01*
X142075226Y-98401898D01*
X142115000Y-98201939D01*
X142115000Y-97998061D01*
X142075226Y-97798102D01*
X141997205Y-97609744D01*
X141883937Y-97440226D01*
X141739774Y-97296063D01*
X141570256Y-97182795D01*
X141381898Y-97104774D01*
X141181939Y-97065000D01*
X140978061Y-97065000D01*
X140778102Y-97104774D01*
X140589744Y-97182795D01*
X140420226Y-97296063D01*
X140276063Y-97440226D01*
X140162795Y-97609744D01*
X140084774Y-97798102D01*
X140045000Y-97998061D01*
X138741772Y-97998061D01*
X138739774Y-97996063D01*
X138570256Y-97882795D01*
X138381898Y-97804774D01*
X138181939Y-97765000D01*
X137978061Y-97765000D01*
X137778102Y-97804774D01*
X137589744Y-97882795D01*
X137420226Y-97996063D01*
X137276063Y-98140226D01*
X137162795Y-98309744D01*
X137084774Y-98498102D01*
X137045000Y-98698061D01*
X122400000Y-98698061D01*
X122400000Y-96721087D01*
X122573623Y-96628284D01*
X122746449Y-96486449D01*
X122784569Y-96440000D01*
X124425431Y-96440000D01*
X124463551Y-96486449D01*
X124520715Y-96533362D01*
X124439259Y-96655269D01*
X124366892Y-96829978D01*
X124330000Y-97015448D01*
X124330000Y-97204552D01*
X124366892Y-97390022D01*
X124439259Y-97564731D01*
X124544319Y-97721964D01*
X124678036Y-97855681D01*
X124835269Y-97960741D01*
X125009978Y-98033108D01*
X125195448Y-98070000D01*
X125384552Y-98070000D01*
X125570022Y-98033108D01*
X125744731Y-97960741D01*
X125901964Y-97855681D01*
X126035681Y-97721964D01*
X126140741Y-97564731D01*
X126213108Y-97390022D01*
X126250000Y-97204552D01*
X126250000Y-97015448D01*
X126213108Y-96829978D01*
X126206904Y-96815000D01*
X126425752Y-96815000D01*
X126592499Y-96798577D01*
X126806447Y-96733676D01*
X126869292Y-96700085D01*
X126969744Y-96767205D01*
X127158102Y-96845226D01*
X127358061Y-96885000D01*
X127561939Y-96885000D01*
X127761898Y-96845226D01*
X127950256Y-96767205D01*
X128119774Y-96653937D01*
X128263937Y-96509774D01*
X128377205Y-96340256D01*
X128455226Y-96151898D01*
X128495000Y-95951939D01*
X128495000Y-95748061D01*
X128455226Y-95548102D01*
X128377205Y-95359744D01*
X128315938Y-95268051D01*
X128755000Y-95268051D01*
X128755000Y-95471929D01*
X128794774Y-95671888D01*
X128872795Y-95860246D01*
X128986063Y-96029764D01*
X129130226Y-96173927D01*
X129299744Y-96287195D01*
X129488102Y-96365216D01*
X129688061Y-96404990D01*
X129891939Y-96404990D01*
X130091898Y-96365216D01*
X130280256Y-96287195D01*
X130449774Y-96173927D01*
X130593937Y-96029764D01*
X130707205Y-95860246D01*
X130785226Y-95671888D01*
X130825000Y-95471929D01*
X130825000Y-95268051D01*
X130785226Y-95068092D01*
X130707205Y-94879734D01*
X130593937Y-94710216D01*
X130449774Y-94566053D01*
X130280256Y-94452785D01*
X130091898Y-94374764D01*
X129891939Y-94334990D01*
X129688061Y-94334990D01*
X129488102Y-94374764D01*
X129299744Y-94452785D01*
X129130226Y-94566053D01*
X128986063Y-94710216D01*
X128872795Y-94879734D01*
X128794774Y-95068092D01*
X128755000Y-95268051D01*
X128315938Y-95268051D01*
X128263937Y-95190226D01*
X128119774Y-95046063D01*
X127950256Y-94932795D01*
X127761898Y-94854774D01*
X127561939Y-94815000D01*
X127358061Y-94815000D01*
X127158102Y-94854774D01*
X127155090Y-94856022D01*
X127003623Y-94731716D01*
X126806447Y-94626324D01*
X126592499Y-94561423D01*
X126425752Y-94545000D01*
X125214248Y-94545000D01*
X125047501Y-94561423D01*
X124833553Y-94626324D01*
X124636377Y-94731716D01*
X124463551Y-94873551D01*
X124425431Y-94920000D01*
X122784569Y-94920000D01*
X122746449Y-94873551D01*
X122573623Y-94731716D01*
X122376447Y-94626324D01*
X122162499Y-94561423D01*
X121995752Y-94545000D01*
X121930576Y-94545000D01*
X121965000Y-94371939D01*
X121965000Y-94168061D01*
X121925226Y-93968102D01*
X121847205Y-93779744D01*
X121733937Y-93610226D01*
X121589774Y-93466063D01*
X121420256Y-93352795D01*
X121231898Y-93274774D01*
X121031939Y-93235000D01*
X120828061Y-93235000D01*
X120685000Y-93263456D01*
X120685000Y-90698061D01*
X129875000Y-90698061D01*
X129875000Y-90901939D01*
X129914774Y-91101898D01*
X129992795Y-91290256D01*
X130106063Y-91459774D01*
X130250226Y-91603937D01*
X130419744Y-91717205D01*
X130608102Y-91795226D01*
X130808061Y-91835000D01*
X131011939Y-91835000D01*
X131211898Y-91795226D01*
X131400256Y-91717205D01*
X131569774Y-91603937D01*
X131713937Y-91459774D01*
X131815308Y-91308061D01*
X136045000Y-91308061D01*
X136045000Y-91511939D01*
X136084774Y-91711898D01*
X136162795Y-91900256D01*
X136276063Y-92069774D01*
X136420226Y-92213937D01*
X136589744Y-92327205D01*
X136778102Y-92405226D01*
X136978061Y-92445000D01*
X137181939Y-92445000D01*
X137381898Y-92405226D01*
X137570256Y-92327205D01*
X137739774Y-92213937D01*
X137883937Y-92069774D01*
X137997205Y-91900256D01*
X138075226Y-91711898D01*
X138115000Y-91511939D01*
X138115000Y-91308061D01*
X138075226Y-91108102D01*
X137997205Y-90919744D01*
X137883937Y-90750226D01*
X137739774Y-90606063D01*
X137570256Y-90492795D01*
X137381898Y-90414774D01*
X137181939Y-90375000D01*
X136978061Y-90375000D01*
X136778102Y-90414774D01*
X136589744Y-90492795D01*
X136420226Y-90606063D01*
X136276063Y-90750226D01*
X136162795Y-90919744D01*
X136084774Y-91108102D01*
X136045000Y-91308061D01*
X131815308Y-91308061D01*
X131827205Y-91290256D01*
X131905226Y-91101898D01*
X131945000Y-90901939D01*
X131945000Y-90698061D01*
X131905226Y-90498102D01*
X131827205Y-90309744D01*
X131713937Y-90140226D01*
X131569774Y-89996063D01*
X131400256Y-89882795D01*
X131388828Y-89878061D01*
X137715000Y-89878061D01*
X137715000Y-90081939D01*
X137754774Y-90281898D01*
X137832795Y-90470256D01*
X137946063Y-90639774D01*
X138090226Y-90783937D01*
X138259744Y-90897205D01*
X138448102Y-90975226D01*
X138648061Y-91015000D01*
X138851939Y-91015000D01*
X139051898Y-90975226D01*
X139240256Y-90897205D01*
X139409774Y-90783937D01*
X139553937Y-90639774D01*
X139667205Y-90470256D01*
X139745226Y-90281898D01*
X139785000Y-90081939D01*
X139785000Y-89878061D01*
X139745226Y-89678102D01*
X139667205Y-89489744D01*
X139553937Y-89320226D01*
X139409774Y-89176063D01*
X139240256Y-89062795D01*
X139051898Y-88984774D01*
X138851939Y-88945000D01*
X138648061Y-88945000D01*
X138448102Y-88984774D01*
X138259744Y-89062795D01*
X138090226Y-89176063D01*
X137946063Y-89320226D01*
X137832795Y-89489744D01*
X137754774Y-89678102D01*
X137715000Y-89878061D01*
X131388828Y-89878061D01*
X131211898Y-89804774D01*
X131011939Y-89765000D01*
X130808061Y-89765000D01*
X130608102Y-89804774D01*
X130419744Y-89882795D01*
X130250226Y-89996063D01*
X130106063Y-90140226D01*
X129992795Y-90309744D01*
X129914774Y-90498102D01*
X129875000Y-90698061D01*
X120685000Y-90698061D01*
X120685000Y-86310576D01*
X120858061Y-86345000D01*
X121061939Y-86345000D01*
X121261898Y-86305226D01*
X121450256Y-86227205D01*
X121619774Y-86113937D01*
X121763937Y-85969774D01*
X121877205Y-85800256D01*
X121955226Y-85611898D01*
X121995000Y-85411939D01*
X121995000Y-85208061D01*
X121955226Y-85008102D01*
X121877205Y-84819744D01*
X121843968Y-84770000D01*
X125459339Y-84770000D01*
X125481929Y-84999360D01*
X125548831Y-85219906D01*
X125647766Y-85405000D01*
X125548831Y-85590094D01*
X125481929Y-85810640D01*
X125459339Y-86040000D01*
X125481929Y-86269360D01*
X125548831Y-86489906D01*
X125647766Y-86675000D01*
X125548831Y-86860094D01*
X125481929Y-87080640D01*
X125459339Y-87310000D01*
X125481929Y-87539360D01*
X125548831Y-87759906D01*
X125657474Y-87963162D01*
X125803682Y-88141318D01*
X125981838Y-88287526D01*
X126185094Y-88396169D01*
X126405640Y-88463071D01*
X126577523Y-88480000D01*
X127422477Y-88480000D01*
X127594360Y-88463071D01*
X127814906Y-88396169D01*
X128018162Y-88287526D01*
X128196318Y-88141318D01*
X128342526Y-87963162D01*
X128451169Y-87759906D01*
X128518071Y-87539360D01*
X128540661Y-87310000D01*
X128518071Y-87080640D01*
X128451169Y-86860094D01*
X128352234Y-86675000D01*
X128451169Y-86489906D01*
X128518071Y-86269360D01*
X128540661Y-86040000D01*
X128518071Y-85810640D01*
X128451169Y-85590094D01*
X128352234Y-85405000D01*
X128451169Y-85219906D01*
X128518071Y-84999360D01*
X128540661Y-84770000D01*
X128518071Y-84540640D01*
X128457130Y-84339743D01*
X128489502Y-84279180D01*
X128525812Y-84159482D01*
X128538072Y-84035000D01*
X128538072Y-82965000D01*
X128525812Y-82840518D01*
X128489502Y-82720820D01*
X128430537Y-82610506D01*
X128351185Y-82513815D01*
X128254494Y-82434463D01*
X128144180Y-82375498D01*
X128024482Y-82339188D01*
X127900000Y-82326928D01*
X127872611Y-82326928D01*
X127937205Y-82230256D01*
X128015226Y-82041898D01*
X128055000Y-81841939D01*
X128055000Y-81638061D01*
X128015226Y-81438102D01*
X127937205Y-81249744D01*
X127823937Y-81080226D01*
X127679774Y-80936063D01*
X127510256Y-80822795D01*
X127321898Y-80744774D01*
X127121939Y-80705000D01*
X126918061Y-80705000D01*
X126718102Y-80744774D01*
X126529744Y-80822795D01*
X126360226Y-80936063D01*
X126216063Y-81080226D01*
X126102795Y-81249744D01*
X126024774Y-81438102D01*
X125985000Y-81638061D01*
X125985000Y-81841939D01*
X126024774Y-82041898D01*
X126102795Y-82230256D01*
X126167389Y-82326928D01*
X126100000Y-82326928D01*
X125975518Y-82339188D01*
X125855820Y-82375498D01*
X125745506Y-82434463D01*
X125648815Y-82513815D01*
X125569463Y-82610506D01*
X125510498Y-82720820D01*
X125474188Y-82840518D01*
X125461928Y-82965000D01*
X125461928Y-84035000D01*
X125474188Y-84159482D01*
X125510498Y-84279180D01*
X125542870Y-84339743D01*
X125481929Y-84540640D01*
X125459339Y-84770000D01*
X121843968Y-84770000D01*
X121763937Y-84650226D01*
X121619774Y-84506063D01*
X121450256Y-84392795D01*
X121261898Y-84314774D01*
X121061939Y-84275000D01*
X120858061Y-84275000D01*
X120685000Y-84309424D01*
X120685000Y-79033504D01*
X120722789Y-78648103D01*
X120737075Y-78600786D01*
X120810226Y-78673937D01*
X120979744Y-78787205D01*
X121168102Y-78865226D01*
X121368061Y-78905000D01*
X121571939Y-78905000D01*
X121771898Y-78865226D01*
X121960256Y-78787205D01*
X122129774Y-78673937D01*
X122273937Y-78529774D01*
X122387205Y-78360256D01*
X122465226Y-78171898D01*
X122505000Y-77971939D01*
X122505000Y-77768061D01*
X122465226Y-77568102D01*
X122387205Y-77379744D01*
X122274270Y-77210724D01*
X122519022Y-77185000D01*
X132812828Y-77185000D01*
X132722795Y-77319744D01*
G04 #@! TA.AperFunction,Conductor*
D20*
G36*
X132722795Y-77319744D02*
G01*
X132644774Y-77508102D01*
X132605000Y-77708061D01*
X132605000Y-77911939D01*
X132644774Y-78111898D01*
X132722795Y-78300256D01*
X132836063Y-78469774D01*
X132980226Y-78613937D01*
X133149744Y-78727205D01*
X133338102Y-78805226D01*
X133538061Y-78845000D01*
X133741939Y-78845000D01*
X133822664Y-78828943D01*
X133750269Y-78937290D01*
X133627753Y-78974454D01*
X133495724Y-79045026D01*
X133379999Y-79139999D01*
X133356201Y-79168997D01*
X131665199Y-80860000D01*
X130633711Y-80860000D01*
X130589774Y-80816063D01*
X130420256Y-80702795D01*
X130231898Y-80624774D01*
X130031939Y-80585000D01*
X129828061Y-80585000D01*
X129628102Y-80624774D01*
X129439744Y-80702795D01*
X129270226Y-80816063D01*
X129126063Y-80960226D01*
X129012795Y-81129744D01*
X128934774Y-81318102D01*
X128895000Y-81518061D01*
X128895000Y-81721939D01*
X128934774Y-81921898D01*
X129012795Y-82110256D01*
X129126063Y-82279774D01*
X129270226Y-82423937D01*
X129439744Y-82537205D01*
X129628102Y-82615226D01*
X129828061Y-82655000D01*
X130031939Y-82655000D01*
X130231898Y-82615226D01*
X130420256Y-82537205D01*
X130589774Y-82423937D01*
X130633711Y-82380000D01*
X131942678Y-82380000D01*
X131980000Y-82383676D01*
X132017322Y-82380000D01*
X132017333Y-82380000D01*
X132022844Y-82379457D01*
X132009999Y-82389999D01*
X131973509Y-82434463D01*
X131915026Y-82505724D01*
X131856496Y-82615226D01*
X131844454Y-82637754D01*
X131800997Y-82781015D01*
X131790000Y-82892668D01*
X131790000Y-82892678D01*
X131786324Y-82930000D01*
X131790000Y-82967323D01*
X131790001Y-83555198D01*
X131495199Y-83850000D01*
X130633711Y-83850000D01*
X130589774Y-83806063D01*
X130420256Y-83692795D01*
X130231898Y-83614774D01*
X130031939Y-83575000D01*
X129828061Y-83575000D01*
X129628102Y-83614774D01*
X129439744Y-83692795D01*
X129270226Y-83806063D01*
X129126063Y-83950226D01*
X129012795Y-84119744D01*
X128934774Y-84308102D01*
X128895000Y-84508061D01*
X128895000Y-84711939D01*
X128934774Y-84911898D01*
X129012795Y-85100256D01*
X129126063Y-85269774D01*
X129270226Y-85413937D01*
X129439744Y-85527205D01*
X129628102Y-85605226D01*
X129828061Y-85645000D01*
X130031939Y-85645000D01*
X130231898Y-85605226D01*
X130420256Y-85527205D01*
X130589774Y-85413937D01*
X130633711Y-85370000D01*
X131772678Y-85370000D01*
X131790000Y-85371706D01*
X131790001Y-86485197D01*
X131425199Y-86850000D01*
X130623711Y-86850000D01*
X130579774Y-86806063D01*
X130410256Y-86692795D01*
X130221898Y-86614774D01*
X130021939Y-86575000D01*
X129818061Y-86575000D01*
X129618102Y-86614774D01*
X129429744Y-86692795D01*
X129260226Y-86806063D01*
X129116063Y-86950226D01*
X129002795Y-87119744D01*
X128924774Y-87308102D01*
X128885000Y-87508061D01*
X128885000Y-87711939D01*
X128924774Y-87911898D01*
X129002795Y-88100256D01*
X129116063Y-88269774D01*
X129260226Y-88413937D01*
X129429744Y-88527205D01*
X129618102Y-88605226D01*
X129818061Y-88645000D01*
X130021939Y-88645000D01*
X130221898Y-88605226D01*
X130410256Y-88527205D01*
X130579774Y-88413937D01*
X130623711Y-88370000D01*
X131702678Y-88370000D01*
X131740000Y-88373676D01*
X131777322Y-88370000D01*
X131777333Y-88370000D01*
X131888986Y-88359003D01*
X132032247Y-88315546D01*
X132164276Y-88244974D01*
X132280001Y-88150001D01*
X132303803Y-88120998D01*
X133061002Y-87363799D01*
X133090001Y-87340001D01*
X133122829Y-87300000D01*
X133184974Y-87224277D01*
X133255546Y-87092247D01*
X133276346Y-87023677D01*
X133299003Y-86948986D01*
X133310000Y-86837333D01*
X133310000Y-86837323D01*
X133313676Y-86800000D01*
X133310000Y-86762678D01*
X133310000Y-85024801D01*
X133555000Y-84779801D01*
X133555000Y-84906260D01*
X133612068Y-85193158D01*
X133724010Y-85463411D01*
X133886525Y-85706632D01*
X134093368Y-85913475D01*
X134336589Y-86075990D01*
X134606842Y-86187932D01*
X134893740Y-86245000D01*
X135186260Y-86245000D01*
X135473158Y-86187932D01*
X135743411Y-86075990D01*
X135986632Y-85913475D01*
X136193475Y-85706632D01*
X136310000Y-85532240D01*
X136426525Y-85706632D01*
X136633368Y-85913475D01*
X136876589Y-86075990D01*
X137146842Y-86187932D01*
X137433740Y-86245000D01*
X137726260Y-86245000D01*
X138013158Y-86187932D01*
X138283411Y-86075990D01*
X138526632Y-85913475D01*
X138733475Y-85706632D01*
X138850000Y-85532240D01*
X138966525Y-85706632D01*
X139173368Y-85913475D01*
X139416589Y-86075990D01*
X139686842Y-86187932D01*
X139973740Y-86245000D01*
X140266260Y-86245000D01*
X140358558Y-86226641D01*
X140288998Y-86296201D01*
X140260000Y-86319999D01*
X140236202Y-86348997D01*
X140236201Y-86348998D01*
X140165026Y-86435724D01*
X140094454Y-86567754D01*
X140069198Y-86651015D01*
X140059109Y-86684277D01*
X140050998Y-86711015D01*
X140036324Y-86860000D01*
X140040001Y-86897332D01*
X140040000Y-95096289D01*
X139996063Y-95140226D01*
X139882795Y-95309744D01*
X139804774Y-95498102D01*
X139784946Y-95597787D01*
X139745226Y-95398102D01*
X139667205Y-95209744D01*
X139553937Y-95040226D01*
X139409774Y-94896063D01*
X139240256Y-94782795D01*
X139051898Y-94704774D01*
X138851939Y-94665000D01*
X138648061Y-94665000D01*
X138448102Y-94704774D01*
X138259744Y-94782795D01*
X138090226Y-94896063D01*
X137946063Y-95040226D01*
X137832795Y-95209744D01*
X137754774Y-95398102D01*
X137715000Y-95598061D01*
X137715000Y-95801939D01*
X137754774Y-96001898D01*
X137832795Y-96190256D01*
X137946063Y-96359774D01*
X138090226Y-96503937D01*
X138259744Y-96617205D01*
X138448102Y-96695226D01*
X138648061Y-96735000D01*
X138851939Y-96735000D01*
X139051898Y-96695226D01*
X139240256Y-96617205D01*
X139409774Y-96503937D01*
X139553937Y-96359774D01*
X139667205Y-96190256D01*
X139745226Y-96001898D01*
X139765054Y-95902213D01*
X139804774Y-96101898D01*
X139882795Y-96290256D01*
X139996063Y-96459774D01*
X140140226Y-96603937D01*
X140309744Y-96717205D01*
X140498102Y-96795226D01*
X140698061Y-96835000D01*
X140901939Y-96835000D01*
X141101898Y-96795226D01*
X141290256Y-96717205D01*
X141300000Y-96710694D01*
X141309744Y-96717205D01*
X141498102Y-96795226D01*
X141698061Y-96835000D01*
X141901939Y-96835000D01*
X142101898Y-96795226D01*
X142290256Y-96717205D01*
X142300006Y-96710690D01*
X142309757Y-96717205D01*
X142498115Y-96795226D01*
X142698074Y-96835000D01*
X142901952Y-96835000D01*
X143101911Y-96795226D01*
X143290269Y-96717205D01*
X143300013Y-96710694D01*
X143309757Y-96717205D01*
X143498115Y-96795226D01*
X143698074Y-96835000D01*
X143901952Y-96835000D01*
X144101911Y-96795226D01*
X144290269Y-96717205D01*
X144459787Y-96603937D01*
X144575007Y-96488718D01*
X144590226Y-96503937D01*
X144759744Y-96617205D01*
X144948102Y-96695226D01*
X145148061Y-96735000D01*
X145351939Y-96735000D01*
X145551898Y-96695226D01*
X145740256Y-96617205D01*
X145909774Y-96503937D01*
X146053937Y-96359774D01*
X146167205Y-96190256D01*
X146201251Y-96108061D01*
X154145000Y-96108061D01*
X154145000Y-96311939D01*
X154184774Y-96511898D01*
X154262795Y-96700256D01*
X154376063Y-96869774D01*
X154481289Y-96975000D01*
X154376063Y-97080226D01*
X154262795Y-97249744D01*
X154184774Y-97438102D01*
X154145000Y-97638061D01*
X154145000Y-97841939D01*
X154184774Y-98041898D01*
X154262795Y-98230256D01*
X154376063Y-98399774D01*
X154520226Y-98543937D01*
X154689744Y-98657205D01*
X154878102Y-98735226D01*
X155078061Y-98775000D01*
X155281939Y-98775000D01*
X155481898Y-98735226D01*
X155670256Y-98657205D01*
X155839774Y-98543937D01*
X155983937Y-98399774D01*
X156097205Y-98230256D01*
X156175226Y-98041898D01*
X156215000Y-97841939D01*
X156215000Y-97638061D01*
X156175226Y-97438102D01*
X156097205Y-97249744D01*
X155983937Y-97080226D01*
X155878711Y-96975000D01*
X155983937Y-96869774D01*
X156097205Y-96700256D01*
X156175226Y-96511898D01*
X156215000Y-96311939D01*
X156215000Y-96108061D01*
X156175226Y-95908102D01*
X156097205Y-95719744D01*
X155983937Y-95550226D01*
X155839774Y-95406063D01*
X155670256Y-95292795D01*
X155481898Y-95214774D01*
X155281939Y-95175000D01*
X155078061Y-95175000D01*
X154878102Y-95214774D01*
X154689744Y-95292795D01*
X154520226Y-95406063D01*
X154376063Y-95550226D01*
X154262795Y-95719744D01*
X154184774Y-95908102D01*
X154145000Y-96108061D01*
X146201251Y-96108061D01*
X146245226Y-96001898D01*
X146285000Y-95801939D01*
X146285000Y-95598061D01*
X146245226Y-95398102D01*
X146167205Y-95209744D01*
X146053937Y-95040226D01*
X145909774Y-94896063D01*
X145740256Y-94782795D01*
X145551898Y-94704774D01*
X145351939Y-94665000D01*
X145148061Y-94665000D01*
X144948102Y-94704774D01*
X144759744Y-94782795D01*
X144590226Y-94896063D01*
X144560013Y-94926276D01*
X144560013Y-91594788D01*
X144806740Y-91348061D01*
X145565000Y-91348061D01*
X145565000Y-91551939D01*
X145604774Y-91751898D01*
X145682795Y-91940256D01*
X145796063Y-92109774D01*
X145940226Y-92253937D01*
X146109744Y-92367205D01*
X146298102Y-92445226D01*
X146498061Y-92485000D01*
X146701939Y-92485000D01*
X146885282Y-92448531D01*
X156409389Y-92448531D01*
X156451401Y-92738019D01*
X156549081Y-93013747D01*
X156622528Y-93151157D01*
X156871603Y-93228792D01*
X157720395Y-92380000D01*
X156871603Y-91531208D01*
X156622528Y-91608843D01*
X156496629Y-91872883D01*
X156424661Y-92156411D01*
X156409389Y-92448531D01*
X146885282Y-92448531D01*
X146901898Y-92445226D01*
X147090256Y-92367205D01*
X147259774Y-92253937D01*
X147403937Y-92109774D01*
X147517205Y-91940256D01*
X147595226Y-91751898D01*
X147635000Y-91551939D01*
X147635000Y-91348061D01*
X147595226Y-91148102D01*
X147517205Y-90959744D01*
X147455945Y-90868061D01*
X152925000Y-90868061D01*
X152925000Y-91071939D01*
X152964774Y-91271898D01*
X153042795Y-91460256D01*
X153156063Y-91629774D01*
X153300226Y-91773937D01*
X153469744Y-91887205D01*
X153658102Y-91965226D01*
X153858061Y-92005000D01*
X154061939Y-92005000D01*
X154261898Y-91965226D01*
X154450256Y-91887205D01*
X154619774Y-91773937D01*
X154763937Y-91629774D01*
X154877205Y-91460256D01*
X154955226Y-91271898D01*
X154995000Y-91071939D01*
X154995000Y-90868397D01*
X157051208Y-90868397D01*
X157126514Y-91110000D01*
X157051208Y-91351603D01*
X157900000Y-92200395D01*
X158748792Y-91351603D01*
X158673486Y-91110000D01*
X158748792Y-90868397D01*
X157900000Y-90019605D01*
X157051208Y-90868397D01*
X154995000Y-90868397D01*
X154995000Y-90868061D01*
X154955226Y-90668102D01*
X154877205Y-90479744D01*
X154763937Y-90310226D01*
X154619774Y-90166063D01*
X154450256Y-90052795D01*
X154261898Y-89974774D01*
X154061939Y-89935000D01*
X153858061Y-89935000D01*
X153658102Y-89974774D01*
X153469744Y-90052795D01*
X153300226Y-90166063D01*
X153156063Y-90310226D01*
X153042795Y-90479744D01*
X152964774Y-90668102D01*
X152925000Y-90868061D01*
X147455945Y-90868061D01*
X147403937Y-90790226D01*
X147259774Y-90646063D01*
X147090256Y-90532795D01*
X146901898Y-90454774D01*
X146701939Y-90415000D01*
X146498061Y-90415000D01*
X146298102Y-90454774D01*
X146109744Y-90532795D01*
X145940226Y-90646063D01*
X145796063Y-90790226D01*
X145682795Y-90959744D01*
X145604774Y-91148102D01*
X145565000Y-91348061D01*
X144806740Y-91348061D01*
X146426740Y-89728061D01*
X147765000Y-89728061D01*
X147765000Y-89931939D01*
X147804774Y-90131898D01*
X147882795Y-90320256D01*
X147996063Y-90489774D01*
X148140226Y-90633937D01*
X148309744Y-90747205D01*
X148498102Y-90825226D01*
X148698061Y-90865000D01*
X148901939Y-90865000D01*
X149101898Y-90825226D01*
X149290256Y-90747205D01*
X149459774Y-90633937D01*
X149603937Y-90489774D01*
X149717205Y-90320256D01*
X149795226Y-90131898D01*
X149835000Y-89931939D01*
X149835000Y-89908531D01*
X156409389Y-89908531D01*
X156451401Y-90198019D01*
X156549081Y-90473747D01*
X156622528Y-90611157D01*
X156871603Y-90688792D01*
X157720395Y-89840000D01*
X156871603Y-88991208D01*
X156622528Y-89068843D01*
X156496629Y-89332883D01*
X156424661Y-89616411D01*
X156409389Y-89908531D01*
X149835000Y-89908531D01*
X149835000Y-89728061D01*
X149795226Y-89528102D01*
X149717205Y-89339744D01*
X149603937Y-89170226D01*
X149459774Y-89026063D01*
X149290256Y-88912795D01*
X149101898Y-88834774D01*
X148901939Y-88795000D01*
X148698061Y-88795000D01*
X148498102Y-88834774D01*
X148309744Y-88912795D01*
X148140226Y-89026063D01*
X147996063Y-89170226D01*
X147882795Y-89339744D01*
X147804774Y-89528102D01*
X147765000Y-89728061D01*
X146426740Y-89728061D01*
X147826404Y-88328397D01*
X157051208Y-88328397D01*
X157126514Y-88570000D01*
X157051208Y-88811603D01*
X157900000Y-89660395D01*
X158748792Y-88811603D01*
X158673486Y-88570000D01*
X158748792Y-88328397D01*
X157900000Y-87479605D01*
X157051208Y-88328397D01*
X147826404Y-88328397D01*
X148786271Y-87368531D01*
X156409389Y-87368531D01*
X156451401Y-87658019D01*
X156549081Y-87933747D01*
X156622528Y-88071157D01*
X156871603Y-88148792D01*
X157720395Y-87300000D01*
X156871603Y-86451208D01*
X156622528Y-86528843D01*
X156496629Y-86792883D01*
X156424661Y-87076411D01*
X156409389Y-87368531D01*
X148786271Y-87368531D01*
X149531009Y-86623794D01*
X149560001Y-86600001D01*
X149583795Y-86571008D01*
X149583799Y-86571004D01*
X149641811Y-86500315D01*
X149654974Y-86484276D01*
X149725546Y-86352247D01*
X149769003Y-86208986D01*
X149774046Y-86157779D01*
X149846842Y-86187932D01*
X150133740Y-86245000D01*
X150426260Y-86245000D01*
X150713158Y-86187932D01*
X150983411Y-86075990D01*
X151226632Y-85913475D01*
X151433475Y-85706632D01*
X151550000Y-85532240D01*
X151666525Y-85706632D01*
X151873368Y-85913475D01*
X152116589Y-86075990D01*
X152386842Y-86187932D01*
X152673740Y-86245000D01*
X152966260Y-86245000D01*
X153253158Y-86187932D01*
X153523411Y-86075990D01*
X153766632Y-85913475D01*
X153973475Y-85706632D01*
X154090000Y-85532240D01*
X154206525Y-85706632D01*
X154413368Y-85913475D01*
X154656589Y-86075990D01*
X154926842Y-86187932D01*
X155213740Y-86245000D01*
X155506260Y-86245000D01*
X155793158Y-86187932D01*
X156063411Y-86075990D01*
X156306632Y-85913475D01*
X156513475Y-85706632D01*
X156630000Y-85532240D01*
X156746525Y-85706632D01*
X156953368Y-85913475D01*
X157126729Y-86029311D01*
X157051208Y-86271603D01*
X157900000Y-87120395D01*
X158748792Y-86271603D01*
X158673271Y-86029311D01*
X158846632Y-85913475D01*
X159053475Y-85706632D01*
X159170000Y-85532240D01*
X159286525Y-85706632D01*
X159493368Y-85913475D01*
X159667760Y-86030000D01*
X159493368Y-86146525D01*
X159286525Y-86353368D01*
X159170689Y-86526729D01*
X158928397Y-86451208D01*
X158079605Y-87300000D01*
X158928397Y-88148792D01*
X159170689Y-88073271D01*
X159286525Y-88246632D01*
X159493368Y-88453475D01*
X159667760Y-88570000D01*
X159493368Y-88686525D01*
X159286525Y-88893368D01*
X159170689Y-89066729D01*
X158928397Y-88991208D01*
X158079605Y-89840000D01*
X158928397Y-90688792D01*
X159170689Y-90613271D01*
X159286525Y-90786632D01*
X159493368Y-90993475D01*
X159667760Y-91110000D01*
X159493368Y-91226525D01*
X159286525Y-91433368D01*
X159170689Y-91606729D01*
X158928397Y-91531208D01*
X158079605Y-92380000D01*
X158928397Y-93228792D01*
X159170689Y-93153271D01*
X159286525Y-93326632D01*
X159493368Y-93533475D01*
X159667760Y-93650000D01*
X159493368Y-93766525D01*
X159286525Y-93973368D01*
X159170000Y-94147760D01*
X159053475Y-93973368D01*
X158846632Y-93766525D01*
X158673271Y-93650689D01*
X158748792Y-93408397D01*
X157900000Y-92559605D01*
X157051208Y-93408397D01*
X157126729Y-93650689D01*
X156953368Y-93766525D01*
X156746525Y-93973368D01*
X156584010Y-94216589D01*
X156472068Y-94486842D01*
X156415000Y-94773740D01*
X156415000Y-95066260D01*
X156472068Y-95353158D01*
X156584010Y-95623411D01*
X156746525Y-95866632D01*
X156953368Y-96073475D01*
X157127760Y-96190000D01*
X156953368Y-96306525D01*
X156746525Y-96513368D01*
X156584010Y-96756589D01*
X156472068Y-97026842D01*
X156415000Y-97313740D01*
X156415000Y-97606260D01*
X156472068Y-97893158D01*
X156584010Y-98163411D01*
X156746525Y-98406632D01*
X156953368Y-98613475D01*
X157127760Y-98730000D01*
X156953368Y-98846525D01*
X156746525Y-99053368D01*
X156584010Y-99296589D01*
X156472068Y-99566842D01*
X156415000Y-99853740D01*
X156415000Y-100146260D01*
X156472068Y-100433158D01*
X156584010Y-100703411D01*
X156746525Y-100946632D01*
X156953368Y-101153475D01*
X157127760Y-101270000D01*
X156953368Y-101386525D01*
X156746525Y-101593368D01*
X156584010Y-101836589D01*
X156472068Y-102106842D01*
X156415000Y-102393740D01*
X156415000Y-102686260D01*
X156472068Y-102973158D01*
X156584010Y-103243411D01*
X156746525Y-103486632D01*
X156953368Y-103693475D01*
X157127760Y-103810000D01*
X156953368Y-103926525D01*
X156746525Y-104133368D01*
X156584010Y-104376589D01*
X156472068Y-104646842D01*
X156415000Y-104933740D01*
X156415000Y-105226260D01*
X156472068Y-105513158D01*
X156584010Y-105783411D01*
X156746525Y-106026632D01*
X156953368Y-106233475D01*
X157126729Y-106349311D01*
X157051208Y-106591603D01*
X157900000Y-107440395D01*
X158748792Y-106591603D01*
X158673271Y-106349311D01*
X158846632Y-106233475D01*
X159053475Y-106026632D01*
X159170000Y-105852240D01*
X159286525Y-106026632D01*
X159493368Y-106233475D01*
X159667760Y-106350000D01*
X159493368Y-106466525D01*
X159286525Y-106673368D01*
X159170689Y-106846729D01*
X158928397Y-106771208D01*
X158079605Y-107620000D01*
X158928397Y-108468792D01*
X159170689Y-108393271D01*
X159286525Y-108566632D01*
X159493368Y-108773475D01*
X159667760Y-108890000D01*
X159493368Y-109006525D01*
X159286525Y-109213368D01*
X159170689Y-109386729D01*
X158928397Y-109311208D01*
X158079605Y-110160000D01*
X158928397Y-111008792D01*
X159170689Y-110933271D01*
X159286525Y-111106632D01*
X159493368Y-111313475D01*
X159667760Y-111430000D01*
X159493368Y-111546525D01*
X159286525Y-111753368D01*
X159170689Y-111926729D01*
X158928397Y-111851208D01*
X158079605Y-112700000D01*
X158928397Y-113548792D01*
X159170689Y-113473271D01*
X159286525Y-113646632D01*
X159493368Y-113853475D01*
X159667760Y-113970000D01*
X159493368Y-114086525D01*
X159286525Y-114293368D01*
X159170000Y-114467760D01*
X159053475Y-114293368D01*
X158846632Y-114086525D01*
X158673271Y-113970689D01*
X158748792Y-113728397D01*
X157900000Y-112879605D01*
X157051208Y-113728397D01*
X157126729Y-113970689D01*
X156953368Y-114086525D01*
X156746525Y-114293368D01*
X156630000Y-114467760D01*
X156513475Y-114293368D01*
X156306632Y-114086525D01*
X156063411Y-113924010D01*
X155793158Y-113812068D01*
X155506260Y-113755000D01*
X155213740Y-113755000D01*
X154926842Y-113812068D01*
X154656589Y-113924010D01*
X154568003Y-113983201D01*
X153353333Y-112768531D01*
X156409389Y-112768531D01*
X156451401Y-113058019D01*
X156549081Y-113333747D01*
X156622528Y-113471157D01*
X156871603Y-113548792D01*
X157720395Y-112700000D01*
X156871603Y-111851208D01*
X156622528Y-111928843D01*
X156496629Y-112192883D01*
X156424661Y-112476411D01*
X156409389Y-112768531D01*
X153353333Y-112768531D01*
X153193804Y-112609003D01*
X153170001Y-112579999D01*
X153054276Y-112485026D01*
X152922247Y-112414454D01*
X152778986Y-112370997D01*
X152667333Y-112360000D01*
X152667322Y-112360000D01*
X152630000Y-112356324D01*
X152592678Y-112360000D01*
X149754803Y-112360000D01*
X148562922Y-111168119D01*
X148698061Y-111195000D01*
X148901939Y-111195000D01*
X148935134Y-111188397D01*
X157051208Y-111188397D01*
X157126514Y-111430000D01*
X157051208Y-111671603D01*
X157900000Y-112520395D01*
X158748792Y-111671603D01*
X158673486Y-111430000D01*
X158748792Y-111188397D01*
X157900000Y-110339605D01*
X157051208Y-111188397D01*
X148935134Y-111188397D01*
X149101898Y-111155226D01*
X149290256Y-111077205D01*
X149459774Y-110963937D01*
X149603937Y-110819774D01*
X149717205Y-110650256D01*
X149795226Y-110461898D01*
X149835000Y-110261939D01*
X149835000Y-110228531D01*
X156409389Y-110228531D01*
X156451401Y-110518019D01*
X156549081Y-110793747D01*
X156622528Y-110931157D01*
X156871603Y-111008792D01*
X157720395Y-110160000D01*
X156871603Y-109311208D01*
X156622528Y-109388843D01*
X156496629Y-109652883D01*
X156424661Y-109936411D01*
X156409389Y-110228531D01*
X149835000Y-110228531D01*
X149835000Y-110058061D01*
X149795226Y-109858102D01*
X149717205Y-109669744D01*
X149603937Y-109500226D01*
X149459774Y-109356063D01*
X149290256Y-109242795D01*
X149101898Y-109164774D01*
X148901939Y-109125000D01*
X148698061Y-109125000D01*
X148498102Y-109164774D01*
X148309744Y-109242795D01*
X148140226Y-109356063D01*
X148096289Y-109400000D01*
X147638301Y-109400000D01*
X147581006Y-109342705D01*
X147703937Y-109219774D01*
X147817205Y-109050256D01*
X147867820Y-108928061D01*
X152965000Y-108928061D01*
X152965000Y-109131939D01*
X153004774Y-109331898D01*
X153082795Y-109520256D01*
X153196063Y-109689774D01*
X153340226Y-109833937D01*
X153509744Y-109947205D01*
X153698102Y-110025226D01*
X153898061Y-110065000D01*
X154101939Y-110065000D01*
X154301898Y-110025226D01*
X154490256Y-109947205D01*
X154659774Y-109833937D01*
X154803937Y-109689774D01*
X154917205Y-109520256D01*
X154995226Y-109331898D01*
X155035000Y-109131939D01*
X155035000Y-108928061D01*
X154995226Y-108728102D01*
X154962211Y-108648397D01*
X157051208Y-108648397D01*
X157126514Y-108890000D01*
X157051208Y-109131603D01*
X157900000Y-109980395D01*
X158748792Y-109131603D01*
X158673486Y-108890000D01*
X158748792Y-108648397D01*
X157900000Y-107799605D01*
X157051208Y-108648397D01*
X154962211Y-108648397D01*
X154917205Y-108539744D01*
X154803937Y-108370226D01*
X154659774Y-108226063D01*
X154490256Y-108112795D01*
X154301898Y-108034774D01*
X154101939Y-107995000D01*
X153898061Y-107995000D01*
X153698102Y-108034774D01*
X153509744Y-108112795D01*
X153340226Y-108226063D01*
X153196063Y-108370226D01*
X153082795Y-108539744D01*
X153004774Y-108728102D01*
X152965000Y-108928061D01*
X147867820Y-108928061D01*
X147895226Y-108861898D01*
X147935000Y-108661939D01*
X147935000Y-108458061D01*
X147895226Y-108258102D01*
X147817205Y-108069744D01*
X147703937Y-107900226D01*
X147559774Y-107756063D01*
X147458705Y-107688531D01*
X156409389Y-107688531D01*
X156451401Y-107978019D01*
X156549081Y-108253747D01*
X156622528Y-108391157D01*
X156871603Y-108468792D01*
X157720395Y-107620000D01*
X156871603Y-106771208D01*
X156622528Y-106848843D01*
X156496629Y-107112883D01*
X156424661Y-107396411D01*
X156409389Y-107688531D01*
X147458705Y-107688531D01*
X147390256Y-107642795D01*
X147201898Y-107564774D01*
X147001939Y-107525000D01*
X146798061Y-107525000D01*
X146598102Y-107564774D01*
X146409744Y-107642795D01*
X146240226Y-107756063D01*
X146117295Y-107878994D01*
X144510000Y-106271700D01*
X144510000Y-105013711D01*
X144600226Y-105103937D01*
X144769744Y-105217205D01*
X144958102Y-105295226D01*
X145158061Y-105335000D01*
X145361939Y-105335000D01*
X145561898Y-105295226D01*
X145750256Y-105217205D01*
X145919774Y-105103937D01*
X146063937Y-104959774D01*
X146151944Y-104828061D01*
X147365000Y-104828061D01*
X147365000Y-105031939D01*
X147404774Y-105231898D01*
X147482795Y-105420256D01*
X147596063Y-105589774D01*
X147740226Y-105733937D01*
X147909744Y-105847205D01*
X148098102Y-105925226D01*
X148298061Y-105965000D01*
X148501939Y-105965000D01*
X148701898Y-105925226D01*
X148890256Y-105847205D01*
X149059774Y-105733937D01*
X149203937Y-105589774D01*
X149278581Y-105478061D01*
X154205000Y-105478061D01*
X154205000Y-105681939D01*
X154244774Y-105881898D01*
X154322795Y-106070256D01*
X154436063Y-106239774D01*
X154580226Y-106383937D01*
X154749744Y-106497205D01*
X154938102Y-106575226D01*
X155138061Y-106615000D01*
X155341939Y-106615000D01*
X155541898Y-106575226D01*
X155730256Y-106497205D01*
X155899774Y-106383937D01*
X156043937Y-106239774D01*
X156157205Y-106070256D01*
X156235226Y-105881898D01*
X156275000Y-105681939D01*
X156275000Y-105478061D01*
X156235226Y-105278102D01*
X156157205Y-105089744D01*
X156043937Y-104920226D01*
X155899774Y-104776063D01*
X155730256Y-104662795D01*
X155541898Y-104584774D01*
X155341939Y-104545000D01*
X155138061Y-104545000D01*
X154938102Y-104584774D01*
X154749744Y-104662795D01*
X154580226Y-104776063D01*
X154436063Y-104920226D01*
X154322795Y-105089744D01*
X154244774Y-105278102D01*
X154205000Y-105478061D01*
X149278581Y-105478061D01*
X149317205Y-105420256D01*
X149395226Y-105231898D01*
X149435000Y-105031939D01*
X149435000Y-104828061D01*
X149395226Y-104628102D01*
X149317205Y-104439744D01*
X149203937Y-104270226D01*
X149059774Y-104126063D01*
X148890256Y-104012795D01*
X148701898Y-103934774D01*
X148501939Y-103895000D01*
X148298061Y-103895000D01*
X148098102Y-103934774D01*
X147909744Y-104012795D01*
X147740226Y-104126063D01*
X147596063Y-104270226D01*
X147482795Y-104439744D01*
X147404774Y-104628102D01*
X147365000Y-104828061D01*
X146151944Y-104828061D01*
X146177205Y-104790256D01*
X146255226Y-104601898D01*
X146295000Y-104401939D01*
X146295000Y-104198061D01*
X146255226Y-103998102D01*
X146177205Y-103809744D01*
X146063937Y-103640226D01*
X145919774Y-103496063D01*
X145750256Y-103382795D01*
X145561898Y-103304774D01*
X145361939Y-103265000D01*
X145158061Y-103265000D01*
X144958102Y-103304774D01*
X144769744Y-103382795D01*
X144600226Y-103496063D01*
X144554789Y-103541500D01*
X144553937Y-103540226D01*
X144409774Y-103396063D01*
X144240256Y-103282795D01*
X144051898Y-103204774D01*
X143851939Y-103165000D01*
X143648061Y-103165000D01*
X143448102Y-103204774D01*
X143259744Y-103282795D01*
X143225000Y-103306010D01*
X143190256Y-103282795D01*
X143001898Y-103204774D01*
X142801939Y-103165000D01*
X142598061Y-103165000D01*
X142398102Y-103204774D01*
X142209744Y-103282795D01*
X142200000Y-103289306D01*
X142190256Y-103282795D01*
X142001898Y-103204774D01*
X141801939Y-103165000D01*
X141598061Y-103165000D01*
X141398102Y-103204774D01*
X141209744Y-103282795D01*
X141200000Y-103289306D01*
X141190256Y-103282795D01*
X141001898Y-103204774D01*
X140801939Y-103165000D01*
X140598061Y-103165000D01*
X140398102Y-103204774D01*
X140209744Y-103282795D01*
X140200000Y-103289306D01*
X140190256Y-103282795D01*
X140001898Y-103204774D01*
X139801939Y-103165000D01*
X139598061Y-103165000D01*
X139398102Y-103204774D01*
X139209744Y-103282795D01*
X139200000Y-103289306D01*
X139190256Y-103282795D01*
X139001898Y-103204774D01*
X138801939Y-103165000D01*
X138598061Y-103165000D01*
X138398102Y-103204774D01*
X138209744Y-103282795D01*
X138040226Y-103396063D01*
X137896063Y-103540226D01*
X137782795Y-103709744D01*
X137704774Y-103898102D01*
X137665000Y-104098061D01*
X137665000Y-104301939D01*
X137704774Y-104501898D01*
X137782795Y-104690256D01*
X137896063Y-104859774D01*
X137940001Y-104903712D01*
X137940000Y-106032677D01*
X137936324Y-106070000D01*
X137940000Y-106107322D01*
X137940000Y-106107332D01*
X137950997Y-106218985D01*
X137973830Y-106294255D01*
X137994454Y-106362246D01*
X138065026Y-106494276D01*
X138093511Y-106528985D01*
X138159999Y-106610001D01*
X138189003Y-106633804D01*
X143180001Y-111624803D01*
X143180001Y-113848039D01*
X143093158Y-113812068D01*
X142806260Y-113755000D01*
X142513740Y-113755000D01*
X142226842Y-113812068D01*
X141956589Y-113924010D01*
X141713368Y-114086525D01*
X141506525Y-114293368D01*
X141390000Y-114467760D01*
X141273475Y-114293368D01*
X141066632Y-114086525D01*
X140823411Y-113924010D01*
X140553158Y-113812068D01*
X140266260Y-113755000D01*
X139973740Y-113755000D01*
X139686842Y-113812068D01*
X139416589Y-113924010D01*
X139173368Y-114086525D01*
X138966525Y-114293368D01*
X138850000Y-114467760D01*
X138733475Y-114293368D01*
X138526632Y-114086525D01*
X138283411Y-113924010D01*
X138013158Y-113812068D01*
X137726260Y-113755000D01*
X137433740Y-113755000D01*
X137146842Y-113812068D01*
X136876589Y-113924010D01*
X136633368Y-114086525D01*
X136426525Y-114293368D01*
X136310000Y-114467760D01*
X136193475Y-114293368D01*
X135986632Y-114086525D01*
X135743411Y-113924010D01*
X135473158Y-113812068D01*
X135186260Y-113755000D01*
X134893740Y-113755000D01*
X134606842Y-113812068D01*
X134336589Y-113924010D01*
X134093368Y-114086525D01*
X133886525Y-114293368D01*
X133724010Y-114536589D01*
X133612068Y-114806842D01*
X133555000Y-115093740D01*
X133555000Y-115386260D01*
X133612068Y-115673158D01*
X133724010Y-115943411D01*
X133886525Y-116186632D01*
X134093368Y-116393475D01*
X134267760Y-116510000D01*
X134093368Y-116626525D01*
X133886525Y-116833368D01*
X133802575Y-116959009D01*
X133855226Y-116831898D01*
X133895000Y-116631939D01*
X133895000Y-116428061D01*
X133855226Y-116228102D01*
X133777205Y-116039744D01*
X133663937Y-115870226D01*
X133519774Y-115726063D01*
X133350256Y-115612795D01*
X133161898Y-115534774D01*
X132961939Y-115495000D01*
X132758061Y-115495000D01*
X132558102Y-115534774D01*
X132369744Y-115612795D01*
X132200226Y-115726063D01*
X132056063Y-115870226D01*
X131942795Y-116039744D01*
X131864774Y-116228102D01*
X131825000Y-116428061D01*
X131825000Y-116631939D01*
X131864774Y-116831898D01*
X131942795Y-117020256D01*
X132056063Y-117189774D01*
X132200226Y-117333937D01*
X132369744Y-117447205D01*
X132558102Y-117525226D01*
X132758061Y-117565000D01*
X132961939Y-117565000D01*
X133161898Y-117525226D01*
X133350256Y-117447205D01*
X133519774Y-117333937D01*
X133663937Y-117189774D01*
X133698641Y-117137836D01*
X133612068Y-117346842D01*
X133555000Y-117633740D01*
X133555000Y-117926260D01*
X133612068Y-118213158D01*
X133720439Y-118474789D01*
X133663941Y-118390234D01*
X133519778Y-118246071D01*
X133350260Y-118132803D01*
X133161902Y-118054782D01*
X132961943Y-118015008D01*
X132758065Y-118015008D01*
X132558106Y-118054782D01*
X132369748Y-118132803D01*
X132200230Y-118246071D01*
X132056067Y-118390234D01*
X131942799Y-118559752D01*
X131864778Y-118748110D01*
X131825004Y-118948069D01*
X131825004Y-119151947D01*
X131864778Y-119351906D01*
X131942799Y-119540264D01*
X132056067Y-119709782D01*
X132200230Y-119853945D01*
X132369748Y-119967213D01*
X132558106Y-120045234D01*
X132758065Y-120085008D01*
X132961943Y-120085008D01*
X133161902Y-120045234D01*
X133350260Y-119967213D01*
X133519778Y-119853945D01*
X133663941Y-119709782D01*
X133720421Y-119625253D01*
X133612068Y-119886842D01*
X133555000Y-120173740D01*
X133555000Y-120466260D01*
X133612068Y-120753158D01*
X133724010Y-121023411D01*
X133805253Y-121145000D01*
X133648061Y-121145000D01*
X133448102Y-121184774D01*
X133259744Y-121262795D01*
X133090226Y-121376063D01*
X132946063Y-121520226D01*
X132832795Y-121689744D01*
X132754774Y-121878102D01*
X132715000Y-122078061D01*
X132715000Y-122281939D01*
X132754774Y-122481898D01*
X132832795Y-122670256D01*
X132929510Y-122815000D01*
X122533505Y-122815000D01*
X122148103Y-122777211D01*
X122100786Y-122762925D01*
X122163937Y-122699774D01*
X122277205Y-122530256D01*
X122355226Y-122341898D01*
X122395000Y-122141939D01*
X122395000Y-121938061D01*
X122355226Y-121738102D01*
X122277205Y-121549744D01*
X122163937Y-121380226D01*
X122019774Y-121236063D01*
X121850256Y-121122795D01*
X121661898Y-121044774D01*
X121461939Y-121005000D01*
X121258061Y-121005000D01*
X121058102Y-121044774D01*
X120869744Y-121122795D01*
X120711051Y-121228830D01*
X120685000Y-120980977D01*
X120685000Y-115410576D01*
X120858061Y-115445000D01*
X121061939Y-115445000D01*
X121261898Y-115405226D01*
X121450256Y-115327205D01*
X121619774Y-115213937D01*
X121763937Y-115069774D01*
X121877205Y-114900256D01*
X121955226Y-114711898D01*
X121995000Y-114511939D01*
X121995000Y-114308061D01*
X121955226Y-114108102D01*
X121898022Y-113970000D01*
X125459339Y-113970000D01*
X125481929Y-114199360D01*
X125548831Y-114419906D01*
X125647766Y-114605000D01*
X125548831Y-114790094D01*
X125481929Y-115010640D01*
X125459339Y-115240000D01*
X125481929Y-115469360D01*
X125548831Y-115689906D01*
X125647766Y-115875000D01*
X125548831Y-116060094D01*
X125481929Y-116280640D01*
X125459339Y-116510000D01*
X125481929Y-116739360D01*
X125548831Y-116959906D01*
X125657474Y-117163162D01*
X125803682Y-117341318D01*
X125981838Y-117487526D01*
X126185094Y-117596169D01*
X126227313Y-117608976D01*
X126226063Y-117610226D01*
X126112795Y-117779744D01*
X126034774Y-117968102D01*
X125995000Y-118168061D01*
X125995000Y-118371939D01*
X126034774Y-118571898D01*
X126112795Y-118760256D01*
X126226063Y-118929774D01*
X126370226Y-119073937D01*
X126539744Y-119187205D01*
X126728102Y-119265226D01*
X126928061Y-119305000D01*
X127131939Y-119305000D01*
X127331898Y-119265226D01*
X127520256Y-119187205D01*
X127689774Y-119073937D01*
X127833937Y-118929774D01*
X127947205Y-118760256D01*
X128025226Y-118571898D01*
X128065000Y-118371939D01*
X128065000Y-118168061D01*
X128025226Y-117968102D01*
X127947205Y-117779744D01*
X127833937Y-117610226D01*
X127818147Y-117594436D01*
X128018162Y-117487526D01*
X128196318Y-117341318D01*
X128342526Y-117163162D01*
X128451169Y-116959906D01*
X128518071Y-116739360D01*
X128540661Y-116510000D01*
X128518071Y-116280640D01*
X128451169Y-116060094D01*
X128352234Y-115875000D01*
X128451169Y-115689906D01*
X128518071Y-115469360D01*
X128540661Y-115240000D01*
X128518071Y-115010640D01*
X128451169Y-114790094D01*
X128352234Y-114605000D01*
X128451169Y-114419906D01*
X128518071Y-114199360D01*
X128540661Y-113970000D01*
X128518071Y-113740640D01*
X128499089Y-113678061D01*
X131795000Y-113678061D01*
X131795000Y-113881939D01*
X131834774Y-114081898D01*
X131912795Y-114270256D01*
X132026063Y-114439774D01*
X132170226Y-114583937D01*
X132339744Y-114697205D01*
X132528102Y-114775226D01*
X132728061Y-114815000D01*
X132931939Y-114815000D01*
X133131898Y-114775226D01*
X133320256Y-114697205D01*
X133489774Y-114583937D01*
X133633937Y-114439774D01*
X133747205Y-114270256D01*
X133825226Y-114081898D01*
X133865000Y-113881939D01*
X133865000Y-113678061D01*
X133825226Y-113478102D01*
X133747205Y-113289744D01*
X133633937Y-113120226D01*
X133489774Y-112976063D01*
X133320256Y-112862795D01*
X133131898Y-112784774D01*
X132931939Y-112745000D01*
X132728061Y-112745000D01*
X132528102Y-112784774D01*
X132339744Y-112862795D01*
X132170226Y-112976063D01*
X132026063Y-113120226D01*
X131912795Y-113289744D01*
X131834774Y-113478102D01*
X131795000Y-113678061D01*
X128499089Y-113678061D01*
X128457130Y-113539743D01*
X128489502Y-113479180D01*
X128525812Y-113359482D01*
X128538072Y-113235000D01*
X128538072Y-112165000D01*
X128525812Y-112040518D01*
X128489502Y-111920820D01*
X128469782Y-111883928D01*
X128603937Y-111749773D01*
X128717205Y-111580255D01*
X128795226Y-111391897D01*
X128835000Y-111191938D01*
X128835000Y-110988060D01*
X128795226Y-110788101D01*
X128717205Y-110599743D01*
X128603937Y-110430225D01*
X128459774Y-110286062D01*
X128290256Y-110172794D01*
X128101898Y-110094773D01*
X127901939Y-110054999D01*
X127698061Y-110054999D01*
X127498102Y-110094773D01*
X127309744Y-110172794D01*
X127140226Y-110286062D01*
X126996063Y-110430225D01*
X126882795Y-110599743D01*
X126804774Y-110788101D01*
X126765000Y-110988060D01*
X126765000Y-111191938D01*
X126804774Y-111391897D01*
X126860706Y-111526928D01*
X126100000Y-111526928D01*
X125975518Y-111539188D01*
X125855820Y-111575498D01*
X125745506Y-111634463D01*
X125648815Y-111713815D01*
X125569463Y-111810506D01*
X125510498Y-111920820D01*
X125474188Y-112040518D01*
X125461928Y-112165000D01*
X125461928Y-113235000D01*
X125474188Y-113359482D01*
X125510498Y-113479180D01*
X125542870Y-113539743D01*
X125481929Y-113740640D01*
X125459339Y-113970000D01*
X121898022Y-113970000D01*
X121877205Y-113919744D01*
X121763937Y-113750226D01*
X121619774Y-113606063D01*
X121450256Y-113492795D01*
X121261898Y-113414774D01*
X121061939Y-113375000D01*
X120858061Y-113375000D01*
X120685000Y-113409424D01*
X120685000Y-109285561D01*
X135745000Y-109285561D01*
X135745000Y-109489439D01*
X135784774Y-109689398D01*
X135862795Y-109877756D01*
X135976063Y-110047274D01*
X136120226Y-110191437D01*
X136289744Y-110304705D01*
X136478102Y-110382726D01*
X136678061Y-110422500D01*
X136881939Y-110422500D01*
X137081898Y-110382726D01*
X137270256Y-110304705D01*
X137439774Y-110191437D01*
X137583937Y-110047274D01*
X137697205Y-109877756D01*
X137775226Y-109689398D01*
X137815000Y-109489439D01*
X137815000Y-109285561D01*
X137775226Y-109085602D01*
X137697205Y-108897244D01*
X137583937Y-108727726D01*
X137439774Y-108583563D01*
X137270256Y-108470295D01*
X137081898Y-108392274D01*
X136881939Y-108352500D01*
X136678061Y-108352500D01*
X136478102Y-108392274D01*
X136289744Y-108470295D01*
X136120226Y-108583563D01*
X135976063Y-108727726D01*
X135862795Y-108897244D01*
X135784774Y-109085602D01*
X135745000Y-109285561D01*
X120685000Y-109285561D01*
X120685000Y-107598059D01*
X130395000Y-107598059D01*
X130395000Y-107801937D01*
X130434774Y-108001896D01*
X130512795Y-108190254D01*
X130626063Y-108359772D01*
X130770226Y-108503935D01*
X130939744Y-108617203D01*
X131128102Y-108695224D01*
X131328061Y-108734998D01*
X131531939Y-108734998D01*
X131731898Y-108695224D01*
X131920256Y-108617203D01*
X132089774Y-108503935D01*
X132233937Y-108359772D01*
X132347205Y-108190254D01*
X132425226Y-108001896D01*
X132465000Y-107801937D01*
X132465000Y-107598059D01*
X132425226Y-107398100D01*
X132347205Y-107209742D01*
X132233937Y-107040224D01*
X132089774Y-106896061D01*
X131920256Y-106782793D01*
X131731898Y-106704772D01*
X131531939Y-106664998D01*
X131328061Y-106664998D01*
X131128102Y-106704772D01*
X130939744Y-106782793D01*
X130770226Y-106896061D01*
X130626063Y-107040224D01*
X130512795Y-107209742D01*
X130434774Y-107398100D01*
X130395000Y-107598059D01*
X120685000Y-107598059D01*
X120685000Y-106682565D01*
X120848061Y-106715000D01*
X121051939Y-106715000D01*
X121251898Y-106675226D01*
X121440256Y-106597205D01*
X121609774Y-106483937D01*
X121753937Y-106339774D01*
X121867205Y-106170256D01*
X121945226Y-105981898D01*
X121985000Y-105781939D01*
X121985000Y-105578061D01*
X121960522Y-105455000D01*
X121995752Y-105455000D01*
X122162499Y-105438577D01*
X122376447Y-105373676D01*
X122573623Y-105268284D01*
X122746449Y-105126449D01*
X122784569Y-105080000D01*
X124425431Y-105080000D01*
X124463551Y-105126449D01*
X124636377Y-105268284D01*
X124833553Y-105373676D01*
X125047501Y-105438577D01*
X125214248Y-105455000D01*
X126425752Y-105455000D01*
X126592499Y-105438577D01*
X126806447Y-105373676D01*
X127003623Y-105268284D01*
X127164115Y-105136571D01*
X127353095Y-105174161D01*
X127556973Y-105174161D01*
X127756932Y-105134387D01*
X127945290Y-105056366D01*
X128114808Y-104943098D01*
X128258971Y-104798935D01*
X128372239Y-104629417D01*
X128414222Y-104528061D01*
X128754999Y-104528061D01*
X128754999Y-104731939D01*
X128794773Y-104931898D01*
X128872794Y-105120256D01*
X128986062Y-105289774D01*
X129130225Y-105433937D01*
X129299743Y-105547205D01*
X129488101Y-105625226D01*
X129688060Y-105665000D01*
X129891938Y-105665000D01*
X130091897Y-105625226D01*
X130280255Y-105547205D01*
X130449773Y-105433937D01*
X130593936Y-105289774D01*
X130707204Y-105120256D01*
X130785225Y-104931898D01*
X130824999Y-104731939D01*
X130824999Y-104528061D01*
X130785225Y-104328102D01*
X130707204Y-104139744D01*
X130593936Y-103970226D01*
X130449773Y-103826063D01*
X130280255Y-103712795D01*
X130091897Y-103634774D01*
X129891938Y-103595000D01*
X129688060Y-103595000D01*
X129488101Y-103634774D01*
X129299743Y-103712795D01*
X129130225Y-103826063D01*
X128986062Y-103970226D01*
X128872794Y-104139744D01*
X128794773Y-104328102D01*
X128754999Y-104528061D01*
X128414222Y-104528061D01*
X128450260Y-104441059D01*
X128490034Y-104241100D01*
X128490034Y-104037222D01*
X128450260Y-103837263D01*
X128372239Y-103648905D01*
X128258971Y-103479387D01*
X128114808Y-103335224D01*
X127945290Y-103221956D01*
X127756932Y-103143935D01*
X127556973Y-103104161D01*
X127353095Y-103104161D01*
X127153136Y-103143935D01*
X126964778Y-103221956D01*
X126857520Y-103293623D01*
X126806447Y-103266324D01*
X126592499Y-103201423D01*
X126425752Y-103185000D01*
X126206904Y-103185000D01*
X126213108Y-103170022D01*
X126250000Y-102984552D01*
X126250000Y-102928061D01*
X132445000Y-102928061D01*
X132445000Y-103131939D01*
X132484774Y-103331898D01*
X132562795Y-103520256D01*
X132676063Y-103689774D01*
X132820226Y-103833937D01*
X132989744Y-103947205D01*
X133178102Y-104025226D01*
X133378061Y-104065000D01*
X133581939Y-104065000D01*
X133781898Y-104025226D01*
X133970256Y-103947205D01*
X134139774Y-103833937D01*
X134283937Y-103689774D01*
X134397205Y-103520256D01*
X134475226Y-103331898D01*
X134515000Y-103131939D01*
X134515000Y-102928061D01*
X134475226Y-102728102D01*
X134397205Y-102539744D01*
X134283937Y-102370226D01*
X134139774Y-102226063D01*
X133970256Y-102112795D01*
X133781898Y-102034774D01*
X133581939Y-101995000D01*
X133378061Y-101995000D01*
X133178102Y-102034774D01*
X132989744Y-102112795D01*
X132820226Y-102226063D01*
X132676063Y-102370226D01*
X132562795Y-102539744D01*
X132484774Y-102728102D01*
X132445000Y-102928061D01*
X126250000Y-102928061D01*
X126250000Y-102795448D01*
X126213108Y-102609978D01*
X126140741Y-102435269D01*
X126035681Y-102278036D01*
X125901964Y-102144319D01*
X125744731Y-102039259D01*
X125570022Y-101966892D01*
X125384552Y-101930000D01*
X125195448Y-101930000D01*
X125009978Y-101966892D01*
X124835269Y-102039259D01*
X124678036Y-102144319D01*
X124544319Y-102278036D01*
X124439259Y-102435269D01*
X124366892Y-102609978D01*
X124330000Y-102795448D01*
X124330000Y-102984552D01*
X124366892Y-103170022D01*
X124439259Y-103344731D01*
X124520715Y-103466638D01*
X124463551Y-103513551D01*
X124425431Y-103560000D01*
X122784569Y-103560000D01*
X122746449Y-103513551D01*
X122573623Y-103371716D01*
X122400000Y-103278913D01*
X122400000Y-101168061D01*
X140835000Y-101168061D01*
X140835000Y-101371939D01*
X140874774Y-101571898D01*
X140952795Y-101760256D01*
X141066063Y-101929774D01*
X141210226Y-102073937D01*
X141379744Y-102187205D01*
X141568102Y-102265226D01*
X141768061Y-102305000D01*
X141971939Y-102305000D01*
X142171898Y-102265226D01*
X142360256Y-102187205D01*
X142529774Y-102073937D01*
X142673937Y-101929774D01*
X142787205Y-101760256D01*
X142865226Y-101571898D01*
X142879912Y-101498062D01*
X144895000Y-101498062D01*
X144895000Y-101701940D01*
X144934774Y-101901899D01*
X145012795Y-102090257D01*
X145126063Y-102259775D01*
X145270226Y-102403938D01*
X145439744Y-102517206D01*
X145628102Y-102595227D01*
X145828061Y-102635001D01*
X146031939Y-102635001D01*
X146231898Y-102595227D01*
X146420256Y-102517206D01*
X146589774Y-102403938D01*
X146733937Y-102259775D01*
X146847205Y-102090257D01*
X146925226Y-101901899D01*
X146965000Y-101701940D01*
X146965000Y-101498062D01*
X146925226Y-101298103D01*
X146847205Y-101109745D01*
X146733937Y-100940227D01*
X146589774Y-100796064D01*
X146420256Y-100682796D01*
X146231898Y-100604775D01*
X146031939Y-100565001D01*
X145828061Y-100565001D01*
X145628102Y-100604775D01*
X145439744Y-100682796D01*
X145270226Y-100796064D01*
X145126063Y-100940227D01*
X145012795Y-101109745D01*
X144934774Y-101298103D01*
X144895000Y-101498062D01*
X142879912Y-101498062D01*
X142905000Y-101371939D01*
X142905000Y-101168061D01*
X142865226Y-100968102D01*
X142787205Y-100779744D01*
X142673937Y-100610226D01*
X142529774Y-100466063D01*
X142360256Y-100352795D01*
X142171898Y-100274774D01*
X141971939Y-100235000D01*
X141768061Y-100235000D01*
X141568102Y-100274774D01*
X141379744Y-100352795D01*
X141210226Y-100466063D01*
X141066063Y-100610226D01*
X140952795Y-100779744D01*
X140874774Y-100968102D01*
X140835000Y-101168061D01*
X122400000Y-101168061D01*
X122400000Y-99898061D01*
X123265000Y-99898061D01*
X123265000Y-100101939D01*
X123304774Y-100301898D01*
X123382795Y-100490256D01*
X123496063Y-100659774D01*
X123640226Y-100803937D01*
X123809744Y-100917205D01*
X123998102Y-100995226D01*
X124198061Y-101035000D01*
X124401939Y-101035000D01*
X124601898Y-100995226D01*
X124790256Y-100917205D01*
X124838454Y-100885000D01*
X129531546Y-100885000D01*
X129579744Y-100917205D01*
X129768102Y-100995226D01*
X129968061Y-101035000D01*
X130171939Y-101035000D01*
X130371898Y-100995226D01*
X130560256Y-100917205D01*
X130729774Y-100803937D01*
X130873937Y-100659774D01*
X130987205Y-100490256D01*
X131065226Y-100301898D01*
X131105000Y-100101939D01*
X131105000Y-99898061D01*
X131103011Y-99888061D01*
X131269990Y-99888061D01*
X131269990Y-100091939D01*
X131309764Y-100291898D01*
X131387785Y-100480256D01*
X131501053Y-100649774D01*
X131645216Y-100793937D01*
X131814734Y-100907205D01*
X132003092Y-100985226D01*
X132203051Y-101025000D01*
X132406929Y-101025000D01*
X132606888Y-100985226D01*
X132795246Y-100907205D01*
X132964764Y-100793937D01*
X133108927Y-100649774D01*
X133222195Y-100480256D01*
X133300216Y-100291898D01*
X133339990Y-100091939D01*
X133339990Y-99888061D01*
X133300216Y-99688102D01*
X133222195Y-99499744D01*
X133108927Y-99330226D01*
X132964764Y-99186063D01*
X132795246Y-99072795D01*
X132606888Y-98994774D01*
X132406929Y-98955000D01*
X132203051Y-98955000D01*
X132003092Y-98994774D01*
X131814734Y-99072795D01*
X131645216Y-99186063D01*
X131501053Y-99330226D01*
X131387785Y-99499744D01*
X131309764Y-99688102D01*
X131269990Y-99888061D01*
X131103011Y-99888061D01*
X131065226Y-99698102D01*
X130987205Y-99509744D01*
X130873937Y-99340226D01*
X130729774Y-99196063D01*
X130560256Y-99082795D01*
X130371898Y-99004774D01*
X130171939Y-98965000D01*
X129968061Y-98965000D01*
X129768102Y-99004774D01*
X129579744Y-99082795D01*
X129531546Y-99115000D01*
X124838454Y-99115000D01*
X124790256Y-99082795D01*
X124601898Y-99004774D01*
X124401939Y-98965000D01*
X124198061Y-98965000D01*
X123998102Y-99004774D01*
X123809744Y-99082795D01*
X123640226Y-99196063D01*
X123496063Y-99340226D01*
X123382795Y-99509744D01*
X123304774Y-99698102D01*
X123265000Y-99898061D01*
X122400000Y-99898061D01*
X122400000Y-98698061D01*
X137045000Y-98698061D01*
X137045000Y-98901939D01*
X137084774Y-99101898D01*
X137162795Y-99290256D01*
X137276063Y-99459774D01*
X137420226Y-99603937D01*
X137589744Y-99717205D01*
X137778102Y-99795226D01*
X137978061Y-99835000D01*
X138181939Y-99835000D01*
X138381898Y-99795226D01*
X138568189Y-99718061D01*
X148415000Y-99718061D01*
X148415000Y-99921939D01*
X148454774Y-100121898D01*
X148532795Y-100310256D01*
X148646063Y-100479774D01*
X148790226Y-100623937D01*
X148959744Y-100737205D01*
X149148102Y-100815226D01*
X149348061Y-100855000D01*
X149551939Y-100855000D01*
X149751898Y-100815226D01*
X149940256Y-100737205D01*
X150109774Y-100623937D01*
X150253937Y-100479774D01*
X150367205Y-100310256D01*
X150445226Y-100121898D01*
X150485000Y-99921939D01*
X150485000Y-99718061D01*
X150445226Y-99518102D01*
X150367205Y-99329744D01*
X150253937Y-99160226D01*
X150109774Y-99016063D01*
X149940256Y-98902795D01*
X149751898Y-98824774D01*
X149551939Y-98785000D01*
X149348061Y-98785000D01*
X149148102Y-98824774D01*
X148959744Y-98902795D01*
X148790226Y-99016063D01*
X148646063Y-99160226D01*
X148532795Y-99329744D01*
X148454774Y-99518102D01*
X148415000Y-99718061D01*
X138568189Y-99718061D01*
X138570256Y-99717205D01*
X138739774Y-99603937D01*
X138883937Y-99459774D01*
X138997205Y-99290256D01*
X139075226Y-99101898D01*
X139115000Y-98901939D01*
X139115000Y-98698061D01*
X139075226Y-98498102D01*
X138997205Y-98309744D01*
X138883937Y-98140226D01*
X138741772Y-97998061D01*
X140045000Y-97998061D01*
X140045000Y-98201939D01*
X140084774Y-98401898D01*
X140162795Y-98590256D01*
X140276063Y-98759774D01*
X140420226Y-98903937D01*
X140589744Y-99017205D01*
X140778102Y-99095226D01*
X140978061Y-99135000D01*
X141181939Y-99135000D01*
X141381898Y-99095226D01*
X141570256Y-99017205D01*
X141739774Y-98903937D01*
X141883937Y-98759774D01*
X141997205Y-98590256D01*
X142075226Y-98401898D01*
X142115000Y-98201939D01*
X142115000Y-97998061D01*
X142075226Y-97798102D01*
X141997205Y-97609744D01*
X141883937Y-97440226D01*
X141739774Y-97296063D01*
X141570256Y-97182795D01*
X141381898Y-97104774D01*
X141181939Y-97065000D01*
X140978061Y-97065000D01*
X140778102Y-97104774D01*
X140589744Y-97182795D01*
X140420226Y-97296063D01*
X140276063Y-97440226D01*
X140162795Y-97609744D01*
X140084774Y-97798102D01*
X140045000Y-97998061D01*
X138741772Y-97998061D01*
X138739774Y-97996063D01*
X138570256Y-97882795D01*
X138381898Y-97804774D01*
X138181939Y-97765000D01*
X137978061Y-97765000D01*
X137778102Y-97804774D01*
X137589744Y-97882795D01*
X137420226Y-97996063D01*
X137276063Y-98140226D01*
X137162795Y-98309744D01*
X137084774Y-98498102D01*
X137045000Y-98698061D01*
X122400000Y-98698061D01*
X122400000Y-96721087D01*
X122573623Y-96628284D01*
X122746449Y-96486449D01*
X122784569Y-96440000D01*
X124425431Y-96440000D01*
X124463551Y-96486449D01*
X124520715Y-96533362D01*
X124439259Y-96655269D01*
X124366892Y-96829978D01*
X124330000Y-97015448D01*
X124330000Y-97204552D01*
X124366892Y-97390022D01*
X124439259Y-97564731D01*
X124544319Y-97721964D01*
X124678036Y-97855681D01*
X124835269Y-97960741D01*
X125009978Y-98033108D01*
X125195448Y-98070000D01*
X125384552Y-98070000D01*
X125570022Y-98033108D01*
X125744731Y-97960741D01*
X125901964Y-97855681D01*
X126035681Y-97721964D01*
X126140741Y-97564731D01*
X126213108Y-97390022D01*
X126250000Y-97204552D01*
X126250000Y-97015448D01*
X126213108Y-96829978D01*
X126206904Y-96815000D01*
X126425752Y-96815000D01*
X126592499Y-96798577D01*
X126806447Y-96733676D01*
X126869292Y-96700085D01*
X126969744Y-96767205D01*
X127158102Y-96845226D01*
X127358061Y-96885000D01*
X127561939Y-96885000D01*
X127761898Y-96845226D01*
X127950256Y-96767205D01*
X128119774Y-96653937D01*
X128263937Y-96509774D01*
X128377205Y-96340256D01*
X128455226Y-96151898D01*
X128495000Y-95951939D01*
X128495000Y-95748061D01*
X128455226Y-95548102D01*
X128377205Y-95359744D01*
X128315938Y-95268051D01*
X128755000Y-95268051D01*
X128755000Y-95471929D01*
X128794774Y-95671888D01*
X128872795Y-95860246D01*
X128986063Y-96029764D01*
X129130226Y-96173927D01*
X129299744Y-96287195D01*
X129488102Y-96365216D01*
X129688061Y-96404990D01*
X129891939Y-96404990D01*
X130091898Y-96365216D01*
X130280256Y-96287195D01*
X130449774Y-96173927D01*
X130593937Y-96029764D01*
X130707205Y-95860246D01*
X130785226Y-95671888D01*
X130825000Y-95471929D01*
X130825000Y-95268051D01*
X130785226Y-95068092D01*
X130707205Y-94879734D01*
X130593937Y-94710216D01*
X130449774Y-94566053D01*
X130280256Y-94452785D01*
X130091898Y-94374764D01*
X129891939Y-94334990D01*
X129688061Y-94334990D01*
X129488102Y-94374764D01*
X129299744Y-94452785D01*
X129130226Y-94566053D01*
X128986063Y-94710216D01*
X128872795Y-94879734D01*
X128794774Y-95068092D01*
X128755000Y-95268051D01*
X128315938Y-95268051D01*
X128263937Y-95190226D01*
X128119774Y-95046063D01*
X127950256Y-94932795D01*
X127761898Y-94854774D01*
X127561939Y-94815000D01*
X127358061Y-94815000D01*
X127158102Y-94854774D01*
X127155090Y-94856022D01*
X127003623Y-94731716D01*
X126806447Y-94626324D01*
X126592499Y-94561423D01*
X126425752Y-94545000D01*
X125214248Y-94545000D01*
X125047501Y-94561423D01*
X124833553Y-94626324D01*
X124636377Y-94731716D01*
X124463551Y-94873551D01*
X124425431Y-94920000D01*
X122784569Y-94920000D01*
X122746449Y-94873551D01*
X122573623Y-94731716D01*
X122376447Y-94626324D01*
X122162499Y-94561423D01*
X121995752Y-94545000D01*
X121930576Y-94545000D01*
X121965000Y-94371939D01*
X121965000Y-94168061D01*
X121925226Y-93968102D01*
X121847205Y-93779744D01*
X121733937Y-93610226D01*
X121589774Y-93466063D01*
X121420256Y-93352795D01*
X121231898Y-93274774D01*
X121031939Y-93235000D01*
X120828061Y-93235000D01*
X120685000Y-93263456D01*
X120685000Y-90698061D01*
X129875000Y-90698061D01*
X129875000Y-90901939D01*
X129914774Y-91101898D01*
X129992795Y-91290256D01*
X130106063Y-91459774D01*
X130250226Y-91603937D01*
X130419744Y-91717205D01*
X130608102Y-91795226D01*
X130808061Y-91835000D01*
X131011939Y-91835000D01*
X131211898Y-91795226D01*
X131400256Y-91717205D01*
X131569774Y-91603937D01*
X131713937Y-91459774D01*
X131815308Y-91308061D01*
X136045000Y-91308061D01*
X136045000Y-91511939D01*
X136084774Y-91711898D01*
X136162795Y-91900256D01*
X136276063Y-92069774D01*
X136420226Y-92213937D01*
X136589744Y-92327205D01*
X136778102Y-92405226D01*
X136978061Y-92445000D01*
X137181939Y-92445000D01*
X137381898Y-92405226D01*
X137570256Y-92327205D01*
X137739774Y-92213937D01*
X137883937Y-92069774D01*
X137997205Y-91900256D01*
X138075226Y-91711898D01*
X138115000Y-91511939D01*
X138115000Y-91308061D01*
X138075226Y-91108102D01*
X137997205Y-90919744D01*
X137883937Y-90750226D01*
X137739774Y-90606063D01*
X137570256Y-90492795D01*
X137381898Y-90414774D01*
X137181939Y-90375000D01*
X136978061Y-90375000D01*
X136778102Y-90414774D01*
X136589744Y-90492795D01*
X136420226Y-90606063D01*
X136276063Y-90750226D01*
X136162795Y-90919744D01*
X136084774Y-91108102D01*
X136045000Y-91308061D01*
X131815308Y-91308061D01*
X131827205Y-91290256D01*
X131905226Y-91101898D01*
X131945000Y-90901939D01*
X131945000Y-90698061D01*
X131905226Y-90498102D01*
X131827205Y-90309744D01*
X131713937Y-90140226D01*
X131569774Y-89996063D01*
X131400256Y-89882795D01*
X131388828Y-89878061D01*
X137715000Y-89878061D01*
X137715000Y-90081939D01*
X137754774Y-90281898D01*
X137832795Y-90470256D01*
X137946063Y-90639774D01*
X138090226Y-90783937D01*
X138259744Y-90897205D01*
X138448102Y-90975226D01*
X138648061Y-91015000D01*
X138851939Y-91015000D01*
X139051898Y-90975226D01*
X139240256Y-90897205D01*
X139409774Y-90783937D01*
X139553937Y-90639774D01*
X139667205Y-90470256D01*
X139745226Y-90281898D01*
X139785000Y-90081939D01*
X139785000Y-89878061D01*
X139745226Y-89678102D01*
X139667205Y-89489744D01*
X139553937Y-89320226D01*
X139409774Y-89176063D01*
X139240256Y-89062795D01*
X139051898Y-88984774D01*
X138851939Y-88945000D01*
X138648061Y-88945000D01*
X138448102Y-88984774D01*
X138259744Y-89062795D01*
X138090226Y-89176063D01*
X137946063Y-89320226D01*
X137832795Y-89489744D01*
X137754774Y-89678102D01*
X137715000Y-89878061D01*
X131388828Y-89878061D01*
X131211898Y-89804774D01*
X131011939Y-89765000D01*
X130808061Y-89765000D01*
X130608102Y-89804774D01*
X130419744Y-89882795D01*
X130250226Y-89996063D01*
X130106063Y-90140226D01*
X129992795Y-90309744D01*
X129914774Y-90498102D01*
X129875000Y-90698061D01*
X120685000Y-90698061D01*
X120685000Y-86310576D01*
X120858061Y-86345000D01*
X121061939Y-86345000D01*
X121261898Y-86305226D01*
X121450256Y-86227205D01*
X121619774Y-86113937D01*
X121763937Y-85969774D01*
X121877205Y-85800256D01*
X121955226Y-85611898D01*
X121995000Y-85411939D01*
X121995000Y-85208061D01*
X121955226Y-85008102D01*
X121877205Y-84819744D01*
X121843968Y-84770000D01*
X125459339Y-84770000D01*
X125481929Y-84999360D01*
X125548831Y-85219906D01*
X125647766Y-85405000D01*
X125548831Y-85590094D01*
X125481929Y-85810640D01*
X125459339Y-86040000D01*
X125481929Y-86269360D01*
X125548831Y-86489906D01*
X125647766Y-86675000D01*
X125548831Y-86860094D01*
X125481929Y-87080640D01*
X125459339Y-87310000D01*
X125481929Y-87539360D01*
X125548831Y-87759906D01*
X125657474Y-87963162D01*
X125803682Y-88141318D01*
X125981838Y-88287526D01*
X126185094Y-88396169D01*
X126405640Y-88463071D01*
X126577523Y-88480000D01*
X127422477Y-88480000D01*
X127594360Y-88463071D01*
X127814906Y-88396169D01*
X128018162Y-88287526D01*
X128196318Y-88141318D01*
X128342526Y-87963162D01*
X128451169Y-87759906D01*
X128518071Y-87539360D01*
X128540661Y-87310000D01*
X128518071Y-87080640D01*
X128451169Y-86860094D01*
X128352234Y-86675000D01*
X128451169Y-86489906D01*
X128518071Y-86269360D01*
X128540661Y-86040000D01*
X128518071Y-85810640D01*
X128451169Y-85590094D01*
X128352234Y-85405000D01*
X128451169Y-85219906D01*
X128518071Y-84999360D01*
X128540661Y-84770000D01*
X128518071Y-84540640D01*
X128457130Y-84339743D01*
X128489502Y-84279180D01*
X128525812Y-84159482D01*
X128538072Y-84035000D01*
X128538072Y-82965000D01*
X128525812Y-82840518D01*
X128489502Y-82720820D01*
X128430537Y-82610506D01*
X128351185Y-82513815D01*
X128254494Y-82434463D01*
X128144180Y-82375498D01*
X128024482Y-82339188D01*
X127900000Y-82326928D01*
X127872611Y-82326928D01*
X127937205Y-82230256D01*
X128015226Y-82041898D01*
X128055000Y-81841939D01*
X128055000Y-81638061D01*
X128015226Y-81438102D01*
X127937205Y-81249744D01*
X127823937Y-81080226D01*
X127679774Y-80936063D01*
X127510256Y-80822795D01*
X127321898Y-80744774D01*
X127121939Y-80705000D01*
X126918061Y-80705000D01*
X126718102Y-80744774D01*
X126529744Y-80822795D01*
X126360226Y-80936063D01*
X126216063Y-81080226D01*
X126102795Y-81249744D01*
X126024774Y-81438102D01*
X125985000Y-81638061D01*
X125985000Y-81841939D01*
X126024774Y-82041898D01*
X126102795Y-82230256D01*
X126167389Y-82326928D01*
X126100000Y-82326928D01*
X125975518Y-82339188D01*
X125855820Y-82375498D01*
X125745506Y-82434463D01*
X125648815Y-82513815D01*
X125569463Y-82610506D01*
X125510498Y-82720820D01*
X125474188Y-82840518D01*
X125461928Y-82965000D01*
X125461928Y-84035000D01*
X125474188Y-84159482D01*
X125510498Y-84279180D01*
X125542870Y-84339743D01*
X125481929Y-84540640D01*
X125459339Y-84770000D01*
X121843968Y-84770000D01*
X121763937Y-84650226D01*
X121619774Y-84506063D01*
X121450256Y-84392795D01*
X121261898Y-84314774D01*
X121061939Y-84275000D01*
X120858061Y-84275000D01*
X120685000Y-84309424D01*
X120685000Y-79033504D01*
X120722789Y-78648103D01*
X120737075Y-78600786D01*
X120810226Y-78673937D01*
X120979744Y-78787205D01*
X121168102Y-78865226D01*
X121368061Y-78905000D01*
X121571939Y-78905000D01*
X121771898Y-78865226D01*
X121960256Y-78787205D01*
X122129774Y-78673937D01*
X122273937Y-78529774D01*
X122387205Y-78360256D01*
X122465226Y-78171898D01*
X122505000Y-77971939D01*
X122505000Y-77768061D01*
X122465226Y-77568102D01*
X122387205Y-77379744D01*
X122274270Y-77210724D01*
X122519022Y-77185000D01*
X132812828Y-77185000D01*
X132722795Y-77319744D01*
G37*
G04 #@! TD.AperFunction*
D19*
X138966525Y-118726632D02*
X139173368Y-118933475D01*
X139347760Y-119050000D01*
X139173368Y-119166525D01*
X138966525Y-119373368D01*
X138850689Y-119546729D01*
X138608397Y-119471208D01*
X137759605Y-120320000D01*
X137773748Y-120334143D01*
X137594143Y-120513748D01*
X137580000Y-120499605D01*
X137565858Y-120513748D01*
X137386253Y-120334143D01*
X137400395Y-120320000D01*
X136551603Y-119471208D01*
X136309311Y-119546729D01*
X136193475Y-119373368D01*
X135986632Y-119166525D01*
X135812240Y-119050000D01*
X135986632Y-118933475D01*
X136193475Y-118726632D01*
X136310000Y-118552240D01*
X136426525Y-118726632D01*
X136633368Y-118933475D01*
X136806729Y-119049311D01*
X136731208Y-119291603D01*
X137580000Y-120140395D01*
X138428792Y-119291603D01*
X138353271Y-119049311D01*
X138526632Y-118933475D01*
X138733475Y-118726632D01*
X138850000Y-118552240D01*
X138966525Y-118726632D01*
G04 #@! TA.AperFunction,Conductor*
D20*
G36*
X138966525Y-118726632D02*
G01*
X139173368Y-118933475D01*
X139347760Y-119050000D01*
X139173368Y-119166525D01*
X138966525Y-119373368D01*
X138850689Y-119546729D01*
X138608397Y-119471208D01*
X137759605Y-120320000D01*
X137773748Y-120334143D01*
X137594143Y-120513748D01*
X137580000Y-120499605D01*
X137565858Y-120513748D01*
X137386253Y-120334143D01*
X137400395Y-120320000D01*
X136551603Y-119471208D01*
X136309311Y-119546729D01*
X136193475Y-119373368D01*
X135986632Y-119166525D01*
X135812240Y-119050000D01*
X135986632Y-118933475D01*
X136193475Y-118726632D01*
X136310000Y-118552240D01*
X136426525Y-118726632D01*
X136633368Y-118933475D01*
X136806729Y-119049311D01*
X136731208Y-119291603D01*
X137580000Y-120140395D01*
X138428792Y-119291603D01*
X138353271Y-119049311D01*
X138526632Y-118933475D01*
X138733475Y-118726632D01*
X138850000Y-118552240D01*
X138966525Y-118726632D01*
G37*
G04 #@! TD.AperFunction*
D19*
X153013748Y-79665858D02*
X152999605Y-79680000D01*
X153848397Y-80528792D01*
X154090689Y-80453271D01*
X154206525Y-80626632D01*
X154413368Y-80833475D01*
X154587760Y-80950000D01*
X154413368Y-81066525D01*
X154206525Y-81273368D01*
X154090000Y-81447760D01*
X153973475Y-81273368D01*
X153766632Y-81066525D01*
X153593271Y-80950689D01*
X153668792Y-80708397D01*
X152820000Y-79859605D01*
X151971208Y-80708397D01*
X152046729Y-80950689D01*
X151873368Y-81066525D01*
X151666525Y-81273368D01*
X151550000Y-81447760D01*
X151433475Y-81273368D01*
X151226632Y-81066525D01*
X151052240Y-80950000D01*
X151226632Y-80833475D01*
X151433475Y-80626632D01*
X151549311Y-80453271D01*
X151791603Y-80528792D01*
X152640395Y-79680000D01*
X152626253Y-79665858D01*
X152805858Y-79486253D01*
X152820000Y-79500395D01*
X152834143Y-79486253D01*
X153013748Y-79665858D01*
G04 #@! TA.AperFunction,Conductor*
D20*
G36*
X153013748Y-79665858D02*
G01*
X152999605Y-79680000D01*
X153848397Y-80528792D01*
X154090689Y-80453271D01*
X154206525Y-80626632D01*
X154413368Y-80833475D01*
X154587760Y-80950000D01*
X154413368Y-81066525D01*
X154206525Y-81273368D01*
X154090000Y-81447760D01*
X153973475Y-81273368D01*
X153766632Y-81066525D01*
X153593271Y-80950689D01*
X153668792Y-80708397D01*
X152820000Y-79859605D01*
X151971208Y-80708397D01*
X152046729Y-80950689D01*
X151873368Y-81066525D01*
X151666525Y-81273368D01*
X151550000Y-81447760D01*
X151433475Y-81273368D01*
X151226632Y-81066525D01*
X151052240Y-80950000D01*
X151226632Y-80833475D01*
X151433475Y-80626632D01*
X151549311Y-80453271D01*
X151791603Y-80528792D01*
X152640395Y-79680000D01*
X152626253Y-79665858D01*
X152805858Y-79486253D01*
X152820000Y-79500395D01*
X152834143Y-79486253D01*
X153013748Y-79665858D01*
G37*
G04 #@! TD.AperFunction*
M02*
